<?xml version="1.0" encoding="utf-8"?>
<!DOCTYPE svg PUBLIC "-//W3C//DTD SVG 20010904//EN" "http://www.w3.org/TR/2001/REC-SVG-20010904/DTD/svg10.dtd">
<svg version="1.0" xmlns="http://www.w3.org/2000/svg" width="245px" height="76px" viewBox="0 0 245 76" preserveAspectRatio="xMidYMid meet">
 <g fill="none" stroke="#fffffe" stroke-width="0.5">
  <path d="M2.25 0.50C3.75 -0.25 6 0.25 7.50 0.25L19.25 0.25L62 0.25L189 0.25L226.50 0.25L237.50 0.25C239 0.25 241 -0.50 242.50 0.50C244.50 1.25 245 3 245 5L245 16.75L245 61C245 64.75 246.75 73.50 243 75.75C241.75 76.50 239.75 76.25 238.25 76.25L227.50 76.25L186.75 76.25L54 76.25L17 76.25L6.75 76.25C5.50 76.25 3.50 76.50 2.25 76C0 75 0 72.75 0 70.75L0 59.75L0 15.25C0 11.50 -1.75 2.50 2.25 0.50M5.50 5.50C6.25 4.75 8.25 5.25 9.25 5.25L19.50 5.25L59.75 5.25L189 5.25L225 5.25L235.25 5.25C236.50 5.25 238.25 5 239.50 5.50C240.50 6 240 8 240 9L240 20L240 58L240 67.50C240 68.50 240.25 70.25 239.50 70.75C238.75 71.50 237 71.25 236 71.25L226 71.25L185.75 71.25L56.25 71.25L20 71.25L9.75 71.25C8.50 71.25 6.75 71.50 5.50 71C4.50 70.50 5 68.50 5 67.50L5 56.75L5 18.25L5 8.75C5 8 4.75 6 5.50 5.50M34.50 18.25C35.75 17.25 36.25 15.75 37.50 14.75C39.75 13 43.50 12.75 46.25 13.25C51.50 14.25 51.50 20 51.50 24C51.50 25.25 52 27.25 51.25 28.25C50.75 29 47.75 29.25 47.25 28.25C46 26 47.75 22.75 46.75 20.50C45.25 16.75 41 16.50 39.75 20.50C38.50 23.50 40 26.75 42 29C44.75 32 49.50 34.75 51 38.75C51.75 41 51.25 44 51.25 46.25C51.25 51.25 53 59.25 47 61.50C45.75 62 44.50 61.75 43.25 61.75C42 61.75 40.75 62 39.75 61.50C35 59.50 35 55.25 35 50.75C35 49.50 34.75 47.75 35.25 46.50C35.75 45.50 38.50 45.75 39.25 46.50C40.75 48.75 38.75 52.75 40 55.25C41 57 43.25 58.25 45 57C47.25 55 47 52.50 47 49.75C47 47.25 47.50 44.25 46.50 41.75C45.25 38 41.25 35.50 38.50 33C37.50 32 36 28.25 34.50 28C33.50 27.75 33.50 29.25 33.25 29.75C32.75 32.50 32.25 34.75 31 37.25C30 39.25 27.50 41.25 25.75 42.50C24.75 43 22.75 43.50 22.25 44.75C21.75 45.75 22 47.50 22 48.50L22 56.75C22 57.75 22.25 59.50 21.75 60.50C21.25 61.75 18.50 61.50 17.75 60.50C16.50 58 17.75 53 17.75 50.25L17.75 28C17.75 25.25 17 20.75 18 18.25C20 13.50 25 13.75 29.25 13.75C30.25 13.75 32.75 13.25 33.50 14C34.50 14.75 34 17.25 34.50 18.25M115.25 13.50C117.75 12.75 121.25 13.25 123.75 13.25C124.50 13.25 126 13 126.50 13.75C127.75 15.25 126.50 20.50 126.50 22.50C126.50 30.75 126.50 39 126.50 47.25C126.50 52.75 128 59.75 121.25 61.50C117 62.75 111.75 61.25 110.50 56.50C109.50 52.50 110.25 48 110.25 44C110.50 37.75 110.25 31.75 110.25 25.50C110.25 20.75 109.50 15.25 115.25 13.50M193.25 17.25C194.50 13.50 201.50 12 205 13.50C209.25 15.50 212 22.75 210 27C209.50 28.25 206.50 30.75 205.50 28.50C204.25 26.25 205.75 23 204.75 20.50C203.25 16.75 199.50 16.75 197.75 20.25C194 27.75 205.75 32.75 208.50 38C209.75 40 208.25 44.25 209.75 46C210.75 47 214 44.75 215.25 46.50C217.25 49.75 213.25 56.50 219.25 57.25C223.50 58 223 51 223 48.50C223 46.25 223.25 43.75 222.50 41.75C221.25 37.50 216.50 35.25 213.50 32.25C212.25 30.75 211.75 28.75 210.25 27.25M210.25 19.50C211.50 18.25 212 16.50 213.25 15C215 13 220 12.50 222.75 13.50C227.50 15 227.50 20 227.50 24C227.50 25.50 228 27.50 226.75 28.50C225.75 29.25 223.75 29.75 223.25 28.25C222.50 25.75 223.75 22.75 222.75 20.25C221 16.75 217.50 16.75 215.75 20.25C214.25 23 216 27.25 218 29.25C221 32.25 226 35 227 39.25C228 43.25 227.25 48.25 227.25 52.50C227.25 54 227.75 56.25 227 57.75C224.75 62 218.25 63 214.25 60.75C212.25 59.75 211.50 57 210 55.25C208.50 57.50 207.75 61 204.50 61.75C199.75 62.50 194.75 61.50 193.25 56.50C192.75 55 193 53 193 51.50C193 50.25 192.50 47.50 193.25 46.50C194 45.50 197 45.75 197.25 47C198.25 49.50 196.75 53.25 198.25 55.50C199 57 201 58.25 202.75 57C205.25 55.50 205 52.50 205 49.75C205 47.25 205.50 44.25 204.50 41.75C203.50 38.50 200.25 36.25 197.75 34.25C196.75 33.25 194.25 29.50 193 29.50C191.75 29.75 190.75 34.25 190.25 35.25C189.25 36.75 187.50 38.25 187 40C185.50 46.50 188.75 54 187 60.25C186.50 61.50 184 61.50 183 61C182.25 60.75 182.50 59.25 182.50 58.50L182.50 50.75C182.50 47.50 183.50 42.50 182.25 39.50C181.50 37.25 179.25 35.50 178.25 33.25C177.25 31.25 177.25 29.50 175.75 27.75C174.75 29.25 175.25 30.75 174.75 32.25C174.50 33.25 173.75 34.25 173.75 35.50C173.75 36.75 174.75 38 175 39.50C175.25 43 175 46.75 175 50.25C175 52.50 175.50 55.50 174.50 57.50C172.25 61.75 167.25 61.25 163.25 61.25C162 61.25 159.25 61.75 158.75 60.25C157.50 57.25 158.75 52.50 158.75 49.25L158.75 28C158.75 25.25 158 21.25 159 18.50C160.75 13.50 166.25 13.75 170.50 13.75C172 13.75 174.50 13.25 175.25 14.50C176 15.50 175.75 17.25 175.75 18.25L175.75 27.75M59.25 14C61.25 13.25 70 12.75 67.25 17.25C66.25 18.75 62 17.75 60.50 18.75C57.25 20.75 58 25.50 58 28.75C58 30 57.75 31.25 58 32.50C58.50 33.50 59.75 33.25 60.50 33.25C62.50 33.25 68.25 32.25 68 35.75C67.50 38.75 62.75 37.75 60.75 37.75C60 37.75 58.50 37.50 58.25 38.25C57.75 39.50 58 41.25 58 42.50L58 52.75C58 53.75 57.50 56.25 58.50 57C60.50 58.75 65.50 56.25 68 57.50C69 58 68.50 60.50 67.50 61C64.75 62.25 60 61.25 57.25 61.25C56.25 61.25 54.75 61.75 54 61C52.50 58.75 53.75 54 53.75 51.50C54 43.25 53.75 35.25 53.75 27C53.75 21.75 52.75 15.75 59.25 14M91.50 14C92.25 13.25 94.50 13.75 95.50 13.75C99.50 13.75 104.75 13.25 106.75 17.50C108 20.25 107.25 24.50 107.25 27.50L107.25 49.50C107.25 52.50 108 57.25 105.50 59.25C102.50 61.75 98.25 61.25 94.75 61.25C93.75 61.25 91.75 61.75 91.25 60.75C90 58.50 91 53.75 91 51.25L91 28L91 17.50C91 16.75 90.75 14.50 91.50 14M144.25 14C146.50 13.25 149.50 13.75 151.75 13.75C152.50 13.75 153.75 13.50 154.25 14.25C154.75 14.75 154.50 15.75 154.50 16.50L154.50 22.75L154.50 47L154.50 57.75C154.50 58.75 155 60.75 153.50 61.25C152.75 61.25 150.75 61.50 150.25 60.75C149.50 60 150 58 150 57L150 46.75C150 45.75 150.50 42.75 149.25 42.25C148.25 42 144 41.75 143.25 42.75C142.50 43.50 143 45.50 143 46.50L143 56.50C143 58.75 143.50 61.25 140.50 61.25C140 61.25 139.50 61.25 139.25 60.75C138.25 60 138.50 58.75 138.50 57.75C138.50 55 138.75 52.25 138.75 49.50L138.75 28.75C138.75 25.75 138 21.75 138.75 18.75C139.50 16.50 142 14.50 144.25 14M71.25 14.25C71.50 14 72.25 14 72.75 14C76.25 14 75 18.50 75 21L75 49.50C75 51.75 75.50 59 79.75 57.25C83.25 55.75 82.50 51.75 82.50 48.75C82.50 40.50 82.75 32.25 82.75 24L82.75 17C82.75 16.25 82.50 15 83 14.50C83.50 13.75 84.50 14 85.25 14C88.25 14 87 22 87 24.25L87 51C87 53.75 87.50 58.75 84.50 60.25C80 63 73 62.50 71.25 56.75C69.75 52.50 70.50 47.50 70.75 43.25C71 38.25 70.75 33 70.75 28L70.75 17.75C70.75 17 70.50 14.75 71.25 14.25M175.75 14.50C176.75 14 180 13.25 180.75 14.50C181.50 15.75 181 18 181 19.25C181.25 22.75 181 26.25 182.25 29.50C184 33 185.25 34 187 30C187.50 29.25 187.75 28.25 188 27.50C188.25 26 188.50 24.50 188.50 23C188.75 20.50 188 17.25 188.75 14.75C189.25 13.75 191.75 13.75 192.50 14.25C193 14.50 193.25 15.50 193.50 16M120 17.25C123.25 17 122 23.50 122 25.75L122 50C122 52.75 122.25 57 118.50 57.50C114 58 114.75 50.75 114.75 48.25C114.75 42.25 114.75 36 114.75 30C114.75 27.50 114 24.50 114.50 22C115.25 19 117.25 17.75 120 17.25M22.25 38.25C21.25 34.75 22 30 22 26.25C22 24.50 21.75 22.75 22.50 21.25C23.50 19.50 27 16.25 29.25 18C30.25 18.75 29.50 22 29.50 23C29.50 28.50 27.75 36 22.25 38.25M95.75 17.75C98.25 18.50 100.50 17.75 102.25 20.50C103.75 22.75 103 26.75 103 29.25C103 36.75 103.50 44.25 103 51.75C102.75 54.50 99.50 58.50 96 57C95 56.75 95.50 54.50 95.50 53.75L95.50 43.50L95.50 33C95.50 28.25 94.50 22.25 95.75 17.75M168.50 17.75C171.25 17.50 170.50 20.25 170.50 22C170.50 25.25 171.75 32.25 167.25 33.25C166.25 33.25 164 33.75 163.25 32.75C162.50 32 163 29.50 163 28.25C163 23.50 162.75 18.75 168.50 17.75M147.75 18C148.50 18 149.50 17.75 149.75 18.50C150.50 19.75 150 21.75 150 23L150 33.25C150 34.50 150.50 37.75 149 38.25C148 38.50 144 38.75 143.25 37.75C142.50 36.75 143 33.50 143 32.25C143 27.50 141.25 19.25 147.75 18M34.50 18.25L34.50 27.50M192.25 24.25L193 29M163.50 38C165 36.75 169 38.25 169.75 39.75C171.25 43 170.75 48.75 170.50 52.25C170.50 53.50 170 55.25 169 56C167.75 56.75 163.75 58 163.25 56.25C162.75 55 163 53.50 163 52.25L163 43.75C163 42.50 162.50 38.75 163.50 38M210 46.50L210 55.25"/>
 </g>
 <g fill="none" stroke="#40e4e3" stroke-width="0.5">
  <path d="M68.25 15C69 14.75 70 14.75 70.25 15.25C71 16.50 71 22.75 70 23.50C69 24.25 67.25 24.25 66.25 24.25C63.50 24.25 56.50 25 58.50 20C59.75 17 63.75 18.50 66.25 17.50C67.25 17 67.25 15.75 68.25 15M79.75 15C80.50 15 81.50 14.75 82 15.25C82.75 15.75 82.50 16.75 82.50 17.25C82.50 18.75 83 21.75 82.25 23.25C81.75 24 80.25 24 79.25 24.25C75 24.50 75 22.50 75 19C75 18 74.75 16.50 75.25 15.75C76 14.75 78.75 15.25 79.75 15M87.75 15.25C88.25 14.75 90.50 14.75 90.75 15.50C91.75 17.25 91 20.75 91 22.75C91 23.50 91.25 24.50 90.50 25C89.25 25.75 87.75 25 87.25 23.75C86.50 22.25 87.25 19.75 87.25 18C87.25 17.25 87 15.75 87.75 15.25M185.75 15C189.25 14.75 188.50 17.50 188.50 20.25C188.50 21.50 189 23.50 187.25 23.75C186 24 182.25 24.25 181.50 23.50C181 23 181 22.25 181 21.75C181 20.50 180.25 16.25 181.50 15.50C182.25 14.75 184.75 15.25 185.75 15M7.50 15.50C8 15 9 15.25 9.75 15.25L16 15.25C16.75 15.25 18 15 18.50 15.50C19.25 16 18.75 17 18.75 17.50C18.50 19 18.25 22.50 17 23.50C15.50 24.75 11.50 24.50 9.50 24C8.75 24 7.75 24 7.25 23.25C6.75 22.50 7 20.50 7 19.50C7 18.50 6.50 16.25 7.50 15.50M51.25 15.50C54.75 12.75 56 18.75 53.75 20.75C50.75 23.25 49.75 16.50 51.25 15.50M106.75 15.50C107.25 15.25 108 15.25 108.50 15.25C112.25 15.25 111 18.50 110.25 21.25C110.25 22.25 110 23.50 109.25 24C108.75 24.25 108 24.25 107.50 23.75C107 23.25 107.25 22.25 107.25 21.50C107 20 105.25 16.50 106.75 15.50M127 15.50C127.50 15 129 15.25 129.75 15.50C132 15.75 134.50 15.50 136.75 15.50C137.50 15.50 138.75 15.25 139.25 16C140.25 16.75 139.25 22.75 138 23.50C136.25 25 128.75 25 127 23.25C126.25 22.50 125.75 16.25 127 15.50M155 15.50C155.25 15.25 156.25 15.25 156.75 15.25C160.25 15.25 159.50 17.75 159 20.50C158.75 21.25 158.75 23 158 23.50C154.50 26.25 154.50 19.75 154.50 18C154.50 17.25 154.25 16 155 15.50M227.25 15.50C228.50 14.50 233.50 15.25 235.25 15.25C236 15.25 237 15 237.50 15.50C238.25 16 238 17 238 17.50C238 19 238.75 22.50 237.50 23.50C235.75 25 230 24.75 228.25 23.50C227.25 22.50 227.25 21.25 227 20C227 19 226.25 16.25 227.25 15.50M41.25 17.50C43.75 16 47 18 47 20.75C47 21.50 47.25 23 46.50 23.50C45.25 24.25 40.50 24 39.75 22.75C38.75 21.50 39.75 18.25 41.25 17.50M115.50 17.50C116.50 16.75 120.75 17 121.50 17.75C122.50 18.50 122.25 22.25 121.50 23C120.50 23.75 116.75 24.25 115.75 23.25C114.75 22.50 114.50 18.25 115.50 17.50M199.25 17.50C201.75 16 205 18 205 20.75C205 21.50 205.25 23 204.50 23.50C203.25 24.25 198.50 24 197.75 22.75C196.75 21.50 197.75 18.25 199.25 17.50M217.25 17.50C219.75 16 223 18 223 20.75C223 21.50 223.25 23 222.50 23.50C221.25 24.25 216.50 24 215.75 22.75C214.75 21.50 215.75 18.25 217.25 17.50M27.50 17.75C30.50 17.50 30.25 23 28.25 23.25C27 23.50 24.25 23.75 23 23C21.50 22.25 22.75 19 23.75 18.50C24.75 17.75 26.25 18 27.50 17.75M96 18C96.50 17.50 97.75 18 98.50 18C101 18.25 102.50 18.25 102.75 21C103 21.75 103.25 22.75 102.50 23.25C101.75 24.25 96.50 23.75 95.75 22.75C95.25 22.25 95.50 21.25 95.50 20.50C95.50 19.75 95.25 18.50 96 18M149.75 17.75C150.75 21.50 149.75 23.25 146 23.50C145.25 23.50 144 24 143.50 23.50C141.50 22.25 144 18.75 145.50 18.25C147 17.75 148.25 18 149.75 17.75M168.50 17.75C170.75 17.50 171.25 21 170.25 22.75C169.75 23.50 168 23.50 167 23.75C164.25 24 162 21.50 164 19C165.25 17.75 167 18 168.50 17.75"/>
 </g>
 <g fill="none" stroke="#bd49e9" stroke-width="0.5">
  <path d="M75.25 61.50C77.25 61.50 80.25 61 82.25 61.50C83.25 61.75 83.50 63 84.75 63.25C87.75 63.75 91.25 63.25 94.25 63C95.75 63 97.75 63 99 62.50C100.25 62 101.75 60.25 103 60.25C104.75 60.50 103.50 63 105.50 63.50C107.75 63.75 110.75 64 113 63.25C114.50 62.75 114.25 61.50 116.25 61.50C118 61.50 120 61 121.75 61.50C123 62 123.75 63.25 125.50 63.50C129 64 132.75 63.50 136.25 63.50C141 63.50 145.50 63.25 150.25 63C152.25 63 154.25 63.25 156.25 63C157 62.75 157.50 62 158.25 61.75C159.25 61.50 160 62.25 160.75 62C161.75 62 162.25 61.25 163.25 61.25C164.50 61.25 164.50 62.75 166 62.75C167.25 62.75 167 61.75 168 61C168.50 60.50 170 60.50 170.75 60.50C172.50 60.75 171.50 62.25 172.50 63C173.25 63.75 175.25 63.75 176.25 63.75C178.75 64 181.25 63 184 63C187.25 63 190.75 64 194 63.75C196 63.50 196.75 62.25 198.25 61.75C199.75 61.50 202.25 61.50 203.75 61.50C205 61.50 205.25 62.25 206.25 62.75C207.50 63.50 209 63.50 210.50 63.50C214.75 63.50 218.25 60.25 222.75 61.50C223.50 61.75 223.75 62.75 224.50 63C227.50 64.25 231.75 63.50 234.75 63.50C236 63.50 237.75 64.75 238 66C238.50 70.75 231.75 69.25 228.50 69.25L197 69.25L62 69.25L20.25 69.25L10.50 69.25C9.75 69.25 7.50 69.75 7.25 68.75C6.75 67.75 6.75 64.50 7.50 64C8 63.50 9.75 63.75 10.50 63.50C13.75 63.25 17.25 63.25 20.50 63.25C24.75 63.25 29.50 64.25 33.75 64C38 63.50 41.25 61.50 45.50 61.50C47 61.50 47.75 62.25 49 63C50 63.25 51.25 63 52.25 63C54.75 63 58 63.25 60.50 62.75C62 62.25 62 61 64 61.25C64.75 61.50 64.75 62.25 65.50 62.50C66.50 63 70.25 63.50 71 62.75C71.75 62.25 71.25 61.25 72 60.75C73.25 60 74.75 60 75.25 61.50M74.75 61.75C71.75 64 76.25 64.50 74.75 61.75"/>
 </g>
 <g fill="none" stroke="#c943e1" stroke-width="0.5">
  <path d="M102 63C103.75 62 103 61.50 103.75 60C104.25 59.25 105.25 59.25 105.75 58.50C106 58 106 57.25 106.50 57C108 55.75 108.25 58.25 109 58.50C110 59 111.25 58.50 112.25 59C114 59.75 115.25 61.75 116.50 63C114.25 65.25 106.75 65.25 103.50 64.50C102.50 64.25 102 63 101.25 63C100 62.75 98 63.75 96.75 64C92.75 64.25 88.50 64.50 84.50 64.50C83.50 64.50 82.50 64.50 81.75 64C80.25 63 80.50 60.75 78 62.50C76.50 61.25 72.50 57.75 70.75 57.75C68.50 57.75 69 59.50 67.75 60.75C66.75 61.50 65.25 60.75 64.25 61.50C63.50 62 63.75 63.50 62.75 64C61.75 64.50 59.75 64.25 58.50 64.25C54.75 64.25 47.50 65.25 44.50 62.75C46.25 61 50 57 53 58.50C54.25 59 53.75 60.75 55.50 61.25C58.25 61.75 61.50 60.25 63.75 62M171 60.25L167.50 61L167.25 61.25C167.75 61.75 168.25 63.25 169 63.25C171 63.50 172 61.50 171 60.25C173.25 58.75 176.50 59.25 179 59.25C180 59.25 181.25 59 182.25 59.50C183 59.75 183.25 61 184.25 61.25C186.25 61.75 186.25 59.75 187.50 59.25C189 58.50 192.75 58.75 194.50 59C198 59.75 199.75 63.75 203.25 64.25C205.25 64.50 205.25 62.25 204.50 61C206.75 59.25 208 57.50 211 57.75C214 58 216 62.25 218.75 62.75C220.25 63 222.50 60.75 223.75 60.25C226.50 58.75 231.50 59.75 234.50 59.75C235.25 59.75 237.50 59.25 237.75 60.25C238.25 61.25 238.50 65.25 237.50 65.75C236.25 66.25 235 64.50 233.75 64.50C229.75 64.50 222.75 66 219.50 63M81.75 64.25C82.75 63.25 82.75 62.50 82 61.25C84.75 59.25 87 57.25 90.50 59.25C91.25 59.75 91.75 61 92.75 61.25C95 62 98.75 61.25 101 61.25L101 61.75L101 62L101 62.25L101 62.50M121.50 61.25L118.50 63C120.25 64.75 123.25 63.75 121.50 61.25C124.25 59.25 128.25 60 131.50 59.75C133.50 59.75 135.75 59.25 137.75 59.50C139 59.75 139.25 61.25 140.75 61.25C142.25 61.25 142.50 60 143.75 59.50C145 59 147.25 59.25 148.75 59.25C150.50 59.50 151 61.75 153.25 61.25C154.75 60.75 154.50 58.50 156 58.25C158.50 57.75 158.50 60 160 61.50L159.75 61.75C158.50 62 157.75 62.75 157.75 64L164.50 63.75L164.75 63.50C164 62 164 61.25 162 61.25L162.50 63.75M42 62.75C40.75 65.50 35.75 64.50 33 64.50L17.25 64.50C14 64.50 10.25 64.25 7.25 65.25C7 64.25 6.50 60.75 7.50 60.25C9.25 59.25 15.25 59 17 59.75C18 60 18.50 61.25 19.75 61.25C21.25 61.25 21.50 60 22.75 59.50C25.50 58.75 29 59.75 31.75 59.50C33.25 59.25 35 58.50 36.50 58.75C39.75 59.50 41 63 44.50 62.75M73.75 60L73.25 60.75L73.75 61.25L74.50 60.50M101 61.25L103.25 60.25M113.75 60.25L113 61L114.25 60.75M73.25 60.75C72.50 62.75 74.25 62.25 75.25 61.25M46.50 61L47 63.25M169.25 61L169.75 62.75M201.50 63.25L204.50 61M222.50 61C223.50 62.25 223.25 63 222.25 64.25M73.25 62.50L72.75 63.50C72 62.50 71.50 62 72.75 61.25M73.75 61.25L73.75 62.25M80.75 61.50L82 61.25M159.75 61.25L159.75 63.75M164.50 61.25L167.25 61.25M160 61.50L161.75 61.50M45.75 61.75L47 63M80.25 62C80 63.50 79.25 64 78 63.25C76.50 64.50 74.75 64.25 73 64.25C70 64.25 66.75 64.75 64 63.75M74.75 62.50L75 64M78 62.50L78 63.25M116.50 63L118.50 63M200.25 63C198.25 65 195.75 64.50 193 64.50L177 64.50C174.75 64.50 171.75 65 169.75 63.50M218.25 63C215.75 65.50 207.75 65.25 204.50 64.25M72.75 63.50L72.75 64M165 63.75L168.25 63.50M79.75 64.25L81.25 64.50M121.50 64.25L132.75 64.50L157.50 64.25"/>
 </g>
 <g fill="none" stroke="#c4e442" stroke-width="0.5">
  <path d="M40.50 35.25C42.50 35 46 38.25 46.75 40.25C47.50 42 47 43.75 45 44.25C40.75 45 35.50 45 31.25 44.50C30.25 44.25 27.75 44.75 27 43.75C26 42 27.50 40 28.50 39C29.25 38 30.25 36.50 31.25 36.25C33.75 35.25 37.75 35.75 40.50 35.25M68.25 35.50C71.50 33.75 70.50 40.25 70.50 41.75C70.50 42.50 70.75 43.50 70 44C68.25 45.25 63.25 44.25 61 44.25C60.25 44.25 59 44.50 58.50 44C57.50 43.50 57.75 39 58.25 38.25C59.25 36.75 64.25 38 65.75 37.75C67 37.50 67.25 36 68.25 35.50M178 35.25C181.25 35 182.50 38.25 182.50 41C182.50 42.25 182.75 44 181.25 44.25C180 44.50 176.25 44.75 175.50 43.75C174.50 43 174 37 175 36.25C175.50 35.25 177 35.50 178 35.25M216.75 35.25C219.25 35 224.75 40.75 222.50 43.50C221.75 44.50 219.50 44.25 218.25 44.50C216.25 44.75 212.50 45.50 210.50 44.50C209 43.50 207.50 37.50 209.25 36.25C210.50 35.25 215 35.50 216.75 35.25M195.75 35.50C199.50 35.25 201.50 36.25 204 39C205.50 40.75 205.50 43.75 203 44.25C199.25 44.75 195.50 44.50 191.75 44.50C190.50 44.50 188.50 44.75 187.50 44C186.75 43.50 187 41.75 187 41C187 40.25 186.75 39 187.25 38.25C188.25 35 193 36 195.75 35.50M75.50 36C76.25 35.25 81.50 35.25 82.25 36.25C83 37 82.50 39.25 82.50 40.25C82.50 41.25 83 43.25 82 44C81 44.50 76 44.75 75.25 43.75C74.50 43 75 40.75 75 39.75C75 38.75 74.50 36.75 75.50 36M88.25 36C89.50 35.25 90.50 36 90.75 37.25C91.25 39 91.75 44 89.75 45C89 45.50 88 45.25 87.50 44.50C86.75 42.50 86.25 37.25 88.25 36M96 36C96.75 35.25 102 35.25 102.75 36.25C103.50 37 103 39.25 103 40.25C103 41.25 103.50 43.25 102.50 44C101.50 44.50 96.50 44.75 95.75 43.75C95 43 95.50 40.75 95.50 39.75C95.50 38.75 95 36.75 96 36M7.50 36.25C8.75 35.25 13.25 36 15 36C15.75 36 16.75 35.75 17.25 36.50C18 37.25 17.50 39.50 17.50 40.50C17.50 41.50 17.75 43.25 17 43.75C16 45 11.25 44.25 9.50 44.25C8.75 44.25 7.75 44.50 7.25 43.75C6.50 43 7 41 7 40C7 39 6.50 37 7.50 36.25M115.25 36.25C116.25 35.75 121 35.50 121.75 36.50C122.50 37.25 122 39.25 122 40.25C122 41.25 122.50 43.25 121.50 44C120.50 44.50 115.50 45.25 114.75 44.25C113.75 43.25 114 37 115.25 36.25M127.25 36.25C129 35.25 133.50 36 135.50 36C136.25 36 137.50 35.75 138 36.25C139 37 139 43.25 138 44C136.25 45.25 131.50 44.50 129.50 44.50C128.75 44.50 127.50 45 127 44.50C126.25 44 126.50 43 126.50 42.50C126.50 41 125.75 37.25 127.25 36.25M227.25 36.25C228.75 35.25 233.25 36 235.25 36C236 36 237 35.75 237.50 36.25C238.50 37 238.50 43.25 237.50 44C236 45 232 44.25 230.25 44.25C229.50 44.25 228.50 44.50 228 44C226.75 43 225.75 37.25 227.25 36.25M155.50 36.50C159 33.75 159.50 42.50 158 43.50C153.75 46.25 153.50 38 155.50 36.50M108 37C108.50 36.50 109.75 36.75 110 37.50C110.25 38.75 110.50 43.25 109.50 44C107 45.75 106.75 37.75 108 37M51.50 38C52.75 37 54.25 39 53 40C51.50 41 50.25 39 51.50 38M163.50 38C164 37.50 165 37.75 165.75 37.75C168.50 37.75 170.50 38 170.50 41.25C170.50 42 170.75 43.50 170 44C169 44.50 164 44.75 163.25 43.75C162.75 43.25 163 41.75 163 41C163 40.25 162.75 38.50 163.50 38"/>
 </g>
 <g fill="none" stroke="#e244a9" stroke-width="0.5">
  <path d="M85.25 59.50C85.75 57.50 86.75 52.50 89.25 52.25C90.50 52.25 90.50 53.25 90.75 54.25C91 56.25 91.50 59 90.50 60.75C88.25 59.50 86 59.25 83.75 60.75M107.50 59.50C109 57.50 105.75 56 107.50 54.25C110 51.25 110.50 55.25 111 56.75C111.50 57.50 112.25 58.50 111.75 59.50C111.25 60 110.50 60 109.75 60C107.50 59.75 105.50 60 103.25 60.25M175.50 54C176.50 53.50 181.50 53.25 182.25 54.25C182.75 54.75 182.50 56.50 182.50 57.25C182.50 58 182.75 59.75 182 60.25C180.75 61.25 176.25 60.50 174.50 60.50C174 60.50 172.75 60.75 172.25 60C171.75 59 173.75 57.25 174.25 56.50C174.50 55.75 174.75 54.50 175.50 54M187.75 60.25C186.75 59.50 186.50 55.25 187.25 54.25C187.75 53.50 188.75 53.75 189.50 53.75C192.25 53.75 192.75 54.25 194 56.75C194.50 57.50 195.50 59 194.75 59.75C193.25 61.50 188.25 58.25 187.75 61.25M7.25 61.25C6.75 60 6.25 55.50 7.25 54.50C7.75 53.75 8.75 54 9.50 54C11.25 54 15.75 53.25 17 54.25C18 55 18.25 59.75 17.25 60.50C16.50 60.75 15.25 60.50 14.50 60.50C12 60.75 9.50 60.75 7.25 61.25M22.25 61C21.75 59.75 21.25 55.50 22.25 54.50C22.75 53.75 24.50 54 25.25 54L32 54C32.75 54 34.25 53.75 34.75 54.25C35.75 54.75 37 58.75 36 59.50C35.50 60.25 34.25 60 33.50 60.25C29.75 61.25 25.75 60 22.25 61M123.50 60.75C123.75 59.50 125.75 54.75 127 54.25C128.75 53.50 131.75 54 133.50 54C134.75 54 137.25 53.50 138 54.25C139 55 139.25 59.50 138.25 60.25C137.75 60.75 135.75 60.50 134.75 60.75C131 61 127 60.75 123.25 61M149.50 60.50C148.25 60 144 61 143.25 60C142.75 59.50 143 58.25 143 57.50C143 56.75 142.75 55 143.25 54.50C144 53.50 148.75 53.75 149.50 54.25C151 55.25 150 59.50 150.25 61M155 60.75C155 59 154 56.25 155 54.50C155.25 53.75 158 53.75 158.25 54.50C159.25 56.50 157.75 59.25 158.75 61M225 60.25C225.25 59 226.75 54.75 228 54.25C229.50 53.50 232 54 233.50 54C234.50 54 236.75 53.50 237.50 54.25C238.75 55.25 238 60.25 237.25 61.25C234.75 60 230.25 61 227.50 61C226.25 61 225 60.75 224 61.25M50.25 59.25C50.25 58.50 50.25 58 50.50 57.25C51.75 52.50 56 57.50 53.25 59.50C52.50 60.25 50.75 59.50 49.75 59.75M208.25 58.50C208.50 57.75 208.50 57 209 56.25C211 53.75 212 57.25 212 58.75C210.25 58.75 208.75 58.50 207.75 60M71.50 58.25L69 59.75C68.25 58.25 68.50 56 70.75 57C71.50 57.25 71.75 58.25 72.25 59M106.50 56.75L105.50 59.50M212 58.75L213.25 59.75M69 59.75L66.50 65M155.25 59.75L158 59.75"/>
 </g>
 <g fill="none" stroke="#e6a343" stroke-width="0.5">
  <path d="M37.75 44.25L46.50 42.50C47.25 43.75 47.75 48.75 46.50 49.75C45.75 50.75 41 50.50 40 50C39 49.50 38.75 46 37.75 45C37 45.75 35.75 46 35.25 47C34.75 48 35.50 49.50 34.25 50C32 51 27.75 50.25 25.25 50.25C24.50 50.25 23 50.50 22.50 50C21.75 49.50 22 48 22 47.25C22 44.25 23 42 26.25 41.25C28 41 27.50 42.25 28.50 43C29.25 43.50 30.75 43.25 31.50 43.25C33.50 43.25 36.25 43 37.75 44.25M87.50 42L87.50 43.50C88.50 43.25 89.75 43 90.50 43.75C91.50 44.50 91.50 49.75 90.25 50.75C89.25 52 87.50 51 87.25 49.75C87.25 48.75 87.25 47.75 87.25 46.75C87 45.50 87 44.50 87.50 43.50M143.50 42.50C144.25 42 149 41.75 149.75 42.75C150.50 43.50 150 45.50 150 46.50C150 47.50 150.25 49.25 149.50 50C148.50 50.50 144 50.75 143.25 49.75C142.50 49 143 47 143 46C143 45.25 142.75 43 143.50 42.50M154.75 42.25C155.50 42.50 157.75 42.25 158.25 43C159 43.75 159 49 158 49.75C156.75 51 154.75 49.25 154.50 48C154.50 47 154.50 46.25 154.50 45.25C154.50 44.25 154.50 43.25 154.75 42.25M204.50 42.50C205.25 43.75 205.75 48.75 204.50 49.75C203.75 50.75 199 50.50 198 50C197.25 49.75 197.50 48.25 197.25 47.50C197 46.25 196.25 45.50 195.50 44.75C194.75 45.50 193.50 46.25 193.25 47.25C193 48 193.25 49.25 192.50 49.75C192 50.50 191 50.25 190.25 50.25C189.50 50.25 188 50.50 187.50 50C186.25 49 187 44.50 187 43L187.25 42.75C189.75 43.75 193.25 42.50 195.50 44.50L204.50 42.50M7.25 42.75C9.25 43.75 12 43.25 14.25 43.25C15 43.25 16.50 42.75 17 43.25C18 44 17.75 49.25 17 49.75C16 51 11.25 50.25 9.50 50.25C8.75 50.25 7.75 50.50 7.25 49.75C6.25 48.75 6.75 44 7.25 42.75M58.25 42.75C60.75 43.75 64.25 43.25 67 43.25C67.75 43.25 69.50 42.75 70 43.25C71 44 70.75 49.25 70 49.75C69.50 50.50 68.25 50.25 67.50 50.25L61 50.25C60.25 50.25 58.75 50.50 58.25 49.75C57.25 48.75 57.75 44 58.25 42.75M75.25 42.75C77.25 43.50 80.75 42.25 82 43.25C83 44 82.75 49.25 82 49.75C81.50 50.50 80 50.25 79 50.25C78 50.25 76.25 50.50 75.50 50C74.25 49 75 44 75.25 42.75M95.75 42.75C97.75 43.50 101.25 42.25 102.50 43.25C103.50 44 103.25 49.25 102.50 49.75C102 50.50 100.50 50.25 99.50 50.25C98.50 50.25 96.75 50.50 96 50C94.75 49 95.50 44 95.75 42.75M163.25 42.75C165.25 43.75 168.75 42.25 170.50 43.25C171.25 43.75 170.75 49 170 49.75C169.50 50.50 168 50.25 167 50.25C166 50.25 164.25 50.50 163.50 50C162.25 49 163 44 163.25 42.75M175.25 42.75C177.25 43.50 180.75 42.25 182 43.25C183 44 182.75 49.25 182 49.75C181.50 50.50 180 50.25 179 50.25C178 50.25 176.25 50.50 175.50 50C174.25 49 175 44 175.25 42.75M214.25 45.75L214.50 43.75C216.25 43.25 218.50 43.50 220.50 43.25C221 43 222 42.75 222.50 43C223.50 43.75 223.25 49.50 222.25 50C221.25 50.50 216.50 50.75 215.75 49.75C215.25 49.25 215.50 47.75 215 47C214.75 46.25 211.75 43.75 211 43.50C209.50 43 209 45.25 210 46C210.50 46.50 212 46 212.75 46M227.75 42.75C229.75 43.75 232.50 43.25 234.75 43.25C235.50 43.25 237 42.75 237.50 43.25C238.50 44 238.25 49.25 237.50 49.75C236.50 51 231.75 50.25 230 50.25C229.25 50.25 228.25 50.50 227.75 49.75C226.75 48.75 227.25 44 227.75 42.75M108.50 43.25C110.50 42.75 110.75 50.25 109 50.75C106 51.25 106.50 43.75 108.50 43.25M121 43.25C122.50 43.25 122.50 48.75 121.75 49.75C121 50.75 116.75 50.75 115.50 50.75C114 50.50 114 44.50 114.75 43.75C115.25 43 120 43 121 43.25M137.50 43.25C139 43.25 139 49 138 49.75C137.50 50.50 136 50.25 135.25 50.25C132.75 50.25 129.75 51.25 127.25 50.75C126 50.50 126 44.25 127 43.50C127.50 43 129 43.50 129.75 43.50C132.25 43.50 135 43 137.50 43.25M88 43.50C89 44.75 88.50 45.50 87.25 46.50M212.25 43.75L214.50 43.75M37.75 44.25L37.75 45M88.75 45.75L88.75 46.50"/>
 </g>
 <g fill="none" stroke="#4584e6" stroke-width="0.5">
  <path d="M69.25 13.50C69.25 14.25 69 15.75 68 15.50C67.25 15.50 66.75 14.25 66 14C64.50 13.50 62.25 13.75 60.75 14C58.25 14.50 56.25 17 54 17C52.75 16.75 51.25 17.25 50.25 16.75C49.25 16.25 48.75 15.25 47.75 14.75C46.25 13.75 44.25 13.25 42.50 13.25C39.50 13.25 37.75 17.25 35 16.75C33.75 16.50 34.25 15 33.25 14.25C31.75 13.50 28.50 13.75 26.75 13.75C23.50 13.75 22 16 19.25 16.75C18.25 17 17.50 16.25 16.50 16.25C14 16.25 10 17 7.50 16.25C6.75 16 7 14.75 7 14.25C7 12.50 6.50 9.50 7.25 7.75C7.50 6.75 9.75 7.25 10.50 7.25L20.25 7.25L61.75 7.25L194.50 7.25L227 7.25L235 7.25C235.75 7.25 237.25 7 237.75 7.75C238.25 8.50 238 10.25 238 11.25C238 12.25 238.50 15.25 237.50 16C237 16.50 235.50 16.25 234.75 16.25C232 16.25 228 17.25 226 15.25L225.25 16L227.50 17M87.25 16.50C88.25 15.75 89.25 16.25 90.25 15.75C91 15.50 91 14.50 91.75 14.25C94.25 13 99.25 13.50 101.75 14.50C103.25 15 104.75 17 106.50 17C107.50 17 110.50 17 111.50 16.75C114 15.50 115.25 13.50 118.25 13.25C120 13.25 124 13 125.75 13.75C126.75 14 126.25 15.50 127 16C127.50 16.75 130 16.50 131 16.50C133 16.50 135.25 16.25 137.25 16.50C138.25 16.50 139 17.25 140 17C141.25 16.75 142 15.50 143.25 14.75C145.75 13.50 149.75 13.25 152.50 13.75C154 14 153.75 15.50 155 16.25C155.50 16.50 156.75 16 157.50 16.25C158.25 16.50 158.25 17.25 159 17.50C160.75 18 162.25 15.25 163.75 14.75C167.25 13.50 170.50 14 174 14C175.75 14 177.75 13.75 179.50 14.50C180.50 14.75 180.75 15.75 181.25 16.75L188 16.25L187.50 20.50M188 16.25C188.50 15.50 189 14.50 189.75 14C191.75 12.75 193 16 195 15.75C196.50 15.50 197.50 14.25 198.75 13.50C200.25 13 203.25 13.25 204.50 14C206.50 15 208 19 210.25 19.25C212 19.25 213 16.50 214 15.50C217.50 12.25 222 12.75 225.25 16.25M69.75 20C69.75 19 69.50 17.25 69.75 16.25C70.50 14.75 73 12.75 74.50 14.50C75 15.25 75 16 75.25 16.75L82 16.25L81.50 20.50M82 16.25C83.25 14.75 86.50 12 87 15.75M49.25 16L50 15.25L51.50 16.75M68.50 16.25L69.50 16.25"/>
 </g>
 <g fill="none" stroke="#46e47d" stroke-width="0.5">
  <path d="M17.50 20C17.25 24.50 10.25 23.50 7.25 22.25C6.75 23.75 6.25 29 7.25 30.25C8 31.50 11 31 12.25 31C13.50 31 15.75 31.75 17 31C17.75 30.50 17.50 29.25 17.50 28.50C17.50 26.50 18.25 24.25 17.25 22.25M138.50 20C137.75 25 130 23.50 126.75 22C126 24.25 126.50 27.25 126.50 29.50C126.50 30.25 126.25 31.50 127 32C128.25 33 129.25 30.75 130.50 30.75C132.50 30.75 135.75 32 137.75 31C138.75 30.75 138.50 29.50 138.50 28.75C138.50 26.75 139.25 24.25 138.25 22.25M170 20C169.75 23.25 165.50 23 163.75 21.25C162.50 23 163 25.75 163 28C163 28.75 162.75 30 163.50 30.50C164.25 31.50 169.50 32.25 170.25 31.25C171 30 170.50 27.25 170.75 26C170.75 24.50 171 22.75 170 21.50M102.50 20.25C102.50 23.75 98 22.75 95.75 21.75C95 24 95.50 26.50 95.50 28.75C95.50 29.50 95.25 30.50 96 31C96.50 31.50 98 31 98.75 31C99.75 31 101.75 31 102.50 30.25C104 29 103.25 23.25 102.25 22M115.25 20.50C115.75 23.25 119.75 23 121.50 22C122.25 23.25 122.75 28.75 121.50 29.75C120.75 30.50 119.50 30 118.50 30.50C117.50 31 116.50 32.75 115 32C114.25 31.75 114.50 30.25 114.50 29.50C114.50 27 114 24 115 21.75M22.75 21C23.75 22.50 25.25 22.25 27 22.25C27.50 22.25 28.75 21.75 29.25 22.25C29.75 22.75 29.50 24 29.50 24.75C29.25 27 29 29.25 28.50 31.50C28.25 32.25 28.25 33.50 27.25 33.75C25.25 34.25 26 32.25 25 31.50C24.25 30.75 22.75 31 22.25 30.25C21.75 29.75 22 28.75 22 28C22 25.75 21.50 23 22.75 21.25M58.75 21C61 24 67 24 70 22.50C70.75 24 71.25 30 70 31C68.25 32.25 65.50 31.50 63.75 31.50C62.25 31.50 59.50 31.50 58.50 30.50C57.50 29.50 58 26.50 58 25.25C58 23.75 57.75 22.50 58.75 21.25M163.75 21L163.75 21.25M39.75 21.75C41.50 22.50 45 21.75 46.50 22.75C47.75 23.50 47.25 29.75 46.25 30.50C41.25 34.25 38.75 25.25 39.75 21.75M197.75 21.75C199.50 22.50 203 21.75 204.50 22.75C205.75 23.50 205.25 29.75 204.25 30.50C199.25 34.25 196.75 25.25 197.75 21.75M215.75 21.75C217.50 22.50 221 21.75 222.50 22.75C223.25 23.25 223 25 223 25.75C223 26.75 223.25 28.50 223 29.50C222.50 31.25 219.50 31.75 218.25 30.75C217.50 30 217 29.25 216.50 28.50C216 27.50 215.50 26.75 215.50 25.50C215.50 24.25 215.50 23 215.75 21.75M149 22.25C150.50 22.25 150.25 28.25 149.75 29.50C149.25 30.75 145.25 30.75 144 30.75C142.50 30.50 142.50 23.75 143.25 22.75C143.75 22 148 22 149 22.25M224.50 29.25C225.25 29 226.25 29 226.75 28.50C228 27.50 227.50 23.75 227.50 22.25L227.75 22C230.25 23.25 234.75 23.75 237.50 22.50C238.50 24.25 238 27 238 29C238 29.75 238.25 30.75 237.50 31C235.25 32 231.50 30.50 229.25 30.50C228 30.50 227 31.50 225.75 31.25C224.75 31 224.75 29.50 223.50 29.25M154.75 22.25C155.75 22.50 157.75 22.25 158.25 23C159 23.75 159 29.75 158.25 30.75C157 32.50 155 30.75 154.75 29.25C154.75 28.25 154.75 27 154.75 26C154.50 24.75 154.50 23.50 154.75 22.25M181.25 22.25C182.75 22.75 184.25 22.75 186 22.75C186.50 22.75 187.50 22.25 188 22.75C189 23.50 188.25 25.25 188.25 26.25C188 28.25 187.75 30.75 186.50 32.25C185.50 33.75 183.50 33.75 182.75 32C182.25 31.25 182 30.50 181.75 29.75C181.25 28.75 181.25 27.75 181.25 26.50C181.25 25 180.75 23.75 181.25 22.25M75.25 22.50C77.25 23.25 80 23.50 82 22.50C82.75 24 83.25 28.75 82.25 30.25C81.50 31.25 76 31.25 75.25 30.25C74.25 29 74.75 24 75.25 22.50M107.75 22.75C108.75 22.25 109.75 22.75 110 23.75C110.50 26.75 110 30 110 33C110 34 110.25 35.50 109.50 36C108.75 36.50 107.50 36 107.25 35.25C106.50 32.50 107.25 28.50 107.25 25.75C107.25 24.75 107 23.25 107.75 22.75M87.50 23.25C88.25 22.75 90 24 90.50 24.50C91.25 25.75 91.75 32.25 90.50 33C89.25 33.75 88.75 32.75 88.25 32.25C86.50 30.25 87 28.50 87 26C87 25.25 86.75 23.75 87.50 23.25M227 28.75L228 30.50"/>
 </g>
 <g fill="none" stroke="#63e545" stroke-width="0.5">
  <path d="M88.75 26.25C88 29 87 31.75 87 34.75C87 37 87.25 38.50 89.75 37.25L89.25 34.75M116.25 26.75L115.50 30.25L115.75 30.25C117 29.75 120.25 28.25 121.50 29.25C122.50 29.75 122.25 35.75 121.75 36.75C120.75 37.75 116.50 36.75 115 37.50C114 35.50 114.25 32 115.50 30.25M50.50 39.25C49.25 37 47.50 35.50 45.75 33.75C45 33 43.75 32 43.75 31C43.75 30.25 44.50 30 45 29.75C45.50 29.25 46 28.25 46.75 28C48 28 48.75 29 50 28.50C51 28.25 52.50 26.50 53.50 27.75C54 28.25 53.75 30 53.75 30.75C53.75 33.50 53.75 36.50 53.75 39.25C53.75 40.25 53.75 42.25 52 41.50C49.50 40.50 51.75 38.25 53.50 38.25M28.75 42.50C29.25 40.25 30.75 38.50 31.25 36.75C32 34.25 32 30.50 33.25 28.25C33.50 27.75 34.50 27.75 35.25 28C38.25 29.25 39.25 35 42.50 36.25M155 27.75C155 30.75 158 29 158.50 31C158.75 32.25 159 36.25 158 37C157 38.25 155.25 37 155 39M217.50 36C215.25 37.25 212.75 36.75 210.50 37.25C209.75 37.50 209.25 38.75 208.25 38.50C207 38 205.75 35.75 204.75 34.75C203.75 33.75 201.75 32.50 201.75 31C201.75 30.25 202.50 30 203 29.75C203.50 29.25 204 28.50 204.50 28.25C205.50 27.75 206.75 29 207.75 28.75C209 28.50 210 27.25 211.50 28C212.50 28.25 212.75 29.75 213.25 30.50C214.25 32 217 35.50 218.50 36.25M222.25 28.25C223.50 27.75 225.25 29 226.25 29.25C228.75 29.75 231.75 29.75 234.25 30C235 30 237 29.75 237.50 30.25C238.50 30.75 238.50 36.50 237.50 37C235.75 38.25 231 37 228.75 37.25C228 37.50 227.25 38.75 226.25 38.50C225.25 38 224.25 36.25 223.50 35.50C220.75 32.75 218.25 30.75 222.25 28.25M149 29.25C150 29.25 150 30 150 30.75C150 32.50 150.75 36.25 149.75 37.75C149 38.75 145.50 38.25 144.25 38.25C142.25 38 143 33.25 143 31.75C143 31.25 142.75 30.25 143.25 29.75C143.75 29 148 29 149 29.25M7.25 29.25L14 30L17 30.25L17.50 33.50L17.25 36.75L14.50 37L7.25 37.25C6.50 35 6.50 31.50 7.25 29.25M27.25 34.50C26.75 35.25 26.50 36 26 36.50C25.25 37.25 22.50 38.75 22 37C21.50 34.75 22 31.75 22 29.50L22.25 29.25L27 30.25L27.25 30.50C25.75 32 25.75 32.75 27.25 34.25C28 33 28.25 31.75 27.50 30.50M58.25 29.25C61.25 30.50 67 31.50 70 30C70.75 31.25 71.25 38 68.25 37C66.75 36.50 67.75 34 65.75 33.50C62.50 32.25 56.50 35.25 58.25 29.25M75.50 29.25L82 29.75L82.50 32.75L82.25 36.75L75.25 37.25C74.75 35.25 74.50 31.25 75.50 29.25M199.25 36C196.50 37.50 192.50 37 189.50 37C189.50 35.75 189.75 34.75 190.25 33.75C190.50 33 191 32.25 191.25 31.50C194.25 25.50 197.75 35 200.50 36.50M95.75 37.25C95.25 35.75 94.75 31.50 95.75 30.25C96.25 29.50 102.25 29.25 102.75 30C103.50 30.75 103.50 36.50 102.50 37C100.75 37.75 97.75 36.75 95.75 37.25M155 29.50C154 31.25 154 36 155 37.75M163.25 29.50C165.25 30.25 167.75 29.75 169.50 30.75C170.50 31.25 169.75 32.75 169 33C167.25 33.75 165 33 163.25 33.50L163.25 29.50M126.75 37C126.75 35.25 126 31.50 127.25 30.25C128.50 29.25 130.75 30 132.25 30C133.75 30 137 29.50 138 30.25C139 31 138.75 35.25 138.50 36.25C138 37.25 136.75 37 135.75 37C134 37 127.50 36 127 38.25M175 38.25C172.75 36.25 173.50 34.75 174.50 32.25C174.75 31 175.75 28.50 177.50 30C178.25 30.50 178.25 32 178.50 32.75C179 33.50 180 34.75 179.50 35.75C179.25 36.50 177.50 36.25 176.75 36.50C175.25 37.25 175.25 38.25 175.25 39.75M88.50 30.75C91.50 30.75 92.25 36 89.75 37.25M108 35C109.75 33.75 110.75 37.25 109.50 38.25C107.75 39.75 106.75 36 108 35M41.50 36C38.25 37.75 34.75 36.75 31.50 36.75M189.50 37L188.75 38M115 37.50L115 38M51.25 40.50L53.50 40"/>
 </g>
 <g fill="none" stroke="#e34447" stroke-width="0.5">
  <path d="M155 45.75L155 47.75C158 48.25 158.50 49.50 158.50 52.25C158.50 53 158.75 54 158 54.50C157.25 55.50 155.50 54.50 154.75 55.50M155 47.75C154 49.75 154.50 52.50 154.50 54.75M163 49C164.75 49 166.50 49.50 168.25 49.25C169 49 169.75 48.50 170.50 49C171.25 49.50 171 51 170.75 52C170.75 53.25 170.75 55 169.75 56C168.75 57.25 164 58.25 163.25 56.25C162.25 54.25 163 51 163 49M7.25 48.75C10.25 50 14 48.25 17 49.25C18 49.50 17.75 54.50 17 55C14.50 56.25 10 54.50 7.25 55.25C6.75 53.50 6.75 50.50 7.25 48.75M22.25 48.75C26 50.25 30.75 47.75 34.50 49.25C35.50 49.50 35.25 54.50 34.50 55C33.50 55.25 32 55 31 55C28.25 55 25 54.50 22.25 55.25C21.75 53.50 21.75 50.50 22.25 48.75M39.75 48.75C41.75 49.50 45.25 48.25 46.50 49.25C47.25 49.75 47 51.50 47 52.25C47 53.50 47.25 55.25 46.50 56.50C44.50 58.75 40.75 58.25 39.75 55.50C39.50 54.50 39.50 53.50 39.50 52.50C39.50 51.25 39.50 50 39.75 48.75M58.50 48.75C62 50.25 66.50 48 70 49.25C70.50 49.50 70.50 50.50 70.75 51C70.75 52.50 72 56.75 71 57.75C69.50 59 67.25 57.50 65.75 57.25C64 57.25 60.50 58 58.75 57C57.50 56 58 50.25 58.50 48.75M75.25 48.75C77.25 49.50 80.75 48.25 82 49.25C82.75 49.75 82.50 51.50 82.50 52.25C82.50 53.75 82.75 55.75 81.50 57C79.50 58.75 76 57.75 75.25 55.50C75 54.50 75 53.50 75 52.50C75 51.25 75 50 75.25 48.75M90.50 48.75L90.50 49.75L87.50 49.25C87 50.25 86.25 53.50 87.50 54.25C88.75 55.25 90.25 53.75 90.50 56.25M95.75 48.75C97.75 49.50 101.25 48.25 102.50 49.25C103.25 49.75 103 51.25 103 52C103 55 101.75 57.25 98.50 57.25C97.75 57.25 96 57.50 95.75 56.75C95.25 55.50 95.50 53.75 95.50 52.50C95.50 51.25 95.50 50 95.75 48.75M143.25 48.75L149.50 49.25L150 51.75L149.75 54.75L143.25 55.25C142.75 53.50 142.75 50.50 143.25 48.75M187.25 48.75C188.75 49.50 191.50 48.50 192.50 49.25C193.50 49.75 193.25 54 192.50 54.50C192 55 191 54.75 190.25 54.75C189.50 54.75 188 55 187.50 54.75C186.25 54 187 49.75 187.25 48.75M197.75 48.75C199.75 49.50 203.25 48.25 204.50 49.25C205.25 49.75 205 51.50 205 52.25C205 53.50 205.25 55.25 204.50 56.50C202.50 58.75 198.75 58.25 197.75 55.50C197.50 54.50 197.50 53.50 197.50 52.50C197.50 51.25 197.50 50 197.75 48.75M215.75 48.75C217.75 49.50 221.25 48.25 222.50 49.25C223.25 49.75 223 51.50 223 52.25C223 53.50 223.25 55.25 222.50 56.50C220.50 58.75 216.75 58.25 215.75 55.50C215.50 54.50 215.50 53.50 215.50 52.50C215.50 51.25 215.50 50 215.75 48.75M227.75 48.75C229.75 49.75 232.50 49.25 234.75 49.25C235.50 49.25 237 48.75 237.50 49.25C238.50 49.75 238.25 54.25 237.50 54.75C237 55.25 236 55 235.25 55C233.75 55 228.75 56.25 227.75 54.75C227 53.75 227.50 50 227.75 48.75M87.50 49L87.50 49.25M114.50 49.50C115.50 49.25 120.75 48.75 121.50 49.25C122.75 50.25 122 55.75 121.25 56.75C119.75 58.25 116.25 58.25 115.25 56.50C114 54.50 115 51.75 114.50 49.50M137.50 49.25C139 49.25 139 54.25 138 55C137.50 55.50 136 55.25 135.25 55.25C132.75 55.25 130 55.75 127.50 55.25C126.25 55 125.75 50.25 127 49.50C127.50 49 129 49.50 129.75 49.50C132.25 49.50 135 49 137.50 49.25M175 55L175.50 49L180.25 49.25L182.25 49.50L182.50 52.25L182 54.75L175.75 55.25L173.75 58.75M90.50 49.75C91.25 51.25 91.25 53.50 90.25 54.75M109.75 54.50C107.50 55.25 105.75 52.50 107.25 50.75C108 49.75 109.75 50.25 110 51.25C110.50 53.25 110 55.50 109.75 57.50M88.50 54.25C88.50 52.75 89.50 52.75 90.75 52.75"/>
 </g>
 <g fill="none" stroke="#080000" stroke-width="0.5">
  <path d="M94.25 13.75L98 13.75M87 26.75C87 29.25 86.50 31.50 89.75 31.50M74.50 28.25L74.75 34M142.50 28.25L142.75 35M163 28.25L163 29M57.75 28.50L57.75 29.50M82.25 29.25L82.25 44.25M22 29.75L21.75 34M53.50 30.25L53.50 38M87.50 31.50L86.75 36.25M121.75 32C121.75 33.25 122.75 34 123 35.25C123 36 122.50 37.75 121.50 37C120.25 36.25 121.25 34 121.75 33.25M158.50 32.25L158.50 32.50M70.25 32.75C70.75 33.50 71.50 34.50 71.50 35.50C71.25 36.50 70 37.25 70 38.50C70.25 40.50 72.75 41.25 70.25 43.50C69.25 42.25 69.25 40.75 70 39.25M70.25 33.25C69.25 34.50 69.25 36 70 37.25M17.25 33.75L17.25 39M138.25 34.50L138.50 37.50M181.75 37.50C182.75 36.75 184 38.75 183 39.50C181.75 40.25 180.75 38.25 181.75 37.50M158.50 37.75L158.50 38M169 39C171 40 170.50 42.75 170.25 44.75M126.25 39.75L126.25 44.25L127.50 47.25L126.25 50.25M70.25 43.50L70.25 44.25M154.25 44.25C154.25 46.75 153.75 51.25 155.50 53.25C156.25 52.50 157 51.50 158 51.25C159.25 51 159.75 52.25 159.25 53.25C158.25 55 156.50 55.25 155.25 56.25C154.25 57.50 154.50 59.50 154.50 61M38 46.75C37.25 46.75 35.50 45.75 36.75 45C37.50 44.50 38.75 44.75 39.50 44.75L39.75 45L38 46.75L38.25 47L39.75 45.25M108.25 44.75C110.50 45 110 48.50 109 50L107 48M126.25 44.75C125.25 46.25 125.25 47.75 126.25 49.25M196 46.75C195.25 46.75 193.50 45.75 194.75 45C195.50 44.50 196.75 44.75 197.50 44.75L197.75 45L196 46.75L196.25 47L197.75 45.25M211.25 45.75C213.25 45.75 215 45 215.50 47.50M40.25 46.25C40.50 47.75 39.25 49.25 38.50 47.25M198.25 46.25C198.50 47.75 197.25 49.25 196.50 47.25M115 54C113.50 52.75 113.50 52 113.50 50.25C113.50 49.50 113.75 47.75 115 48.50C115.50 49.25 115.50 50.25 115.75 51C116 53.50 113.75 57.25 118 57.75C118.50 57.75 119 57.75 119.50 57.50C120.25 57 120.75 56.50 121.25 56M51.50 49C54.25 46.75 55.50 55 53.75 56.25C50.50 58.25 50 50 51.50 49M182.25 49.75L182.50 60.75M109 50C109 51 108.75 52.50 109.25 53.25C109.75 54 111.25 54.25 111.25 55.25C111.50 57 109.50 57 111 59L112.50 57.50L112.25 57.25L112 57.25L111.50 57.75L110.75 58.50M17.25 50.25L17.25 57M138.25 50.25L138.25 57M82.50 51.25C82.50 54.25 80.25 60.25 77 56L76.75 56L75.25 57.75L78 57.50M170.75 52.75L169 55.50M113.50 53L111.50 55M155.50 53.25L155.50 55.50M52.50 53.75L51.50 56.25M108.75 53.75L110 57M104.75 60.75L103 59C102.25 60.25 103.25 62.25 104.50 60.75C106.25 59 106.50 55.75 108.50 54.75M75.25 58L74.25 59L73 57.75C74.25 56.50 75 54.50 77 55.75M112 56L112.25 57.25M75 56.25L73.50 58M40.75 57C41.50 56.50 44 56 43.75 57.75C43.50 59.75 41.25 57.75 40.75 57M198.75 57C199.50 56.50 202 56 201.75 57.75C201.50 59.75 199.25 57.75 198.75 57M216.75 57C217.50 56.50 220 56 219.75 57.75C219.50 59.75 217.25 57.75 216.75 57M75 56.75L75.50 57.25M115.50 56.75C113.25 59 112.25 59.25 112.50 62.50M70.50 57L73 57.75M112.75 58L112.75 58.25M118.75 58C118.75 61.25 119 61 122 61M71.50 58.25C72 59.75 73.25 61 74.25 59M103.25 59L105.25 58.75M111 59.25L112.25 59.75"/>
 </g>
 <g fill="none" stroke="#000000" stroke-width="0.5">
  <path d="M4.50 4.50C5.25 3.75 7.25 4.25 8.25 4.25L18.75 4.25L59.25 4.25L189.50 4.25L226 4.25L236.25 4.25C237.50 4.25 239.25 4 240.50 4.50C241.50 5 241 7 241 8L241 19.25L241 58.50L241 68.25C241 69.25 241.25 71 240.50 71.75C239.75 72.50 238 72.25 237 72.25L226.75 72.25L186.25 72.25L55.75 72.25L19 72.25L8.75 72.25C7.50 72.25 5.75 72.50 4.50 72C3.50 71.50 4 69.50 4 68.50L4 57.25L4 17.50L4 7.75C4 7 3.75 5 4.50 4.50M8.50 8.50C9.25 7.75 11.25 8.25 12.25 8.25L22.25 8.25L61.25 8.25L187.25 8.25L222.50 8.25L232.25 8.25C233.50 8.25 235.25 8 236.50 8.50C237.50 8.75 237 11 237 11.75L237 21.50L237 56L237 64.50C237 65.50 237.25 67 236.25 67.75C235.50 68.50 233.50 68.25 232.50 68.25L222.75 68.25L183.75 68.25L57.75 68.25L22.50 68.25L12.75 68.25C11.50 68.25 9.75 68.50 8.50 68C7.50 67.75 8 65.50 8 64.75L8 55L8 20L8 11.50C8 10.75 7.75 9 8.50 8.50M201.50 14.25L201 16.50L197.50 12.75C199.50 11.75 200 13.50 201.75 13.75C203.25 14 204.50 13 205.75 13.25C207.25 13.75 211.50 18.50 212 20C212.75 23.25 210.75 26.50 213.50 29C217.50 25 214.75 20 211.50 16.75L210.50 17.75M43.25 14.50C44.50 13.75 47.25 12.75 48.50 13.75C49.75 14.50 50.25 16 51.50 16.75C48.75 19.75 52.25 24.50 50 27.75C49.50 28.75 48 29 47.25 27.75C46.25 25.75 47.25 22.75 47 20.75C46.50 18.75 44.50 17.25 43 15.75L41.25 17.50C40.50 16.75 39 15.75 38.75 14.50C38 11.25 42.50 13.75 43.25 14.50M219.25 14.50L217.25 17.50C216.50 16.75 215 15.75 214.75 14.50C214 11.25 218.50 13.75 219.25 14.50C220.75 13.50 222 13.75 223.25 15C223.75 15.50 224.50 16.50 225.25 16.25C226.50 16 225.75 14.75 225.25 14.25C224.25 13.50 223.50 13.75 222.50 14.25M47.50 57.75L46.75 57.50L46 58.25C46.75 59 47.50 59.50 47.25 60.75L47.75 61.25L52.75 57L54 62.25L57.25 62.25L65 62.25L68.50 62L70.75 57.75C67.50 56 64.25 60 61.25 57.50C57.75 54.50 59.25 47.50 59.25 43.25C59.25 42 58.75 39.50 59.75 38.25C61.50 36 65.50 39.50 67.50 38.25C72.25 35.50 71.75 25 69.75 20.75C69 19.25 69.25 18.25 68 16.75C67.50 17.25 64.50 20.50 63.75 18.25C63.50 17 65 16.75 65.75 16.25C66.75 15.75 67.75 15.75 68.50 15.25C70.25 14 71.25 11.75 73.50 13.25C75.25 14.75 75 16.25 75 18.25C75 21.75 75.25 25.25 75.25 28.75M86.75 13.50C85.25 15.50 84 15 82.25 13.50C85.50 10.25 88 15.25 90 17.25C90.75 16.25 90.75 14.50 92 14C93.50 13.50 97 13.50 98.50 13.75C100.25 14.25 101 15.75 102.75 14.50C101.75 13.25 100.75 12.75 99.25 13.75M114.25 13C115.25 12.75 115.75 12.75 116.75 13.50L115.50 14.75C114.50 13.75 114 13 112.75 13.75C113.50 14.75 114.25 15.50 115.25 14.75L116 15.75L116 16L115 15.25M192.75 13.25C191.50 15.50 190 15.25 188.25 13.50C191.25 10.75 197.25 15.50 199.25 17.50L199.75 17L200 16.75L200.25 16.50L200.50 16.25M196.25 15L197.50 12.75M143.50 13.25C144.50 13 145.25 13 146.25 13.75L145 15L143.25 13.25L143 13.50L144.75 15M163.50 13.25C164.50 13 165.25 13 166.25 13.75L165 15L163.25 13.25L163 13.50L164.75 15M168 39L169.50 37.25L169.25 37L166.75 37.75C169.75 40.50 171.25 35.50 173 33.50L174.50 34.75L176 31.75L175.75 31.50C173.75 31.25 174 29.50 174 28L174 17.50C174 16.50 173.25 13.75 174.25 13.25C176 12.50 177.75 13.50 179 14.75C181.75 17.50 181 22.25 181.25 26C181.25 28.25 183.50 28.75 181.50 30.75C181 29.75 181 29 181.50 28M178.25 13.75C180.75 12 182.75 14.75 181 17M117 13.50C119 13 121.50 13.25 123.75 13.25C124.50 13.25 125.75 13 126.25 13.75C127.50 15.75 126.50 20.75 126.50 23C126.50 31 126.50 39.25 126.75 47.25C126.75 50.25 126.25 51.75 125.50 54.25C125.25 54.75 125 56 125.75 56.50C127.50 57.75 127.25 53.75 126.50 53M24.25 14L23 15.50L21.75 13.75L22 13.50C24 13.50 27 13.50 28.50 14.75C31.50 12.25 34.25 15.75 37.75 15L38 15C37.75 15.50 37.25 18 38.25 17.50M48.50 13.50L47.75 14.25L47.75 14.50L48.75 14M60.25 14L59 15.50L57.50 14L57.50 13.75C58.75 13.50 59.50 13.75 60.50 14C62.50 14 66 12.75 66.75 15.25M70.25 13.50C71.50 14.75 72.50 15.25 74 14M122.75 13.50L122 18.50L122 41.25L122 51.75L120.50 57C123 56.50 123.50 54.75 122 52.75M142.75 13.50C142.25 14.50 142.75 15 143.50 15.75L143.75 15.50L142.50 14M162.75 13.50C162.25 14.50 162.75 15 163.50 15.75L163.75 15.50L162.50 14M206.50 13.50C206 14.50 206 14.75 206.75 15.50L206.25 14.50M41.75 13.75L39.25 15M50.75 19.75C53.50 19.50 55 15 57.50 13.75M146.25 13.75C148 13.75 152.75 13 154 14.50C154.75 15 154.50 16.25 154.50 17.25L154.50 24.50C154.50 31 154.75 37.50 154.50 44C154.25 47 153.75 50 153.75 53M166.25 13.75C168.75 13.75 171.75 15.75 171.75 18.50C171.75 20 170.75 21.75 170.50 23.25C170.50 25 170.75 26.50 170.50 28.25C170.25 30.25 168.50 31 170.75 32.50C171.25 31.50 171.25 30.50 170.50 29.50M170.75 20.75C167.75 17.75 168.75 13.75 173.25 13.75M181 13.75L179.75 15M217.75 13.75L215.25 15M22.25 15.75L20.75 14.50L20.75 14.25L22.75 15.50M45.75 14L50 18.50M69.75 14C71.75 16 72.75 19.25 70.75 21.75M82 14C83.25 15.75 84.25 17 83.75 19.25C83.50 20.25 82.75 21 82.75 22C82.50 26.50 82.75 31.25 82.50 35.75M95 14C95 19 97 18 100 15M112.75 14L110.50 16L110.50 16.25L112 17.75L110 20C112 22 111.25 25.25 111.25 28C111.25 29 111.50 30.25 111 31.25C110.50 32.25 109.50 33 108.75 33.75C107.25 32 107.75 29 107.75 26.75C107.75 22 107.75 18.25 103.75 15C103 15.75 101.50 16.75 101.75 18C102.25 19.25 104 19.50 103.75 21C102.25 30.75 102.75 41.25 103 51C103 53.50 107.25 54.75 106.50 57.25C105 61.50 99.50 61 96.25 60.75C95 60.50 94 61.50 92.75 61.25C90.25 60.75 91 57 91 55.25C91 54.50 91 53 90 53C89.25 52.75 88.50 53.75 88 54.25C86.50 55.75 84.50 57 86.25 59L86.50 59C86.75 58 86.75 57.25 86.25 56.25M150.75 14C150.75 15.75 150 17.25 150 18.75C149.75 24 150 29 150 34.25C150 36.50 150 39.50 147.25 40.25C144.25 41 143.75 38.25 143 36.25C142.50 35.50 141.50 35 141.50 34C141.25 30.25 144 26.75 143 22.75C142.25 20.25 137.25 20 139.25 16.75L140.50 18L140.75 18L141 17.75L139.25 16.50M178.25 14C177.25 15.50 177.50 17 177.50 18.75C177.50 22 177.50 25.25 178 28.50C178.25 29.50 177.50 31 177.75 31.75M188 14L187.75 16C188.75 16 189.50 16 189.75 15M203.75 14L207.50 17L204.75 19.75L201.50 16.25M20.50 14.25C19.25 15.75 17.25 17 18.25 19.25C19.50 18.25 20 17.50 18.75 16.25M82 14.25C81 16.25 81.25 19.25 82.75 21M139.75 16.25L142 14.25M169.25 31.25C167.75 32.50 164 33 163.25 30.75C162.25 28.50 163.75 25.75 162.75 23.50C162.50 22.25 161.25 22 160.50 21C159.75 20.25 159.75 19.25 158.75 19C159 17 160.25 15.25 162 14.25M43.25 14.50L43.25 15.50M56.50 14.50L60.50 17.50L63.75 17M199 14.50L197.25 15M207.25 14.50L206.75 15M28.50 14.75L25.50 17C27.75 20.75 28.75 17.75 28.50 15M33.75 14.75C32.75 16 33 17.50 33 19C33 21.75 32.75 25 33 27.75C33 28.75 34.75 31 35.75 30.25C37.75 29.25 36.25 27.75 36 26.25C35.75 23.75 35.50 20.25 37 18.25C38 19.25 39.75 21.75 39.50 23.25C39.25 24.75 38.50 25.25 38.75 26.75C40.25 26.25 40.50 25.25 39.50 24M48 14.75L47.50 15.25M103 14.75L103.50 15M141.25 14.75L143.50 17L143.50 17.25C142.25 16.50 141.75 16.50 141 17.50M214.25 14.75C213.75 15.25 213.25 18 214.25 17.50M224.50 15L224.75 15.25L224.50 15M71.75 15L71.75 15.50M83.75 15L83.75 15.50M142.25 15L146.50 18.25L143.25 21.75C142.75 20.75 143 20 143.50 19L144 19.50L144.25 19.75L144.50 20L144.75 20.25M162.25 15L163.25 15.75M19.75 15.25L23 18L23.25 17.75L21.75 16M28.75 15.25C30.75 17.25 31.25 20.25 30.25 23C30 23.75 29.50 24.25 29.25 25C29.25 26.25 30.25 27 30 28.25C29.75 31.25 28 32.50 30.50 35C31.25 34.50 33.50 33.50 33.50 32.50C33.50 30.75 31.50 31 33 29M47.25 15.25L45 17.50M86 15.25L89 18.75L89.75 18L90 17.25M101.75 15.25L99.50 19L102 18.75M192 15.25C192 16.75 191.75 18.50 192 20C192.25 21 193 21.75 193 23C193 24.50 191.75 25.75 191.50 27.25C191.50 29.75 194.25 32.25 196.50 32.50L195.75 30.25L195.50 30.25L195 30.75L194.75 31L194.50 31.25L194.25 31.50M196 15.25C196 15.75 195.50 18 196.25 17.50M205.25 15.25L203 17.50M223.25 15.25C221.50 17 221.25 17.75 222.75 19.75L225.25 16.75M224.50 15.25L224 15.75M112 15.50L114 15.50M140.50 15.50L141.50 16.50M168.75 15.50L166.50 17L168.75 19M211.50 16.75L213.25 15.50M49.75 15.75L49.25 16.25M68 15.75L68 16.75M219 15.75L221 17.75M55.75 16L58.25 17.25L58.50 17L57.75 16M112.75 16L112 17.50M116 16C117.75 17.25 119.50 17.25 121.50 17.25M160.75 16L164 18L164.25 18L162.75 16M208.25 16L207.50 16.75M226.50 16C228.25 17.25 228.75 19 227.25 20.75L225.50 18.25C224.75 18.75 223.50 20.50 222.75 19.75M43.25 16.25L40.75 20L38.50 18M110.50 16.25C110 17.25 110 18 110.50 19M187.50 16.25L187.25 27L188.50 30L185 31.75L185.75 32.50L186 32.75L186 32.25M189.75 16.25C189.75 18.25 190 20.50 188.75 22C190 23.50 189.25 27.25 188.75 29M219.25 16.25L216.75 20L214.50 18M56.50 16.50L55.50 18.25L54 17M116.50 16.50C115.75 17.50 114 18.75 113.75 19.75C113.50 21 114.75 23 114.75 24.50C114.75 29.75 115 35.25 114.75 40.50C114.75 42.75 113.50 47 114.50 48.75C113 50.75 114.50 52.50 115.50 54.25C116.75 56.25 118 59.50 117.50 61.75L120.75 61.25C119.75 60 120 58.75 120.25 57.25L117 57.25M161.50 16.50L159.50 19M201 16.50L198.75 20L196.50 18M20.50 16.75L20 17.50M25.25 17L24.75 19.25L26.50 19M98.50 17L99.75 17M101 17L101.50 17.50M166.25 17L166 19.25L167.50 19M209.50 17C207 19.75 209.50 23.50 208.25 26.75C207.75 28 206 29.50 205.25 27.75C204.75 26.50 205 24.75 205 23.50C205 22.25 205 21 204.75 19.75M227.25 17L226.50 17.25M51.75 17.25L52.75 18.50M54.75 17.25L55 17.50M58.50 17.25L59.75 17.75M143.50 17.25L144.75 17.75M37.25 17.50L37 18M118.50 17.50L116 19.50L114.75 21.75M195.25 17.50C195.25 18.50 196 18.75 196.25 19.75C197.25 22 197.25 24.75 199 26.50L197.25 28.50L197.25 28.75L197.50 28.75L199 26.75M207.50 17.50L208 18.75M213.25 17.50L213 18M23.25 17.75L24.50 17.75M38.50 19.25L41 17.50M59.25 17.75L59.50 18.75M144 17.75L143.50 19M164.75 18L165.50 17.75M196.50 19.25L199 17.50M214.50 19.25L217 17.50M225.50 17.75L225.75 18.25M226.25 17.75L225.75 18.25M23.75 20.25L22.50 18.25L22.75 18L24.50 19.75C21.50 22.50 21.75 26.50 21.25 30.50M49.50 18L47 20.50M61.25 18C61.50 19.25 62.50 19 63.50 19M95.50 18L95.50 46.75C95.50 49.75 94.50 55.50 96.25 58L100.25 55.75L101.75 57.25L102 57.25L102.25 57C101.75 56.25 101.25 55.50 100.25 55.50M97.25 18L99.50 19M140.75 18L139.50 19.25M146.50 18.25L149.75 18M144 18.25L145.50 19.75M163.50 18.25L163 20.50L163.50 21L165.50 19.25M195 18.25L193 21.25M207.50 18.25L205 20.50M55.50 18.50C53.50 21 57.50 20.75 58 23C58.50 25 58.25 28 58.25 30C58.25 30.75 57.75 32.25 58.25 32.75C59.75 34.75 64.25 32.50 66 32.25C67.50 32.25 68.75 33.75 69.75 34.75M115.50 18.50L116 19M211.75 19L212.75 18.50M58.50 18.75L59.75 20.25L60 20.25L60.25 20L59.75 19.25M61.25 18.75L60.25 19.75M89 18.75C89 20 88.75 21.50 89.25 22.75C89.50 23.75 90.75 24.50 91 25.50C91.75 29.25 91.75 35.50 89 38.25L86.50 35L82.75 34.75M22.50 19L22.25 21.50M40 19L40.25 19.25M58.50 19C58 20 57.75 20.75 58.25 21.75L60 20.25M158.75 19C156.75 21.50 159 23.25 158.75 26C157.75 34.75 160 44.25 158 52.75M198 19L198.25 19.25M216 19L216.25 19.25M28.50 19.25C28.50 21 28.25 22.75 29.25 24.25M138.75 19.25C137 21.25 138.75 25 138.75 27.75C138.50 30.50 137.75 33.50 137.75 36.25C137.75 37.50 138.50 38.25 138.50 39.50C138.75 43.25 138.75 47.50 138.75 51.25M18 51.50L16.75 55C15 53 17.25 52.75 17.75 50.75C18 49.50 17.50 47.75 17.50 46.50C17.50 44.25 18 41.75 17.75 39.50C17.50 38.50 17 37.75 17 36.75C17 34 17.75 31.25 17.75 28.50C17.75 25.75 17.25 22.50 18 19.75L22 22.50M53 19.50L54.50 19.50M103.25 19.50C102.25 20.75 102 21.25 103 22.50M101.50 19.75L102 20.75M40.75 20L39.50 22M108 20L110 20M198.75 20L197.50 22M216.75 20L215.50 22M139.75 20.25L138.75 23M223 20.50C223 23.50 222 30.75 226.50 27L227.25 27.75L227.50 28L227.25 28.25L227 28M227.25 20.75L226.50 27M54.75 21L53.50 31.25L53.50 36.50L51 37.50L50.75 37.25C50.25 36.50 50 36.25 49 36.25L48.75 36.50L49 36.75L49.25 37L49.50 36.75L47.50 34.75L48.75 36.50M159.75 21L158.75 23.75M163.25 21.25L163 22.75M154.75 21.50L157.50 21.50M58.25 22L58 22.25M143.25 22L143 22.25M188 22L188.75 22M227.50 22.75C228.25 23.75 229.75 28.50 227.50 28.25M89 23C86 26 85.25 30.50 86.50 34.50M193 24.75L195.50 29L197.50 25.25M215.50 25L217 26.50L215.25 28.50L215.25 28.75L215.50 28.75L217 26.75M29.25 26C27.75 27.75 28.25 28.25 29.75 29.75M40.75 26.25L39 27.25M41 26.50C41.25 28.75 42 30.75 44 32C45.75 33.25 47.50 33 48.50 35.25M187.50 26.50L188.75 26.50M39.25 27.50L41 28.75M199.50 27.75L198 29M217.50 27.75L216 29M212 27.75C210.25 29.50 208.75 30.50 206.75 28.75M187 28L188.50 30M199.75 28L200 30M217.75 28L218 30M27.75 28.50L29.50 30.75M49.50 28.50L53.50 30M191.25 28.50L192.75 30.50M186.75 28.75L186.50 30.50M197.25 28.75L196.50 29M215.25 28.75L214.50 29M224.50 28.75C225.75 29.75 226.75 30 228 29M195.50 29L196.25 29.50M213.50 29L214.25 29.50M28 29.25L27.50 32L28 32L28.25 32L28.50 32L28.75 32M198 29.25C200.25 30.50 202 29.75 203 32.50L203 32.75L202.75 32.75L200.25 33.25L200.50 33.50L200.75 33.75L201 33.50L200 32.50L200 33L200.25 33.25L200.25 33.50M216 29.25C218.25 30.50 220 29.75 221 32.50L221 32.75L220.75 32.75L218.25 33.25L218.50 33.50L218.75 33.75L219 33.50L218 32.50L218 33L218.25 33.25L218.25 33.50M37.50 29.50C37.75 32.25 39.25 33.75 42 33.75L42.75 36.25L42.50 36.50L41 35L41.25 34.75L41.75 35.25L42 35.50L42.25 35.75L42.50 35.50M191 29.50L192.75 31.50M183.25 29.75C182.75 30.25 182.25 31.50 181.50 30.75M195.75 29.75L195.75 30.25M211 29.75C211.50 31.25 212.75 31.75 214 32.25L214.25 32L213.75 29.75M191.25 30C190.75 31.25 191.50 31.75 192.75 31.50M34.50 30.25L34 32M200.25 30.25L200.75 32.25M218.25 30.25L218.75 32.25M86.50 30.50L87.50 30.75M183.50 30.50L184 32L182.75 32.50C183 34 182.25 34.75 181.25 35.75L182 36.75C183 36 183.50 35.50 183 34.25M35.75 30.75L37.50 31.50M163 31C159.50 35.25 168.25 35.75 168.50 32.50M187.50 31C187.25 32 187.25 32.75 186.25 32.75M31.75 31.25L32.25 33.75M174.50 31.50L173 33.25M177.50 31.50L178.25 34.75C179.75 33.75 179.50 33 178 32M190.50 31.50C190.50 32.50 191 33 191.75 33.50L192.25 32M169 31.75L172 34.75M176 31.75L177.25 31.75M181.75 31.75L182.50 32.25M184.25 32L185 31.75M27.50 32C27.25 32.25 26.25 34.25 27.25 33.75M43.50 32L42.25 33.25L42.50 33.50L42.75 33.75L43 33.50L42 32.50L41.75 32.75L42 33L42.25 33.25L42.25 33.50M214.25 32.25C215.50 33.25 216.50 33.75 218 33.75L219 37L219.25 36.75L217.25 34.75L217.25 35.25L217.50 35.50L217.75 35.75M67.25 32.50L65.50 34.25L65.25 34L65 33.75L64.75 33.50L64.50 33.25M170.75 32.50L170.25 33M171 32.50L172.75 34M183.75 32.50C184.25 33.50 184.25 33.75 183.50 34.75M196.50 32.50L200 33.75L201 37L201.25 36.75L199.25 34.75L199.25 35.25L199.50 35.50L199.75 35.75M190 32.75C190.25 33.50 191.25 34.25 191 35C191 36 189.75 36.25 189 36.75C188 37.50 187.25 38.50 187 39.75C186.25 44 187 49.25 187 53.50C187 55 187.25 57 186.75 58.50C186 60.75 182.75 62 182.75 58.75M45.25 33L45.50 34.75L47.25 33.50M203.25 33L208.25 36L206.75 37.50L205.75 36.25C203.75 38.25 204.50 40.25 205 43C205.50 46.75 206 53.50 203 56C203.50 56.75 204.50 58 205.50 57.75M221.25 33L226.25 36L224.75 37.50L223.75 36.25C221.75 38.25 222.50 40.25 223 43C223.50 46.50 224 53.50 221 56L221 56.25L224.25 59L223 61L220.75 58.50L222.25 58M170.50 33.25L168.50 33.75M186.75 33.25L185.50 35.50L187.75 37.75M26.50 33.50L26.75 34.50M28.50 33.50L31.50 37.25L31.75 37.25L30.25 35.25M142.25 33.50L143.25 35.75M179.75 33.50L181.25 35.50M189.75 33.50L191.25 35.25M191.75 33.50L191.50 34.50M204 33.50C203 34.50 202.25 36 200.75 35.75M222 33.50C221 34.50 220.25 36 218.75 35.75M22.50 33.75C22.25 35.25 19.25 42.50 23.50 39.50C25.50 41.50 26 42.50 23.75 44.50C23.25 44 22 42.50 21.25 43.50C20.50 44.75 22 46.25 22 47.50C22.25 50.25 22 53.25 22 56.25C22 57.50 22.25 59 21.50 60.25C21 61.25 20 60.75 19.25 60C18 58.75 17 56.75 16.75 55M39.75 33.75L41.25 35.75M47.75 33.75C46.75 34.75 45.75 35.50 46.50 36.75L46.25 37L44.25 35L45.75 36M53.50 33.75L50.75 36.75M69.75 36.25C71 38 70.75 40.50 70.75 42.50L70.75 55.75L71 56C72 55 73.50 54.25 73.75 53C74.25 51.75 74 50.25 74 49L74 40.25C74 39 73.25 34.50 75 34C76 33.75 76.25 34.75 76.25 35.50C76.50 37.50 76.25 39.25 76.25 41.25C76.25 46 75.75 51 76 55.75C76 56.75 77.75 57.25 77.25 58.50C76.75 60 75.25 60 74 60.50C74.75 62 75.75 62.75 77.25 61.50L76 60.25M108.75 33.75L108.75 51.75L111.25 57.25C113.25 56.50 113.75 54.75 114.75 53.25M170.25 33.75L170.50 34.50M173.75 33.75L174 34M215.75 33.75L217.25 35.75M28.75 34L27.50 34.25M32 34L32 36.75M172.75 34C174 35.50 174.50 36 173 37.50L171.50 36M189.50 34L190.75 35.50M197.75 34L199.25 35.75M26 34.25L24 36.25L24.75 37L25 37.25L24.75 37.50L24.50 37.25M65.75 34.25C67 35.75 66 36.50 64.75 37.75M189.50 34.25L188.75 36.25M28.50 34.50L29.75 35.75M180.25 34.50L179.50 34.75M183.25 34.50L181.75 36M171 34.75L171.50 35.25M174.50 34.75L174.50 35.25M26.25 35L26.50 35.25M28 35L25.75 38.25L26 38.50L26.25 38.50L27 37.75L27.25 38L25.25 40L26.25 38.50M45.75 35L45.25 35.50M178.25 35L179.25 35.25M202.25 35L202.50 35.25M220.25 35L220.50 35.25M25.25 35.25L26 35.50M180.75 35.25L180 35.50M42.75 35.50L43.75 36L42.50 37.50C43.75 38.25 45.50 39.50 46.25 40.75C47.75 43.25 47 47.75 47 50.50C47 51.50 47.25 53 46.75 54C46.50 55 45.75 55.50 45 56L46.50 57.75M66.75 35.50L69.75 35.50M174.25 35.50L172.75 37M183.50 35.50L185.50 35.50M205.75 35.50L206 36M223.75 35.50L224 36M22.25 35.75L24 36.25M178.75 35.75L182.50 39.75C184 39 185.50 39.25 186.75 40.25M182.50 36L183 36.50M207.75 35.75L206.50 37M225.75 35.75L224.50 37M24.75 36L26.25 37.50M25.50 36L25.75 36.25M30.25 36L29.50 38L31.75 37.25M43.75 36L45.25 36.25M46.25 36L48 36M51.50 36L52 36.50M180.50 36.25L180.50 36.75L181.50 36M202 36L203.75 38M220 36L222 38M41.75 36.25L42.25 37.50M47.75 36.25L46 38L46.25 38.25L48.50 36.25M45 36.50L45.75 38M50.50 36.50C49 37.75 47 38.25 46.50 40.25M174.75 36.50L174.75 40.75C172.75 40.75 170.50 40.25 168.75 39.25M208.50 36.50C208.50 37.50 208.50 38.75 208.75 39.75C209.25 40.25 210 40.50 210.25 41.25C210.50 42.25 210.25 44 211 44.75C212 46 214.50 45.50 215 46.50C216 48.25 215.25 50.75 215.50 52.50C215.75 53.50 216.50 54.25 217 55.25C217.50 56.50 222.25 62.25 219.25 62.75C217.75 63 215 62.50 214.25 61C213.75 59.75 214 56.50 212 56.50C208.75 56.50 207.75 63.25 204 60C203.50 59.75 203.25 59 202.75 58.50L204.50 57.75M226.50 36.50L227.25 50L226.75 56L224.50 59M182 36.75L182 38.50M200.25 36.75L202.25 39.50L203.75 38M218.25 36.75C218.75 38.50 220.25 39.50 222 40.25M43.75 37L45.25 38.50L45 38.75L43.75 37M48.50 37L48.50 37.50M172.50 37L170.75 38.75L170.50 38.50L170.50 38.25L170.50 38L170.25 37.75M61.75 58C60.75 59 58 59.75 57.25 58C56.75 56.75 57 54.75 57 53.50L57 43.25C57 41.75 56.50 39.50 57.25 38C57.75 36.75 59.25 37.25 60 37.75M169.50 37.25L170 37.25M25 37.50L25.75 38.25M51 37.50C51.25 39.25 53.50 39.25 54.25 40.75C56 44 54.50 49.50 52.25 51.75C49.75 49.25 50.25 46.25 50.25 42.75C50.25 41.50 49.75 39.75 51 39M157.75 56.25C158.50 58 159.75 60.50 161.50 61C162.25 61.50 164.25 61.50 164.50 60.50C164.75 58.75 162.25 58.25 162 56.75C161.75 55.50 163 54.75 163 53.50C163.25 50 163 46.25 163 42.75C163 41.50 162.50 39 163.25 38.25C163.75 37.50 165.75 37.75 166.75 37.75M173 37.75L174.50 39M206.75 37.75L208.50 38.50M224.75 37.75L226.50 38.50M220.75 38.25L221 38.50L220.75 38.25M25.75 41.50C26.50 39.75 27.25 38.75 29.25 38.25M29.75 38.25C29.50 40 28.75 40.25 27.25 41L27 40.75L28.25 39.50L28.50 39.75L28.25 40L28 40.25L27.75 40.50M46.25 38.25L46.50 39.25M49 38.25L50 38.75M89 38.25L90 43.25L90 52.50M23.75 39.50L25.50 38.75M170.75 38.75L170.75 39.75M220.75 38.75L220.25 39.25M26.75 39.50L27.50 40.25M202.50 39.50L204 40.25M182.50 39.75C182.50 44 183 48.25 182.75 52.25C182.75 53.25 183 55.75 182.25 56.25C180.50 57.25 181.50 54.50 182 54M23.25 40L25.25 42M145 40C140.25 45 144.75 53.75 142.75 59.75C142.25 61.25 141.25 61 140.25 60C139 58.75 138 56.75 137.75 55M208.75 40C207 43.25 208.25 49.50 208.25 53.25C208.25 54.50 207.75 56.75 209 57.50M22.75 40.25C23.25 41 23.75 41.75 24.75 41.75M148 40.25C153 45.25 148 54 150.25 60C151.50 63 157.25 59.50 158.50 58.25M28.25 41L25.75 42.25M175 41C175 46.50 176.50 54 173 58.75C172.50 59.50 172.25 60.75 171.50 61.25C170 62 166.50 61.25 164.75 61.25M89 41.50C88 42.50 86.75 43.25 86.25 44.50C85.75 45.25 86 46.50 86 47.50C86 49.75 85.25 53.25 86.75 55.25M23.75 41.75L23.75 43.25L23.75 43.50L22.25 42.75M82.75 43C82.25 47 82.25 51 82.25 55C82 57.75 80 57.25 82.25 60L82.50 60L81 57.25M23.75 43.50L24.25 44M170.50 44C171 47.75 172 53.75 168 55.50L169.25 57.25L169 57.50L167 55.75L165.75 57L168 57.75M23.50 44.50L22 46.25M38 60.25L40 60L40.25 60.25L39 62C36.50 58 35 54.75 35 50C35 48.25 35.75 44 38.50 46.25C39.25 46.75 39.25 48.25 39.50 49C39.75 51.50 39 53 41 55L39.50 56.50C39 55.50 39 54.75 39.50 53.75M193 56.25L193.25 58.50L193.50 58.75C193.75 58.50 195 57.75 194.75 57C194.50 56.25 193.50 56 193.25 55.25C192.50 53.25 192.75 49.50 193 47.50C193.25 46 196 45.25 196.75 46.50C198.50 49.50 196.50 52.50 199 55L197.50 56.50C197 55.50 197 54.75 197.50 53.75M212.75 46C211 48.25 212 53.25 212 56M113.75 48C113.25 48.75 113 49.25 113.50 50.25M114.75 49.25L114 50.75M52.25 51.75C52.25 55.50 51 56.25 48.50 58.75L49 59.25L49.25 59.50L49.50 59.25L49.75 59L49.50 58.75L49.25 59L49 59.75M108.75 52.50L106.75 55.75M102.75 52.75L100.75 55.25M215.50 53.25L213.25 57M74 53.75L75.25 55.50M102.50 53.75C103 54.75 102.75 55.75 102.25 56.75M182.50 54.25L181 55.75M163 54.50L165.75 57M170 54.50C171 56.50 169.50 58.50 172.50 59.25M46.50 54.75L46.75 57.50M204.50 54.75L204.75 57.50M222.50 54.75L222.75 57.50M113.75 55.25L116 56.75M41.25 55.50L43.25 58.75L46 58.25M52.25 55.50L52.75 57M167.25 55.75L168 55.50M199.25 55.50L201.25 58.75L201.50 59L202 58.50L202.25 58.50L202.50 58.50L202.75 58.50M71 56L70.75 57.50L73.75 60.50M214.50 56C215.50 56.75 216.50 57.25 217.75 57.25M35 56.25C35 57.75 35.25 58.75 37 59.25M43 57.50L44.75 56M201 57.50L202.75 56M219 57.50L220.75 56M39.50 56.50C40 57.50 40.75 57.50 41.75 57.25M197.50 56.50C198 57.50 198.75 57.50 199.75 57.25M215 56.75L213.75 58M226.75 56.75C227.75 58.75 225.50 61.50 223.25 60.75M99.25 57L101.50 57.25M125.75 57C124.75 60 124 61.75 120.75 61.25M166 57.25L164.25 59.25M169.25 57.25L170 57.25M208.25 57.25L206.50 58.75L207 59.25L207.25 59.50L207.50 59.25L207.75 59L207.50 58.75L207 59.25L207 59.75M77 57.50L74.50 60M77.75 57.50L80.50 57.50M66.25 57.75L69.25 60.75M77.50 57.75L75.25 60M111.50 57.75C112.75 59.25 114.50 59.25 114.50 61.50C112.75 61.25 112.25 60.50 111.75 58.75M195.25 57.75L195.50 59.75L193.50 59M210.50 57.75L213.50 60.25M84.75 58L84.25 59.75L84.25 60L86.50 59M96.25 58L96.25 60.25M213.25 58L212.50 58.25M17.50 58.25C16.75 59.25 16.75 60 17 61.25L18.75 60M47 58.25L47.25 58.50M47.75 58.25L47.50 59.75M65.75 58.25L69 61.50M80.25 58.25L80.75 60.75L81.75 60.25L83 62C84 60.50 83.50 59.75 82.25 58.50M138.50 58.25C137.75 59.25 137.75 60 138 61.25L139.75 60M204 58.25L205.50 59.75L205.75 58.25M205 58.25L205.25 58.50M222.25 58.25L223.50 59.50M44.75 58.50L47 60.75M153.75 58.50L154.25 60.25M219.50 58.50L220.75 58.50M225.75 58.50L226 58.75L225 59.75L225.75 58.50M53.75 58.75C55 60 56 60.25 57.50 59M77.75 58.75L77.25 61.50M43.50 59L43.50 61.25L45.75 60.50M117.50 59C116.75 60 116 60.50 114.75 60.50M121.50 61.25C122.50 60 123.25 59.25 124.75 59M186.75 59C188.50 61.25 186.25 63 184.25 61.25M201.50 59L201.50 61.25L203.75 60.50M171.25 61.25L170.25 59.50L170.50 59.25L170.75 59.25L171 59.25L171.25 59.25M113.75 59.50L112.50 60.75M168.50 61L170.25 59.50M155.50 59.75C156.50 60.50 156.75 60.50 157.75 59.75M195.50 59.75C196.25 60.50 196.75 61.25 197.25 61.75C199.50 63.75 199.75 59.25 196.50 60.50M205.50 59.75L205.50 60.50M214.50 59.75C216.25 60.50 217.50 61.25 219.25 60M159.75 60L158.25 61.50C159.25 62.50 160.25 62.25 161.25 61.25M157.75 60.25L158 61.25M216.25 60.25L214.75 62M40.25 60.50L43.75 61.75M116.50 60.50L117.50 61.50M220.75 60.50L221.75 60.50M80.75 60.75L78 61.75M47.50 61C46.50 62.50 45.25 63 43.75 61.75M217 61L217 62.25M223 61C222.50 62.25 222 62.50 220.75 62.75M20.25 61.25C19.25 62.25 18.50 62.50 17.25 61.75M141.25 61.25C140.25 62.25 139.50 62.50 138.25 61.75M205.25 61.25C204.25 63.75 201.50 61.75 199.75 61.75M80 61.50C81 62.25 81.50 62.50 82.75 62M41.75 61.75C40.75 62.50 40.25 62.50 39.25 62M114.75 61.75C115.75 62.75 116.50 62.50 117.50 61.75"/>
 </g>
</svg>