<?xml version="1.0" encoding="utf-8"?>
<!DOCTYPE svg PUBLIC "-//W3C//DTD SVG 20010904//EN" "http://www.w3.org/TR/2001/REC-SVG-20010904/DTD/svg10.dtd">
<svg version="1.0" xmlns="http://www.w3.org/2000/svg" width="245px" height="76px" viewBox="0 0 245 76" preserveAspectRatio="xMidYMid meet">
 <g fill="#fffffe">
  <path d="M1.10 74.85 l-1.10 -1.15 0 -35.75 0 -35.80 1.15 -1.05 1.15 -1.10 120.25 0 120.30 0 1.05 1.15 1.10 1.15 0 35.75 0 35.80 -1.15 1.05 -1.15 1.10 -120.25 0 -120.30 0 -1.05 -1.15z m238.90 -36.85 l0 -33 -117.50 0 -117.50 0 0 33 0 33 117.50 0 117.50 0 0 -33z"/>
  <path d="M38.55 60.60 l-1.70 -0.95 -0.95 -1.70 -0.90 -1.70 0 -5.40 0 -5.40 2.15 0.15 2.10 0.15 0.25 4.60 0.25 4.65 1.10 1.05 1.05 1.10 1.40 0 1.40 0 1.15 -1.45 1.15 -1.45 0 -6.10 0 -6.10 -1 -1.65 -0.95 -1.70 -4.05 -3.65 -4.05 -3.65 -0.95 -1.95 -1 -1.90 0 -4.55 0 -4.55 0.95 -1.85 0.95 -1.85 1.50 -0.85 1.50 -0.90 3.40 0 3.40 0 1.65 1.10 1.65 1.15 0.75 1.90 0.75 1.85 0 4.75 0 4.75 -2.25 0 -2.25 0 0 -4.20 0 -4.20 -1.45 -1.55 -1.45 -1.55 -0.85 0 -0.85 0 -1.45 1.45 -1.45 1.45 0 2.55 0 2.50 0.45 1.20 c0.50 1.30 2.40 3.30 6.35 6.85 1.35 1.25 3.05 3.05 3.70 4 l1.25 1.75 0 9.35 0 9.40 -1.85 1.85 -1.90 1.90 -3.60 0.15 -3.65 0.15 -1.70 -0.95z"/>
  <path d="M74.50 60.85 l-1.20 -0.60 -1.10 -1.65 -1.10 -1.65 -0.35 -3.10 -0.30 -3.10 0.15 -18.50 0.15 -18.50 2.15 -0.15 2.10 -0.15 0 19.80 0 19.80 0.75 1.70 0.70 1.75 1.30 0.50 1.30 0.50 0.90 -0.45 c0.50 -0.30 1.20 -0.90 1.60 -1.35 l0.70 -0.85 0.25 -20.55 0.25 -20.55 2.15 -0.15 2.10 -0.15 0 21.15 0 21.15 -0.95 2.05 -0.90 2.05 -1.80 0.80 -1.75 0.85 -2.95 0 -2.90 0 -1.25 -0.65z"/>
  <path d="M114 60.85 l-1.20 -0.60 -1.15 -1.65 -1.10 -1.65 -0.30 -2.60 -0.30 -2.60 0.15 -17 0.15 -17 0.70 -1.40 0.75 -1.45 1.90 -0.95 1.85 -0.95 5.55 0 5.55 0 -0.15 22.15 -0.15 22.10 -1 1.45 -0.95 1.45 -1.65 0.65 -1.60 0.70 -2.90 0 -2.90 0 -1.25 -0.65z m6.55 -4.80 l1.45 -1.45 0 -18.80 0 -18.80 -1.45 0 c-0.75 0 -2.10 0.25 -2.95 0.55 l-1.50 0.50 -0.85 1.75 -0.80 1.70 0.15 16.40 0.15 16.35 0.90 1.35 0.95 1.35 0.80 0.20 c1.55 0.40 1.65 0.35 3.15 -1.10z"/>
  <path d="M196.55 60.60 l-1.70 -0.95 -0.95 -1.70 -0.90 -1.70 0 -5.40 0 -5.40 2.15 0.15 2.10 0.15 0.25 4.60 0.25 4.65 1.10 1.05 1.05 1.10 1.40 0 1.40 0 1.15 -1.45 1.15 -1.45 0 -6.10 0 -6.10 -1 -1.65 -0.95 -1.70 -4.05 -3.65 -4.05 -3.65 -1.15 -2.25 -1.15 -2.30 -0.35 2.20 c-0.45 2.85 -1.90 6.05 -3.80 8.35 l-1.50 1.85 0 10.85 0 10.90 -2.25 0 -2.25 0 0 -10.90 0 -10.95 -1.05 -1.20 c-0.60 -0.65 -1.60 -2.05 -2.25 -3.10 l-1.20 -1.85 -0.75 -2.85 -0.75 -2.85 0 -6.95 0 -6.90 2.15 0.15 2.10 0.15 0.30 6.50 0.30 6.50 0.50 1.50 c0.55 1.65 2.55 5.75 2.85 5.75 0.20 0 2.10 -3.85 2.85 -5.75 l0.60 -1.50 0.30 -6.50 0.30 -6.50 2.15 -0.15 2.10 -0.15 0 2.40 0.05 2.40 0.85 -1.65 0.90 -1.65 1.50 -0.95 1.45 -1 3.60 0 3.55 0 1.65 1.35 1.60 1.35 0.65 1.65 0.70 1.60 0 4.45 0 4.50 -0.70 0.55 -0.75 0.60 -1.40 -0.15 -1.40 -0.15 -0.15 -4.35 -0.15 -4.35 -1.40 -1.50 -1.45 -1.55 -0.85 0 -0.85 0 -1.45 1.45 -1.45 1.45 0 2.55 0 2.50 0.50 1.25 0.45 1.25 1.90 1.90 c1.05 1.05 2.90 2.70 4.05 3.65 l2.10 1.75 1.40 2 1.35 2 0 9.35 0 9.40 -1.85 1.85 -1.90 1.90 -3.60 0.15 -3.65 0.15 -1.70 -0.95z"/>
  <path d="M214.70 60.75 l-1.55 -0.80 -1.05 -1.90 -1.10 -1.95 0 -5.30 0 -5.35 2.15 0.15 2.10 0.15 0.25 4.60 0.25 4.65 1 0.95 c1 1 1.75 1.20 3.40 1.10 l0.85 -0.05 1 -1.60 1 -1.65 0 -5.85 0 -5.85 -1 -1.65 -0.95 -1.70 -4.05 -3.65 -4.05 -3.65 -0.95 -1.95 -1 -1.90 0 -4.55 0 -4.55 0.95 -1.85 0.95 -1.85 1.50 -0.85 1.50 -0.90 3.50 0 3.50 0 1.65 1.35 1.60 1.35 0.65 1.65 0.70 1.60 0 4.50 0 4.50 -1.05 0.55 -1 0.55 -1.10 -0.15 -1.10 -0.15 -0.15 -4.35 -0.15 -4.35 -1.40 -1.50 -1.45 -1.55 -0.85 0 -0.85 0 -1.45 1.45 -1.45 1.45 0 2.55 0 2.50 0.50 1.25 0.45 1.25 1.90 1.90 c1.05 1.05 2.90 2.70 4.05 3.65 l2.10 1.75 1.40 2 1.35 2 0 9.35 0 9.40 -1.85 1.85 -1.90 1.90 -3.60 0.15 -3.65 0.15 -1.55 -0.80z"/>
  <path d="M17.70 60.30 l-0.25 -0.70 0.15 -20.75 0.15 -20.80 1.05 -1.40 1 -1.40 1.75 -0.85 1.70 -0.90 5.40 0 5.35 0 0 6.15 -0.05 6.10 -0.65 3.85 -0.70 3.85 -1.15 2.30 -1.15 2.30 -2 1.95 -1.95 1.95 -2.20 1.05 -2.15 1 0 8.50 0 8.50 -2 0 -2.05 0 -0.25 -0.70z m8.15 -25.20 l1.55 -2.10 0.90 -2.85 0.85 -2.90 0.25 -4.85 0.25 -4.90 -1.35 0 -1.35 0 -1.70 0.70 -1.70 0.70 -0.75 1.55 -0.80 1.50 0 8.35 0 8.30 1.15 -0.70 c0.60 -0.40 1.80 -1.70 2.70 -2.80z"/>
  <path d="M53.70 60.30 l-0.25 -0.70 0.15 -20.75 0.15 -20.80 1.05 -1.40 1 -1.40 1.75 -0.85 1.70 -0.90 4.15 0 4.10 0 0 2 0 2 -1.85 0 c-1.05 0 -2.75 0.25 -3.80 0.55 l-1.90 0.50 -0.95 1.60 -1 1.60 0 5.65 0 5.60 4.40 0 4.40 0 0.60 0.60 0.60 0.60 0 1.05 0 1.05 -0.60 0.60 -0.60 0.60 -4.40 0 -4.40 0 0 9.75 0 9.75 5.30 0 5.25 0 -0.15 1.90 -0.15 1.85 -7.15 0.15 -7.10 0.15 -0.30 -0.75z"/>
  <path d="M91 37.25 l0 -23.75 5.25 0 5.25 0 1.90 0.75 1.90 0.80 1 1.60 0.95 1.60 0 18.75 0 18.75 -0.70 1.60 -0.65 1.60 -2.10 1.05 -2.10 1 -5.35 0 -5.35 0 0 -23.75z m8.15 19.20 l1.90 -0.50 1 -1.60 0.95 -1.60 -0.10 -16.10 -0.15 -16.15 -1.25 -1.25 -1.25 -1.25 -2.40 -0.30 -2.35 -0.35 0 19.85 0 19.80 0.90 0 c0.45 0 1.70 -0.25 2.75 -0.55z"/>
  <path d="M138.70 60.30 l-0.25 -0.70 0.15 -20.75 0.15 -20.80 1.05 -1.40 1 -1.40 1.75 -0.85 1.70 -0.90 5.15 0 5.10 0 0 23.75 0 23.75 -2.25 0 -2.25 0 0 -9.50 0 -9.50 -3.50 0 -3.50 0 0 9.50 0 9.50 -2 0 -2.05 0 -0.25 -0.70z m11.30 -32.55 l0 -10.25 -0.60 0 c-0.35 0 -1.50 0.25 -2.55 0.55 l-1.90 0.50 -0.95 1.60 -1 1.60 0 8.15 0 8.10 3.50 0 3.50 0 0 -10.25z"/>
  <path d="M158.70 60.30 l-0.25 -0.70 0.15 -20.75 0.15 -20.80 1.05 -1.40 1 -1.40 1.75 -0.85 1.70 -0.90 5.40 0 5.35 0 0 9.40 0 9.35 -0.90 1.50 -0.95 1.50 0.95 1.50 0.90 1.50 0 9.05 0 9.05 -1.10 1.65 -1.15 1.65 -1.75 0.65 -1.75 0.60 -5.15 0.05 -5.15 0.05 -0.25 -0.70z m8.10 -3.85 l2.25 -0.60 0.70 -1.40 0.75 -1.40 0 -6.05 0 -6.05 -0.75 -1.40 -0.70 -1.40 -1.15 -0.35 c-0.65 -0.15 -2 -0.30 -3 -0.30 l-1.90 0 0 9.40 0 9.45 0.35 0.30 c0.45 0.45 0.85 0.45 3.45 -0.20z m1.45 -23.75 l0.80 -0.30 0.70 -1.45 0.75 -1.40 0 -6.05 0 -6 -1.25 0 c-0.70 0 -2.05 0.30 -3 0.70 l-1.70 0.70 -0.75 1.55 -0.80 1.50 0 5.55 0 5.50 2.20 0 c1.20 0 2.60 -0.15 3.05 -0.30z"/>
 </g>
 <g fill="#40e4e3">
  <path d="M87.55 24.30 l-0.60 -0.70 0.15 -4.45 0.15 -4.40 1.90 -0.15 1.85 -0.15 0 5.25 0 5.30 -1.45 0 -1.45 0 -0.55 -0.70z"/>
  <path d="M8.15 23.65 l-1.15 -0.20 0 -4.25 0 -4.20 6.05 0 6.05 0 -0.25 1.65 c-0.15 0.85 -0.55 2.75 -0.85 4.15 l-0.60 2.60 -1.50 0.30 c-1.65 0.30 -5.95 0.30 -7.75 -0.05z"/>
  <path d="M59.30 23.40 l-1.40 -0.50 0.30 -1.80 0.25 -1.80 0.70 -0.65 0.70 -0.70 3.45 -0.35 3.45 -0.35 0.65 -1.35 0.65 -1.40 1.25 0 1.20 0 0 4.45 0 4.45 -1.55 0.30 c-0.85 0.15 -3.05 0.30 -4.90 0.25 l-3.30 -0.05 -1.45 -0.50z"/>
  <path d="M76.40 23.65 l-1.40 -0.20 0 -4.25 0 -4.20 1.90 0 c1 0 2.70 -0.15 3.75 -0.30 l1.85 -0.35 0 4.50 0 4.50 -1.85 0.35 c-1.05 0.15 -2.10 0.25 -2.40 0.20 -0.25 0 -1.10 -0.15 -1.85 -0.25z"/>
  <path d="M107.10 22.15 l0.05 -1.90 -0.65 -1.80 -0.65 -1.80 0.30 -0.85 0.30 -0.80 2.30 0 2.25 0 -0.05 1.65 c0 0.85 -0.30 2.85 -0.60 4.35 l-0.60 2.75 -1.35 0.15 -1.40 0.15 0.10 -1.90z"/>
  <path d="M127.65 23.50 l-1.15 -0.45 0 -4.05 0 -4.05 6.65 0.15 6.60 0.15 -0.10 1.50 c-0.05 0.85 -0.35 2.65 -0.65 4.05 l-0.60 2.60 -1.50 0.30 c-0.85 0.15 -3 0.30 -4.85 0.25 l-3.30 0 -1.10 -0.45z"/>
  <path d="M228.70 23.50 l-1 -0.40 -0.60 -3.25 c-0.35 -1.75 -0.60 -3.60 -0.60 -4.05 l0 -0.80 5.75 0 5.75 0 0 4.20 0 4.20 -1.55 0.30 c-0.85 0.15 -2.75 0.30 -4.15 0.25 l-2.55 0 -1.05 -0.45z"/>
  <path d="M41.15 23.15 l-1.65 -0.20 0 -1.85 0 -1.90 0.80 -1.10 0.75 -1.10 2.15 0 2.15 0 0.80 0.90 0.85 0.95 0 2.30 0 2.35 -2.10 -0.10 c-1.20 0 -2.90 -0.15 -3.75 -0.25z"/>
  <path d="M97.40 23.15 l-1.90 -0.20 0 -2.75 0 -2.70 1.70 0 c0.90 0 2.35 0.15 3.20 0.30 l1.50 0.30 0.55 1.20 0.55 1.25 0 1.45 0 1.50 -1.85 -0.10 c-1.05 -0.05 -2.75 -0.15 -3.75 -0.25z"/>
  <path d="M115.30 23.10 c-0.15 -0.25 -0.30 -1.60 -0.35 -3.05 l-0.15 -2.65 0.55 -0.30 0.55 -0.35 3.05 0.15 3.05 0.20 0 2.90 0 2.90 -1.55 0.30 c-0.85 0.15 -2.30 0.30 -3.25 0.30 l-1.65 0 -0.25 -0.40z"/>
  <path d="M143 21.85 l0 -1.75 0.90 -1.05 0.85 -1.10 2.65 -0.30 2.60 -0.30 0 2.85 0 2.80 -1.60 0 c-0.90 0 -2.50 0.15 -3.50 0.30 l-1.90 0.35 0 -1.80z"/>
  <path d="M154.85 23.15 l-0.35 -0.30 0 -3.95 0 -3.90 2.25 0 2.30 0 0.30 0.80 0.30 0.80 -0.60 3.45 -0.65 3.45 -1.60 0 c-0.90 0 -1.80 -0.15 -1.95 -0.35z"/>
  <path d="M164.15 23.15 l-0.65 -0.25 0 -1.90 0 -1.90 0.80 -0.65 0.75 -0.60 2.75 -0.25 2.70 -0.20 0 2.70 0 2.75 -1.85 0.35 c-2.15 0.35 -3.65 0.35 -4.50 -0.05z"/>
  <path d="M181 19.25 l0 -4.25 1.90 0 c1 0 2.70 -0.15 3.75 -0.30 l1.85 -0.35 0 4.60 0 4.55 -3.75 0 -3.75 0 0 -4.25z"/>
  <path d="M199.15 23.15 l-1.65 -0.20 0 -1.85 0 -1.90 0.80 -1.10 0.75 -1.10 2.15 0 2.15 0 0.80 0.90 0.85 0.95 0 2.30 0 2.35 -2.10 -0.10 c-1.20 0 -2.90 -0.15 -3.75 -0.25z"/>
  <path d="M217.15 23.15 l-1.65 -0.20 0 -1.85 0 -1.90 0.80 -1.10 0.75 -1.10 2.15 0 2.15 0 0.80 0.90 0.85 0.95 0 2.30 0 2.35 -2.10 -0.10 c-1.20 0 -2.90 -0.15 -3.75 -0.25z"/>
  <path d="M22.50 21.05 l0 -1.95 0.80 -0.65 0.75 -0.60 2.75 -0.25 2.70 -0.20 0 2.80 0 2.80 -3.50 0 -3.50 0 0 -1.95z"/>
  <path d="M51 20.30 c0 -0.35 -0.15 -1.70 -0.30 -3 l-0.35 -2.30 2.35 0 2.30 0 0 1 c0 0.55 -0.30 1.90 -0.60 3 l-0.65 2 -1.35 0 -1.40 0 0 -0.70z"/>
 </g>
 <g fill="#bd49e9">
  <path d="M7 66.25 l0 -2.75 1.15 -0.05 c10.10 -0.70 10.50 -0.70 18.65 -0.20 l7 0.40 2.85 -0.35 2.85 -0.35 0 -0.65 0 -0.65 3.80 -0.30 3.85 -0.30 0.80 0.90 0.80 0.85 6.40 -0.20 6.35 -0.20 0 -0.70 0 -0.70 1.75 0 1.75 0 0 0.75 0 0.75 1.40 0 c0.75 0 2.20 0.15 3.25 0.30 l1.85 0.35 0 -1.30 0 -1.25 0.80 -0.30 c0.45 -0.15 1.20 -0.30 1.70 -0.30 l0.90 0 0.25 0.65 0.20 0.60 3.80 -0.05 3.85 -0.05 0 0.60 0 0.65 0.85 0.30 0.85 0.35 7.15 -0.35 7.20 -0.35 0.25 -0.40 c0.15 -0.25 0.70 -0.45 1.25 -0.45 l0.95 0 0 -0.75 0 -0.75 1.30 0 1.30 0 -0.20 1.45 -0.20 1.45 2.70 0.30 2.70 0.30 2.45 -0.30 2.45 -0.35 0 -0.80 0 -0.85 4.25 0 4.25 0 0 0.65 0 0.65 1.40 0.35 1.35 0.35 5 0 c2.75 0 9.95 -0.15 16 -0.35 l11 -0.30 0.15 -0.55 0.20 -0.50 1.20 0 1.20 0 0 0.50 0 0.50 1 0 1 0 0 -0.75 0 -0.75 1.25 0 1.25 0 0 0.75 0 0.75 1.30 0 1.30 0 0.25 -0.95 0.25 -0.95 1.50 -0.30 c0.85 -0.15 1.85 -0.30 2.20 -0.30 l0.70 0 0 1.20 0 1.20 -0.60 0.25 -0.65 0.20 3.50 0.35 3.50 0.35 2.35 -0.50 2.35 -0.55 5.15 0.55 5.15 0.50 2.35 -0.30 2.40 -0.35 0 -0.70 0 -0.70 2.15 0 c1.15 0 2.95 -0.15 4 -0.30 l1.85 -0.35 0 0.80 0 0.80 1.50 0.40 1.45 0.40 3.55 -0.15 3.50 -0.20 0 -0.70 0 -0.70 2.15 0 c1.15 0 2.95 -0.15 4 -0.30 l1.85 -0.35 0 0.80 0 0.80 1.15 0.35 1.10 0.35 5.40 -0.05 5.35 -0.05 0 0.70 0 0.75 0.80 0 0.75 0 -0.15 2.15 -0.15 2.10 -115.35 0.15 -115.40 0.10 0 -2.75z m67.50 -3.50 c0 -0.15 -0.10 -0.25 -0.25 -0.25 -0.15 0 -0.25 0.10 -0.25 0.25 0 0.15 0.10 0.25 0.25 0.25 0.15 0 0.25 -0.10 0.25 -0.25z"/>
 </g>
 <g fill="#c943e1">
  <path d="M237 66 l0 -0.50 -0.75 0 -0.75 0 0 -0.65 0 -0.65 -4.10 -0.05 c-2.30 -0.05 -7.95 -0.05 -12.65 -0.05 -4.65 0.05 -9.30 0 -10.25 -0.05 -0.95 -0.05 -4.10 0 -7 0.05 -2.90 0.05 -6.95 0.10 -9 0.10 -3.60 0 -5.95 0 -17.20 -0.05 l-4.90 -0.05 -0.40 -0.60 -0.35 -0.55 -1.70 0.25 c-0.95 0.20 -5.95 0.45 -11.20 0.60 -13.60 0.35 -13.55 0.35 -25.50 0.30 -3 0 -8.30 0 -11.75 0.05 -3.45 0 -8.55 0 -11.35 0 l-5.15 0 -1 -0.90 -1 -0.90 -0.60 0.55 -0.65 0.50 -7 0.40 c-3.85 0.20 -7.35 0.35 -7.75 0.30 -0.40 -0.05 -9 -0.15 -19.10 -0.25 l-18.35 -0.15 -0.30 -0.30 -0.30 -0.25 -2.35 0.45 -2.35 0.50 -9 0.05 c-4.95 0.05 -10.55 0.05 -12.50 -0.05 -1.90 -0.10 -5.50 0 -8 0.15 l-4.50 0.30 -0.15 0.45 c-0.10 0.30 -0.40 0.50 -0.65 0.50 l-0.45 0 0 -2.90 0 -2.95 5.05 -0.35 5.10 -0.30 0.70 1 0.70 1 1.20 0 1.20 0 0.65 -0.90 0.65 -0.90 5 0 5 0 2.15 -0.40 2.10 -0.45 2.10 1.40 2.15 1.40 2.25 0.25 2.30 0.20 2.35 -1.80 2.35 -1.80 1.75 0 1.75 0 0 0.90 0 0.90 0.60 0.60 0.60 0.60 6.35 0 6.35 0 0.50 -0.60 c0.25 -0.35 0.55 -1.10 0.70 -1.65 l0.15 -1 1.45 -0.15 1.40 -0.20 1.60 1.50 c0.85 0.80 2.05 1.75 2.65 2.05 l1.10 0.55 1.80 0 1.80 0 1.60 -0.80 c0.90 -0.45 2.10 -1.30 2.75 -1.85 l1.15 -1.05 2.30 0.60 2.35 0.65 0.70 1.05 0.75 1 4.55 -0.20 4.55 -0.20 2.35 -1.10 2.40 -1.10 0 -1 0 -1 1.25 0 1.25 0 0 1 0 1 1.75 0 1.75 0 2.10 1.50 2.05 1.50 1.95 0 1.95 0 1.85 -0.95 1.85 -0.90 7.30 -0.30 7.25 -0.30 0.60 1 0.60 0.95 1.25 0 1.25 0 0.60 -1 0.65 -1 3.25 0 3.25 0 0.65 1 0.60 1 1.45 0 1.45 0 0.60 -1.50 0.60 -1.50 1.70 0 1.70 0 0 0.95 0 0.95 0.75 0.60 0.75 0.60 4.60 -0.20 4.65 -0.20 1.60 -0.85 1.60 -0.85 5 0 5 0 0.55 1.05 0.55 1 1.35 -0.15 1.35 -0.15 0.45 -1.05 0.45 -1.05 3.80 -0.05 3.80 0 1.95 1.25 2 1.30 2.10 0.25 2.15 0.20 1.65 -1 c0.95 -0.60 2.15 -1.50 2.65 -2.10 l0.90 -1 1.90 0 1.90 0 1.30 1.20 c0.70 0.65 2.05 1.55 2.95 2 l1.70 0.80 1.70 0 1.65 0 1.50 -1 1.50 -1 6.90 0 6.85 0 0 3.50 0 3.50 -0.50 0 c-0.25 0 -0.50 -0.20 -0.50 -0.50z m-194.85 -3.35 l-0.65 -0.25 -0.60 0.25 -0.65 0.25 1.25 0 1.25 0 -0.60 -0.25z m1.70 0 l-0.35 -0.30 -0.35 0.30 -0.30 0.35 0.65 0 0.65 0 -0.30 -0.35z m34.50 0 l-0.35 -0.30 -0.35 0.30 -0.30 0.35 0.65 0 0.65 0 -0.30 -0.35z m1.15 0.10 c0 -0.15 -0.10 -0.25 -0.25 -0.25 -0.15 0 -0.25 0.10 -0.25 0.25 0 0.15 0.10 0.25 0.25 0.25 0.15 0 0.25 -0.10 0.25 -0.25z m38 0.05 c0 -0.10 -0.55 -0.30 -1.25 -0.40 l-1.20 -0.25 0.25 0.40 c0.25 0.45 2.20 0.65 2.20 0.25z m1.35 -0.15 l-0.35 -0.30 -0.35 0.30 -0.30 0.35 0.65 0 0.65 0 -0.30 -0.35z m40.15 0.10 c0 -0.15 -0.10 -0.25 -0.25 -0.25 -0.15 0 -0.25 0.10 -0.25 0.25 0 0.15 0.10 0.25 0.25 0.25 0.15 0 0.25 -0.10 0.25 -0.25z m41.15 -0.10 l-0.65 -0.25 -0.60 0.25 -0.65 0.25 1.25 0 1.25 0 -0.60 -0.25z m1.70 0 l-0.35 -0.30 -0.35 0.30 -0.30 0.35 0.65 0 0.65 0 -0.30 -0.35z m16 0.05 l-0.30 -0.30 -0.65 0.25 -0.65 0.25 0.95 0.05 0.95 0.05 -0.30 -0.30z m2 -0.05 l-0.35 -0.30 -0.35 0.30 -0.30 0.35 0.65 0 0.65 0 -0.30 -0.35z m-173.35 -0.40 c0 -0.15 -0.10 -0.25 -0.25 -0.25 -0.15 0 -0.25 0.10 -0.25 0.25 0 0.15 0.10 0.25 0.25 0.25 0.15 0 0.25 -0.10 0.25 -0.25z m17.35 -0.05 l-0.30 -0.30 -0.65 0.25 -0.65 0.25 0.95 0.05 0.95 0.05 -0.30 -0.30z m12.15 0.05 c0 -0.15 -0.10 -0.25 -0.25 -0.25 -0.15 0 -0.25 0.10 -0.25 0.25 0 0.15 0.10 0.25 0.25 0.25 0.15 0 0.25 -0.10 0.25 -0.25z m6 0 c0 -0.15 -0.10 -0.25 -0.25 -0.25 -0.15 0 -0.25 0.10 -0.25 0.25 0 0.15 0.10 0.25 0.25 0.25 0.15 0 0.25 -0.10 0.25 -0.25z m39.50 0 c0 -0.15 -0.10 -0.25 -0.25 -0.25 -0.15 0 -0.25 0.10 -0.25 0.25 0 0.15 0.10 0.25 0.25 0.25 0.15 0 0.25 -0.10 0.25 -0.25z m42 0 c0 -0.15 -0.10 -0.25 -0.25 -0.25 -0.15 0 -0.25 0.10 -0.25 0.25 0 0.15 0.10 0.25 0.25 0.25 0.15 0 0.25 -0.10 0.25 -0.25z m41 0 c0 -0.15 -0.10 -0.25 -0.25 -0.25 -0.15 0 -0.25 0.10 -0.25 0.25 0 0.15 0.10 0.25 0.25 0.25 0.15 0 0.25 -0.10 0.25 -0.25z m18 0 c0 -0.15 -0.10 -0.25 -0.25 -0.25 -0.15 0 -0.25 0.10 -0.25 0.25 0 0.15 0.10 0.25 0.25 0.25 0.15 0 0.25 -0.10 0.25 -0.25z m-149.50 -0.50 c0 -0.15 -0.10 -0.25 -0.25 -0.25 -0.15 0 -0.25 0.10 -0.25 0.25 0 0.15 0.10 0.25 0.25 0.25 0.15 0 0.25 -0.10 0.25 -0.25z m96 0 c0 -0.15 -0.10 -0.25 -0.25 -0.25 -0.15 0 -0.25 0.10 -0.25 0.25 0 0.15 0.10 0.25 0.25 0.25 0.15 0 0.25 -0.10 0.25 -0.25z m-95 -0.50 c0 -0.15 -0.10 -0.25 -0.25 -0.25 -0.15 0 -0.25 0.10 -0.25 0.25 0 0.15 0.10 0.25 0.25 0.25 0.15 0 0.25 -0.10 0.25 -0.25z m29 0 c0 -0.15 -0.10 -0.25 -0.25 -0.25 -0.15 0 -0.25 0.10 -0.25 0.25 0 0.15 0.10 0.25 0.25 0.25 0.15 0 0.25 -0.10 0.25 -0.25z m68 0 c0 -0.15 -0.10 -0.25 -0.25 -0.25 -0.15 0 -0.25 0.10 -0.25 0.25 0 0.15 0.10 0.25 0.25 0.25 0.15 0 0.25 -0.10 0.25 -0.25z"/>
 </g>
 <g fill="#c4e442">
  <path d="M87.30 43.45 c-0.15 -0.85 -0.30 -2.55 -0.30 -3.80 l0 -2.20 0.50 -1 0.55 -0.95 1.15 0 1.20 0 0.30 0.80 c0.15 0.45 0.30 2.15 0.30 3.75 l0 3 -0.50 1 -0.55 0.95 -1.15 0 -1.15 0 -0.35 -1.55z"/>
  <path d="M31.25 44.05 l-4.50 -0.30 -0.15 -1.35 -0.15 -1.40 2.40 -2.75 2.40 -2.75 2.50 0.05 c1.40 0.05 3.75 -0.10 5.30 -0.30 l2.85 -0.35 2.55 2.45 2.55 2.45 0 1.80 0 1.85 -0.85 0.25 c-0.50 0.10 -3.05 0.35 -5.65 0.45 l-4.75 0.20 -4.50 -0.30z"/>
  <path d="M114.50 40.70 l0 -3.95 0.40 -0.60 0.35 -0.60 3.40 0 3.35 0 0 4.25 0 4.20 -1.85 0 c-1.05 0 -2.75 0.15 -3.75 0.30 l-1.90 0.35 0 -3.95z"/>
  <path d="M126.50 40.70 l0 -3.95 0.40 -0.55 0.35 -0.55 5.65 0 5.60 0.05 0 4.15 0 4.15 -4.10 0 c-2.30 0 -5 0.15 -6 0.30 l-1.90 0.35 0 -3.95z"/>
  <path d="M190.15 44.15 l-3.15 -0.20 0 -3.15 0 -3.15 1.15 -1 1.10 -1 5.40 -0.30 5.40 -0.30 2.50 2.40 2.45 2.35 0 1.80 0 1.85 -0.85 0.25 c-1.35 0.40 -10.50 0.70 -14 0.45z"/>
  <path d="M210.20 44.15 l-0.60 -0.40 -0.60 -2.75 -0.60 -2.75 0.15 -1.25 0.20 -1.25 2.25 -0.10 c1.25 -0.05 3.30 -0.25 4.55 -0.40 l2.35 -0.35 2.55 2.45 2.55 2.45 0 1.80 0 1.80 -0.65 0.25 c-0.40 0.15 -3.15 0.40 -6.15 0.60 l-5.45 0.30 -0.55 -0.40z"/>
  <path d="M7 39.80 l0 -4.15 5.25 0 5.25 0 0 4.20 0 4.15 -5.25 0 -5.25 0 0 -4.20z"/>
  <path d="M58 40.75 l0 -3.25 4.25 0 4.25 0 0.80 -1.25 0.80 -1.25 1.20 0 1.20 0 0 4.50 0 4.50 -6.25 0 -6.25 0 0 -3.25z"/>
  <path d="M75 39.75 l0 -4.25 3.75 0 3.75 0 0 4.25 0 4.25 -3.75 0 -3.75 0 0 -4.25z"/>
  <path d="M95.50 39.75 l0 -4.25 3.75 0 3.75 0 0 4.25 0 4.25 -3.75 0 -3.75 0 0 -4.25z"/>
  <path d="M107.50 40.25 l0 -3.75 1.25 0 1.25 0 0 3.75 0 3.75 -1.25 0 -1.25 0 0 -3.75z"/>
  <path d="M163 40.75 l0 -3.25 2.95 0 3 0 0.75 0.80 0.80 0.75 0 2.50 0 2.45 -3.75 0 -3.75 0 0 -3.25z"/>
  <path d="M174.80 39.95 l-0.40 -4.05 0.30 -0.25 c0.15 -0.15 1.35 -0.40 2.70 -0.55 l2.40 -0.20 1.35 1.60 1.35 1.60 0 2.95 0 2.95 -3.70 0 -3.65 0 -0.35 -4.05z"/>
  <path d="M227 41.10 l-0.60 -2.90 0.20 -1.25 0.15 -1.20 5.65 0 5.60 -0.05 0 4.15 0 4.15 -5.20 0 -5.15 0 -0.65 -2.90z"/>
  <path d="M154.50 40.90 c0 -1.45 0.15 -3.15 0.30 -3.75 l0.30 -1.15 1.70 0 1.70 0 0 3.75 0 3.75 -2 0 -2 0 0 -2.60z"/>
  <path d="M51 38.75 l0 -1.25 1.25 0 1.25 0 0 1.25 0 1.25 -1.25 0 -1.25 0 0 -1.25z"/>
 </g>
 <g fill="#e244a9">
  <path d="M16.95 61.10 l-0.70 -0.95 -4.10 0.25 -4.15 0.25 0 0.40 c0 0.25 -0.20 0.45 -0.50 0.45 l-0.50 0 0 -3.90 0 -3.95 5.20 0 5.15 0 0.30 4.05 c0.15 2.25 0.20 4.10 0.10 4.20 -0.10 0.10 -0.45 -0.25 -0.80 -0.80z"/>
  <path d="M53.10 61.40 l-0.60 -0.60 0 -0.95 0 -0.95 -1.25 0.20 -1.25 0.25 0 -0.90 c0 -0.50 0.25 -1.50 0.60 -2.20 l0.55 -1.25 1.45 0 1.40 0 0 3.50 c0 1.95 -0.05 3.50 -0.15 3.50 -0.10 0 -0.40 -0.25 -0.75 -0.60z"/>
  <path d="M68.15 60.25 c0.20 -1.10 0.35 -2.40 0.35 -2.85 l0 -0.90 1.70 0 1.70 0 0.30 0.80 c0.15 0.45 0.30 1.25 0.30 1.80 l0 1.05 -0.95 -0.85 -1 -0.90 -0.50 0.35 -0.55 0.30 0 0.90 0 0.95 -0.85 0.65 -0.80 0.70 0.30 -2z"/>
  <path d="M138 61.15 l-0.60 -0.95 -6.35 0.20 -6.30 0.20 -0.85 0.50 -0.90 0.45 0 -0.90 0 -0.85 1.05 -1.10 1.05 -1.10 0.65 -1.95 0.65 -1.90 6 -0.05 5.95 0 0.30 4 c0.15 2.25 0.20 4.10 0.10 4.20 -0.10 0.10 -0.45 -0.25 -0.75 -0.75z"/>
  <path d="M149.40 61.05 l-0.65 -1.05 -2.35 0 -2.40 0 0 0.50 c0 0.30 -0.20 0.50 -0.50 0.50 l-0.50 0 0 -3.75 0 -3.70 3.45 0 3.40 0 0.30 4.10 c0.15 2.25 0.20 4.15 0.10 4.25 -0.10 0.10 -0.50 -0.25 -0.85 -0.85z"/>
  <path d="M158.10 61.40 l-0.60 -0.60 0 -0.90 0 -0.90 -0.70 0 -0.75 0 -0.30 1 -0.30 1 -0.50 0 -0.50 0 0.15 -3.60 0.15 -3.65 1.80 -0.15 1.80 -0.15 0.30 4.15 c0.15 2.30 0.20 4.20 0.15 4.25 -0.05 0.10 -0.40 -0.15 -0.70 -0.45z"/>
  <path d="M83.50 60.60 l0 -0.95 0.95 -0.85 1 -0.90 0.75 -2.20 c0.40 -1.20 1.10 -2.55 1.50 -2.95 l0.75 -0.75 0.95 0 0.95 0 0.35 1.90 c0.15 1 0.30 3.05 0.30 4.50 l0 2.60 -0.50 0 c-0.25 0 -0.50 -0.20 -0.50 -0.40 l0 -0.45 -1.75 -0.50 -1.70 -0.55 -0.60 0.75 c-0.35 0.40 -1.05 0.95 -1.55 1.20 l-0.90 0.50 0 -0.95z"/>
  <path d="M237 60.95 l0 -0.50 -6.25 0.15 -6.25 0.15 0 -0.70 c0 -0.40 0.35 -1.10 0.80 -1.60 0.45 -0.50 1.10 -1.75 1.45 -2.80 l0.65 -1.90 5.30 -0.05 5.30 -0.10 0 3.95 0 3.95 -0.50 0 -0.50 0 0 -0.55z"/>
  <path d="M22 57.35 l0 -3.65 6.50 0 6.55 0 0.55 1.90 0.55 1.90 0.70 0.55 0.65 0.55 0 1 0 0.95 -1 -0.55 -1 -0.55 -1.90 0.55 -1.85 0.60 -4.40 -0.20 -4.35 -0.15 0 0.40 c0 0.20 -0.20 0.35 -0.50 0.35 l-0.50 0 0 -3.65z"/>
  <path d="M103 60.25 l0 -0.75 0.50 0 c0.30 0 1.10 -0.60 1.75 -1.35 l1.20 -1.40 0.35 -1.50 0.35 -1.50 0.55 -0.35 c0.30 -0.20 1.05 -0.40 1.65 -0.40 l1.05 0 0.35 2 0.35 2 0.45 0.30 0.45 0.25 0 1.10 0 1.10 -2.50 -0.15 -2.45 -0.20 -1.60 0.80 c-0.90 0.45 -1.80 0.80 -2.05 0.80 l-0.40 0 0 -0.75z m4.50 -2.50 c0 -0.15 -0.10 -0.25 -0.25 -0.25 -0.15 0 -0.25 0.10 -0.25 0.25 0 0.15 0.10 0.25 0.25 0.25 0.15 0 0.25 -0.10 0.25 -0.25z"/>
  <path d="M171.50 60.10 l0 -0.95 1.15 -1.05 1.15 -1.10 0.70 -1.75 0.70 -1.75 3.65 0 3.65 0 0 3.80 0 3.80 -0.60 -0.50 -0.65 -0.50 -4 0 -4 0.05 -0.85 0.45 -0.90 0.45 0 -0.95z"/>
  <path d="M187.40 60.70 l-0.40 -0.35 0 -3.45 0 -3.40 2.80 0 2.75 0 1 2.25 c0.55 1.20 1.20 2.35 1.45 2.50 l0.50 0.30 0 1 0 1 -0.60 -0.35 -0.65 -0.40 -3.10 -0.05 -3.10 0 -0.15 0.65 -0.15 0.70 -0.35 -0.40z"/>
  <path d="M212.10 59.60 l-1.10 -1.10 -0.90 0 -0.90 0 -0.60 0.60 -0.60 0.60 0 -1.15 c0 -0.60 0.25 -1.55 0.50 -2.10 l0.55 -0.95 1.45 0 1.50 0 0 1.05 0 1.10 0.80 0.60 0.80 0.55 -0.20 1 -0.15 0.95 -1.15 -1.15z"/>
 </g>
 <g fill="#e6a343">
  <path d="M87.30 50.20 c-0.15 -0.45 -0.30 -2.70 -0.30 -5 l0 -4.20 0.50 0 0.45 0 0.45 1.65 0.45 1.60 0.65 -1.35 c0.35 -0.80 0.85 -1.40 1.10 -1.40 l0.40 0 0 3.95 c0 2.20 -0.15 4.30 -0.30 4.75 l-0.30 0.80 -1.40 0 -1.40 0 -0.30 -0.80z"/>
  <path d="M107.15 49.70 l-0.30 -0.80 0.30 -3.25 c0.20 -1.80 0.45 -3.40 0.60 -3.60 l0.30 -0.25 0.45 0.70 0.50 0.75 0 -0.60 0 -0.65 0.50 0 0.50 0 0 4.25 0 4.25 -1.25 0 -1.30 0 -0.30 -0.80z"/>
  <path d="M114.50 46.60 l0 -4.05 0.50 -0.30 0.50 -0.30 0 0.65 0 0.65 2.75 -0.15 2.75 -0.20 0 -0.45 c0 -0.25 0.25 -0.45 0.50 -0.45 l0.50 0 0 4 0 4 -1.85 0 c-1.05 0 -2.75 0.15 -3.75 0.30 l-1.90 0.35 0 -4.05z"/>
  <path d="M126.50 46.60 l0 -4.05 0.50 -0.30 0.50 -0.30 0 0.65 0 0.65 5 -0.15 5 -0.15 0 -0.50 c0 -0.25 0.25 -0.45 0.50 -0.45 l0.50 0 0 4 0 4 -4.10 0 c-2.30 0 -5 0.15 -6 0.30 l-1.90 0.35 0 -4.05z"/>
  <path d="M7 46 l0 -4 0.50 0 c0.30 0 0.50 0.25 0.50 0.50 l0 0.50 4.25 0 4.25 0 0 -0.50 c0 -0.25 0.25 -0.50 0.50 -0.50 l0.50 0 0 4 0 4 -5.25 0 -5.25 0 0 -4z"/>
  <path d="M22 46.80 l0 -3.15 2 -1.35 2 -1.30 0.95 0 0.95 0 -0.10 0.90 -0.05 0.85 5.25 0.30 5.25 0.30 3.70 -0.35 3.75 -0.30 0.20 -0.60 c0.10 -0.35 0.40 -0.60 0.65 -0.60 l0.45 0 0 4.25 0 4.25 -3.75 0 -3.75 0 0 -1.30 c0 -0.70 -0.25 -1.70 -0.50 -2.25 l-0.55 -0.95 -1.10 0 -1.15 0 -0.60 0.60 -0.60 0.60 0 1.65 0 1.65 -6.50 0 -6.50 0 0 -3.20z"/>
  <path d="M58 46 l0 -4 0.50 0 c0.30 0 0.50 0.25 0.50 0.50 l0 0.50 5.25 0 5.25 0 0 -0.50 c0 -0.25 0.25 -0.50 0.50 -0.50 l0.50 0 0 4 0 4 -6.25 0 -6.25 0 0 -4z"/>
  <path d="M75 46 l0 -4 0.50 0 c0.30 0 0.50 0.25 0.50 0.50 l0 0.50 2.75 0 2.75 0 0 -0.50 c0 -0.25 0.25 -0.50 0.50 -0.50 l0.50 0 0 4 0 4 -3.75 0 -3.75 0 0 -4z"/>
  <path d="M95.50 46 l0 -4 0.50 0 c0.30 0 0.50 0.25 0.50 0.50 l0 0.50 2.75 0 2.75 0 0 -0.50 c0 -0.25 0.25 -0.50 0.50 -0.50 l0.50 0 0 4 0 4 -3.75 0 -3.75 0 0 -4z"/>
  <path d="M143 46 l0 -4 3.50 0 3.50 0 0 4 0 4 -3.50 0 -3.50 0 0 -4z"/>
  <path d="M155.40 49.45 l-0.90 -0.50 0 -3.70 0 -3.75 0.50 0 c0.30 0 0.50 0.25 0.50 0.50 l0 0.50 1 0 1 0 0 -0.50 c0 -0.25 0.25 -0.50 0.50 -0.50 l0.50 0 0 4.25 0 4.25 -1.10 0 c-0.65 0 -1.55 -0.25 -2 -0.55z"/>
  <path d="M163 46 l0 -4 0.50 0 c0.30 0 0.50 0.25 0.50 0.50 l0 0.50 2.70 0 2.70 0 0.25 -0.60 0.25 -0.65 0.50 0.50 0.55 0.50 -0.30 3.65 -0.30 3.60 -3.65 0 -3.70 0 0 -4z"/>
  <path d="M175 46 l0 -4 0.50 0 c0.30 0 0.50 0.25 0.50 0.50 l0 0.50 2.75 0 2.75 0 0 -0.50 c0 -0.25 0.25 -0.50 0.50 -0.50 l0.50 0 0 4 0 4 -3.75 0 -3.75 0 0 -4z"/>
  <path d="M187 46 l0 -4 0.50 0 c0.30 0 0.50 0.20 0.50 0.45 l0 0.40 4.15 0.30 4.10 0.25 3.70 -0.35 3.75 -0.35 0.20 -0.60 c0.10 -0.35 0.40 -0.60 0.65 -0.60 l0.45 0 0 4.25 0 4.25 -3.75 0 -3.75 0 0 -1.30 c0 -0.70 -0.25 -1.70 -0.50 -2.25 l-0.55 -0.95 -1.10 0 -1.15 0 -0.60 0.60 -0.60 0.60 0 1.65 0 1.65 -3 0 -3 0 0 -4z"/>
  <path d="M215.50 48.70 c0 -0.70 -0.25 -1.70 -0.55 -2.25 l-0.50 -1 -2.50 0.35 -2.45 0.35 0 -2.10 c0 -2.25 0.20 -2.45 1.40 -1.25 l0.80 0.80 2.95 -0.30 c1.65 -0.15 3.75 -0.30 4.65 -0.30 l1.65 0 0.75 -0.75 c0.40 -0.40 0.85 -0.75 1 -0.75 l0.30 0 0 4.25 0 4.25 -3.75 0 -3.75 0 0 -1.30z"/>
  <path d="M227.50 46 l0 -4 0.50 0 c0.30 0 0.50 0.25 0.50 0.50 l0 0.50 4.25 0 4.25 0 0 -0.50 c0 -0.25 0.25 -0.50 0.50 -0.50 l0.50 0 0 4 0 4 -5.25 0 -5.25 0 0 -4z"/>
 </g>
 <g fill="#4584e6">
  <path d="M207.95 17.15 c-0.65 -1 -1.80 -2.25 -2.55 -2.80 l-1.35 -1 -2.40 -0.20 -2.40 -0.25 -1.90 1.30 -1.90 1.30 -0.90 0 -0.90 0 -0.90 -1 -0.90 -1 -1.20 0 -1.20 0 -0.80 1.90 -0.85 1.85 -0.15 -0.75 -0.15 -0.75 -2.75 0.15 -2.75 0.20 0 0.45 c0 0.25 -0.20 0.45 -0.50 0.45 l-0.50 0 0 -0.95 0 -0.95 -0.80 -0.65 -0.80 -0.65 -6.20 -0.15 -6.20 -0.20 -2.10 0.60 -2.10 0.55 -1.70 1.70 c-1.95 1.95 -2.40 2.05 -2.75 0.70 l-0.25 -1 -1.30 0 -1.30 0 0 0.50 c0 0.30 -0.20 0.50 -0.50 0.50 l-0.50 0 0 -1.15 0 -1.15 -0.60 -0.60 -0.60 -0.60 -3.30 0 -3.25 0 -1.90 0.55 -1.90 0.50 -1.65 1.50 c-0.95 0.80 -1.95 1.45 -2.25 1.45 l-0.55 0 0.15 -0.60 0.10 -0.65 -5.60 -0.15 -5.65 -0.15 0 0.55 c0 0.25 -0.20 0.50 -0.45 0.50 l-0.50 0 -0.15 -1.85 -0.15 -1.90 -4 -0.15 -4 -0.15 -1.65 0.30 -1.65 0.30 -1.90 1.75 c-1.05 0.95 -2.20 1.70 -2.50 1.70 l-0.55 0 0 -0.55 0 -0.50 -1.35 0.15 -1.40 0.15 0.15 0.65 0.10 0.60 -0.55 0 c-0.30 0 -1.30 -0.65 -2.25 -1.45 l-1.65 -1.50 -1.90 -0.50 -1.90 -0.55 -3.35 0 c-1.80 0 -3.65 0.15 -4.10 0.30 l-0.80 0.30 0 1.20 0 1.20 -0.50 0 c-0.25 0 -0.50 -0.20 -0.50 -0.50 l0 -0.50 -0.75 0 -0.80 0 -0.25 0.75 c-0.20 0.40 -0.50 0.75 -0.75 0.75 l-0.45 0 0 -1.45 0 -1.45 -0.80 -0.30 c-0.45 -0.15 -1.20 -0.30 -1.75 -0.30 l-1 0 -0.80 1.90 -0.85 1.85 -0.15 -0.75 -0.15 -0.75 -2.75 0.15 -2.75 0.20 0 0.45 c0 0.25 -0.20 0.45 -0.50 0.45 l-0.50 0 0 -1.45 0 -1.45 -0.80 -0.30 c-0.45 -0.15 -1.20 -0.30 -1.75 -0.30 l-1 0 -0.80 1.85 -0.80 1.90 -0.35 -1 -0.40 -1 -0.35 0.90 c-0.20 0.45 -0.55 0.85 -0.80 0.85 l-0.45 0 0 -1.15 0 -1.15 -0.60 -0.60 -0.60 -0.60 -2.25 0 c-1.30 0 -3.15 0.25 -4.15 0.50 l-1.85 0.55 -1.50 1.20 c-0.80 0.70 -1.70 1.25 -2 1.25 l-0.55 0 0 -0.50 0 -0.50 -1.30 0 -1.30 0 0.30 0.75 0.25 0.75 -0.75 0 -0.75 0 -1.35 -1.55 -1.30 -1.60 -1.65 -0.65 -1.60 -0.70 -1.55 0 -1.55 0 -1.35 0.70 c-0.75 0.40 -1.80 1.15 -2.30 1.75 l-0.95 1.05 -1.45 0 -1.40 0 0 -1.20 0 -1.20 -0.80 -0.30 c-0.45 -0.15 -2.30 -0.30 -4.10 -0.30 l-3.35 0 -1.85 0.50 -1.85 0.55 -1.50 1.20 c-0.80 0.70 -1.70 1.25 -2 1.25 l-0.55 0 0 -0.50 0 -0.50 -5 0 -5 0 0 0.50 c0 0.30 -0.20 0.50 -0.50 0.50 l-0.50 0 0 -5 0 -5 115.50 0 115.50 0 0 5 0 5 -0.50 0 c-0.25 0 -0.50 -0.20 -0.50 -0.50 l0 -0.50 -4.80 0 -4.80 0 0.30 0.75 0.25 0.75 -0.75 0 -0.75 0 -1.35 -1.55 -1.30 -1.60 -1.65 -0.65 -1.60 -0.70 -1.55 0 -1.55 0 -1.10 0.55 c-1.65 0.85 -3.90 3.05 -4.40 4.35 l-0.45 1.10 -1.15 0 -1.20 0 -1.20 -1.85z"/>
 </g>
 <g fill="#46e47d">
  <path d="M107.20 35.35 c-0.10 -0.35 -0.15 -3.55 -0.10 -7.10 l0.15 -6.40 0.70 -0.25 0.70 -0.25 -0.30 0.95 -0.35 0.95 0.70 -0.85 c0.35 -0.50 0.80 -0.90 1 -0.90 l0.30 0 0 7.25 0 7.25 -1.25 0 -1.30 0 -0.25 -0.65z"/>
  <path d="M25.50 32.30 l0 -1.20 -0.80 -0.30 c-0.45 -0.15 -1.20 -0.30 -1.75 -0.30 l-0.95 0 0 -5.25 0 -5.25 0.75 0 0.75 0 0 1 0 1 2.50 0 2.50 0 0 -0.50 0 -0.50 0.55 0 0.60 0 -0.30 3.90 c-0.15 2.10 -0.55 4.90 -0.85 6.25 l-0.60 2.35 -1.20 0 -1.20 0 0 -1.20z"/>
  <path d="M88.50 32.25 l0 -0.75 -0.75 0 -0.75 0 0 -4.75 0 -4.75 0.30 0 c0.15 0 0.75 0.50 1.30 1.15 l0.95 1.10 0.25 -0.60 c0.15 -0.35 0.50 -0.65 0.75 -0.65 l0.45 0 0 5 0 5 -1.25 0 -1.25 0 0 -0.75z"/>
  <path d="M182.25 30.90 l-0.90 -2.15 -0.25 -3.60 -0.25 -3.65 0.60 0 0.55 0 0 0.50 0 0.50 2.75 0 2.75 0 0 -0.50 0 -0.50 0.55 0 0.60 0 -0.30 3.40 c-0.35 3.50 -1.10 6.35 -2 7.50 l-0.45 0.60 -1.40 0 -1.40 0 -0.85 -2.10z"/>
  <path d="M114.50 25.75 l0 -6.25 0.70 0 0.75 0 0.15 1.40 0.15 1.35 2.25 -0.15 2.25 -0.10 0.15 -0.50 c0.10 -0.30 0.40 -0.50 0.65 -0.50 l0.45 0 0 4.50 0 4.50 -1.75 0 -1.75 0 -1 1 -1 1 -1 0 -1 0 0 -6.25z"/>
  <path d="M126.50 26.50 l0 -5.50 0.30 0 c0.20 0 0.60 0.35 0.95 0.80 l0.55 0.80 2.30 0.25 2.35 0.25 2.20 -0.30 2.25 -0.35 0.30 -1.45 0.30 -1.50 0.55 0 0.60 0 -0.35 1.90 c-0.15 1 -0.30 3.60 -0.30 5.75 l0 3.85 -4.75 -0.30 -4.75 -0.35 0 0.85 0 0.80 -1.25 0 -1.25 0 0 -5.50z"/>
  <path d="M62.75 31.15 c-1.35 -0.10 -3 -0.30 -3.60 -0.40 l-1.15 -0.25 0 -5.25 0 -5.25 0.80 0 0.80 0 -0.25 1 -0.25 0.95 1.75 0.60 1.80 0.60 3.30 -0.30 3.25 -0.25 0.20 -0.55 c0.10 -0.30 0.40 -0.55 0.65 -0.55 l0.45 0 0 4.70 0 4.65 -1.85 0.35 c-1.05 0.15 -2.25 0.25 -2.65 0.20 -0.40 -0.05 -1.85 -0.15 -3.25 -0.25z"/>
  <path d="M166.75 31.15 c-0.80 -0.10 -2 -0.30 -2.60 -0.40 l-1.15 -0.25 0 -5.25 0 -5.25 0.75 0 0.75 0 0 0.95 0 0.95 0.70 0.25 0.75 0.30 1.75 -0.30 1.80 -0.30 0 -1.40 0 -1.45 0.80 0 0.85 0 -0.35 1.90 c-0.15 1 -0.30 3.80 -0.30 6.25 l0 4.35 -1.10 -0.05 c-0.65 -0.05 -1.80 -0.20 -2.65 -0.30z"/>
  <path d="M10.65 30.65 l-3.65 -0.20 0 -4.45 0 -4.50 0.50 0 c0.30 0 0.50 0.20 0.50 0.45 l0 0.45 2.05 0.35 2.05 0.35 2.15 -0.30 2.15 -0.35 0.30 -1.45 0.30 -1.50 0.55 0 0.60 0 -0.35 2.30 c-0.15 1.30 -0.30 3.90 -0.30 5.75 l0 3.45 -1.60 -0.10 c-0.90 -0.05 -3.30 -0.20 -5.25 -0.25z"/>
  <path d="M41.65 29.90 c-0.55 -0.65 -1.30 -1.65 -1.60 -2.25 l-0.55 -1.10 0 -2.75 0 -2.80 0.45 0 c0.25 0 0.55 0.20 0.65 0.45 l0.15 0.45 2.65 0.35 2.60 0.35 0 -0.55 0 -0.55 0.50 0 0.50 0 0 4.25 0 4.20 -0.95 0.55 c-0.55 0.25 -1.50 0.50 -2.20 0.50 l-1.20 0 -1 -1.10z"/>
  <path d="M95.50 26.05 l0 -5.05 0.45 0 c0.25 0 0.55 0.20 0.65 0.45 l0.15 0.40 2.65 0.35 2.60 0.35 0 -0.55 c0 -0.30 -0.25 -1 -0.50 -1.55 l-0.55 -0.95 1.05 0 1 0 0 5.50 0 5.50 -1.85 0 c-1.05 0 -2.75 0.15 -3.75 0.30 l-1.90 0.35 0 -5.10z"/>
  <path d="M154.80 29.45 c-0.15 -0.85 -0.30 -3.10 -0.30 -5 l0 -3.45 0.45 0 c0.25 0 0.55 0.35 0.75 0.75 l0.25 0.75 0.80 0 0.75 0 0 -0.50 c0 -0.25 0.25 -0.50 0.50 -0.50 l0.50 0 0 4.75 0 4.75 -1.70 0 -1.65 0 -0.35 -1.55z"/>
  <path d="M199.65 29.90 c-0.55 -0.65 -1.30 -1.65 -1.60 -2.25 l-0.55 -1.10 0 -2.75 0 -2.80 0.45 0 c0.25 0 0.55 0.20 0.65 0.45 l0.15 0.45 2.65 0.35 2.60 0.35 0 -0.55 0 -0.55 0.50 0 0.50 0 0 4.25 0 4.20 -0.95 0.55 c-0.55 0.25 -1.50 0.50 -2.20 0.50 l-1.20 0 -1 -1.10z"/>
  <path d="M217.65 29.90 c-0.55 -0.65 -1.30 -1.65 -1.60 -2.25 l-0.55 -1.10 0 -2.75 0 -2.80 0.45 0 c0.25 0 0.55 0.20 0.65 0.45 l0.15 0.45 2.65 0.35 2.60 0.35 0 -0.55 0 -0.55 0.50 0 0.50 0 0 4.25 0 4.20 -0.95 0.55 c-0.55 0.25 -1.50 0.50 -2.20 0.50 l-1.20 0 -1 -1.10z"/>
  <path d="M225 29.75 l0 -1.25 0.95 0 0.95 0 0.30 -1.10 c0.15 -0.65 0.30 -2.35 0.30 -3.75 l0 -2.65 0.30 0 c0.20 0 0.65 0.40 1 0.90 l0.60 0.85 3.65 0 3.60 0 0.25 -0.65 c0.10 -0.30 0.40 -0.60 0.65 -0.60 l0.45 0 0 4.80 0 4.80 -3.85 -0.35 c-2.15 -0.15 -4.40 -0.40 -5 -0.55 l-1.15 -0.20 0 0.50 0 0.50 -1.50 0 -1.50 0 0 -1.25z"/>
  <path d="M75 26 l0 -4.50 0.45 0 c0.25 0 0.55 0.25 0.65 0.55 l0.20 0.55 2.45 0 2.45 0 0.20 -0.55 c0.10 -0.30 0.40 -0.55 0.65 -0.55 l0.45 0 0 4.50 0 4.50 -3.75 0 -3.75 0 0 -4.50z"/>
  <path d="M143 26.10 l0 -4.55 0.50 -0.30 0.50 -0.30 0 0.65 0 0.65 2.50 -0.15 2.50 -0.20 0 -0.45 c0 -0.25 0.25 -0.45 0.50 -0.45 l0.50 0 0 4.50 0 4.50 -1.60 0 c-0.90 0 -2.50 0.15 -3.50 0.30 l-1.90 0.35 0 -4.55z"/>
 </g>
 <g fill="#63e545">
  <path d="M50.45 39.30 l-1 -2.20 -3.25 -3.10 -3.20 -3.10 0 -0.70 0 -0.75 0.50 0.30 0.50 0.30 1 -0.55 1 -0.55 0 -0.70 0 -0.75 0.70 0 c0.40 0 0.90 0.25 1.05 0.50 l0.30 0.50 1.15 0 1.20 0 0.60 -0.75 0.60 -0.75 1.10 0 1.05 0 0 7.25 0 7.25 -1.10 0 -1.15 0 -1.05 -2.20z m2.05 -0.55 c0 -0.15 -0.10 -0.25 -0.25 -0.25 -0.15 0 -0.25 0.10 -0.25 0.25 0 0.15 0.10 0.25 0.25 0.25 0.15 0 0.25 -0.10 0.25 -0.25z"/>
  <path d="M173.90 37.85 c-1.10 -2.65 -1.10 -2.70 0.10 -5.25 0.55 -1.10 1 -2.30 1 -2.60 l0 -0.50 1.50 0 1.50 0 0 1.15 0 1.10 1 1.65 1 1.60 0 1.05 0 1.05 -0.75 -0.60 -0.70 -0.60 -1.60 0.35 -1.55 0.35 0.35 1.70 0.30 1.70 -0.65 0 -0.65 0 -0.85 -2.15z"/>
  <path d="M29.50 38.40 l0 -1.40 0.75 0 0.75 0 0 -0.95 c0 -0.55 0.45 -2 1 -3.30 l1 -2.35 0 -1.45 0 -1.45 1.20 0 1.20 0 0.95 1.45 c1.20 1.95 5.55 6.55 6.15 6.55 l0.50 0 0 1.05 0 1.05 -1.15 -0.75 -1.15 -0.75 -2.45 0.45 -2.45 0.45 -1.75 -0.30 -1.70 -0.35 -1.40 1.70 -1.40 1.70 -0.05 -1.35z"/>
  <path d="M154.50 33.25 l0 -6.25 0.50 0 0.55 0 0.30 1.50 0.30 1.50 0.65 0 0.70 0 0 -0.50 c0 -0.25 0.25 -0.50 0.50 -0.50 l0.50 0 0 4.50 0 4.50 -0.50 0 c-0.25 0 -0.50 -0.20 -0.50 -0.50 l0 -0.50 -0.70 0 -0.70 0 -0.30 1.25 -0.30 1.25 -0.50 0 -0.50 0 0 -6.25z"/>
  <path d="M87 34.40 l0 -4.65 0.50 -0.75 0.50 -0.75 0 1.25 0 1.25 0.45 -0.70 0.45 -0.65 0.50 1.40 0.50 1.45 0.10 -1.50 0.05 -1.50 0.45 1 0.45 1 0 3.65 0.05 3.60 -0.40 0 c-0.25 0 -0.70 -0.50 -0.95 -1.10 l-0.55 -1.15 -0.60 1.40 c-0.35 0.75 -0.85 1.35 -1.10 1.35 l-0.40 0 0 -4.60z"/>
  <path d="M207.75 38.05 l-0.25 -0.90 -3.25 -3.10 -3.25 -3.15 0 -0.70 0 -0.75 0.50 0.30 0.50 0.30 1 -0.55 1 -0.55 0 -0.70 0 -0.75 0.70 0 c0.40 0 0.90 0.25 1.05 0.50 l0.30 0.50 1.20 0 1.20 0 0.30 -0.50 0.30 -0.50 1.35 0 1.35 0 0.65 1.40 0.60 1.35 2.55 2.65 c1.40 1.40 2.75 2.60 3 2.60 l0.45 0 0 1.05 0 1.05 -1.20 -0.75 -1.20 -0.80 -1.75 0.50 -1.75 0.45 -1.65 -0.10 -1.70 -0.15 -0.15 1.15 -0.15 1.10 -0.70 0 -0.70 0 -0.30 -0.95z"/>
  <path d="M225.75 38.05 l-0.25 -0.90 -3.25 -3.10 -3.25 -3.15 0 -0.70 0 -0.75 0.50 0.30 0.50 0.30 1 -0.55 1 -0.55 0 -0.70 0 -0.75 0.70 0 c0.40 0 0.90 0.25 1.10 0.55 l0.35 0.55 1.85 -0.30 1.90 -0.30 0.20 0.50 0.15 0.55 4.25 0.45 4.25 0.40 0.15 -0.45 c0.10 -0.25 0.40 -0.45 0.65 -0.45 l0.45 0 0 4.25 0 4.25 -0.50 0 c-0.25 0 -0.50 -0.15 -0.50 -0.35 l0 -0.40 -4.65 0.05 -4.60 0 -0.15 1.10 -0.15 1.10 -0.70 0 -0.70 0 -0.30 -0.95z m1.10 -8.40 l-0.35 -0.30 -0.35 0.30 -0.30 0.35 0.65 0 0.65 0 -0.30 -0.35z"/>
  <path d="M107.50 36.20 l0 -2.30 0.75 0.60 0.75 0.60 0 -0.55 0 -0.55 0.50 0 0.50 0 0 2.25 0 2.25 -0.45 0 c-0.25 0 -0.60 -0.30 -0.70 -0.60 l-0.25 -0.65 -0.05 0.65 -0.05 0.60 -0.50 0 -0.50 0 0 -2.30z"/>
  <path d="M114.50 34.40 l0 -4.15 0.50 -0.75 0.50 -0.75 0 1.15 0 1.10 1 -1 1 -1 1.75 0 1.75 0 0 -0.50 c0 -0.25 0.25 -0.50 0.50 -0.50 l0.50 0 0 4.75 0 4.75 -0.50 0 c-0.25 0 -0.50 -0.15 -0.50 -0.35 l0 -0.40 -2.50 -0.05 -2.50 0 -0.30 0.90 -0.25 0.90 -0.50 0 -0.45 0 0 -4.10z"/>
  <path d="M126.55 34.40 l0 -4.15 0.45 -1 0.45 -1 0.05 1.50 0.10 1.50 0.25 -0.95 0.25 -0.90 4.70 0.20 4.70 0.20 0 -0.40 c0 -0.20 0.25 -0.40 0.50 -0.40 l0.50 0 0 4.25 0 4.25 -0.50 0 c-0.25 0 -0.50 -0.15 -0.50 -0.35 l0 -0.40 -4.75 0 -4.75 0 -0.30 0.90 -0.25 0.85 -0.50 0 -0.45 0 0.05 -4.10z"/>
  <path d="M143 33.30 l0 -4.75 0.50 -0.30 0.50 -0.30 0 0.65 0 0.65 2.50 -0.15 2.50 -0.20 0 -0.45 c0 -0.25 0.25 -0.45 0.50 -0.45 l0.50 0 0 5 0 5 -3.50 0 -3.50 0 0 -4.70z"/>
  <path d="M7 33 l0 -4.50 0.45 0 c0.25 0 0.55 0.20 0.65 0.45 l0.15 0.40 4.15 0.25 4.10 0.25 0 -0.45 c0 -0.20 0.25 -0.40 0.50 -0.40 l0.50 0 0 4.25 0 4.25 -0.50 0 c-0.25 0 -0.50 -0.15 -0.50 -0.35 l0 -0.40 -4.25 0 -4.25 0 0 0.35 c0 0.25 -0.20 0.40 -0.50 0.40 l-0.50 0 0 -4.50z"/>
  <path d="M22 33 l0 -4.50 0.50 0 c0.30 0 0.50 0.20 0.50 0.45 l0 0.40 2 0.35 2 0.30 0.05 0.65 0.05 0.60 0.40 -1.25 0.40 -1.25 0.05 1.90 0.05 1.90 -0.80 1.60 c-0.45 0.90 -1.15 2 -1.60 2.50 l-0.75 0.85 -1.45 0 -1.40 0 0 -4.50z m5 -0.75 c0 -0.15 -0.10 -0.25 -0.25 -0.25 -0.15 0 -0.25 0.10 -0.25 0.25 0 0.15 0.10 0.25 0.25 0.25 0.15 0 0.25 -0.10 0.25 -0.25z"/>
  <path d="M67.50 35.75 l0 -1.70 -0.95 -0.55 -1 -0.50 -3.75 0 -3.80 0 0 -2.25 0 -2.25 0.45 0 c0.25 0 0.55 0.25 0.65 0.50 l0.15 0.50 1.25 0.25 c0.70 0.15 2.95 0.30 4.95 0.35 l3.75 0.05 0.20 -0.55 c0.10 -0.35 0.40 -0.60 0.65 -0.60 l0.45 0 0 3.95 0 4 -0.50 0.30 -0.50 0.30 0 -0.90 -0.05 -0.90 -0.65 0.90 c-0.35 0.45 -0.80 0.85 -1 0.85 l-0.30 0 0 -1.75z"/>
  <path d="M75 33.05 l0 -4.50 0.50 -0.30 0.50 -0.30 0 0.65 0 0.65 2.75 0.15 2.75 0.10 0 -0.50 c0 -0.25 0.25 -0.50 0.50 -0.50 l0.50 0 0 4.50 0 4.50 -0.50 0 c-0.25 0 -0.50 -0.20 -0.50 -0.40 l0 -0.40 -2.75 -0.05 -2.75 -0.05 0 0.45 c0 0.25 -0.20 0.45 -0.50 0.45 l-0.50 0 0 -4.45z"/>
  <path d="M95.50 33.30 l0 -4.25 0.50 -0.30 0.50 -0.30 0 0.80 0 0.80 0.50 -0.30 c0.25 -0.15 1.50 -0.30 2.75 -0.35 l2.25 -0.05 0 -0.40 c0 -0.25 0.25 -0.45 0.50 -0.45 l0.50 0 0 4.50 0 4.50 -0.50 0 c-0.25 0 -0.50 -0.20 -0.50 -0.40 l0 -0.40 -2.75 0 -2.75 -0.05 0 0.40 c0 0.25 -0.20 0.45 -0.50 0.45 l-0.50 0 0 -4.20z"/>
  <path d="M189 36.80 c0 -0.50 0.75 -2.40 1.60 -4.35 l1.65 -3.45 1 0 1 0.05 2.75 3.20 2.75 3.15 0.65 0.05 0.60 0.05 0 1.05 0 1.05 -1.25 -0.80 -1.30 -0.85 -0.45 0.30 c-0.30 0.15 -2.15 0.30 -4.10 0.35 l-3.65 0 -0.60 0.50 -0.65 0.50 0 -0.80z"/>
  <path d="M163 30.75 l0 -2.25 0.45 0 c0.25 0 0.55 0.25 0.65 0.60 l0.20 0.55 2.60 0.35 2.55 0.30 0.25 -0.75 0.20 -0.80 -0.05 2 -0.10 2 -3.35 0.15 -3.40 0.15 0 -2.30z"/>
 </g>
 <g fill="#e34447">
  <path d="M67.85 57.75 l-0.30 -0.70 -4.65 -0.15 -4.65 -0.15 -0.15 -4.35 -0.15 -4.40 0.55 0 0.50 0 0 0.50 0 0.50 5.25 0 5.25 0 0 -0.50 c0 -0.25 0.20 -0.50 0.40 -0.50 l0.40 0 0.65 5.05 0.60 5.05 -0.25 0.30 -0.30 0.25 0 -0.55 0 -0.60 -0.75 0 -0.75 0 0 0.50 0 0.50 -0.70 0 -0.70 0 -0.25 -0.75z"/>
  <path d="M40.30 56.40 l-0.80 -1.10 0 -3.65 0 -3.65 0.50 0 c0.30 0 0.50 0.25 0.50 0.50 l0 0.50 2.75 0 2.75 0 0 -0.50 c0 -0.25 0.25 -0.50 0.50 -0.50 l0.50 0 0 3.95 0 4 -1.10 0.75 -1.10 0.80 -1.90 0 -1.85 0 -0.75 -1.10z"/>
  <path d="M75.80 56.40 l-0.80 -1.10 0 -3.65 0 -3.65 0.50 0 c0.30 0 0.50 0.25 0.50 0.50 l0 0.50 2.75 0 2.75 0 0 -0.50 c0 -0.25 0.25 -0.50 0.50 -0.50 l0.50 0 0 3.65 0 3.65 -0.80 1.10 -0.75 1.10 -2.20 0 -2.20 0 -0.75 -1.10z"/>
  <path d="M115.50 56.75 l-0.65 -0.80 -0.25 -3.65 -0.20 -3.65 0.55 -0.35 0.55 -0.35 0 0.65 0 0.65 2.75 -0.15 2.75 -0.20 0 -0.45 c0 -0.25 0.25 -0.45 0.50 -0.45 l0.50 0 0 3.90 0 3.95 -0.90 0.80 -0.95 0.85 -2 0 -2.05 0 -0.60 -0.75z"/>
  <path d="M198.30 56.40 l-0.80 -1.10 0 -3.65 0 -3.65 0.50 0 c0.30 0 0.50 0.25 0.50 0.50 l0 0.50 2.75 0 2.75 0 0 -0.50 c0 -0.25 0.25 -0.50 0.50 -0.50 l0.50 0 0 3.95 0 4 -1.10 0.75 -1.10 0.80 -1.90 0 -1.85 0 -0.75 -1.10z"/>
  <path d="M216.30 56.40 l-0.80 -1.10 0 -3.65 0 -3.65 0.50 0 c0.30 0 0.50 0.25 0.50 0.50 l0 0.50 2.75 0 2.75 0 0 -0.50 c0 -0.25 0.25 -0.50 0.50 -0.50 l0.50 0 0 3.95 0 4 -1.10 0.75 -1.10 0.80 -1.90 0 -1.85 0 -0.75 -1.10z"/>
  <path d="M95.50 52.50 l0 -4.50 0.50 0 c0.30 0 0.50 0.25 0.50 0.50 l0 0.50 2.75 0 2.75 0 0 -0.50 c0 -0.25 0.25 -0.50 0.50 -0.50 l0.50 0 0 3.45 0 3.50 -1.30 1 -1.35 1.05 -2.40 0 -2.45 0 0 -4.50z"/>
  <path d="M163.35 56.65 l-0.35 -0.30 0 -4.20 0 -4.15 0.50 0 c0.30 0 0.50 0.25 0.50 0.50 l0 0.50 2.75 0 2.75 0 0 -0.75 0 -0.75 0.80 0 0.85 0 -0.30 3.40 c-0.15 1.85 -0.40 3.75 -0.60 4.20 l-0.35 0.85 -1.50 0.50 c-1.75 0.60 -4.55 0.75 -5.05 0.20z"/>
  <path d="M174.85 52.65 c0.30 -4.30 0.55 -5.50 1 -4.25 l0.25 0.60 2.70 0 2.70 0 0 -0.50 c0 -0.25 0.25 -0.50 0.50 -0.50 l0.50 0 0 3.75 0 3.75 -0.50 0 c-0.25 0 -0.50 -0.20 -0.50 -0.40 l0 -0.40 -2.75 0 -2.75 -0.05 0 0.60 c0 0.35 -0.35 0.90 -0.75 1.25 l-0.70 0.60 0.30 -4.45z"/>
  <path d="M89.70 55.25 l-0.30 -1.25 -0.70 0 -0.70 0 0 0.50 c0 0.30 -0.20 0.50 -0.50 0.50 l-0.50 0 0 -3.50 0 -3.50 0.45 0 0.50 0 0.30 1 c0.15 0.55 0.50 1 0.75 1 0.25 0 0.60 -0.45 0.75 -1 l0.30 -1 0.50 0 0.45 0 0 4.25 0 4.25 -0.50 0 -0.50 0 -0.30 -1.25z m-0.20 -2 c0 -0.15 -0.10 -0.25 -0.25 -0.25 -0.15 0 -0.25 0.10 -0.25 0.25 0 0.15 0.10 0.25 0.25 0.25 0.15 0 0.25 -0.10 0.25 -0.25z"/>
  <path d="M154.50 50.50 l0 -5.50 0.50 0 0.50 0 0.05 0.65 c0.05 0.30 0.05 1 0 1.45 l-0.10 0.85 1 0.55 1.05 0.55 0 -0.80 0 -0.80 0.50 0.30 0.50 0.30 0 3.75 0 3.70 -0.50 0 c-0.25 0 -0.50 -0.20 -0.50 -0.50 l0 -0.50 -0.75 0 -0.80 0 -0.25 0.75 c-0.20 0.40 -0.50 0.75 -0.75 0.75 l-0.45 0 0 -5.50z"/>
  <path d="M191.80 55.25 l-0.25 -0.75 -1.80 0 -1.75 0 0 0.50 c0 0.30 -0.20 0.50 -0.50 0.50 l-0.50 0 0 -3.75 0 -3.75 0.50 0 c0.30 0 0.50 0.25 0.50 0.50 l0 0.50 2 0 2 0 0 -0.50 c0 -0.25 0.25 -0.50 0.50 -0.50 l0.50 0 0 4 0 4 -0.45 0 c-0.25 0 -0.55 -0.35 -0.75 -0.75z"/>
  <path d="M7 51.75 l0 -3.75 0.50 0 c0.30 0 0.50 0.25 0.50 0.50 l0 0.50 4.25 0 4.25 0 0 -0.50 c0 -0.25 0.25 -0.50 0.50 -0.50 l0.50 0 0 3.75 0 3.75 -0.50 0 c-0.25 0 -0.50 -0.15 -0.50 -0.35 l0 -0.40 -4.25 0 -4.25 0 0 0.40 c0 0.20 -0.20 0.35 -0.50 0.35 l-0.50 0 0 -3.75z"/>
  <path d="M22 51.75 l0 -3.75 0.50 0 c0.30 0 0.50 0.25 0.50 0.50 l0 0.50 5.50 0 5.50 0 0 -0.50 c0 -0.25 0.25 -0.50 0.50 -0.50 l0.50 0 0 3.75 0 3.75 -0.50 0 c-0.25 0 -0.50 -0.15 -0.50 -0.35 l0 -0.40 -5.50 0 -5.50 0 0 0.40 c0 0.20 -0.20 0.35 -0.50 0.35 l-0.50 0 0 -3.75z"/>
  <path d="M107.30 54.70 c-0.15 -0.45 -0.30 -1.65 -0.30 -2.75 l0 -1.95 1.45 0 1.50 0 0.30 2.20 0.35 2.25 -0.40 0.60 -0.35 0.65 -0.35 -0.90 -0.30 -0.90 -0.80 0.80 -0.80 0.75 -0.30 -0.75z"/>
  <path d="M126.50 52.05 l0 -3.50 0.50 -0.30 0.50 -0.30 0 0.65 0 0.65 5 -0.15 5 -0.15 0 -0.50 c0 -0.25 0.25 -0.45 0.50 -0.45 l0.50 0 0 3.75 0 3.75 -0.50 0 c-0.25 0 -0.50 -0.15 -0.50 -0.35 l0 -0.40 -4.95 0.05 -4.90 0.05 -0.60 0.35 -0.55 0.35 0 -3.50z"/>
  <path d="M143 51.75 l0 -3.75 0.50 0 c0.30 0 0.50 0.25 0.50 0.50 l0 0.50 2.50 0 2.50 0 0 -0.50 c0 -0.25 0.25 -0.50 0.50 -0.50 l0.50 0 0 3.75 0 3.75 -0.50 0 c-0.25 0 -0.50 -0.15 -0.50 -0.35 l0 -0.40 -2.50 -0.05 -2.50 0 0 0.40 c0 0.20 -0.20 0.40 -0.50 0.40 l-0.50 0 0 -3.75z"/>
  <path d="M227.50 51.80 l0 -3.80 0.50 0 c0.30 0 0.50 0.25 0.50 0.50 l0 0.50 4.25 0 4.25 0 0 -0.50 c0 -0.25 0.25 -0.50 0.50 -0.50 l0.50 0 0 3.75 0 3.75 -0.50 0 c-0.25 0 -0.50 -0.20 -0.50 -0.40 l0 -0.40 -4.15 0.10 -4.20 0.05 -0.55 0.35 -0.60 0.35 0 -3.75z"/>
 </g>
 <g fill="#080000">
  <path d="M117.35 62.15 c-0.20 -0.15 -0.35 -0.60 -0.35 -1 l0 -0.65 1.45 0 c0.80 0 2.05 -0.20 2.75 -0.50 l1.30 -0.50 0 1 0 1 -0.75 0 -0.75 0 0 0.50 0 0.50 -1.65 0 c-0.95 0 -1.85 -0.15 -2 -0.35z"/>
  <path d="M154 61.25 c0 -0.40 -0.15 -0.75 -0.35 -0.75 l-0.40 0 0.15 -8.50 0.15 -8.50 0.65 0 0.70 0 0.30 1.15 c0.15 0.60 0.30 4.40 0.30 8.45 l0 7.30 -0.30 0.80 c-0.15 0.45 -0.50 0.80 -0.75 0.80 l-0.45 0 0 -0.75z"/>
  <path d="M181.80 60.70 l-0.30 -0.80 0 -5.70 0 -5.70 0.70 0 0.70 0 0.30 1.55 c0.40 2 0.40 7.15 0 9.60 l-0.35 1.85 -0.35 0 c-0.20 0 -0.55 -0.35 -0.70 -0.80z"/>
  <path d="M102.50 60.05 l0 -0.95 1.95 -0.95 1.95 -0.90 0.25 -1.90 c0.15 -1.05 0.40 -2.05 0.55 -2.25 l0.30 -0.30 0.50 0.50 0.50 0.50 -0.55 1.95 -0.55 1.95 -1.65 1.65 -1.65 1.65 -0.80 0 -0.80 0 0 -0.95z"/>
  <path d="M111.15 59.20 l-1.10 -1.50 -0.55 -3.35 -0.60 -3.35 -0.40 0 c-0.25 0 -0.55 0.30 -0.65 0.65 l-0.25 0.60 -0.05 -1.95 -0.05 -1.90 0.75 0.60 0.75 0.60 0 -3.05 0 -3.05 0.75 0 0.75 0 0 4.10 0 4.10 0.55 1.75 c0.30 1 0.85 2.50 1.15 3.30 l0.65 1.50 -0.35 1.25 -0.30 1.20 -1.05 -1.50z"/>
  <path d="M71.80 59.20 c-0.45 -0.40 -0.80 -1.10 -0.80 -1.50 l0 -0.70 0.90 0.05 0.85 0 1.15 1.50 1.20 1.45 -1.30 0 -1.25 0 -0.75 -0.80z"/>
  <path d="M41.25 58.05 c-0.60 -0.25 -1.35 -0.80 -1.70 -1.25 l-0.70 -0.85 2.95 0.25 2.95 0.20 0 0.90 0 0.95 -1.25 0.10 c-0.70 0.05 -1.70 -0.10 -2.25 -0.30z"/>
  <path d="M76.65 58 l-1.10 -0.45 -0.45 -0.90 -0.45 -0.90 0.20 -0.60 0.25 -0.65 0.55 0 0.60 0 0.65 1 0.60 1 1.25 0 1.20 0 0.75 -1.10 0.80 -1.10 0 -2.15 0 -2.15 1 0 1 0 0 2.45 0 2.40 -1.65 1.85 -1.65 1.80 -1.25 -0.05 c-0.65 0 -1.70 -0.20 -2.30 -0.45z"/>
  <path d="M116.15 58 l-1.15 -0.45 0 -0.55 0 -0.50 0.90 -0.05 c0.45 -0.05 1.40 0 2 0.05 l1.20 0.10 1.20 -1.15 1.20 -1.10 0 1.05 0 1.10 -0.85 1 -0.85 1 -1.30 -0.05 c-0.70 0 -1.75 -0.20 -2.35 -0.45z"/>
  <path d="M199.25 58.05 c-0.60 -0.25 -1.35 -0.80 -1.70 -1.25 l-0.70 -0.85 2.95 0.25 2.95 0.20 0 0.90 0 0.95 -1.25 0.10 c-0.70 0.05 -1.70 -0.10 -2.25 -0.30z"/>
  <path d="M217.25 58.05 c-0.60 -0.25 -1.35 -0.80 -1.70 -1.25 l-0.70 -0.85 2.95 0.25 2.95 0.20 0 0.90 0 0.95 -1.25 0.10 c-0.70 0.05 -1.70 -0.10 -2.25 -0.30z"/>
  <path d="M16.50 53.50 l0 -4.50 0.70 0 0.70 0 0.30 1.55 c0.40 2 0.40 5.65 0 6.65 l-0.30 0.80 -0.70 0 -0.70 0 0 -4.50z"/>
  <path d="M137.50 53.50 l0 -4.50 0.70 0 0.70 0 0.30 1.55 c0.40 2 0.40 5.65 0 6.65 l-0.30 0.80 -0.70 0 -0.70 0 0 -4.50z"/>
  <path d="M157.50 54.55 l0 -3.55 1 0 1.05 0 -0.15 3.35 -0.15 3.40 -0.85 0.15 -0.90 0.15 0 -3.50z"/>
  <path d="M51 52.75 l0 -4.25 1.45 0 1.40 0 0.35 2.70 0.30 2.70 -0.30 1.55 -0.30 1.55 -0.40 0 c-0.25 0 -0.55 -0.30 -0.70 -0.60 l-0.30 -0.65 -0.30 0.65 c-0.15 0.30 -0.50 0.60 -0.75 0.60 l-0.45 0 0 -4.25z"/>
  <path d="M168.70 54.70 l0.80 -0.75 0 -1.10 c0 -0.60 0.20 -1.40 0.45 -1.80 l0.45 -0.70 0.55 0.35 0.55 0.35 0 1.45 c0 0.75 -0.15 1.75 -0.30 2.20 l-0.30 0.80 -1.50 0 -1.45 0 0.75 -0.80z"/>
  <path d="M114.50 54 l0 -1 -0.50 0 -0.50 0 0 -3.25 0 -3.25 1 0 1 0 0 3.15 c0 1.70 0.15 3.60 0.30 4.25 l0.30 1.10 -0.80 0 -0.80 0 0 -1z"/>
  <path d="M125.50 47.75 l0 -3.25 0.70 0 0.75 0 0.30 1.05 0.35 1.05 -0.35 2.20 -0.30 2.20 -0.75 0 -0.70 0 0 -3.25z"/>
  <path d="M38.35 47.30 l-0.30 -0.70 -2.05 -0.35 -2.05 -0.35 0.60 -0.70 0.55 -0.70 2.20 0 2.15 0 0.55 0.95 c0.25 0.55 0.50 1.35 0.50 1.75 l0 0.80 -0.95 0 -0.95 0 -0.25 -0.70z"/>
  <path d="M196.35 47.30 l-0.30 -0.70 -2.05 -0.35 -2.05 -0.35 0.60 -0.70 0.55 -0.70 2.20 0 2.15 0 0.55 0.95 c0.25 0.55 0.50 1.35 0.50 1.75 l0 0.80 -0.95 0 -0.95 0 -0.25 -0.70z"/>
  <path d="M215 47 l0 -1 -2.25 0 -2.25 0 0 -0.45 c0 -0.65 1.30 -1.05 3.25 -1.05 l1.70 0 0.55 0.95 c0.25 0.55 0.50 1.35 0.50 1.75 l0 0.80 -0.75 0 -0.75 0 0 -1z"/>
  <path d="M108.10 44.50 l0 -1.25 0.25 0.65 0.25 0.60 -0.25 0.65 -0.25 0.60 0 -1.25z"/>
  <path d="M169.55 44.65 c0.05 -0.50 0.05 -1.75 0 -2.75 l-0.05 -1.85 -0.80 -0.75 -0.75 -0.80 1.15 0 1.20 0 0.60 0.60 0.60 0.60 0 1.75 c0 1 -0.15 2.30 -0.30 2.95 l-0.30 1.10 -0.75 0 -0.70 0 0.10 -0.85z"/>
  <path d="M69.50 41.50 l0 -3.50 0.70 0 0.70 0 0.35 1.50 0.35 1.50 -0.35 2 -0.35 2 -0.70 0 -0.70 0 0 -3.50z"/>
  <path d="M81.50 36.50 l0 -8.50 0.70 0 0.70 0 0.30 1.55 c0.15 0.85 0.30 4 0.30 6.95 0 2.95 -0.15 6.10 -0.30 6.95 l-0.30 1.55 -0.70 0 -0.70 0 0 -8.50z"/>
  <path d="M125.50 41 l0 -2.50 0.70 0 0.70 0 0.30 1.55 c0.15 0.85 0.30 2 0.30 2.50 l0 0.95 -1 0 -1 0 0 -2.50z"/>
  <path d="M16.50 36.25 l0 -3.75 0.70 0 0.70 0 0.30 1.55 c0.40 2 0.40 4.15 0 5.15 l-0.30 0.80 -0.70 0 -0.70 0 0 -3.75z"/>
  <path d="M52.85 39.65 l-0.35 -0.30 0 -5.20 0 -5.15 1 0 1 0 0 5.50 0 5.50 -0.65 0 c-0.40 0 -0.85 -0.15 -1 -0.35z"/>
  <path d="M181.35 39.15 c-0.20 -0.15 -0.35 -0.75 -0.35 -1.25 l0 -0.90 0.95 0 0.95 0 0.30 0.80 c0.15 0.45 0.30 1 0.30 1.25 l0 0.45 -0.90 0 c-0.50 0 -1.10 -0.15 -1.25 -0.35z"/>
  <path d="M157.50 37.75 l0 -1.25 1 0 1 0 0 1.25 0 1.25 -1 0 -1 0 0 -1.25z"/>
  <path d="M137.50 35.70 l0 -2.75 0.90 0.15 0.85 0.15 0.15 2.65 0.15 2.60 -1 0 -1.05 0 0 -2.80z"/>
  <path d="M121 34.25 l0 -3.25 0.70 0 0.75 0 0.30 2.20 0.35 2.20 -0.35 1.05 -0.30 1.05 -0.75 0 -0.70 0 0 -3.25z"/>
  <path d="M86 31.25 l0 -5.75 1 0 1 0 0 4.20 c0 2.30 -0.15 4.90 -0.30 5.75 l-0.30 1.55 -0.70 0 -0.70 0 0 -5.75z"/>
  <path d="M69.50 34 l0 -2.50 0.70 0 0.70 0 0.35 2 0.35 1.95 -0.35 0.55 c-0.15 0.25 -0.65 0.50 -1.05 0.50 l-0.70 0 0 -2.50z"/>
  <path d="M142 31.75 l0 -4.25 0.70 0 0.70 0 0.30 1.15 c0.40 1.45 0.40 5.55 0 6.55 l-0.30 0.80 -0.70 0 -0.70 0 0 -4.25z"/>
  <path d="M21 31.75 l0 -3.25 1 0 1 0 0 2.45 c0 1.35 -0.15 2.80 -0.30 3.25 l-0.30 0.80 -0.70 0 -0.70 0 0 -3.25z"/>
  <path d="M74 31.25 l0 -3.75 0.70 0 0.70 0 0.30 0.80 c0.15 0.45 0.30 1.75 0.30 2.95 0 1.20 -0.15 2.50 -0.30 2.95 l-0.30 0.80 -0.70 0 -0.70 0 0 -3.75z"/>
  <path d="M157.50 32.25 l0 -1.25 1 0 1 0 0 1.25 0 1.25 -1 0 -1 0 0 -1.25z"/>
  <path d="M90 31.25 l0 -1.75 0.75 0 0.75 0 0 1.75 0 1.75 -0.75 0 -0.75 0 0 -1.75z"/>
  <path d="M57 28.75 l0 -1.80 0.90 0.15 0.85 0.15 0 1.50 0 1.50 -0.85 0.15 -0.90 0.15 0 -1.80z"/>
  <path d="M162 28.50 l0 -1.50 1 0 1 0 0 1.50 0 1.50 -1 0 -1 0 0 -1.50z"/>
  <path d="M93.50 13.50 l0 -1 2.75 0 2.75 0 0 1 0 1 -2.75 0 -2.75 0 0 -1z"/>
 </g>
 <g fill="#000000">
  <path d="M4 38 l0 -34 118.50 0 118.50 0 0 34 0 34 -118.50 0 -118.50 0 0 -34z m232.90 -0.10 l0.10 -29.90 -114.50 0 -114.50 0 0 30 0 30 114.40 -0.10 114.35 -0.15 0.15 -29.85z"/>
  <path d="M39.20 61.75 c-0.85 -0.45 -2.15 -1.40 -2.80 -2.15 l-1.25 -1.35 -0.60 -1.70 -0.55 -1.70 0 -4.65 0 -4.65 0.90 -0.45 0.85 -0.45 1.90 0.25 1.90 0.20 0.50 1.25 0.45 1.20 0 3.35 0 3.40 0.80 1.10 0.75 1.10 0.85 0 c0.50 0 1.40 -0.35 2 -0.80 l1.10 -0.75 0 -7.05 0 -7.10 -5.15 -5 c-2.85 -2.80 -5.55 -5.60 -6 -6.30 l-0.80 -1.25 0 1.55 -0.05 1.55 -1.10 2.70 -1.05 2.70 -1.75 2.15 -1.75 2.20 -2.65 1.75 -2.70 1.80 0 8.05 0 8.10 -0.60 0.60 -0.60 0.60 -2.15 0 -2.10 0 -0.50 -0.90 -0.50 -0.95 0.05 -3.20 0.10 -3.20 0.15 1.15 0.20 1.10 0.70 0 0.70 0 0.15 1.90 0.15 1.85 1.15 0.15 1.10 0.15 0 -8.50 0 -8.55 2.15 -1 2.20 -1.05 1.95 -1.95 2 -1.95 1.15 -2.30 1.15 -2.30 0.70 -3.85 0.65 -3.85 0.05 -5.10 0 -5.15 -4.35 0 -4.40 0 -1.70 0.90 -1.75 0.85 -1 1.40 -1 1.40 -0.20 8.20 -0.20 8.25 -0.65 0 -0.70 0 -0.20 1.15 c-0.10 0.60 -0.20 -3.15 -0.15 -8.40 l0.10 -9.50 0.80 -1.50 c1.10 -2.05 2.45 -3.20 4.75 -4.05 l1.90 -0.65 4.60 -0.05 c2.50 0 4.90 0.15 5.35 0.30 l0.80 0.30 0 1.20 0 1.20 0.40 0 c0.25 0 0.85 -0.45 1.40 -1.05 0.50 -0.60 1.55 -1.35 2.30 -1.75 l1.35 -0.70 2.55 0 2.55 0 1.65 0.70 1.60 0.70 1.60 1.90 1.60 1.95 0 1.35 0 1.40 0.45 0 0.45 0 0.30 -1.55 0.30 -1.55 1.65 -1.65 1.65 -1.65 1.95 -0.55 2 -0.55 3.30 0 3.25 0 0.60 0.60 0.60 0.60 0 1.85 0 1.85 -0.60 0.45 -0.65 0.50 -3.25 0.30 -3.25 0.30 -0.85 1.05 -0.90 1.10 0 3.75 0 3.70 -0.85 -0.15 -0.90 -0.15 -0.15 -3.75 -0.10 -3.75 0.95 -1.60 1 -1.60 1.90 -0.50 c1.05 -0.30 2.75 -0.55 3.80 -0.55 l1.85 0 0 -1 0 -1 -3.10 0 -3.15 0 -1.70 0.90 -1.75 0.85 -0.95 1.30 -0.95 1.35 -0.30 5.55 -0.25 5.55 -0.65 0 -0.70 0 0 0.50 0 0.50 0.75 0 0.75 0 0 0.75 0 0.75 -0.75 0 -0.75 0 0 0.50 0 0.50 0.75 0 0.75 0 0 0.50 0 0.50 -0.95 0 -1 0 0.10 -3.20 0.10 -3.25 -0.80 0.75 -0.80 0.70 -1.95 0 -2 0 -0.60 -0.60 -0.60 -0.60 0 -4.30 0 -4.35 -0.90 -0.80 -0.95 -0.85 -1.05 0 -1.05 0 -0.75 1.10 -0.80 1.10 0 2.65 0 2.60 0.55 1.20 0.55 1.20 4.40 4.05 4.35 4.05 1.10 2.25 c0.55 1.25 1.15 2.30 1.25 2.30 0.15 0 0.15 -0.75 0.10 -1.60 l-0.15 -1.65 0.20 0.90 0.20 0.85 0.75 0 0.70 0 0 7 0 7 -0.75 0 -0.75 0 0 -1.75 0 -1.75 -0.50 0 -0.50 0 0 3.50 0 3.55 -0.75 1.45 -0.75 1.45 -1.80 1.40 -1.80 1.35 -3.10 0.15 -3.05 0.20 -1.55 -0.80z m9.20 -3.45 l1.85 -1.80 0 -8.40 0 -8.35 -1.25 -1.75 c-0.65 -0.95 -2.35 -2.75 -3.70 -4 -3.95 -3.55 -5.85 -5.55 -6.35 -6.85 l-0.45 -1.20 0 -3.50 0 -3.55 1.45 -1.45 1.45 -1.45 1.85 0 1.85 0 1.45 1.55 1.45 1.55 0 4.20 0 4.20 1.25 0 1.25 0 0 -3.75 0 -3.75 -0.75 -1.85 -0.75 -1.90 -1.65 -1.10 -1.65 -1.15 -2.40 0 -2.40 0 -1.50 0.85 -1.50 0.90 -0.95 1.85 -0.95 1.85 0 3.55 0 3.55 1 1.90 0.95 1.95 4.05 3.65 4.05 3.65 0.95 1.70 1 1.65 0 7.05 0 7 -1 1.40 -1 1.40 -0.95 0.25 -1 0.25 -0.25 -0.70 -0.25 -0.70 -0.85 0 -0.80 0 0.30 0.75 0.30 0.80 -1.55 -0.90 -1.55 -0.90 -0.45 -1.15 -0.45 -1.15 0 -3.70 c0 -2 -0.15 -4 -0.30 -4.45 l-0.30 -0.75 -0.95 0.60 -0.95 0.60 0 4.25 0 4.25 0.90 1.70 0.95 1.70 1.70 0.95 1.70 0.95 2.65 -0.20 2.65 -0.20 1.85 -1.85z"/>
  <path d="M75.50 62.15 c-0.40 -0.15 -1.35 -0.75 -2.15 -1.25 l-1.35 -1 -1.10 -2.05 -1.10 -2.10 0 -6.75 -0.05 -6.75 0.80 -0.15 0.80 -0.15 0.25 6.65 0.20 6.65 0.70 1.25 0.65 1.20 -0.60 0.20 -0.60 0.20 2.40 1.20 2.40 1.15 1.90 0.05 1.95 0 1.75 -0.85 1.80 -0.85 0.90 -2 0.90 -2.05 0.05 -9.75 c0.05 -5.35 0.05 -14.45 0.05 -20.15 l-0.05 -10.40 -1.10 0.15 -1.15 0.15 -0.15 8.10 -0.10 8.10 -0.90 0.20 -0.85 0.25 0.90 0.05 0.85 0.05 0 1 0 1 -0.85 0.05 -0.90 0 1 0.40 1 0.40 -1 0.25 -1 0.30 0.90 0.05 0.85 0.05 0 0.75 0 0.75 -0.90 0 -0.90 0 -0.10 -10.95 -0.15 -11 0.55 -1 0.55 -1.05 2.10 0 2.10 0 0.55 0.40 0.60 0.35 0.10 1 c0.05 0.55 0.10 3.55 0.05 6.65 l-0.05 5.60 -0.75 0 -0.75 0 0 1.70 0 1.75 0.90 0.20 0.85 0.25 -0.85 0.05 -0.90 0.05 0 1.75 0 1.75 0.75 0 0.75 0 0.05 7.90 c0.05 4.30 0.05 8.85 0 10.10 l-0.10 2.25 -0.75 2.30 -0.75 2.30 -1.35 1.30 c-0.75 0.70 -2 1.55 -2.75 1.80 l-1.40 0.55 -2.35 -0.05 c-1.30 0 -2.70 -0.15 -3.10 -0.30z"/>
  <path d="M114 61.60 l-1.75 -0.90 -1.10 -2.20 c-0.65 -1.20 -1.15 -2.60 -1.15 -3.10 l0 -0.90 0.50 0 c0.30 0 0.50 -0.20 0.50 -0.45 l0 -0.50 -0.80 -0.15 -0.85 -0.15 -0.25 -15.50 -0.20 -15.50 0.55 -3 0.55 -2.95 1.60 -1.65 1.60 -1.70 1.80 -0.50 1.75 -0.50 5.25 0.15 5.25 0.15 0.15 14.65 0.10 14.60 -0.75 0 -0.75 0 0 0.50 0 0.50 0.75 0 0.75 0 0 2 0 2 -0.95 0 -1 0 0.05 -3.35 c0 -1.90 -0.05 -9.20 -0.05 -16.25 l-0.05 -12.90 -4.50 0 -4.55 0 -1.85 0.95 -1.90 0.95 -0.75 1.45 -0.70 1.40 -0.15 16.65 -0.15 16.70 0.55 2.60 0.55 2.65 1.35 1.30 1.35 1.25 1.85 0.50 1.85 0.50 0.35 -0.30 0.35 -0.35 -0.30 0.90 c-0.20 0.50 -0.35 1.05 -0.35 1.15 0 0.10 -0.60 0.20 -1.40 0.20 l-1.35 0 -1.75 -0.90z"/>
  <path d="M119.80 61.70 c-0.45 -1.15 -0.40 -1.20 0.70 -1.20 l0.95 0 1.75 -1.75 1.75 -1.70 0.25 -2.15 c0.15 -1.20 0.40 -3.15 0.50 -4.40 0.15 -1.25 0.25 -2.30 0.25 -2.35 0.05 -0.10 0.40 -0.15 0.80 -0.15 l0.75 0 0 3.15 0 3.10 -0.50 1.85 -0.55 1.85 -1.30 1.60 -1.35 1.60 -1.65 0.65 c-2 0.85 -2 0.85 -2.35 -0.10z"/>
  <path d="M197.25 61.75 c-0.80 -0.45 -2.05 -1.30 -2.65 -1.90 l-1.20 -1.10 -0.70 -1.70 -0.70 -1.65 0 -4.95 0 -4.90 0.90 -0.45 0.85 -0.45 1.90 0.25 1.90 0.20 0.50 1.25 0.45 1.20 0 3.35 0 3.40 0.80 1.10 0.75 1.10 0.85 0 c0.50 0 1.40 -0.35 2 -0.80 l1.10 -0.75 0 -7.05 0 -7.05 -5.50 -5.30 -5.50 -5.35 -0.85 2.25 -0.85 2.25 -1.65 2.15 -1.65 2.15 0 10.95 0 10.95 -0.70 0.55 -0.75 0.60 -2.15 -0.15 -2.15 -0.15 -0.15 -1.85 -0.15 -1.90 0.75 0 0.80 0 0 1 0 1 1.25 0 1.25 0 0 -10.90 0 -10.85 1.45 -1.75 c2 -2.45 2.95 -4.45 3.80 -8.10 l0.75 -3.15 0 -5.40 0 -5.40 -1.10 0.15 -1.15 0.15 -0.30 6.50 -0.35 6.50 -0.60 1.75 c-0.40 0.95 -1.15 2.65 -1.80 3.75 l-1.10 2 -0.90 0 -0.95 0 -1.30 -2.45 -1.35 -2.45 -0.55 -2.80 -0.55 -2.80 -0.15 -5 -0.10 -5 -1.10 -0.15 -1.15 -0.15 0 5.90 0 5.95 0.75 2.85 0.75 2.85 1.20 1.85 c0.65 1.05 1.65 2.45 2.25 3.10 l1.05 1.20 0 6.70 0 6.65 -0.70 0 -0.65 0 -0.35 -1.55 c-0.15 -0.85 -0.30 -3.65 -0.30 -6.20 l0 -4.60 -1.55 -1.95 c-1.95 -2.45 -2.95 -4.35 -2.95 -5.70 l0 -1 -0.50 0 -0.50 0 0 0.50 c0 0.30 -0.40 1.40 -0.90 2.40 l-0.90 1.90 0.90 1.95 0.85 2 0.05 7.80 0 7.85 -0.70 1.65 -0.70 1.70 -1.45 1.35 -1.40 1.30 -2 0.55 -2 0.55 -4.60 0 -4.60 0 -0.50 -0.95 -0.55 -0.95 0.10 -2.70 0.10 -2.65 0.20 0.90 0.15 0.85 0.70 0 0.70 0 0.15 1.65 0.15 1.60 4 0.15 4 0.15 2 -0.70 2 -0.70 1.15 -1.65 1.10 -1.65 0 -7.95 0 -7.95 -0.75 -1.45 c-0.40 -0.80 -1.10 -1.65 -1.45 -1.85 l-0.75 -0.40 1.50 -2.20 1.45 -2.20 0 -8.45 0 -8.40 -4.35 0 -4.40 0 -1.70 0.90 -1.75 0.85 -0.95 1.35 -1 1.35 -0.25 6.50 -0.25 6.50 -0.80 0.20 -0.80 0.25 0.90 0.05 0.85 0.05 0 2.45 0 2.50 -0.85 0.20 -0.90 0.25 0.90 0.05 0.85 0.05 0 7 0 7 -0.70 0 -0.75 0 -0.20 1.15 c-0.10 0.60 -0.25 -6.30 -0.25 -15.40 l-0.10 -16.50 0.50 -1.95 0.45 -1.95 0.95 -1.30 c0.50 -0.70 1.70 -1.75 2.65 -2.30 l1.70 -1 8.20 -0.10 8.25 -0.15 0.90 0.85 0.90 0.80 0 5.85 0 5.80 0.75 2.50 c0.40 1.35 0.95 2.80 1.25 3.20 l0.45 0.75 0.70 -0.75 c0.40 -0.40 1 -1.55 1.35 -2.50 l0.60 -1.75 0.25 -6.50 0.25 -6.50 0.50 -0.85 0.45 -0.90 2.15 0 2.15 0 0.85 0.95 0.90 0.95 1.75 -1.20 1.80 -1.20 2.70 0 2.70 0 1.60 0.70 1.65 0.65 1.20 1.50 c0.70 0.85 1.50 1.95 1.80 2.45 l0.60 0.95 0.50 -1.25 c0.55 -1.40 2.75 -3.55 4.45 -4.45 l1.10 -0.55 2.65 0 2.65 0 1.70 0.90 1.75 0.85 1.45 1.85 1.50 1.85 0.25 4.95 0.25 4.95 -0.60 1.05 -0.60 1.10 -2.10 0 -2.15 0 -0.60 -0.60 -0.60 -0.60 0 -4.30 0 -4.35 -0.90 -0.80 -0.95 -0.85 -1.05 0 -1.05 0 -0.75 1.10 -0.80 1.10 0 2.70 0 2.65 0.70 1.35 0.75 1.35 4.05 3.65 4.05 3.70 1.10 2.05 1.10 2.10 0 8.25 0 8.25 -0.85 1.60 -0.90 1.60 -1.75 1.35 -1.75 1.30 -2.20 0.25 -2.25 0.25 -1.70 -0.30 -1.70 -0.30 -2.05 -1.80 -2.10 -1.80 0 -0.95 0 -0.95 -0.50 0 -0.45 0 -0.80 1.45 -0.75 1.50 -1.80 1.40 -1.80 1.35 -3.10 0.20 -3.05 0.15 -1.50 -0.80z m9.15 -3.45 l1.85 -1.80 0 -8.40 0 -8.35 -1.35 -2 -1.40 -2 -2.10 -1.75 c-1.15 -0.95 -3 -2.60 -4.05 -3.65 l-1.90 -1.90 -0.45 -1.25 -0.50 -1.25 0 -3.50 0 -3.55 1.45 -1.45 1.45 -1.45 1.85 0 1.85 0 1.45 1.55 1.45 1.55 0 4.15 0 4.20 0.50 0.30 0.55 0.35 0.70 -0.60 0.75 -0.60 0 -3.50 0 -3.45 -0.70 -1.60 -0.65 -1.65 -1.60 -1.35 -1.65 -1.35 -2.50 0 -2.50 0 -1.50 0.85 -1.50 0.90 -0.95 1.85 -0.95 1.85 0 3.55 0 3.55 1 1.90 0.95 1.95 4.05 3.65 4.05 3.65 0.95 1.70 1 1.65 0 7.05 0 7 -1 1.40 -1 1.40 -0.95 0.25 -1 0.25 -0.25 -0.70 -0.25 -0.70 -0.85 0 -0.80 0 0.30 0.75 0.30 0.80 -1.55 -0.90 -1.55 -0.90 -0.45 -1.15 -0.45 -1.15 0 -3.95 0 -3.90 -0.60 -0.25 c-0.35 -0.10 -0.95 -0.10 -1.25 0.05 l-0.65 0.20 0 4.35 0 4.30 0.90 1.70 0.95 1.70 1.70 0.95 1.70 0.95 2.65 -0.20 2.65 -0.20 1.85 -1.85z m18 0 l1.85 -1.80 0 -8.40 0 -8.35 -1.35 -2 -1.40 -2 -2.10 -1.75 c-1.15 -0.95 -3 -2.60 -4.05 -3.65 l-1.90 -1.90 -0.45 -1.25 -0.50 -1.25 0 -3.50 0 -3.55 1.45 -1.45 1.45 -1.45 1.85 0 1.85 0 1.45 1.55 1.45 1.55 0 4.10 0 4.15 0.30 0.30 0.35 0.30 0.90 -0.50 0.95 -0.50 0 -3.50 0 -3.50 -0.70 -1.60 -0.65 -1.65 -1.60 -1.35 -1.65 -1.35 -2.50 0 -2.50 0 -1.50 0.85 -1.50 0.90 -0.95 1.85 -0.95 1.85 0 3.55 0 3.55 1 1.90 0.95 1.95 4.05 3.65 4.05 3.65 0.95 1.70 1 1.65 0 6.85 0 6.85 -0.95 1.55 -0.95 1.55 -1 0.25 -1.05 0.30 -0.25 -0.70 -0.25 -0.70 -0.85 0 -0.80 0 0.30 0.75 0.30 0.75 -0.90 -0.45 c-0.45 -0.25 -1.30 -0.80 -1.85 -1.20 l-1 -0.75 -0.25 -4.70 -0.25 -4.65 -1.10 -0.15 -1.15 -0.15 0 4.30 0 4.35 1.10 1.95 1.05 1.90 1.55 0.80 1.55 0.80 2.65 -0.20 2.65 -0.20 1.85 -1.85z m-3.50 -2.60 l1.10 -0.75 0 -7.05 0 -7.05 -5.50 -5.35 -5.50 -5.30 0 -0.85 0 -0.85 -0.45 0 c-0.30 0 -0.65 0.25 -0.80 0.50 l-0.30 0.50 -2.15 0 -2.10 0 -0.60 -0.60 -0.60 -0.60 0 -4.25 0 -4.20 -0.85 -0.95 -0.80 -0.90 -1.15 0 -1.15 0 -0.75 1.10 -0.80 1.10 0 2.70 0 2.65 0.70 1.35 0.75 1.35 4.05 3.65 4.05 3.70 1 2 1.05 2.05 0.25 2.65 0.30 2.70 2.60 0 2.65 0 0.30 1.55 c0.15 0.85 0.30 2.95 0.30 4.65 l0 3.10 0.80 1.10 0.75 1.10 0.85 0 c0.50 0 1.40 -0.35 2 -0.80z m-38.05 -17.55 l-0.35 -0.30 -0.35 0.30 -0.30 0.35 0.65 0 0.65 0 -0.30 -0.35z"/>
  <path d="M53 60.80 l-0.45 -1.20 0.30 -2.80 0.30 -2.80 0.65 0 0.65 0 0.15 2.90 0.15 2.85 6.25 0 6.25 0 0.15 -0.85 0.15 -0.90 -5.25 0 -5.30 0 0 -10.75 0 -10.75 4.45 0 4.45 0 0.55 -0.65 0.55 -0.65 -0.60 -0.60 -0.60 -0.60 -4.45 0 -4.40 0 0.15 -2.35 0.15 -2.40 0.90 -0.15 0.85 -0.15 0 1.50 0 1.55 3.80 0 3.75 0 1 0.50 0.95 0.55 0 2.10 0 2.15 -0.60 0.60 -0.60 0.60 -4.15 0 -4.15 0 0.10 8.65 0.15 8.60 4.75 0.25 4.75 0.25 0.45 1.40 0.50 1.35 -0.50 1.40 -0.45 1.35 -7.65 0.15 -7.60 0.15 -0.50 -1.25z"/>
  <path d="M90.55 61.35 l-0.55 -0.70 0 -23.80 0.05 -23.75 0.75 -0.30 c0.45 -0.15 2.85 -0.30 5.35 -0.30 l4.60 0.05 1.90 0.65 c2.30 0.85 3.70 2 4.70 4.05 l0.80 1.45 0.10 17.55 0.05 17.55 -0.75 2.50 -0.80 2.45 -1.25 -0.15 -1.25 -0.15 0.75 0.50 0.75 0.50 -0.50 0.45 c-0.30 0.25 -1.45 0.80 -2.65 1.25 l-2.10 0.85 -4.70 0 -4.70 0 -0.55 -0.65z m11.50 -1.95 l1.70 -0.55 0.90 -1 0.85 -1 0.55 -1.95 0.50 -1.95 -0.15 -16.85 -0.15 -16.85 -0.95 -1.60 -1 -1.60 -1.90 -0.80 c-1.05 -0.40 -2.50 -0.75 -3.15 -0.75 l-1.25 0 0 -0.50 0 -0.55 -1 0.55 -1 0.55 0 -0.55 0 -0.50 -0.75 0 -0.75 0 0 0.50 0 0.50 -1.25 0 -1.25 0 0 22.75 0 22.75 4.20 0 4.15 0 1.70 -0.60z"/>
  <path d="M94.50 37.20 l0 -20.85 3.30 0.30 3.30 0.25 1.35 1.30 1.30 1.30 0.15 17.15 0.10 17.10 -0.95 1.60 -1 1.60 -1.90 0.50 c-1.05 0.30 -2.75 0.55 -3.75 0.55 l-1.90 0 0 -20.80z m6.20 17.75 l1.30 -1 0 -16.60 -0.05 -16.60 -0.65 -0.85 -0.65 -0.85 -2.05 -0.35 -2.10 -0.35 0 18.85 0 18.80 1.45 0 1.40 0 1.35 -1.05z"/>
  <path d="M138.05 61.10 l-0.50 -0.95 0.05 -3.20 0.10 -3.20 0.15 1.15 0.20 1.10 0.70 0 0.70 0 0.15 1.90 0.15 1.85 1.15 0.15 1.10 0.15 0 -9.50 0 -9.55 4.50 0 4.50 0 0 9.50 0 9.50 1.25 0 1.25 0 0.05 -1.35 0.10 -1.40 0.20 1.15 0.20 1.10 0.80 0 0.75 0 -0.30 0.80 c-0.15 0.45 -0.30 1 -0.30 1.25 l0 0.45 -2.50 0 -2.45 0 -0.55 -0.95 -0.50 -1 0 -8.50 0 -8.55 -2.50 0 -2.50 0 0 8.90 0 8.90 -0.60 0.60 -0.60 0.60 -2.15 0 -2.10 0 -0.50 -0.90z"/>
  <path d="M76.65 57.90 l-1.10 -0.55 -0.75 -1.60 -0.80 -1.65 0 -9.75 0 -9.75 0.30 -0.80 0.30 -0.80 0.70 0 0.70 0 0.10 10.90 c0 5.95 0.05 11.15 0.05 11.50 l-0.05 0.60 0.65 0 0.65 0 0.20 1.25 c0.15 0.70 0.25 1.25 0.20 1.20 0 0 -0.55 -0.25 -1.15 -0.55z"/>
  <path d="M79.45 57.65 l-0.70 -0.80 0.65 -0.25 c0.35 -0.10 0.95 -0.50 1.35 -0.95 l0.75 -0.70 0.05 -1.60 0.05 -1.60 0.25 0.90 0.20 0.85 0.75 0 0.70 0 -0.30 1.40 c-0.40 1.60 -1.05 2.45 -2.25 3.10 l-0.85 0.50 -0.65 -0.85z"/>
  <path d="M116.25 57.90 c-0.60 -0.25 -1.35 -0.95 -1.70 -1.55 l-0.70 -1.05 -0.10 -2.60 -0.15 -2.55 0.95 0.20 c1.20 0.35 1.20 1 0.10 1.30 l-0.90 0.25 0.80 0.05 0.75 0.05 0.50 1.85 0.45 1.80 0.80 0.50 0.80 0.50 1.25 -0.30 1.30 -0.35 0.25 -0.70 c0.15 -0.40 0.35 -5.10 0.40 -10.45 l0.05 -9.75 0.95 0.25 0.95 0.25 0 10 0 10 -1.55 1.55 -1.55 1.55 -0.50 -0.85 -0.45 -0.85 -0.70 0 -0.70 0 -0.15 0.70 -0.15 0.65 -1 -0.45z"/>
  <path d="M162.35 57.65 l-0.35 -0.30 0 -10.45 0 -10.40 2.90 0 c1.55 0 3.35 0.15 4 0.30 l1.15 0.35 0.75 1.40 0.75 1.45 -0.75 0 -0.70 0 -0.25 0.65 -0.25 0.60 -0.05 -0.85 -0.05 -0.85 -0.95 -0.55 -1 -0.50 -1.75 0 -1.80 0 0 8.50 0 8.55 0.75 0.30 0.80 0.25 1.85 -0.70 1.85 -0.70 0.15 -1.05 0.15 -1.05 1 0.25 c1.15 0.30 1.15 0.25 0.25 2.35 l-0.70 1.65 -2.25 0.60 c-2.55 0.60 -5 0.70 -5.50 0.20z"/>
  <path d="M181.50 55.25 c0 -0.15 0.10 -0.25 0.25 -0.25 0.15 0 0.25 0.10 0.25 0.25 0 0.15 -0.10 0.25 -0.25 0.25 -0.15 0 -0.25 -0.10 -0.25 -0.25z"/>
  <path d="M181.65 53.75 c-0.35 -1.05 -0.10 -1.20 1.10 -0.70 l1 0.40 -1 0.05 -1 0.05 1 0.45 1 0.45 -0.90 0 -0.90 0.05 -0.30 -0.75z"/>
  <path d="M16.50 53.25 c0 -0.15 0.10 -0.25 0.25 -0.25 0.15 0 0.25 0.10 0.25 0.25 0 0.15 -0.10 0.25 -0.25 0.25 -0.15 0 -0.25 -0.10 -0.25 -0.25z"/>
  <path d="M153.60 49.25 c0 -2.45 -0.05 -11.30 -0.05 -19.60 l-0.05 -15.15 -4.10 0 -4.15 0 -1.70 0.90 -1.75 0.85 -1 1.40 -1 1.35 -0.20 7.75 -0.20 7.75 -0.70 0 -0.70 0 0 1.50 0 1.50 0.75 0 0.75 0 0 7.25 0 7.25 -0.70 0 -0.65 0 -0.35 -1.55 -0.30 -1.50 0.05 -13.60 0 -13.60 0.40 -2.20 0.45 -2.15 0.95 -1.35 1 -1.30 1.70 -1 1.70 -1 5.15 -0.15 5.10 -0.20 0.75 0.60 0.75 0.60 0 16.20 0 16.20 -0.75 0 -0.75 0 0 1.50 0 1.50 0.75 0 0.75 0 0 1 0 1 -0.70 0 -0.75 0 -0.20 1.40 -0.20 1.35 -0.05 -4.50z"/>
  <path d="M16.80 50.45 c-0.40 -2 -0.40 -10.60 0 -11.65 l0.30 -0.80 0.70 0 0.70 0 0 7 0 7 -0.70 0 -0.65 0 -0.35 -1.55z"/>
  <path d="M169.90 50.90 c-0.05 -0.65 -0.10 -2.65 -0.15 -4.50 l-0.10 -3.40 0.95 0 0.90 0 0 4.50 0 4.50 -0.75 0 -0.75 0 -0.10 -1.10z"/>
  <path d="M81.60 45.85 c0.05 -3.10 0.20 -5.20 0.30 -4.70 l0.15 0.85 0.75 0 0.70 0 0 4.45 0 4.45 -1 0.25 -1.05 0.25 0.15 -5.55z"/>
  <path d="M113.50 49.25 c0 -0.15 0.10 -0.25 0.25 -0.25 0.15 0 0.25 0.10 0.25 0.25 0 0.15 -0.10 0.25 -0.25 0.25 -0.15 0 -0.25 -0.10 -0.25 -0.25z"/>
  <path d="M113.65 33.90 l0.10 -14.90 1.35 -1.35 1.35 -1.35 3.30 -0.20 3.25 -0.20 0 9.05 0 9.05 -0.70 0 -0.65 0 -0.35 -1.55 c-0.15 -0.85 -0.30 -4.45 -0.30 -8 l0 -6.45 -1.60 0 -1.65 0.05 -1 0.75 -1 0.75 -0.15 13.95 -0.15 14 -0.70 0 -0.65 0 -0.30 0.65 -0.25 0.60 0.10 -14.85z"/>
  <path d="M69.75 38.45 l0 -3.20 0.90 -0.15 0.85 -0.15 0 2.75 0 2.80 -0.70 0 -0.70 0 -0.20 0.55 c-0.10 0.30 -0.20 -0.85 -0.15 -2.60z"/>
  <path d="M21 37.30 c0 -1.50 0.15 -3.05 0.30 -3.50 l0.30 -0.80 0.70 0 0.70 0 0 1.80 0 1.80 0.65 -0.20 c0.30 -0.15 1.25 -1.15 2 -2.30 l1.40 -2.05 0.70 -3.40 0.75 -3.40 0 -3.45 0 -3.45 -1.85 0.30 -1.90 0.30 -0.85 1.10 -0.90 1.05 0 4.20 0 4.20 -0.70 0 -0.75 0 -0.20 0.90 -0.25 0.85 -0.05 -5.15 -0.05 -5.15 0.80 -1.50 0.75 -1.55 1.70 -0.70 1.70 -0.70 2.25 0 2.20 0 0.20 0.65 c0.10 0.30 0.05 2.95 -0.15 5.85 l-0.35 5.25 -0.80 2.85 -0.85 2.80 -1.45 2 c-0.75 1.10 -2.10 2.45 -2.90 3.05 l-1.50 1.05 -0.80 0 -0.80 0 0 -2.70z"/>
  <path d="M142 37.30 c0 -0.95 0.15 -2.05 0.30 -2.50 l0.30 -0.80 0.70 0 0.70 0 0 1.50 0 1.50 2.50 0 2.50 0 0 -9.30 0 -9.30 -1.60 0.35 -1.65 0.35 -0.85 1 -0.90 1 0 4.40 0 4.40 -0.90 0.20 -0.95 0.25 -0.10 -4.80 -0.05 -4.80 0.95 -1.60 1 -1.60 1.90 -0.50 c1.05 -0.30 2.65 -0.55 3.55 -0.55 l1.60 0 0 11.25 0 11.25 -4.50 0 -4.50 0 0 -1.70z"/>
  <path d="M52.50 35.75 c0 -0.15 0.10 -0.25 0.25 -0.25 0.15 0 0.25 0.10 0.25 0.25 0 0.15 -0.10 0.25 -0.25 0.25 -0.15 0 -0.25 -0.10 -0.25 -0.25z"/>
  <path d="M69.85 34.15 c-0.15 -0.25 -0.30 -4.70 -0.30 -10 l-0.10 -9.60 0.55 -1.05 0.55 -1 1.95 0 c1.05 0 2.25 0.15 2.70 0.30 l0.80 0.30 0 8.20 0 8.20 -0.70 0 -0.70 0 -0.30 -0.80 -0.30 -0.80 0 -6.75 0 -6.70 -1.10 0.15 -1.15 0.15 -0.15 9.90 -0.10 9.85 -0.75 0 c-0.35 0 -0.80 -0.15 -0.90 -0.35z"/>
  <path d="M163.40 34.15 l-1.40 -0.20 0 -6.50 0 -6.50 0.80 -1.50 0.75 -1.55 1.70 -0.70 1.70 -0.70 2.30 0 2.25 0 0.05 0.90 c0 0.45 0 3.65 -0.05 7.05 l-0.05 6.20 -0.70 1.40 -0.75 1.40 -0.85 0.20 c-1.65 0.45 -4.40 0.70 -5.75 0.50z m5.55 -3.10 l0.50 -0.90 0.10 -5.60 0.05 -5.60 -0.25 -0.30 -0.30 -0.25 -1.75 0.30 -1.75 0.35 -0.80 1.10 -0.75 1.05 0 3.40 0 3.40 -0.75 0 -0.75 0 0 0.50 0 0.50 0.75 0 0.75 0 0 1.50 0 1.50 2.25 0 2.20 0 0.50 -0.95z"/>
  <path d="M142 31.50 l0 -0.65 0.35 0.30 0.30 0.35 -0.30 0.35 -0.35 0.30 0 -0.65z"/>
 </g>
</svg>