<?xml version="1.0" encoding="utf-8"?>
<!DOCTYPE svg PUBLIC "-//W3C//DTD SVG 20010904//EN" "http://www.w3.org/TR/2001/REC-SVG-20010904/DTD/svg10.dtd">
<svg version="1.0" xmlns="http://www.w3.org/2000/svg" width="245px" height="76px" viewBox="0 0 245 76" preserveAspectRatio="xMidYMid meet">
 <g fill="none" stroke="#ffffff" stroke-width="1">
  <path d="M20.5 2.5C36 0.5 53 2.5 69 2.5L165.5 2.5L215.5 2.5C223 2.5 233.5 1 240.5 3C244 4 243 15 243 18L243 60C243 63 244 72.5 241 73.5C237 75.5 230.5 74 226.5 74C214 74.5 201 74.5 188.5 74.5L61.5 74.5C47.5 74.5 33 75 19 74C15 74 7.5 75.5 3.5 73.5C2 73 2.5 71 2.5 69.5C2 65.5 2 62 2 58L2 18.5C2 15 1 6.5 3 4C4 2.5 6.5 3 8 3C12 3 16.5 3.5 20.5 2.5M73 15C73 26.5 73.5 38 73.5 49.5C73.5 53.5 73 59.5 78.5 60C83.5 60 85 54.5 85 50.5C85 38.5 85 27 85 15M120 15.5C125.5 15 124.5 20.5 124.5 24.5C124.5 33.5 124.5 42 124 51C124 54.5 123 59.5 118.5 60C113 60.5 113 53.5 113 50L113 28.5C113 25.5 112.5 21.5 113.5 19C115 16.5 117.5 16 120 15.5M20.5 41.5C20.5 35 18.5 25.5 21.5 19.5C22.5 17 31.5 13.5 32 17.5C33 24 31 33.5 27 38.5C25 40.5 22 41 20.5 43C18.5 46.5 20 55 20.5 59M37 48.5C37 52 37 56 39.5 58.5C43 62 48 59 49 54.5C49.5 51 50 42.5 48 39.5C45 34.5 38 31.5 37.5 25C37 19.5 42.5 11.5 48 18C49.5 20.5 49 24 49 27M94 16.5C97 14 103.5 18 104.5 21C107 29.5 105 40.5 105 49C105 52.5 105 56.5 101.5 58.5C100 59.5 94.5 60.5 93.5 58.5C92 56 93 52 93 49.5L93 27.5C93 25 92 18 94 16.5M169 16C174.5 15.5 173 21.5 173 25.5C173 29 170.5 32.5 171 36C171 37.5 172 39.5 172.5 41C174 47 174.5 58.5 166.5 59.5C165 59.5 162 60 161.5 58.5C160 56 161 51 161 48.5C161 41 160.5 33.5 161.5 26C161.5 24 161 21.5 162 19.5C163.5 17 166.5 16.5 169 16M191 16L189.5 30.5L185 39.5L185 60M195 48.5C195 52 195 56 197.5 58.5C201 62 206 59 207 54.5C207.5 51 208 42.5 206 39.5C203 34.5 196 31.5 195.5 25C195 19.5 200.5 11.5 206 18C207.5 20.5 207 24 207 27M213 48.5C213 52 213 56 215.5 58.5C219 62 224 59 225 54.5C225.5 51 226 42.5 224 39.5C221 34.5 214 31.5 213.5 25C213 19.5 218.5 11.5 224 18C225.5 20.5 225 24 225 27M66 59.5C64 59.5 58 60.5 56.5 58.5C55 56.5 56 50 56 47.5C56 39 52 17 64 16.5M141 60C142 49.5 140.5 38.5 141.5 28C141.5 25 140.5 20 143.5 18C145.5 16.5 151 15.5 152 18C153.5 21 152.5 26.5 152.5 30L152.5 58.5M178.5 17.5C178.5 25 180 33.5 185 39M56.5 35.5L65.5 35.5M161.5 35.5L170 36M141.5 40.5L152 40.5"/>
 </g>
 <g fill="none" stroke="#44e1e1" stroke-width="1">
  <path d="M52.5 17.5L52.5 20M89 18L89 22M108.5 18L108.5 22M157.5 18.5L157 22M185 19.5L184.5 20M12 20L13 20M79 20L79.5 20M131 20L134 20M233 20L233.5 20M61.5 22L68 21M119 21L118.5 21.5M25.5 22L27 21.5M43.5 21.5L44 21.5M98 21.5L99.5 22M166.5 22L168 21.5M201.5 21.5L202 21.5M219.5 21.5L220 21.5"/>
 </g>
 <g fill="none" stroke="#c545e5" stroke-width="1">
  <path d="M10.5 65L234 65"/>
 </g>
 <g fill="none" stroke="#c3e244" stroke-width="1">
  <path d="M89 38.5L89 42.5M156.5 38.5L156.5 42.5M212 39.5L217 41M177.5 40L178.5 40.5M11 40.5L13 40.5M33.5 41L41 41M78.5 40.5L79 40.5M99.5 40.5L100 40.5M118.5 40.5L119 40.5M131 40.5L134 40.5M191.5 41L198.5 40.5M232 40.5L234 40.5M61 41.5L66.5 41.5M166 41.5L167 41.5"/>
 </g>
 <g fill="none" stroke="#e1a244" stroke-width="1">
  <path d="M26.5 47C33 46 37 43.5 43.5 46M212.5 44L219.5 46.5M89 44.5L89 48.5M156.5 44.5L156.5 48.5M190.5 46C193.5 43 198 44.5 201.5 46M11 46.5L13 46.5M62 46.5L66 46.5M78.5 46.5L79 46.5M99.5 46.5L100 46.5M118.5 46.5L119 46.5M131 46.5L134 46.5M146.5 46.5L147 46.5M166.5 46.5L167 46.5M178.5 46.5L179 46.5M232 46.5L234 46.5"/>
 </g>
 <g fill="none" stroke="#de43a0" stroke-width="1">
  <path d="M60.5 56C64.5 56 69 55.5 70.5 60M156.5 56L157 60.5M11 58.5L13 58.5M26 58.5L31.5 59M88.5 58.5L88 60M130 58.5L134 58.5M146.5 58.5L147 58.5M190 58.5L190.5 59M231 58.5L234 58.5M210 60L210.5 60M50 60.5L51.5 60.5"/>
 </g>
 <g fill="none" stroke="#4483e2" stroke-width="1">
  <path d="M11.5 12.5L25.5 10.5L53.5 11.5L108 11.5L125 10.5L133.5 12L147 10.5L209.5 11.5L233 12.5M89 11L89 15.5"/>
 </g>
 <g fill="none" stroke="#44e283" stroke-width="1">
  <path d="M89 25L89 29M156.5 25L156.5 29.5M43.5 26L44.5 27.5M201.5 26L202.5 27.5M219.5 26L220.5 27.5M78.5 26.5L78.5 27.5M99.5 26.5L99.5 27.5M118.5 26.5L118.5 27.5M146.5 26.5L146.5 27.5M166.5 26.5L166.5 27.5M11.5 27L12.5 27M62 27L65.5 27M131.5 27L133.5 27M232.5 27L233.5 27"/>
 </g>
 <g fill="none" stroke="#63e144" stroke-width="1">
  <path d="M47.5 31.5L50 33M60 31.5L67.5 32M164.5 31.5L168.5 31.5M206 31.5L211.5 35.5M89 32L89 36M156.5 32L156.5 36.5M25 32.5L24 36.5M227 33L233.5 34M78.5 33.5L78.5 34.5M99.5 33.5L99.5 34.5M118.5 33.5L118.5 34.5M146.5 33.5L146.5 34.5M11.5 34L12.5 34M131.5 34L133.5 34M193.5 35.5L195.5 36"/>
 </g>
 <g fill="none" stroke="#e34545" stroke-width="1">
  <path d="M89 50.5L89 54.5M156.5 50.5L156.5 54.5M190 52L190 53M11 52.5L13 52.5M26 52.5L31 52.5M43.5 52.5L44 52.5M62 52.5L66 52.5M118.5 52.5L119 52.5M131 52.5L134 52.5M146.5 52.5L147 52.5M166.5 52.5L167 52.5M178.5 52.5L179 52.5M201.5 52.5L202 52.5M219.5 52.5L220 52.5M232 52.5L234 52.5"/>
 </g>
 <g fill="none" stroke="#80782a" stroke-width="1">
  <path d="M50.5 22.5L50.5 26.5M208.5 22.5L208.5 26.5M226.5 22.5L226.5 26.5M115.5 38.5L115.5 42.5M127.5 38.5L127.5 42.5M155.5 38.5L155.5 42.5M52.5 39L52.5 43M60.5 39L65.5 39M16.5 40L16.5 47M69.5 40L69.5 47M81.5 40L81.5 47M96.5 40L96.5 47M108.5 40L108.5 47M137.5 40L137.5 47M157.5 40L157.5 47M169.5 42.5L169.5 48M183.5 43L183.5 56M50.5 44.5L50.5 51.5M208.5 44.5L208.5 51.5M226.5 44.5L226.5 51.5"/>
 </g>
 <g fill="none" stroke="#8e2b3c" stroke-width="1">
  <path d="M181.5 49.5L182 62M40.5 50.5L40.5 54.5M81.5 50.5L81.5 54.5M108.5 50.5L109.5 55M127.5 50.5L127.5 54.5M198.5 50.5L198.5 54.5M216.5 50.5L216.5 54.5M228.5 50.5L228.5 54.5M52.5 51L52.5 59M96.5 51L96.5 55.5M16.5 51.5L16.5 58.5M137.5 51.5L137.5 58.5M157.5 51.5L157.5 58.5M155.5 52L155.5 59"/>
 </g>
 <g fill="none" stroke="#2f7e38" stroke-width="1">
  <path d="M40.5 21.5L40.5 25.5M198.5 21.5L198.5 25.5M216.5 21.5L216.5 25.5M228.5 22L228.5 27M169.5 25L169.5 30M108.5 25.5L108.5 35M16.5 26L16.5 35M52.5 26L52.5 35M69.5 26L69 36M81.5 26L81.5 35M96.5 26L96.5 35M115.5 26L115.5 35M127.5 26L127.5 35M137.5 26L137.5 35M155.5 26L155.5 35M157.5 26L157.5 35M41 27.5L46.5 33M199 27.5L204.5 33M217 27.5L222.5 33M35 30.5L41.5 37M211 30.5L217.5 37M193 32L199.5 37M63 33L68 33.5"/>
 </g>
 <g fill="none" stroke="#1e4764" stroke-width="1">
  <path d="M26 13L32 13M62 13C65 13 67 13.5 69 15.5M91.5 13.5L101 13M146.5 13L155 13.5M167 13L173 13M177 13C182 13.5 181.5 17 181.5 21M189.5 13L195 14.5M155.5 14.5L155.5 21.5M127.5 15.5L127.5 21.5M189.5 17L189.5 21.5M30.5 19L30.5 23.5M171.5 20L171.5 28M71.5 24.5L71.5 45.5M83.5 24.5L83.5 45.5M94.5 26.5L94.5 48.5M106.5 28.5L106.5 46.5M18.5 30.5L18.5 51.5M54.5 30.5L54.5 51.5M139.5 30.5L139.5 51.5M159.5 30.5L159.5 51.5M60 37L65.5 37M171.5 44L171.5 51M38.5 49L38.5 53.5M196.5 49L196.5 53.5M214.5 49L214.5 53.5"/>
 </g>
 <g fill="none" stroke="#573e1b" stroke-width="1">
  <path d="M121.5 40L121.5 47M52.5 44.5L52.5 48.5M115.5 44.5L115.5 48.5M127.5 44.5L127.5 48.5M149.5 44.5L149.5 48.5M155.5 44.5L155.5 48.5M181.5 44.5L181.5 48.5M228.5 44.5L228.5 48.5"/>
 </g>
 <g fill="none" stroke="#010102" stroke-width="1">
  <path d="M7 7C9.5 5 18 6.5 21 6.5L60.5 6.5L188 6.5L223.5 6.5C227.5 6.5 234.5 5 238 7C240.5 8 239 18 239 20.5L239 57C239 60 240.5 67.5 238 69.5C236 72 227.5 70.5 224.5 70.5L185 70.5L57.5 70.5L21.5 70.5C17.5 70.5 10.5 72 7 70C4.5 69 6 59 6 56.5L6 19.5C6 17 4.5 8.5 7 7M120.5 13.5C122 13.5 125.5 13 126 14.5C127.5 17.5 126.5 22.5 126.5 25.5C126.5 34.5 127 43.5 126 52.5C125.5 57 125 61.5 119.5 62C111.5 63 110.5 54.5 110.5 48.5C110.5 41 110.5 33.5 110.5 26C110.5 22.5 110.5 18 113.5 15.5C115.5 13.5 118 14 120.5 13.5M34.5 18C40 15.5 46 10.5 50.5 18C51.5 19.5 53 29 49.5 28.5C45 28 48.5 19 43.5 18.5C40 18 40 22 40 24.5C40.5 30 46.5 33.5 49.5 38C52 41.5 52 53 50.5 57C48 63.5 39 63.5 36 57.5C35 55.5 34.5 47 37.5 47C41.5 47 38 58 43.5 57.5C47 57.5 47 51.5 47 49C47 39 41 34.5 34.5 27.5C32.5 31 32 34.5 29.5 38C27.5 40.5 23.5 43 22.5 46C22 49 24 59.5 20.5 61C17 62.5 18 53 18 51.5L18 29C18 25.5 17.5 21.5 19 18.5C22 13 32 12 34.5 18M84.5 14.5C88.5 14 87 24 87 26C87 34.5 88 44 86.5 52.5C86 57.5 85 61 79.5 62C75 62.5 72 58.5 71 54.5C69.5 46 71 36 71 27C71 24.5 69.5 16.5 72 15C76 13 75 22.5 75 24C75 32.5 75.5 41.5 75.5 50C75.5 52.5 75.5 58.5 79.5 57.5C82.5 57 82.5 52 82.5 49.5C82.5 41 82 32.5 82.5 24C82.5 22 82 15 84.5 14.5M92 14.5C95.5 12.5 104.5 14.5 106 18C107.5 21.5 107 25.5 107 29L107 50.5C107 54 107 58 103.5 60C101.5 61.5 93.5 63 91.5 60.5C90 58.5 91 54 91 51.5L91 28C91 25 89.5 16 92 14.5M149 14C150.5 14 153.5 13.5 154 15C155.5 17.5 154.5 22.5 154.5 25.5L154.5 50C154.5 52 155.5 61 152.5 61C150 61 150.5 58 150.5 56.5C150.5 54 151.5 44 149.5 43C141 38.5 143 52 143 56C143 57 142 63 140 60.5C137.5 58.5 139 50 139 47L139 26C139 22 139 18.5 142 15.5C144 14 146.5 14.5 149 14M175.5 15.5C175.5 22.5 174.5 28.5 173.5 35C173 39.5 175 45 175 50C175 53 175 57 173 59C170.5 61.5 160.5 63.5 159 59.5C157.5 56.5 159 52 159 49L159 29C159 26 158.5 22 159.5 19C162 14 171.5 12.5 175.5 15.5C177 14.5 178.5 13.5 180 15C181.5 17 181 20.5 181 23C181.5 27 182.5 31 184.5 34.5C188 31.5 188.5 26.5 188.5 22C188.5 20 188.5 16 190 15C191.5 14 193 16 194.5 16C198.5 15.5 202 12 206 15.5C209 17.5 213 24.5 209.5 28C208 29 206 28 205.5 26.5C204.5 24 205 17.5 200.5 18.5C197.5 19 197.5 24 198.5 26.5C200 31.5 205.5 34.5 208 38.5C210 41 209 44.5 210.5 47.5C218.5 43.5 213 57.5 219 57.5C223 58 223 52 223 49.5C223 47 223.5 43.5 222.5 41C220 36 214 33 211 28M210.5 20C213.5 16 217.5 12 223 14.5C226 16 230.5 25 226.5 28C223.5 31 222.5 21 221.5 19.5C220.5 18 217.5 18 216.5 20C215 22.5 216 27 217.5 29C220.5 32.5 226 36 227 41C227.5 45 228 53 226.5 57C224.5 62 218.5 63 214.5 60C213 59 212 57 210.5 55.5L210 55.5C208 58.5 205.5 62 201.5 62C195.5 62 190.5 53 194 47.5C195 46 196.5 47 197 48.5C198 51 197.5 58.5 202 57.5C205 57 205 52 205 49.5C205 40 200 35 193 29C188 37 187 45 187 54C187 55.5 187.5 61 184.5 60.5C182 60 183 54 183 52.5C183 43.5 181.5 36 176 28.5M58.5 15C60 14.5 69 13.5 67 17C66 19 62.5 18 60.5 19C57.5 21 57.5 29 58 32C59 35.5 67 33 67 36C67 40 59 36 58 39.5C57 43.5 58 48.5 58 52.5C58 54 57.5 56 59 57C60.5 58.5 64.5 57 66.5 58C68 58.5 68.5 60 67 60.5C64.5 62 55.5 62.5 54 60.5C52.5 58 54 53.5 54 51C54 43 54 35 54 27C54 23 53.5 17 58.5 15M193.5 16.5L193 29M34.5 18L34.5 27.5M96.5 18.5C100 17 102 20.5 102.5 23C103 31.5 103 39.5 103 48C103 50.5 103 55.5 100.5 56.5C99 57.5 96.5 58 96 56.5C94.5 54 95.5 50.5 95.5 48L95.5 28C95.5 26 94.5 20 96.5 18.5M117 18.5C120 17 121.5 19 122 21.5C122.5 30 122.5 40 122 48.5C122 51.5 122.5 56 119.5 57.5C115.5 59 115 53 115 50.5C114.5 42.5 114.5 34.5 115 26.5C115 24 114 19.5 117 18.5M148.5 18.5C150.5 19 150 22.5 150 24C150 28 152.5 40.5 145 38.5C142.5 37.5 143.5 35 143.5 33C143.5 29.5 141.5 17 148.5 18.5M168.5 18.5C171 18.5 170.5 21.5 170.5 23C170.5 26.5 171.5 35 165.5 33.5C163 33.5 163.5 31 163.5 29C163 25 163 17.5 168.5 18.5M23 38C22.5 35.5 22 33 22 30.5C22 28 22 22.5 23.5 20C24.5 18.5 27.5 17.5 29 19.5C32.5 24 27.5 36 23 38M164 39C166 38 169.5 38 170 40C171.5 43 171.5 54.5 168.5 56.5C162 60.5 163 47 163 43.5C163 42 162.5 40 164 39M210.5 47.5L210.5 55.5"/>
 </g>
</svg>