<?xml version="1.0" encoding="utf-8"?>
<!DOCTYPE svg PUBLIC "-//W3C//DTD SVG 20010904//EN" "http://www.w3.org/TR/2001/REC-SVG-20010904/DTD/svg10.dtd">
<svg version="1.0" xmlns="http://www.w3.org/2000/svg" width="245px" height="76px" viewBox="0 0 245 76" preserveAspectRatio="xMidYMid meet">
 <g fill="#ffffff">
  <path d="M1.10 74.85 l-1.10 -1.15 0 -35.75 0 -35.80 1.15 -1.05 1.15 -1.10 120.25 0 120.30 0 1.05 1.15 1.10 1.15 0 35.75 0 35.80 -1.15 1.05 -1.15 1.10 -120.25 0 -120.30 0 -1.05 -1.15z m238.90 -36.85 l0 -33 -117.50 0 -117.50 0 0 33 0 33 117.50 0 117.50 0 0 -33z"/>
 </g>
 <g fill="#44e5e6">
  <path d="M7 19.50 l0 -4.50 6 0 6 0 0 0.85 c0 0.45 -0.40 2.50 -0.85 4.50 l-0.90 3.65 -5.10 0 -5.15 0 0 -4.50z"/>
  <path d="M22.10 21.45 l0.25 -2.50 0.50 -0.50 0.55 -0.55 3.05 -0.25 3.05 -0.30 0 3.35 0 3.30 -3.80 0 -3.85 0 0.25 -2.55z"/>
  <path d="M39.50 21.35 l0 -2.70 0.90 -0.80 0.95 -0.85 2 0 2 0 0.80 0.90 0.85 0.95 0 2.55 0 2.60 -3.75 0 -3.75 0 0 -2.65z"/>
  <path d="M58.10 21.45 l0.25 -2.50 0.55 -0.55 0.50 -0.50 3.65 -0.30 3.70 -0.35 0.50 -1.10 0.50 -1.15 1.35 0 1.40 0 0 4.50 0 4.50 -6.30 0 -6.35 0 0.25 -2.55z"/>
  <path d="M75 19.50 l0 -4.50 3.75 0 3.75 0 0 4.50 0 4.50 -3.75 0 -3.75 0 0 -4.50z"/>
  <path d="M87 19.50 l0 -4.50 2 0 2 0 0 4.50 0 4.50 -2 0 -2 0 0 -4.50z"/>
  <path d="M95.50 20.70 l0 -3.35 3.05 0.30 3.05 0.25 0.55 0.55 0.50 0.50 0.25 2.50 0.25 2.55 -3.85 0 -3.80 0 0 -3.30z"/>
  <path d="M107.50 22.50 l0 -1.55 -0.75 -1.80 c-0.40 -0.95 -0.75 -2.30 -0.75 -2.95 l0 -1.20 2.80 0 2.80 0 -0.30 1.40 c-0.15 0.75 -0.55 2.75 -0.90 4.50 l-0.60 3.10 -1.15 0 -1.15 0 0 -1.50z"/>
  <path d="M114.50 21.65 l0 -2.40 0.40 -0.55 c0.20 -0.30 0.85 -0.80 1.45 -1.15 l1.10 -0.55 2.25 0 2.30 0 0 3.50 0 3.50 -3.75 0 -3.75 0 0 -2.35z"/>
  <path d="M126.50 19.50 l0 -4.50 6.75 0 6.75 0 0 0.85 c0 0.45 -0.40 2.50 -0.85 4.50 l-0.90 3.65 -5.85 0 -5.90 0 0 -4.50z"/>
  <path d="M143.10 21.45 l0.25 -2.50 0.50 -0.50 0.50 -0.50 2.85 -0.30 2.80 -0.30 0 3.35 0 3.30 -3.55 0 -3.60 0 0.25 -2.55z"/>
  <path d="M154.50 19.50 l0 -4.50 2.75 0 2.75 0 0 0.85 c0 0.45 -0.40 2.50 -0.85 4.50 l-0.85 3.65 -1.90 0 -1.90 0 0 -4.50z"/>
  <path d="M163.10 21.45 l0.25 -2.50 0.50 -0.50 0.55 -0.55 2.95 -0.25 3 -0.30 0.35 2.85 0.30 2.85 -0.25 0.50 -0.30 0.45 -3.80 0 -3.80 0 0.25 -2.55z"/>
  <path d="M181 19.50 l0 -4.50 3.75 0 3.75 0 0 4.50 0 4.50 -3.75 0 -3.75 0 0 -4.50z"/>
  <path d="M197.50 21.35 l0 -2.70 0.90 -0.80 0.95 -0.85 2 0 2 0 0.80 0.90 0.85 0.95 0 2.55 0 2.60 -3.75 0 -3.75 0 0 -2.65z"/>
  <path d="M215.50 21.35 l0 -2.70 0.90 -0.80 0.95 -0.85 2 0 2 0 0.80 0.90 0.85 0.95 0 2.55 0 2.60 -3.75 0 -3.75 0 0 -2.65z"/>
  <path d="M227.50 22.25 l0 -1.80 -0.75 -1.80 c-0.40 -0.95 -0.75 -2.20 -0.75 -2.70 l0 -0.95 6 0 6 0 0 4.50 0 4.50 -5.25 0 -5.25 0 0 -1.75z"/>
  <path d="M51.25 21.40 c-0.15 -0.65 -0.55 -2.45 -1.10 -5 l-0.25 -1.40 2.60 0 2.60 0 -0.30 1.65 c-0.15 0.85 -0.40 2.45 -0.60 3.50 l-0.30 1.85 -1.20 0 -1.25 0 -0.20 -0.60z"/>
  <path d="M208.55 18.05 c-0.30 -0.55 -0.55 -1.45 -0.55 -2 l0 -1.05 2.05 0 2 0 -0.15 1.90 -0.15 1.85 -1.35 0.15 -1.35 0.15 -0.50 -1z"/>
 </g>
 <g fill="#c5e545">
  <path d="M7 40.05 l0 -4 0.45 -0.25 0.40 -0.30 4.85 0.35 4.80 0.30 0 3.95 0 3.90 -5.25 0 -5.25 0 0 -3.95z"/>
  <path d="M25.50 42.85 l0 -1.10 2.80 -3 2.85 -3 5.80 -0.10 5.80 -0.05 2.10 2.15 2.15 2.10 0 2.10 0 2.05 -10.75 0 -10.75 0 0 -1.15z"/>
  <path d="M58 40.75 l0 -3.25 4 0 4 0 1 -1 1 -1 1.25 0 1.25 0 0 4.25 0 4.25 -6.25 0 -6.25 0 0 -3.25z"/>
  <path d="M75 40.05 l0 -4 0.50 -0.30 0.55 -0.35 3.20 0.35 3.25 0.35 0 3.95 0 3.95 -3.75 0 -3.75 0 0 -3.95z"/>
  <path d="M87 40 l0 -4 2 0 2 0 0 4 0 4 -2 0 -2 0 0 -4z"/>
  <path d="M95.50 40.05 l0 -3.90 3.30 -0.30 3.35 -0.35 0.40 0.30 0.45 0.25 0 4 0 3.95 -3.75 0 -3.75 0 0 -3.95z"/>
  <path d="M107.50 40 l0 -4 1.25 0 1.25 0 0 4 0 4 -1.25 0 -1.25 0 0 -4z"/>
  <path d="M114.50 40 l0 -4 3.75 0 3.75 0 0 4 0 4 -3.75 0 -3.75 0 0 -4z"/>
  <path d="M126.50 40.05 l0 -4 0.40 -0.25 c0.25 -0.15 2.95 -0.10 6 0.05 l5.60 0.30 0 3.90 0 3.95 -6 0 -6 0 0 -3.95z"/>
  <path d="M154.60 39.90 l0.15 -4.15 1.90 -0.15 1.85 -0.15 0 4.25 0 4.30 -2 0 -2.05 0 0.15 -4.10z"/>
  <path d="M163 40.75 l0 -3.25 3.15 0 3.15 0 0.60 0.60 0.60 0.60 0 2.65 0 2.65 -3.75 0 -3.75 0 0 -3.25z"/>
  <path d="M174.80 41.40 c-0.20 -1.45 -0.40 -3.30 -0.45 -4.15 l-0.10 -1.50 1.40 -0.15 1.35 -0.15 0 -1 0 -0.95 1.25 0 1.25 0 0 0.70 0 0.70 1.50 1.50 1.50 1.50 0 3.05 0 3.05 -3.70 0 -3.65 0 -0.35 -2.60z"/>
  <path d="M187 40.85 l0 -3.20 1.05 -0.95 1.05 -0.95 5.80 -0.10 5.85 -0.05 2.10 2.15 2.15 2.10 0 2.10 0 2.05 -9 0 -9 0 0 -3.15z"/>
  <path d="M209.50 42.90 l0 -1.15 -1 -2.20 c-0.55 -1.20 -1 -2.55 -1 -3.05 l0 -0.90 5.60 0 5.65 0 2.10 2.15 2.15 2.10 0 2.10 0 2.05 -6.75 0 -6.75 0 0 -1.10z"/>
  <path d="M227.50 42.90 l0 -1.15 -1 -2.20 c-0.55 -1.20 -1 -2.55 -1 -3.05 l0 -0.85 6.25 0.05 6.25 0.05 0 4.15 0 4.10 -5.25 0 -5.25 0 0 -1.10z"/>
  <path d="M51 38.75 l0 -1.75 1.25 0 1.25 0 0 1.75 0 1.75 -1.25 0 -1.25 0 0 -1.75z"/>
 </g>
 <g fill="#c544e4">
  <path d="M7.10 64.40 l0.15 -4.65 5.15 0 5.15 -0.05 0.55 0.65 0.50 0.65 1.10 0 1.10 0 0.60 -0.60 0.60 -0.60 7.85 -0.05 7.90 -0.05 2 0.90 2 0.90 1.40 0 1.40 0 1.95 -1 1.95 -1 2.45 0 2.50 0 0.60 0.75 0.60 0.75 6.40 0 6.40 0 0.60 -0.75 0.60 -0.75 2.45 0 2.45 0 1.85 1 1.90 1 1.50 0 1.55 0 1.90 -1 1.90 -0.95 3.45 0 3.40 0 0.60 0.75 0.55 0.70 3.35 0 3.35 0 2.70 -0.70 2.75 -0.65 4.45 -0.05 4.50 0 1.75 0.95 1.80 0.95 1.50 0 1.50 0 2 -0.90 2 -0.90 7.40 0.10 7.40 0.05 0.55 0.55 0.60 0.60 1.10 0 1.10 0 0.55 -0.70 0.60 -0.70 3.55 0 3.55 0 0.70 0.70 0.70 0.70 0.90 0 0.95 0 0.60 -0.75 0.60 -0.75 1.90 0 1.90 0 0.65 0.80 0.70 0.80 4.50 -0.25 4.50 -0.30 1.90 -0.60 1.85 -0.60 0 -0.70 0 -0.65 1.25 0 1.25 0 0 1.05 0 1.10 3.70 -0.30 3.70 -0.35 0.60 0.75 0.60 0.75 0.85 0 c0.45 0 1.25 -0.30 1.80 -0.65 l1 -0.70 4.15 -0.05 4.20 0 2.05 0.95 2.10 0.95 1.40 0 1.40 0 1.90 -0.95 1.85 -1 3.60 0 3.60 0 2.10 0.95 2.15 1 1.40 0 1.40 0 1.85 -0.90 1.85 -0.90 6.75 0.05 6.75 0.05 0 4.45 0 4.50 -115.40 0.15 -115.40 0.10 0.15 -4.60z"/>
 </g>
 <g fill="#e544a5">
  <path d="M7 58 l0 -4 5.25 0 5.25 0 0 2.15 c0 1.15 0.15 3 0.35 4.10 l0.30 2 -0.80 -0.65 -0.80 -0.70 -4.10 0 -4.15 -0.05 -0.20 0.55 c-0.10 0.35 -0.40 0.60 -0.65 0.60 l-0.45 0 0 -4z"/>
  <path d="M52.95 61.20 l-0.65 -0.80 -1.90 0.20 -1.90 0.20 0 -0.65 c0 -0.35 0.55 -1.45 1.25 -2.45 0.70 -1 1.25 -2.15 1.25 -2.50 l0 -0.70 1.45 0 1.45 0 -0.05 3.75 c0 2.05 -0.05 3.75 -0.10 3.75 -0.10 0 -0.40 -0.35 -0.80 -0.80z"/>
  <path d="M68.15 60.30 l0.30 -2 -0.55 -0.65 -0.50 -0.65 -4.70 0 -4.70 0 0 -1.50 0 -1.50 6.40 0 6.35 0 1.40 2.95 c0.75 1.65 1.35 3.15 1.35 3.40 l0 0.45 -1.75 -0.20 -1.80 -0.20 -1.05 0.90 -1.05 0.95 0.30 -1.95z"/>
  <path d="M138.15 61.45 l-0.50 -0.50 -6.75 -0.05 -6.75 -0.05 -0.60 0.35 -0.55 0.35 0 -0.80 0 -0.85 1.30 -1.50 1.25 -1.55 0.30 -1.40 0.30 -1.45 6.10 0 6.10 0 0.30 3.85 c0.15 2.15 0.25 3.95 0.15 4 -0.05 0.10 -0.35 -0.10 -0.65 -0.40z"/>
  <path d="M158 61.25 l-0.60 -0.75 -0.85 0 c-0.45 0 -1.10 0.25 -1.45 0.60 l-0.60 0.60 0 -3.85 0 -3.85 1.95 0 1.90 0 0.30 3.85 c0.15 2.15 0.20 3.95 0.15 4.05 -0.10 0.05 -0.45 -0.20 -0.80 -0.65z"/>
  <path d="M182.15 61.45 l-0.55 -0.55 -5.55 -0.05 -5.55 -0.05 0 -0.55 0 -0.60 1.25 -0.65 1.25 -0.65 1.05 -2.20 1.05 -2.15 3.60 0 3.65 0 0.30 3.85 c0.15 2.15 0.25 3.95 0.15 4 -0.05 0.10 -0.35 -0.10 -0.65 -0.40z"/>
  <path d="M236.90 61.45 l-0.20 -0.55 -6.10 0 -6.10 -0.05 0 -0.90 0 -0.90 0.55 -0.35 c0.30 -0.15 1 -1.30 1.55 -2.50 l0.95 -2.20 5.20 0 5.25 0 0 4 0 4 -0.45 0 c-0.25 0 -0.55 -0.25 -0.65 -0.55z"/>
  <path d="M22 57.80 l0 -3.80 6.50 0 6.45 0 0.95 2.15 c0.50 1.15 1.30 2.40 1.75 2.80 l0.85 0.65 0 1 0 0.95 -0.60 -0.35 -0.55 -0.35 -7.15 0.05 -7.20 0.05 -0.50 0.30 -0.50 0.30 0 -3.75z"/>
  <path d="M90.30 61.10 l-0.20 -0.35 -3.05 0 -3.05 0 0 -0.60 c0 -0.35 0.55 -1.45 1.25 -2.45 l1.25 -1.85 0 -0.90 0 -0.95 2.25 0 2.25 0 0 3.75 c0 3.55 -0.15 4.25 -0.70 3.35z"/>
  <path d="M143 57.80 l0 -3.80 3.50 0 3.50 0 0 3.90 0 3.85 -0.40 -0.50 -0.35 -0.55 -2.50 0.05 -2.55 0.05 -0.60 0.40 -0.60 0.35 0 -3.75z"/>
  <path d="M187 57.80 l0 -3.80 3 0 2.95 0 0.95 2.15 c0.50 1.15 1.30 2.40 1.75 2.80 l0.85 0.65 0 1 0 0.95 -0.85 -0.45 -0.90 -0.45 -3.30 0.10 -3.30 0.10 -0.60 0.35 -0.55 0.35 0 -3.75z"/>
  <path d="M213.55 61.05 l-0.65 -0.45 -3.20 0.15 -3.20 0.10 0 -0.85 0 -0.90 0.70 -0.55 c0.40 -0.30 0.95 -1.25 1.30 -2.05 l0.60 -1.50 1.20 0 1.15 0 0.30 1 c0.20 0.55 0.90 1.70 1.55 2.50 l1.30 1.50 -0.20 0.75 -0.15 0.70 -0.70 -0.40z"/>
  <path d="M103 60.40 c0 -0.25 0.65 -1 1.45 -1.70 l1.50 -1.25 0.55 -1.70 0.60 -1.75 1.55 0 1.60 0 1.40 2.90 c0.75 1.55 1.35 3.10 1.35 3.35 l0 0.50 -5 0.05 -5 0.10 0 -0.50z"/>
  <path d="M40.65 57.15 l-0.65 -0.25 0 -1.45 0 -1.45 3 0 3 0 0 1.45 0 1.45 -0.80 0.30 c-0.90 0.35 -3.65 0.35 -4.55 -0.05z"/>
  <path d="M76.10 56.90 l-0.60 -0.60 0 -1.15 0 -1.15 3.25 0 3.25 0 0 1.45 0 1.45 -0.80 0.30 c-0.45 0.15 -1.60 0.30 -2.65 0.30 l-1.85 0 -0.60 -0.60z"/>
  <path d="M115.60 56.90 l-0.60 -0.60 0 -1.10 0 -1.10 3.05 0 3 0 -0.15 1.60 -0.15 1.55 -2.25 0.15 -2.25 0.15 -0.65 -0.65z"/>
  <path d="M198.65 57.15 l-0.65 -0.25 0 -1.45 0 -1.45 3 0 3 0 0 1.45 0 1.45 -0.80 0.30 c-0.90 0.35 -3.65 0.35 -4.55 -0.05z"/>
  <path d="M216.65 57.15 l-0.65 -0.25 0 -1.45 0 -1.45 3 0 3 0 0 1.45 0 1.45 -0.80 0.30 c-0.90 0.35 -3.65 0.35 -4.55 -0.05z"/>
  <path d="M95.50 55.50 l0 -1.50 3.25 0 3.25 0 0 1.20 0 1.20 -1.10 0.30 c-0.65 0.15 -2.10 0.30 -3.25 0.30 l-2.15 0 0 -1.50z"/>
  <path d="M163 55.50 l0 -1.50 3 0 3 0 0 1.20 0 1.20 -0.80 0.30 c-0.45 0.15 -1.80 0.30 -3 0.30 l-2.20 0 0 -1.50z"/>
 </g>
 <g fill="#e4a544">
  <path d="M7 46 l0 -4 0.50 0 c0.30 0 0.50 0.25 0.50 0.50 l0 0.50 4.25 0 4.25 0 0 -0.50 c0 -0.25 0.25 -0.50 0.50 -0.50 l0.50 0 0 4 0 4 -5.25 0 -5.25 0 0 -4z"/>
  <path d="M22 46.60 l0 -3.40 1.75 -0.85 1.80 -0.85 1.10 0.05 1.10 0.05 -0.60 0.25 c-0.35 0.10 -0.65 0.45 -0.65 0.70 l0 0.45 9.75 0 9.75 0 0 -0.50 c0 -0.25 0.25 -0.50 0.50 -0.50 l0.50 0 0 4 0 4 -3.75 0 -3.75 0 0 -1.45 0 -1.50 -0.80 -0.75 -0.75 -0.80 -0.90 0 c-0.45 0 -1.10 0.25 -1.45 0.60 l-0.60 0.60 0 1.65 0 1.65 -6.50 0 -6.50 0 0 -3.40z"/>
  <path d="M58 46 l0 -4 0.50 0 c0.30 0 0.50 0.25 0.50 0.50 l0 0.50 5.25 0 5.25 0 0 -0.50 c0 -0.25 0.25 -0.50 0.50 -0.50 l0.50 0 0 4 0 4 -6.25 0 -6.25 0 0 -4z"/>
  <path d="M75 46 l0 -4 0.50 0 c0.30 0 0.50 0.25 0.50 0.50 l0 0.50 2.75 0 2.75 0 0 -0.50 c0 -0.25 0.25 -0.50 0.50 -0.50 l0.50 0 0 4 0 4 -3.75 0 -3.75 0 0 -4z"/>
  <path d="M87 46 l0 -4 0.50 0 c0.30 0 0.50 0.25 0.50 0.50 l0 0.50 1 0 1 0 0 -0.50 c0 -0.25 0.25 -0.50 0.50 -0.50 l0.50 0 0 4 0 4 -2 0 -2 0 0 -4z"/>
  <path d="M95.50 46 l0 -4 0.50 0 c0.30 0 0.50 0.25 0.50 0.50 l0 0.50 2.75 0 2.75 0 0 -0.50 c0 -0.25 0.25 -0.50 0.50 -0.50 l0.50 0 0 4 0 4 -3.75 0 -3.75 0 0 -4z"/>
  <path d="M107.50 46 l0 -4 0.45 0 c0.25 0 0.60 0.30 0.70 0.65 l0.25 0.60 0.05 -0.60 0.05 -0.65 0.50 0 0.50 0 0 4 0 4 -1.25 0 -1.25 0 0 -4z"/>
  <path d="M114.50 46 l0 -4 0.50 0 c0.30 0 0.50 0.25 0.50 0.50 l0 0.50 2.75 0 2.75 0 0 -0.50 c0 -0.25 0.25 -0.50 0.50 -0.50 l0.50 0 0 4 0 4 -3.75 0 -3.75 0 0 -4z"/>
  <path d="M126.50 46 l0 -4 0.50 0 c0.30 0 0.50 0.25 0.50 0.50 l0 0.50 5 0 5 0 0 -0.50 c0 -0.25 0.25 -0.50 0.50 -0.50 l0.50 0 0 4 0 4 -6 0 -6 0 0 -4z"/>
  <path d="M143 46 l0 -4 3.50 0 3.50 0 0 4 0 4 -3.50 0 -3.50 0 0 -4z"/>
  <path d="M154.50 46 l0 -4 0.50 0 c0.30 0 0.50 0.25 0.50 0.50 l0 0.50 1 0 1 0 0 -0.50 c0 -0.25 0.25 -0.50 0.50 -0.50 l0.50 0 0 4 0 4 -2 0 -2 0 0 -4z"/>
  <path d="M163 46 l0 -4 0.50 0 c0.30 0 0.50 0.25 0.50 0.50 l0 0.50 2.75 0 2.75 0 0 -0.50 c0 -0.25 0.25 -0.50 0.50 -0.50 l0.50 0 0 4 0 4 -3.75 0 -3.75 0 0 -4z"/>
  <path d="M175 46 l0 -4 0.50 0 c0.30 0 0.50 0.25 0.50 0.50 l0 0.50 2.75 0 2.75 0 0 -0.50 c0 -0.25 0.25 -0.50 0.50 -0.50 l0.50 0 0 4 0 4 -3.75 0 -3.75 0 0 -4z"/>
  <path d="M187 46 l0 -4 0.50 0 c0.30 0 0.50 0.25 0.50 0.50 l0 0.50 8 0 8 0 0 -0.50 c0 -0.25 0.25 -0.50 0.50 -0.50 l0.50 0 0 4 0 4 -3.75 0 -3.75 0 0 -1.45 0 -1.50 -0.80 -0.75 -0.75 -0.80 -0.90 0 c-0.45 0 -1.10 0.25 -1.45 0.60 l-0.60 0.60 0 1.65 0 1.65 -3 0 -3 0 0 -4z"/>
  <path d="M215.50 48.55 l0 -1.50 -0.80 -0.80 -0.80 -0.80 -2.20 0.35 -2.20 0.30 0 -2.05 0 -2.05 0.50 0 c0.30 0 0.50 0.25 0.50 0.50 l0 0.50 5.75 0 5.75 0 0 -0.50 c0 -0.25 0.25 -0.50 0.50 -0.50 l0.50 0 0 4 0 4 -3.75 0 -3.75 0 0 -1.45z"/>
  <path d="M227.50 46 l0 -4 0.50 0 c0.30 0 0.50 0.25 0.50 0.50 l0 0.50 4.25 0 4.25 0 0 -0.50 c0 -0.25 0.25 -0.50 0.50 -0.50 l0.50 0 0 4 0 4 -5.25 0 -5.25 0 0 -4z"/>
 </g>
 <g fill="#4585e4">
  <path d="M7 12 l0 -5 115.50 0 115.50 0 0 5 0 5 -0.50 0 c-0.25 0 -0.50 -0.20 -0.50 -0.50 l0 -0.50 -5.05 0 -5 0 0.30 0.50 0.30 0.50 -0.70 0 -0.70 0 -0.95 -1.05 c-0.50 -0.60 -1.80 -1.50 -2.80 -2 l-1.85 -0.95 -1.30 0 c-0.70 0 -2 0.30 -2.90 0.70 l-1.60 0.65 -1.20 1.35 -1.20 1.30 -0.70 0 -0.65 0 0 -0.50 0 -0.50 -1.05 0 -1 0 0.30 0.50 0.30 0.50 -0.70 0 -0.70 0 -0.95 -1.05 c-0.50 -0.60 -1.85 -1.50 -2.90 -2.05 l-1.95 -1 -2 0.25 -2 0.30 -1.40 1 -1.40 1.05 -1.15 0 -1.15 0 -0.65 -1.05 -0.65 -1 -1.35 0.15 -1.35 0.15 -0.50 1.65 -0.45 1.60 -0.40 0 c-0.20 0 -0.40 -0.20 -0.40 -0.50 l0 -0.50 -2.75 0 -2.75 0 0 0.50 0 0.50 -0.70 0 -0.75 0 -0.15 -1.60 -0.15 -1.60 -6.70 -0.15 -6.65 -0.15 -1.95 0.50 -1.90 0.55 -1.45 1.20 c-0.85 0.70 -1.75 1.25 -2.05 1.25 l-0.55 0 0 -0.50 0 -0.50 -1.75 0 -1.75 0 0 0.50 c0 0.30 -0.20 0.50 -0.50 0.50 l-0.50 0 0 -1.20 0 -1.20 -0.75 -0.60 -0.75 -0.65 -4.25 0.25 -4.25 0.20 -2.25 1.60 c-2.35 1.65 -3.25 1.95 -3.25 1.10 l0 -0.50 -5.75 0 -5.75 0 0 0.50 c0 0.30 -0.20 0.50 -0.50 0.50 l-0.50 0 0 -1.20 c0 -0.65 -0.15 -1.55 -0.30 -2 l-0.30 -0.80 -4.35 0 -4.30 0 -2 0.95 -2 0.90 -0.95 1.10 -0.95 1.05 -0.70 0 -0.70 0 0.30 -0.50 0.30 -0.50 -1.75 0 -1.80 0 0 0.50 0 0.50 -0.70 0 -0.70 0 -0.65 -0.85 c-0.40 -0.45 -1.60 -1.20 -2.70 -1.70 l-2 -0.95 -4.05 0 -4 0 -0.60 0.60 -0.60 0.60 0 1.15 0 1.15 -0.50 0 c-0.25 0 -0.50 -0.20 -0.50 -0.50 l0 -0.50 -1 0 -1 0 0 0.50 c0 0.30 -0.20 0.50 -0.50 0.50 l-0.50 0 0 -1.20 0 -1.20 -0.75 -0.60 -0.75 -0.60 -1.25 0.30 -1.30 0.35 -0.30 1.45 -0.25 1.50 -0.45 0 c-0.25 0 -0.45 -0.20 -0.45 -0.50 l0 -0.50 -2.75 0 -2.75 0 0 0.50 c0 0.30 -0.20 0.50 -0.50 0.50 l-0.50 0 0 -1.20 0 -1.20 -0.70 -0.60 -0.75 -0.60 -1.15 0.20 -1.15 0.15 -0.45 1.50 c-0.65 2 -0.75 2.10 -1.35 1.25 l-0.55 -0.75 -0.25 0.65 c-0.10 0.30 -0.45 0.60 -0.70 0.60 l-0.45 0 0 -1.15 0 -1.15 -0.60 -0.60 -0.60 -0.60 -2.30 0 c-1.25 0 -3.10 0.25 -4.10 0.50 l-1.85 0.55 -1.50 1.20 c-0.80 0.70 -1.70 1.25 -2 1.25 l-0.55 0 0 -0.50 0 -0.50 -1.55 0 -1.50 0 0.30 0.50 0.30 0.50 -0.70 0 -0.70 0 -0.95 -1.05 c-0.50 -0.60 -1.80 -1.50 -2.80 -2 l-1.85 -0.95 -1.30 0 c-0.70 0 -2 0.30 -2.95 0.70 l-1.65 0.70 -1.05 1.35 -1.05 1.35 -1.15 -0.20 -1.15 -0.15 -0.15 -1 c-0.10 -0.55 -0.45 -1.30 -0.70 -1.60 l-0.50 -0.65 -3.60 0 -3.55 0 -1.85 0.50 -1.85 0.55 -1.50 1.20 c-0.80 0.70 -1.70 1.25 -2 1.25 l-0.55 0 0 -0.50 0 -0.50 -5 0 -5 0 0 0.50 c0 0.30 -0.20 0.50 -0.50 0.50 l-0.50 0 0 -5z"/>
 </g>
 <g fill="#45e485">
  <path d="M107.50 28.50 l0 -6.50 0.45 0 c0.25 0 0.60 0.30 0.70 0.65 l0.25 0.60 0.05 -0.60 0.05 -0.65 0.50 0 0.50 0 0 6.50 0 6.50 -1.25 0 -1.25 0 0 -6.50z"/>
  <path d="M22 26.50 l0 -4.50 0.50 0 c0.30 0 0.50 0.25 0.50 0.50 l0 0.50 2.75 0 2.75 0 0 -0.50 0 -0.50 0.55 0 0.60 0 -0.30 3.80 -0.30 3.85 -0.40 0.35 c-0.20 0.20 -1.80 0.55 -3.50 0.70 l-3.15 0.35 0 -4.55z"/>
  <path d="M41 29.10 l-1.50 -1.85 0 -2.60 0 -2.65 0.50 0 c0.30 0 0.50 0.25 0.50 0.50 l0 0.50 2.75 0 2.75 0 0 -0.50 c0 -0.25 0.20 -0.50 0.50 -0.50 l0.45 0 0.15 2.90 0.15 2.85 1.15 0.50 1.10 0.50 0 1.05 0 1.10 -3.50 0 -3.50 0 -1.50 -1.80z"/>
  <path d="M58 26.55 l0 -4.55 0.50 0 c0.30 0 0.50 0.25 0.50 0.50 l0 0.50 5.25 0 5.25 0 0 -0.50 c0 -0.25 0.25 -0.50 0.50 -0.50 l0.50 0 0 4.25 0 4.25 -4.35 0 c-2.45 0 -5.25 0.15 -6.25 0.30 l-1.90 0.35 0 -4.60z"/>
  <path d="M75 26.55 l0 -4.55 0.50 0 c0.30 0 0.50 0.25 0.50 0.50 l0 0.50 2.75 0 2.75 0 0 -0.50 c0 -0.25 0.25 -0.50 0.50 -0.50 l0.50 0 0 4.25 0 4.25 -1.85 0 c-1.05 0 -2.75 0.15 -3.75 0.30 l-1.90 0.35 0 -4.60z"/>
  <path d="M87 26.50 l0 -4.50 0.50 0 c0.30 0 0.50 0.25 0.50 0.50 l0 0.50 1 0 1 0 0 -0.50 c0 -0.25 0.25 -0.50 0.50 -0.50 l0.50 0 0 4.50 0 4.50 -2 0 -2 0 0 -4.50z"/>
  <path d="M98.15 30.65 l-2.65 -0.20 0 -4.25 0 -4.20 0.50 0 c0.30 0 0.50 0.25 0.50 0.50 l0 0.50 2.75 0 2.75 0 0 -0.50 c0 -0.25 0.25 -0.50 0.50 -0.50 l0.50 0 0 4.50 0 4.50 -1.10 -0.10 c-0.65 -0.05 -2.35 -0.15 -3.75 -0.25z"/>
  <path d="M114.50 26.55 l0 -4.55 0.50 0 c0.30 0 0.50 0.25 0.50 0.50 l0 0.50 2.75 0 2.75 0 0 -0.50 c0 -0.25 0.25 -0.50 0.50 -0.50 l0.50 0 0 4.25 0 4.25 -1.85 0 c-1.05 0 -2.75 0.15 -3.75 0.30 l-1.90 0.35 0 -4.60z"/>
  <path d="M126.50 26.55 l0 -4.55 0.50 0 c0.30 0 0.50 0.25 0.50 0.50 l0 0.50 5 0 5 0 0 -0.50 c0 -0.25 0.25 -0.50 0.50 -0.50 l0.50 0 0 4.25 0 4.25 -4.10 0 c-2.30 0 -5 0.15 -6 0.30 l-1.90 0.35 0 -4.60z"/>
  <path d="M143 26.55 l0 -4.55 0.50 0 c0.30 0 0.50 0.25 0.50 0.50 l0 0.50 2.50 0 2.50 0 0 -0.50 c0 -0.25 0.25 -0.50 0.50 -0.50 l0.50 0 0 4.25 0 4.25 -1.60 0 c-0.90 0 -2.50 0.15 -3.50 0.30 l-1.90 0.35 0 -4.60z"/>
  <path d="M163 26.50 l0 -4.50 0.50 0 0.50 0 0 0.50 0 0.55 2.90 -0.15 2.85 -0.15 -0.10 -0.60 -0.15 -0.65 0.75 0 0.70 0 -0.30 4.40 c-0.15 2.40 -0.30 4.40 -0.35 4.40 0 0.05 -1.70 0.20 -3.65 0.40 l-3.65 0.30 0 -4.50z"/>
  <path d="M199 29.10 l-1.50 -1.85 0 -2.60 0 -2.65 0.50 0 c0.30 0 0.50 0.25 0.50 0.50 l0 0.50 2.75 0 2.75 0 0 -0.50 c0 -0.25 0.20 -0.50 0.50 -0.50 l0.45 0 0.15 2.90 0.15 2.85 1.15 0.50 1.10 0.50 0 1.05 0 1.10 -3.50 0 -3.50 0 -1.50 -1.80z"/>
  <path d="M217 29.10 l-1.50 -1.85 0 -2.60 0 -2.65 0.50 0 c0.30 0 0.50 0.25 0.50 0.50 l0 0.50 2.75 0 2.75 0 0 -0.50 c0 -0.25 0.20 -0.50 0.50 -0.50 l0.45 0 0.15 2.90 0.15 2.85 1.15 0.50 1.10 0.50 0 1.05 0 1.10 -3.50 0 -3.50 0 -1.50 -1.80z"/>
  <path d="M231.05 30.65 l-4.65 -0.20 0.35 -1.60 c0.15 -0.90 0.45 -2.80 0.60 -4.20 l0.25 -2.65 0.45 0 c0.25 0 0.45 0.25 0.45 0.50 l0 0.50 4.25 0 4.25 0 0 -0.50 c0 -0.25 0.25 -0.50 0.50 -0.50 l0.50 0 0 4.50 0 4.50 -1.10 -0.10 c-0.65 -0.05 -3.25 -0.20 -5.85 -0.25z"/>
  <path d="M7 26.25 l0 -4.25 0.50 0 c0.30 0 0.50 0.25 0.50 0.50 l0 0.50 4.25 0 4.25 0 0 -0.50 c0 -0.25 0.25 -0.50 0.50 -0.50 l0.50 0 0 4.25 0 4.25 -5.25 0 -5.25 0 0 -4.25z"/>
  <path d="M154.85 30.15 l-0.35 -0.30 0 -3.95 0 -3.90 0.50 0 c0.30 0 0.50 0.25 0.50 0.50 l0 0.50 1 0 1 0 0 -0.50 c0 -0.25 0.25 -0.50 0.50 -0.50 l0.50 0 0 4.25 0 4.25 -1.65 0 c-0.95 0 -1.85 -0.15 -2 -0.35z"/>
  <path d="M181.75 29.65 c-0.15 -0.50 -0.45 -2.40 -0.60 -4.25 l-0.30 -3.40 0.60 0 0.55 0 0 0.50 0 0.50 2.75 0 2.75 0 0 -0.50 c0 -0.25 0.25 -0.50 0.50 -0.50 l0.50 0 0 1.70 c0 0.95 -0.25 2.85 -0.60 4.25 l-0.55 2.55 -2.65 0 -2.60 0 -0.35 -0.85z"/>
 </g>
 <g fill="#64e445">
  <path d="M51.25 41.90 c-0.20 -0.90 -0.80 -2.45 -1.30 -3.45 l-0.90 -1.80 -3 -2.80 -3.05 -2.80 0 -0.70 0 -0.75 0.65 0.05 c0.30 0 1.25 -0.05 2 -0.05 l1.40 -0.10 -0.30 -0.50 -0.30 -0.50 2 0 2.05 0 0.60 -1 0.65 -1 1 0 1 0 0 8.50 0.05 8.50 -1.10 0 -1.10 0 -0.35 -1.60z"/>
  <path d="M204.65 34.65 l-3.65 -3.70 0 -0.65 0 -0.70 0.65 0.05 c0.30 0 1.25 -0.05 2 -0.05 l1.40 -0.10 -0.30 -0.50 -0.30 -0.50 2 0 2 0 0.30 -0.50 0.30 -0.50 1.40 0 1.45 0 0.60 1.50 0.65 1.55 2.90 2.65 2.95 2.65 0 0.85 0 0.85 -0.60 -0.40 -0.65 -0.40 -4.15 0 -4.10 0 -0.05 0.50 c-0.05 0.30 -0.05 0.65 0 0.90 l0.05 0.35 -0.60 -0.10 c-0.35 -0.05 -2.30 -1.75 -4.25 -3.75z"/>
  <path d="M222.65 34.65 l-3.65 -3.70 0 -0.65 0 -0.70 0.65 0.05 c0.30 0 1.25 -0.05 2 -0.05 l1.40 -0.10 -0.30 -0.50 -0.30 -0.50 2.80 0 2.80 0 -0.30 0.45 -0.25 0.50 4.75 0.15 4.75 0.15 0 -0.65 0 -0.65 0.50 0.30 0.50 0.30 0 4.25 0 4.20 -0.50 0 c-0.25 0 -0.50 -0.15 -0.50 -0.35 l0 -0.40 -4.75 0 -4.75 0 -0.05 0.50 c-0.05 0.30 -0.05 0.65 0 0.90 l0.05 0.35 -0.60 -0.10 c-0.35 -0.05 -2.30 -1.75 -4.25 -3.75z"/>
  <path d="M7 33.25 l0 -4.75 0.50 0 c0.30 0 0.50 0.25 0.50 0.50 l0 0.50 4.25 0 4.25 0 0 -0.50 c0 -0.25 0.25 -0.50 0.50 -0.50 l0.50 0 0 4.75 0 4.75 -0.45 0 c-0.25 0 -0.55 -0.20 -0.65 -0.45 l-0.15 -0.40 -3.90 -0.25 -3.95 -0.25 -0.25 0.65 c-0.15 0.40 -0.45 0.70 -0.70 0.70 l-0.45 0 0 -4.75z"/>
  <path d="M22.35 37.65 l-0.35 -0.30 0 -4.15 0 -4.15 0.50 -0.30 0.50 -0.30 0 0.65 0 0.70 2.15 -0.20 2.10 -0.20 0.65 -0.50 0.60 -0.50 0 1.65 0 1.70 -1 2 c-0.50 1.10 -1.40 2.50 -1.95 3.15 l-0.95 1.10 -0.95 0 c-0.55 0 -1.15 -0.15 -1.30 -0.35z"/>
  <path d="M30.65 36.75 c0.15 -0.85 0.90 -3.25 1.65 -5.35 l1.35 -3.90 1.10 0 1.15 0 0.60 1.50 0.65 1.55 2.90 2.65 2.95 2.65 0 0.85 0 0.85 -0.85 -0.45 -0.90 -0.45 -4.60 0.10 -4.60 0.10 -0.85 0.70 -0.85 0.70 0.30 -1.50z"/>
  <path d="M75 33.55 l0 -4.50 0.50 -0.30 0.50 -0.30 0 0.65 0 0.65 2.75 -0.15 2.75 -0.20 0 -0.45 c0 -0.25 0.25 -0.45 0.50 -0.45 l0.50 0 0 4.75 0 4.75 -0.45 0 c-0.25 0 -0.55 -0.20 -0.65 -0.40 l-0.15 -0.45 -2.40 -0.30 -2.40 -0.35 -0.25 0.75 c-0.20 0.40 -0.50 0.75 -0.75 0.75 l-0.45 0 0 -4.45z"/>
  <path d="M87 33.50 l0 -4.50 0.50 0 c0.30 0 0.50 0.25 0.50 0.50 l0 0.50 1 0 1 0 0 -0.50 c0 -0.25 0.25 -0.50 0.50 -0.50 l0.50 0 0 4.50 0 4.50 -0.50 0 c-0.25 0 -0.50 -0.20 -0.50 -0.50 l0 -0.50 -1 0 -1 0 0 0.50 c0 0.30 -0.20 0.50 -0.50 0.50 l-0.50 0 0 -4.50z"/>
  <path d="M95.50 33.25 l0 -4.75 0.50 0 c0.30 0 0.50 0.20 0.50 0.45 l0 0.45 2.75 0.20 2.75 0.15 0 -0.65 0 -0.65 0.50 0.30 0.50 0.30 0 4.50 0 4.45 -0.45 0 c-0.25 0 -0.55 -0.25 -0.65 -0.60 l-0.20 -0.60 -2.50 0.15 -2.45 0.15 -0.15 0.45 c-0.10 0.25 -0.40 0.45 -0.65 0.45 l-0.45 0 0 -4.75z"/>
  <path d="M107.50 35.50 l0 -2.50 0.45 0 c0.25 0 0.60 0.30 0.70 0.65 l0.25 0.60 0.05 -0.60 0.05 -0.65 0.50 0 0.50 0 0 2.50 0 2.50 -0.45 0 c-0.25 0 -0.60 -0.30 -0.70 -0.60 l-0.25 -0.65 -0.05 0.65 -0.05 0.60 -0.50 0 -0.50 0 0 -2.50z"/>
  <path d="M114.50 33.55 l0 -4.50 0.50 -0.30 0.50 -0.30 0 0.65 0 0.65 2.75 -0.15 2.75 -0.20 0 -0.45 c0 -0.25 0.25 -0.45 0.50 -0.45 l0.50 0 0 4.75 0 4.75 -0.50 0 c-0.25 0 -0.50 -0.20 -0.50 -0.50 l0 -0.50 -2.75 0 -2.75 0 0 0.50 c0 0.30 -0.20 0.50 -0.50 0.50 l-0.50 0 0 -4.45z"/>
  <path d="M126.50 33.55 l0 -4.50 0.50 -0.30 0.50 -0.30 0 0.65 0 0.65 5 -0.15 5 -0.15 0 -0.50 c0 -0.25 0.25 -0.45 0.50 -0.45 l0.50 0 0 4.75 0 4.75 -0.45 0 c-0.25 0 -0.55 -0.20 -0.65 -0.45 l-0.15 -0.45 -4.70 -0.15 -4.70 -0.20 -0.20 0.65 c-0.15 0.30 -0.45 0.60 -0.70 0.60 l-0.45 0 0 -4.45z"/>
  <path d="M143 33.55 l0 -4.50 0.50 -0.30 0.50 -0.30 0 0.65 0 0.65 2.40 -0.20 2.35 -0.15 0.35 -0.55 c0.60 -1 0.80 -0.20 0.95 4.40 l0.20 4.50 -3.60 0.15 -3.65 0.15 0 -4.50z"/>
  <path d="M154.50 32.25 l0 -5.75 0.50 0 0.50 0 0.10 0.65 c0 0.30 0.05 0.95 0.10 1.35 l0.05 0.75 0.90 0.15 0.85 0.15 0 -0.50 0 -0.55 0.50 0 0.50 0 0 4.50 0 4.50 -0.50 0 c-0.25 0 -0.50 -0.20 -0.50 -0.50 l0 -0.50 -0.75 0 -0.80 0 -0.25 0.75 c-0.20 0.40 -0.50 0.75 -0.75 0.75 l-0.45 0 0 -5.75z"/>
  <path d="M173.60 37.40 l-0.60 -0.60 0 -0.95 c0 -0.55 0.50 -2.30 1.15 -3.90 l1.10 -2.95 1.05 0 1.05 0 0.90 2.40 c0.50 1.30 1.30 2.80 1.80 3.40 l0.95 1 0 1.20 0 1.15 -0.85 -0.70 -0.90 -0.75 -2 0 -2 0.05 0.15 0.65 0.10 0.60 -0.65 0 c-0.35 0 -0.90 -0.25 -1.25 -0.60z"/>
  <path d="M188.50 37 l0 -1.10 1 -1.45 c0.60 -0.75 1.35 -2.25 1.70 -3.30 l0.65 -1.90 1 -0.15 0.95 -0.15 3.60 3.55 3.60 3.50 0 0.75 0 0.80 -0.85 -0.45 -0.90 -0.45 -4.60 0.10 -4.60 0.10 -0.80 0.65 -0.75 0.60 0 -1.10z"/>
  <path d="M67.40 35.65 l-0.15 -1.90 -4.50 -0.25 -4.50 -0.25 -0.15 -1.95 -0.15 -1.95 0.50 -0.50 0.55 -0.55 0 0.75 0 0.70 5.25 -0.15 5.25 -0.15 0 -0.50 c0 -0.25 0.25 -0.45 0.50 -0.45 l0.50 0 0 4.50 0 4.50 -0.45 0 c-0.25 0 -0.60 -0.30 -0.75 -0.60 l-0.30 -0.65 -0.30 0.65 c-0.15 0.30 -0.50 0.60 -0.70 0.60 l-0.45 0 -0.15 -1.85z"/>
  <path d="M163.40 33.20 l-0.40 -0.35 0 -1.90 0 -1.90 0.50 -0.30 0.50 -0.30 0 0.65 0 0.65 2.75 -0.15 2.75 -0.20 0 -0.45 c0 -0.25 0.25 -0.45 0.50 -0.45 l0.50 0 0 1.70 0 1.70 -0.80 0.65 -0.75 0.60 -2.60 0.25 -2.60 0.20 -0.35 -0.40z"/>
  <path d="M182.75 32 c-0.40 -0.80 -0.75 -1.90 -0.75 -2.50 l0 -1 0.50 0 c0.30 0 0.50 0.25 0.50 0.50 l0 0.50 1.70 0 1.70 0 0.30 -1.50 0.30 -1.50 0.50 0 0.50 0 0 1.25 0 1.25 -0.50 0 -0.50 0 0 1.30 c0 0.70 -0.25 1.70 -0.50 2.25 l-0.55 0.95 -1.20 0 -1.20 0 -0.80 -1.50z"/>
 </g>
 <g fill="#e54444">
  <path d="M40.40 56.15 l-0.90 -0.20 0 -4 0 -3.95 0.50 0 c0.30 0 0.50 0.25 0.50 0.50 l0 0.50 2.75 0 2.75 0 0 -0.50 c0 -0.25 0.25 -0.50 0.50 -0.50 l0.50 0 0 3.45 c0 1.90 -0.15 3.80 -0.30 4.25 l-0.30 0.80 -1.35 -0.05 -1.30 -0.05 0.65 -0.25 c0.30 -0.10 0.60 -0.40 0.60 -0.60 l0 -0.30 -2 0 -2 0 0 0.30 c0 0.20 0.30 0.50 0.65 0.60 l0.60 0.25 -0.50 0 c-0.25 0 -0.90 -0.10 -1.35 -0.25z"/>
  <path d="M115 55.55 l-0.50 -1 0 -3.25 0 -3.30 0.50 0 c0.30 0 0.50 0.25 0.50 0.50 l0 0.50 2.75 0 2.75 0 0 -0.50 0 -0.50 0.50 0 0.55 0 -0.15 4.15 -0.15 4.10 -1.10 0.15 -1.15 0.15 0.25 -0.65 0.25 -0.65 -1.95 0 -1.95 0 0.50 0.65 0.50 0.60 -0.75 0 -0.80 0 -0.55 -0.95z"/>
  <path d="M167 56.05 c0 -0.25 0.30 -0.60 0.65 -0.70 l0.60 -0.25 -2.10 -0.05 -2.15 -0.05 0 0.50 c0 0.30 -0.20 0.50 -0.50 0.50 l-0.50 0 0 -4 0 -4 0.50 0 c0.30 0 0.50 0.25 0.50 0.50 l0 0.50 2.70 0 2.70 0 0.20 -0.60 0.20 -0.60 0.60 0.40 0.60 0.35 -0.30 3.35 -0.35 3.35 -0.50 0.65 -0.45 0.60 -1.20 0 -1.20 0 0 -0.45z"/>
  <path d="M198.40 56.15 l-0.90 -0.20 0 -4 0 -3.95 0.50 0 c0.30 0 0.50 0.25 0.50 0.50 l0 0.50 2.75 0 2.75 0 0 -0.50 c0 -0.25 0.25 -0.50 0.50 -0.50 l0.50 0 0 3.45 c0 1.90 -0.15 3.80 -0.30 4.25 l-0.30 0.80 -1.35 -0.05 -1.30 -0.05 0.65 -0.25 c0.30 -0.10 0.60 -0.40 0.60 -0.60 l0 -0.30 -2 0 -2 0 0 0.30 c0 0.20 0.30 0.50 0.65 0.60 l0.60 0.25 -0.50 0 c-0.25 0 -0.90 -0.10 -1.35 -0.25z"/>
  <path d="M216.40 56.15 l-0.90 -0.20 0 -4 0 -3.95 0.50 0 c0.30 0 0.50 0.25 0.50 0.50 l0 0.50 2.75 0 2.75 0 0 -0.50 c0 -0.25 0.25 -0.50 0.50 -0.50 l0.50 0 0 3.45 c0 1.90 -0.15 3.80 -0.30 4.25 l-0.30 0.80 -1.35 -0.05 -1.30 -0.05 0.65 -0.25 c0.30 -0.10 0.60 -0.40 0.60 -0.60 l0 -0.30 -2 0 -2 0 0 0.30 c0 0.20 0.30 0.50 0.65 0.60 l0.60 0.25 -0.50 0 c-0.25 0 -0.90 -0.10 -1.35 -0.25z"/>
  <path d="M7 52 l0 -4 0.50 0 c0.30 0 0.50 0.25 0.50 0.50 l0 0.50 4.25 0 4.25 0 0 -0.50 c0 -0.25 0.25 -0.50 0.50 -0.50 l0.50 0 0 4 0 4 -0.50 0 c-0.25 0 -0.50 -0.20 -0.50 -0.50 l0 -0.50 -4.25 0 -4.25 0 0 0.50 c0 0.30 -0.20 0.50 -0.50 0.50 l-0.50 0 0 -4z"/>
  <path d="M22 52 l0 -4 0.50 0 c0.30 0 0.50 0.25 0.50 0.50 l0 0.50 5.50 0 5.50 0 0 -0.50 c0 -0.25 0.25 -0.50 0.50 -0.50 l0.50 0 0 4.10 0 4.10 -0.60 -0.60 -0.60 -0.60 -5.40 0 -5.40 0 0 0.50 c0 0.30 -0.20 0.50 -0.50 0.50 l-0.50 0 0 -4z"/>
  <path d="M58 52 l0 -4 0.50 0 c0.30 0 0.50 0.25 0.50 0.50 l0 0.50 5.20 0 5.20 0 0.25 -0.60 0.20 -0.65 0.25 0.25 c0.15 0.15 0.45 2 0.65 4.15 l0.35 3.85 -0.55 0 -0.55 0 0 -0.50 0 -0.50 -5.50 0 -5.50 0 0 0.50 c0 0.30 -0.20 0.50 -0.50 0.50 l-0.50 0 0 -4z"/>
  <path d="M75.30 55.20 c-0.15 -0.45 -0.30 -2.25 -0.30 -4 l0 -3.20 0.50 0 c0.30 0 0.50 0.25 0.50 0.50 l0 0.50 2.75 0 2.75 0 0 -0.50 c0 -0.25 0.25 -0.50 0.50 -0.50 l0.50 0 0 4 0 4 -0.75 0 -0.75 0 0 -0.40 0 -0.45 -2.25 -0.05 -2.25 0 0.30 0.45 0.25 0.45 -0.70 0 -0.75 0 -0.30 -0.80z"/>
  <path d="M87.05 52.15 l-0.05 -4.15 0.50 0 c0.30 0 0.50 0.25 0.50 0.50 l0 0.50 1 0 1 0 0 -0.50 c0 -0.25 0.25 -0.50 0.50 -0.50 l0.50 0 0 4 0 4 -0.50 0 c-0.25 0 -0.50 -0.20 -0.50 -0.50 l0 -0.50 -1.20 0 -1.20 0 -0.25 0.65 -0.25 0.60 -0.05 -4.10z"/>
  <path d="M95.50 52 l0 -4 0.50 0 c0.30 0 0.50 0.25 0.50 0.50 l0 0.50 2.75 0 2.75 0 0 -0.50 c0 -0.25 0.25 -0.50 0.50 -0.50 l0.50 0 0 2.90 c0 1.55 -0.15 3.35 -0.30 4 l-0.30 1.10 -1.60 -0.05 -1.55 0 1 -0.45 1 -0.45 -2.35 0 -2.40 -0.05 0 0.50 c0 0.30 -0.20 0.50 -0.50 0.50 l-0.50 0 0 -4z"/>
  <path d="M107.35 52.15 c0.30 -4.20 0.50 -4.75 1.10 -3.70 l0.45 0.65 0.20 -0.65 0.25 -0.70 0.25 0.25 c0.15 0.15 0.45 2 0.65 4.15 l0.35 3.85 -0.55 0 -0.55 0 0 -0.50 0 -0.50 -0.75 0 -0.75 0 0 0.50 c0 0.30 -0.20 0.50 -0.50 0.50 l-0.50 0 0.35 -3.85z"/>
  <path d="M126.55 52.15 l-0.05 -4.15 0.50 0 c0.30 0 0.50 0.25 0.50 0.50 l0 0.50 5 0 5 0 0 -0.50 c0 -0.25 0.25 -0.50 0.50 -0.50 l0.50 0 0 4 0 4 -0.50 0 c-0.25 0 -0.50 -0.20 -0.50 -0.50 l0 -0.50 -5.20 0 -5.20 0 -0.25 0.65 -0.25 0.60 -0.05 -4.10z"/>
  <path d="M143 52 l0 -4 0.50 0 c0.30 0 0.50 0.25 0.50 0.50 l0 0.50 2.50 0 2.50 0 0 -0.50 c0 -0.25 0.25 -0.50 0.50 -0.50 l0.50 0 0 4 0 4 -0.50 0 c-0.25 0 -0.50 -0.20 -0.50 -0.50 l0 -0.50 -2.50 0 -2.50 0 0 0.50 c0 0.30 -0.20 0.50 -0.50 0.50 l-0.50 0 0 -4z"/>
  <path d="M154.50 52 l0 -4 0.50 0 c0.30 0 0.50 0.25 0.50 0.50 l0 0.50 1 0 1 0 0 -0.50 c0 -0.25 0.25 -0.50 0.50 -0.50 l0.50 0 0 4 0 4 -0.50 0 c-0.25 0 -0.50 -0.20 -0.50 -0.50 l0 -0.50 -1 0 -1 0 0 0.50 c0 0.30 -0.20 0.50 -0.50 0.50 l-0.50 0 0 -4z"/>
  <path d="M175 52.10 l0 -4.10 0.50 0 c0.30 0 0.50 0.25 0.50 0.50 l0 0.50 2.75 0 2.75 0 0 -0.50 c0 -0.25 0.25 -0.50 0.50 -0.50 l0.50 0 0 4 0 4 -0.50 0 c-0.25 0 -0.50 -0.20 -0.50 -0.50 l0 -0.50 -2.65 0 -2.65 0 -0.60 0.60 -0.60 0.60 0 -4.10z"/>
  <path d="M187 52 l0 -4 0.50 0 c0.30 0 0.50 0.25 0.50 0.50 l0 0.50 2 0 2 0 0 -0.50 c0 -0.25 0.25 -0.50 0.50 -0.50 l0.50 0 0 4.10 0 4.10 -0.60 -0.60 -0.60 -0.60 -1.90 0 -1.90 0 0 0.50 c0 0.30 -0.20 0.50 -0.50 0.50 l-0.50 0 0 -4z"/>
  <path d="M227.50 52.10 l0 -4.10 0.50 0 c0.30 0 0.50 0.25 0.50 0.50 l0 0.50 4.25 0 4.25 0 0 -0.50 c0 -0.25 0.25 -0.50 0.50 -0.50 l0.50 0 0 4 0 4 -0.50 0 c-0.25 0 -0.50 -0.20 -0.50 -0.50 l0 -0.50 -4.15 0 -4.15 0 -0.60 0.60 -0.60 0.60 0 -4.10z"/>
 </g>
 <g fill="#0e1110">
  <path d="M19.50 56.75 l0 -3.25 1.50 0 1.50 0 0 3.25 0 3.25 -1.50 0 -1.50 0 0 -3.25z"/>
  <path d="M140.40 53.40 l-0.25 -6.65 0.30 -3 0.30 -3 1.25 -0.60 1.25 -0.65 3.90 0 3.85 0 0 0.95 c0 0.50 -0.15 1.65 -0.30 2.50 l-0.30 1.55 -0.70 0 -0.70 0 0 -0.75 0 -0.75 -1.20 -0.30 c-0.65 -0.15 -1.85 -0.20 -2.60 -0.10 l-1.45 0.15 -0.15 8.65 -0.10 8.60 -1.45 0 -1.40 0 -0.25 -6.60z"/>
  <path d="M55.80 56.65 c-0.15 -0.50 -0.40 -4.50 -0.55 -8.85 l-0.30 -7.95 0.30 -1.95 0.35 -1.90 1.45 0 1.45 0 0 10.75 0 10.75 -1.20 0 -1.25 0 -0.25 -0.85z"/>
  <path d="M160.80 56.65 c-0.15 -0.50 -0.40 -4.50 -0.55 -8.85 l-0.30 -7.95 0.30 -1.95 0.35 -1.90 1.45 0 1.45 0 0 10.75 0 10.75 -1.20 0 -1.25 0 -0.25 -0.85z"/>
  <path d="M45.70 54.70 c0.15 -0.45 0.30 -1 0.30 -1.25 l0 -0.45 1.25 0 1.25 0 0 1.25 0 1.25 -1.55 0 -1.55 0 0.30 -0.80z"/>
  <path d="M72.35 50.40 c-0.15 -1.45 -0.30 -5.05 -0.35 -8 l-0.05 -5.40 0.55 0 0.50 0 0 -1 0 -1 1.25 0 1.25 0 0 7.15 c0 3.90 0.15 7.95 0.30 9 l0.35 1.85 -1.80 0 -1.75 0 -0.25 -2.60z"/>
  <path d="M26 41.55 l0 -1 0.50 -0.30 0.50 -0.30 0 -1.25 0 -1.20 1.75 0 1.75 0 0 0.70 0 0.70 -2 1.80 c-2.30 2.10 -2.50 2.15 -2.50 0.85z"/>
  <path d="M141 35.25 l0 -3.25 -0.50 0 -0.50 0 0 -2.50 0 -2.50 0.50 0 0.50 0 0 -0.75 0 -0.75 -0.50 0 -0.50 0 0 -1.25 0 -1.25 1.75 0 1.75 0 0 7.75 0 7.75 -1.25 0 -1.25 0 0 -3.25z"/>
  <path d="M164 37.80 l0 -0.65 1.55 -0.35 c0.85 -0.15 1.90 -0.30 2.25 -0.30 l0.70 0 0 1 0 1 -2.25 0 -2.25 0 0 -0.70z"/>
  <path d="M73 33.25 l0 -1.25 -0.50 0 -0.50 0 0 -2.50 0 -2.50 1.75 0 1.75 0 0 3.75 0 3.75 -1.25 0 -1.25 0 0 -1.25z"/>
  <path d="M153 31.25 l0 -3.25 1.25 0 1.25 0 0 3.25 0 3.25 -1.25 0 -1.25 0 0 -3.25z"/>
  <path d="M37.85 33.10 l-0.85 -0.95 0 -1.05 0 -1.10 1.15 0 1.20 0 0.80 0.90 0.85 0.95 0 1.05 0 1.10 -1.15 0 -1.20 0 -0.80 -0.90z"/>
  <path d="M55.35 33.65 l-0.35 -0.30 0 -3.20 0 -3.15 0.50 0 0.50 0 0 -0.75 0 -0.75 -0.50 0 -0.50 0 0 -1.25 0 -1.25 1.75 0 1.75 0 0 5.50 0 5.50 -1.40 0 c-0.80 0 -1.60 -0.15 -1.75 -0.35z"/>
  <path d="M160.35 33.65 l-0.35 -0.30 0 -3.20 0 -3.15 0.50 0 0.50 0 0 -0.75 0 -0.75 -0.50 0 -0.50 0 0 -1.25 0 -1.25 1.75 0 1.75 0 0 5.50 0 5.50 -1.40 0 c-0.80 0 -1.60 -0.15 -1.75 -0.35z"/>
  <path d="M195.60 32.85 l-1.10 -1.15 0 -1.10 0 -1.10 1.15 0 1.20 0 1.05 1.15 1.10 1.15 0 1.10 0 1.10 -1.15 0 -1.20 0 -1.05 -1.15z"/>
  <path d="M213.85 33.10 l-0.85 -0.95 0 -1.05 0 -1.10 1.15 0 1.20 0 0.80 0.90 0.85 0.95 0 1.05 0 1.10 -1.15 0 -1.20 0 -0.80 -0.90z"/>
  <path d="M43.50 32.20 l0 -1.25 1.15 0.15 1.10 0.15 0.15 1.15 0.15 1.10 -1.25 0 -1.30 0 0 -1.30z"/>
  <path d="M219.50 32.20 l0 -1.25 1.15 0.15 1.10 0.15 0.15 1.15 0.15 1.10 -1.25 0 -1.30 0 0 -1.30z"/>
  <path d="M33 29.65 c0 -0.50 -0.15 -1.75 -0.30 -2.75 l-0.35 -1.90 1.60 0 1.55 0 0 2.40 0 2.35 -0.45 -0.70 -0.45 -0.70 -0.35 1.10 -0.30 1.05 -0.50 0 -0.45 0 0 -0.85z"/>
  <path d="M46.60 28.90 c-0.35 -0.35 -0.60 -0.90 -0.60 -1.25 l0 -0.65 0.70 0 c0.40 0 1.05 0.15 1.50 0.30 l0.80 0.30 0 0.95 0 0.95 -0.90 0 -0.90 0 -0.60 -0.60z"/>
  <path d="M204.60 28.90 c-0.35 -0.35 -0.60 -0.90 -0.60 -1.25 l0 -0.65 0.70 0 c0.40 0 1.05 0.15 1.50 0.30 l0.80 0.30 0 0.95 0 0.95 -0.90 0 -0.90 0 -0.60 -0.60z"/>
  <path d="M222.60 28.90 c-0.35 -0.35 -0.60 -0.90 -0.60 -1.25 l0 -0.65 0.70 0 c0.40 0 1.05 0.15 1.50 0.30 l0.80 0.30 0 0.95 0 0.95 -0.90 0 -0.90 0 -0.60 -0.60z"/>
  <path d="M37.50 27 l0 -1.50 1.50 0 1.50 0 0 1.50 0 1.50 -1.50 0 -1.50 0 0 -1.50z"/>
  <path d="M195.50 27 l0 -1.50 1.50 0 1.50 0 0 1.50 0 1.50 -1.50 0 -1.50 0 0 -1.50z"/>
  <path d="M208.80 27.70 c-0.15 -0.45 -0.30 -1.35 -0.30 -2 l0 -1.25 1.65 0.15 1.60 0.15 0.15 1.90 0.15 1.85 -1.45 0 -1.50 0 -0.30 -0.80z"/>
  <path d="M213.50 27 l0 -1.50 1.50 0 1.50 0 0 1.50 0 1.50 -1.50 0 -1.50 0 0 -1.50z"/>
  <path d="M73 25.50 l0 -1 -0.50 0 -0.50 0 0 -2.05 0 -2 0.70 -0.75 0.75 -0.70 1 0 1.05 0 0 3.75 0 3.75 -1.25 0 -1.25 0 0 -1z"/>
  <path d="M28.50 20.25 l0 -1.75 -1 0 -1 0 0 -1 0 -1 1.05 0 1 0 0.75 0.70 0.70 0.75 0 2 0 2.05 -0.75 0 -0.75 0 0 -1.75z"/>
  <path d="M169.50 20.25 l0 -1.75 -1 0 -1 0 0 -1 0 -1 1.05 0 1 0 0.75 0.70 0.70 0.75 0 2 0 2.05 -0.75 0 -0.75 0 0 -1.75z"/>
  <path d="M208.25 18.20 l-0.35 -2.30 0.40 -0.30 0.35 -0.35 0.20 0.55 c0.10 0.30 0.50 1 0.90 1.50 l0.70 0.95 0.50 -1.35 0.55 -1.40 0.55 0 0.60 0 -0.35 2.10 c-0.20 1.10 -0.45 2.25 -0.60 2.50 l-0.25 0.40 -1.40 0 -1.45 0 -0.35 -2.30z"/>
  <path d="M190.50 17 l0 -3 1.50 0 1.50 0 0 3 0 3 -1.50 0 -1.50 0 0 -3z"/>
  <path d="M73 17.50 l0 -1 -0.50 0 -0.50 0 0 -1.25 0 -1.25 1.45 0 1.45 0 0.30 1.15 c0.15 0.60 0.30 1.60 0.30 2.25 l0 1.10 -1.25 0 -1.25 0 0 -1z"/>
 </g>
 <g fill="#000000">
  <path d="M4 38 l0 -34 118.50 0 118.50 0 0 34 0 34 -118.50 0 -118.50 0 0 -34z m232.90 -0.10 l0.10 -29.90 -114.50 0 -114.50 0 0 30 0 30 114.40 -0.10 114.35 -0.15 0.15 -29.85z"/>
  <path d="M39.25 61.80 c-1.95 -0.85 -3.50 -2.60 -4.50 -4.90 l-0.75 -1.85 0 -4.70 0 -4.65 0.60 -0.60 0.60 -0.60 1.85 0 1.90 0 0.75 0.80 0.80 0.75 0 4.45 0 4.45 0.80 0.75 0.75 0.80 1 0 0.95 0 1 -1 1 -1 0 -6.85 0 -6.90 -4.95 -4.75 -4.95 -4.75 -0.80 -1.60 c-0.45 -0.90 -0.80 -2.05 -0.80 -2.65 l0 -1 -0.40 0 -0.35 0 0.15 2.25 0.20 2.25 -0.80 2.30 c-0.45 1.30 -1.40 3.35 -2.15 4.65 l-1.30 2.30 -0.25 -0.65 -0.20 -0.60 -0.80 0.05 -0.85 0.05 0.65 0.25 c0.30 0.10 0.60 0.45 0.60 0.65 0 0.70 -3.10 3.45 -4.60 4.05 l-1.40 0.55 0 8.35 0 8.35 -0.60 0.60 -0.60 0.60 -2.15 0 -2.10 0 -0.55 -0.95 -0.50 -1 0 -19.45 0 -19.40 0.75 -2.55 0.75 -2.55 1.55 -1.30 1.50 -1.25 1.95 -0.55 2 -0.55 4.55 0.15 4.60 0.15 0.40 0.75 c0.20 0.40 0.50 1.15 0.65 1.70 l0.30 0.90 1.10 -1.35 1.05 -1.35 1.65 -0.70 1.65 -0.70 2.40 0 2.40 0 2 1.15 1.95 1.10 1.15 1.70 1.15 1.70 0 1.40 0 1.40 0.50 0.30 0.50 0.30 0 -1.45 0 -1.45 1.15 -1.65 1.10 -1.70 1.70 -1 1.70 -1 4.20 -0.20 4.15 -0.25 0.75 0.65 0.75 0.60 0 1.90 0 1.90 -0.60 0.45 -0.65 0.50 -3.40 0.30 -3.45 0.25 -0.55 0.55 -0.60 0.60 0 6.10 0 6.10 3.90 0.10 c2.15 0.05 4.25 0.20 4.65 0.35 l0.70 0.25 0 2.25 0 2.25 -0.95 0.55 -1 0.50 -3.75 0 -3.80 0 0 8.75 0 8.75 4.65 0 4.65 0 0.60 0.60 0.60 0.60 0 1.45 0 1.40 -0.50 1 -0.55 0.95 -7.45 0 -7.45 0 -0.60 -1.05 -0.55 -1.10 0.25 -2.15 0.25 -2.20 -0.40 0 c-0.20 0 -0.50 0.55 -0.70 1.15 -0.15 0.65 -0.75 1.80 -1.35 2.55 l-1.05 1.35 -1.95 0.95 -1.90 1 -2.40 0 -2.40 -0.05 -1.50 -0.65z m-17.75 -5.05 l0 -2.25 -0.40 0 -0.40 0 -0.15 2.25 -0.10 2.25 0.55 0 0.50 0 0 -2.25z m35.80 -2.10 l-0.30 -0.30 -0.25 0.25 -0.25 0.25 0.35 0.95 0.35 0.95 0.20 -0.90 c0.10 -0.50 0.05 -1.05 -0.10 -1.20z m0.20 -6.65 l0 -6.05 -0.60 0.60 -0.65 0.60 0.05 2.80 c0.05 1.55 0.10 4 0.15 5.45 l0.05 2.60 0.50 0 0.50 0 0 -6z m-4.75 -12.95 l0 -7.40 -0.65 0.90 -0.65 0.95 -1.75 0 -1.70 0 0 -0.60 0 -0.55 -0.30 0.30 -0.30 0.30 -0.70 -0.70 -0.70 -0.70 0 -3.85 0 -3.85 -0.85 -0.95 -0.80 -0.90 -1 0 -1 0 -0.95 0.85 -0.90 0.80 0 3.50 0 3.50 4.95 4.80 4.95 4.80 0.75 1.50 c0.40 0.85 0.90 2.25 1.10 3.15 0.15 0.85 0.35 1.60 0.40 1.60 0.05 0 0.10 -3.35 0.10 -7.45z m4.75 4.20 l0 -2.25 -0.45 0 -0.45 0 -0.30 1.75 -0.35 1.75 0.30 0.50 c0.15 0.30 0.50 0.50 0.80 0.50 l0.45 0 0 -2.25z m-30.25 -8.40 c0.75 -2.45 1.10 -4.90 1.45 -9.60 l0.20 -2.50 -0.70 -0.65 -0.70 -0.65 0 0.50 0 0.50 -1.80 0.35 -1.75 0.30 -0.50 1.25 -0.45 1.20 0 7.40 0 7.40 0.30 0.30 0.35 0.30 1.40 -1.80 1.45 -1.80 0.75 -2.50z m12 1.15 l-0.90 -1 -0.30 0.30 -0.30 0.30 0.95 0.70 c1.40 1 1.60 0.85 0.55 -0.30z m18.15 -0.20 l0 -1.20 -0.70 0.25 -0.70 0.25 0 0.60 c0 0.70 0.50 1.30 1 1.30 l0.40 0 0 -1.20z m0.10 -3.30 l0 -0.50 -0.75 0 -0.75 0 0 0.50 0 0.50 0.75 0 0.75 0 0 -0.50z"/>
  <path d="M74.50 61.55 l-1.75 -0.90 -1.10 -1.60 -1.05 -1.60 -0.55 -2.50 -0.55 -2.50 0 -19 0 -19 0.50 -1 0.55 -0.95 2.10 0 2.15 0 0.60 0.60 0.60 0.60 0 20.05 0 20 0.65 1.25 0.60 1.25 1.30 0.15 1.30 0.15 0.85 -0.80 0.80 -0.80 0 -20.45 0 -20.45 0.80 -0.75 0.75 -0.80 1.90 0 1.85 0 0.60 0.60 0.60 0.60 0 20.30 0 20.25 -0.50 1.85 -0.55 1.85 -1.30 1.60 -1.35 1.60 -1.65 0.65 -1.60 0.70 -2.40 0 -2.40 0 -1.75 -0.95z m0.10 -14.55 l-0.15 -5 -0.60 0.60 -0.60 0.55 0.05 2.80 c0.05 1.55 0.10 3.55 0.15 4.45 l0.05 1.60 0.65 0 0.60 0 -0.15 -5z m-0.10 -7.75 l0 -1.70 -0.75 0.25 -0.75 0.30 0 1.45 0 1.45 0.75 0 0.75 0 0 -1.75z m0 -9.75 l0 -1.50 -0.75 0 -0.75 0 0 1.50 0 1.50 0.75 0 0.75 0 0 -1.50z m0 -7.80 l0 -1.75 -0.75 0.75 -0.75 0.75 0 1 0 1.05 0.75 0 0.75 0 0 -1.80z"/>
  <path d="M114.05 61.65 l-1.65 -0.80 -1.20 -1.80 -1.15 -1.80 -0.50 -2.25 -0.55 -2.25 0 -16 0 -16 0.50 -1.95 0.45 -1.95 0.90 -1.30 0.95 -1.30 2.20 -1.15 2.20 -1.10 5.35 0 5.35 0 0.30 0.80 0.30 0.80 0 20.30 0 20.35 -0.50 1.85 -0.55 1.85 -1.30 1.60 -1.35 1.60 -1.65 0.65 -1.60 0.70 -2.40 0 -2.40 0 -1.70 -0.85z m6.05 -6 l0.90 -0.80 0 -18.45 0 -18.40 -1.25 0 c-0.65 0 -1.80 0.25 -2.50 0.60 l-1.25 0.55 -0.30 1.05 c-0.15 0.60 -0.20 8.60 -0.10 17.85 l0.15 16.80 0.70 0.80 0.65 0.85 1.05 0 1 0 0.95 -0.85z"/>
  <path d="M197.25 61.80 c-1.95 -0.85 -3.50 -2.60 -4.50 -4.90 l-0.75 -1.85 0 -4.70 0 -4.65 0.60 -0.60 0.60 -0.60 1.85 0 1.90 0 0.75 0.80 0.80 0.75 0 4.45 0 4.45 0.80 0.75 0.75 0.80 1 0 0.95 0 1 -1 1 -1 0 -6.85 0 -6.85 -5.55 -5.35 -5.50 -5.35 -0.50 1.25 c-0.25 0.65 -0.45 1.40 -0.45 1.60 0 0.20 -0.90 1.65 -2 3.25 l-2 2.85 0 10.95 0 10.95 -0.95 0.55 -1 0.50 -1.75 0 -1.75 0 -0.55 -0.95 -0.50 -1 0 -10.40 0 -10.40 -1.95 -2.90 c-1.10 -1.60 -2.25 -3.70 -2.55 -4.65 l-0.60 -1.80 -1.15 2.80 -1.15 2.80 0.95 1.85 0.95 1.85 0 7.85 0 7.90 -0.55 1.40 c-0.65 1.80 -2.30 3.50 -4.20 4.55 l-1.50 0.75 -5.45 0.25 -5.45 0.25 -0.70 -0.95 -0.65 -0.90 0 -19.10 0 -19.15 0.55 -2.65 0.60 -2.65 1.55 -1.55 1.60 -1.60 2 -0.55 2.05 -0.55 7.60 0.05 7.60 0.05 0.40 1.10 0.45 1.05 0.05 5.25 0.10 5.25 0.50 2.20 c0.25 1.15 0.80 2.80 1.25 3.60 l0.75 1.50 0.40 -0.30 c0.25 -0.15 0.85 -1.30 1.30 -2.65 l0.90 -2.35 0.20 -6.50 0.25 -6.50 0.45 -0.85 0.50 -0.90 2.20 0 2.20 0 0.75 1.05 0.70 1.05 1.55 -1.15 1.55 -1.15 2.90 -0.20 2.95 -0.20 1.70 0.85 c2.35 1.20 3.35 2.15 4.25 4.05 l0.80 1.65 -0.35 0.60 -0.40 0.60 0.70 -0.25 0.70 -0.25 -0.15 -0.65 -0.15 -0.60 0.60 -0.70 0.55 -0.70 -0.40 0 c-0.20 0 0.25 -0.70 1.10 -1.55 l1.45 -1.55 1.60 -0.70 1.60 -0.70 2.30 0 2.30 0 1.85 0.95 c2.30 1.15 3.35 2.30 4.35 4.70 l0.75 1.80 0 4.05 0 4.05 -0.50 1 -0.55 0.95 -1.70 0 -1.75 0 0 -0.60 0 -0.55 -0.30 0.30 -0.30 0.30 -0.70 -0.70 -0.70 -0.70 0 -3.95 0 -3.95 -0.90 -0.80 -0.95 -0.85 -1 0 -1 0 -0.80 0.90 -0.85 0.95 0 3.40 0 3.40 5 4.80 4.95 4.80 1.05 2.25 1 2.25 0 7.15 0 7.15 -0.75 1.80 c-1 2.40 -2.05 3.55 -4.35 4.70 l-1.85 0.95 -2.25 0 -2.25 0 -1.40 -0.55 c-0.75 -0.25 -2 -1.10 -2.75 -1.80 l-1.35 -1.25 -0.60 -1.50 -0.60 -1.50 -0.75 1.40 c-1.05 2.15 -2.15 3.20 -4.20 4.25 l-1.85 0.95 -2.40 0 -2.40 -0.05 -1.50 -0.65z m-34.95 -7.15 l-0.30 -0.30 -0.25 0.25 -0.25 0.25 0.35 0.95 0.35 0.95 0.20 -0.90 c0.10 -0.50 0.05 -1.05 -0.10 -1.20z m58.70 0.85 l1 -1 0 -6.85 0 -6.90 -5.20 -5 -5.20 -5 -0.35 -1.10 -0.30 -1.15 -0.45 0 c-0.25 0 -0.60 0.25 -0.75 0.50 l-0.30 0.50 -1.75 0 -1.70 0 0 -0.60 0 -0.55 -0.30 0.30 -0.30 0.30 -0.70 -0.70 -0.70 -0.70 0 -3.85 0 -3.85 -0.85 -0.95 -0.80 -0.90 -1 0 -1 0 -0.95 0.85 -0.90 0.80 0 3.50 0 3.50 5 4.80 4.95 4.80 1.05 2.25 1 2.25 0 2 0 2 2.15 -0.15 2.20 -0.20 0.80 0.85 0.85 0.80 0 4.45 0 4.45 0.80 0.75 0.75 0.80 1 0 0.95 0 1 -1z m-52.15 -0.65 l0.70 -0.70 0 -7.20 -0.05 -7.20 -1.15 -1 -1.10 -1.05 -1.65 0.40 -1.60 0.45 0 8.80 0 8.80 2.05 -0.30 2.10 -0.25 0.70 -0.75z m-6.35 -6.85 l0 -6.05 -0.60 0.60 -0.65 0.60 0.05 2.80 c0.05 1.55 0.10 4 0.15 5.45 l0.05 2.60 0.50 0 0.50 0 0 -6z m0 -8.75 l0 -2.25 -0.45 0 -0.45 0 -0.30 1.75 -0.35 1.75 0.30 0.50 c0.15 0.30 0.50 0.50 0.80 0.50 l0.45 0 0 -2.25z m-0.10 -7.45 l0 -1.20 -0.70 0.25 -0.70 0.25 0 0.60 c0 0.70 0.50 1.30 1 1.30 l0.40 0 0 -1.20z m35.60 1.05 c0 -0.10 -0.60 -0.70 -1.35 -1.40 l-1.35 -1.20 0.70 1 c0.90 1.20 2 2.10 2 1.60z m17.25 -0.85 l-0.90 -1 -0.30 0.30 -0.30 0.30 0.95 0.70 c1.40 1 1.60 0.85 0.55 -0.30z m-46.40 -0.65 l0.60 -0.60 0.15 -6.05 0.20 -6 -0.65 -0.65 -0.65 -0.60 0 0.50 0 0.50 -1.80 0.35 -1.75 0.30 -0.50 1.25 -0.45 1.20 0 5.15 0 5.15 0.30 0.30 0.30 0.30 1.80 -0.25 1.85 -0.20 0.60 -0.65z m-6.35 -2.85 l0 -0.50 -0.75 0 -0.75 0 0 0.50 0 0.50 0.75 0 0.75 0 0 -0.50z m48.50 -1.70 c0 -0.75 -0.90 -1.55 -1.30 -1.15 -0.35 0.35 0.35 1.85 0.85 1.85 l0.45 0 0 -0.70z m-18.50 -10.30 l0 -1.50 -0.50 0 -0.50 0 0 1.50 0 1.50 0.50 0 0.50 0 0 -1.50z"/>
  <path d="M90.65 61.45 l-0.65 -0.65 0 -23.55 0 -23.55 0.60 -0.60 0.60 -0.60 4.90 0 4.95 0 1.80 0.75 c2.50 1.05 3.60 2.10 4.70 4.50 l0.95 2 0 17.05 0 17.05 -0.75 2.20 c-0.90 2.50 -1.90 3.75 -4 4.85 l-1.50 0.80 -5.50 0.20 -5.50 0.20 -0.60 -0.65z m10.55 -6.45 l0.55 -0.55 0 -17.20 0 -17.20 -0.50 -0.50 -0.50 -0.50 -2.10 -0.35 -2.15 -0.35 0 18.90 0 18.90 2.05 -0.30 2.05 -0.25 0.60 -0.60z"/>
  <path d="M138 61.05 l-0.50 -1 0 -19.65 0.05 -19.65 0.85 -2.50 0.85 -2.45 2.15 -1.50 2.15 -1.55 5.25 -0.15 5.20 -0.20 0.75 0.60 0.75 0.60 0 7.70 0 7.70 -0.75 0 -0.75 0 0 0.75 0 0.75 0.90 0.05 0.85 0 -1 0.45 -1 0.45 0.90 0 0.85 0.05 0 0.50 0 0.50 -0.75 0 -0.75 0 0 0.50 0 0.50 0.75 0 0.75 0 0 13.65 0 13.65 -0.60 0.60 -0.60 0.60 -1.85 0 -1.90 0 -0.80 -0.80 -0.80 -0.80 0.15 -8.70 0.15 -8.70 -2.60 0 -2.65 0 0 8.90 0 8.90 -0.60 0.60 -0.60 0.60 -2.15 0 -2.10 0 -0.55 -0.95z m4.50 -10.25 l0 -8.20 0.30 -0.95 0.35 -0.90 -0.80 0.75 -0.80 0.75 -0.10 3.25 c-0.05 1.80 -0.05 5.55 0 8.40 l0.05 5.10 0.50 0 0.50 0 0 -8.20z m6 -9.70 l0 -0.40 -1.75 -0.10 -1.75 -0.15 0 0.55 0 0.50 1.75 0 1.75 0 0 -0.40z m-6.15 -5.95 l-0.25 -0.90 0 1.75 0 1.75 0.25 -0.85 c0.10 -0.50 0.10 -1.30 0 -1.75z m6.70 -7.40 c-0.05 -4.90 -0.15 -9.05 -0.25 -9.15 -0.10 -0.10 -1 0 -2.05 0.20 l-1.80 0.30 -0.50 1.25 -0.45 1.20 0 7.75 0 7.75 2.55 -0.15 2.55 -0.15 -0.05 -9z m-6.55 1.75 l0 -1.50 -0.75 0 -0.75 0 0 1.50 0 1.50 0.75 0 0.75 0 0 -1.50z"/>
 </g>
</svg>