<?xml version="1.0" encoding="utf-8"?>
<!DOCTYPE svg PUBLIC "-//W3C//DTD SVG 20010904//EN" "http://www.w3.org/TR/2001/REC-SVG-20010904/DTD/svg10.dtd">
<svg version="1.0" xmlns="http://www.w3.org/2000/svg" width="245px" height="76px" viewBox="0 0 245 76" preserveAspectRatio="xMidYMid meet">
 <g fill="#ffffff">
  <path d="M1.2 74.8 c-1.7 -1.7 -1.7 -71.9 0 -73.6 1.7 -1.7 240.9 -1.7 242.6 0 1.7 1.7 1.7 71.9 0 73.6 -1.7 1.7 -240.9 1.7 -242.6 0z"/>
 </g>
 <g fill="#44e1e1">
  <path d="M4 38 l0 -34 118.5 0 118.5 0 0 34 0 34 -118.5 0 -118.5 0 0 -34z m44.3 20.2 c1.4 -1.2 1.7 -3.2 1.7 -10.6 l0 -9 -4.8 -4.5 c-5.5 -5.2 -7.2 -7.9 -7.2 -11.3 0 -3.4 2.7 -6.8 5.5 -6.8 3 0 4.5 2.6 4.5 7.9 0 2.3 0.5 4.1 1 4.1 0.6 0 1 -2.4 1 -5.4 0 -4.5 -0.4 -5.8 -2.2 -7 -3.1 -2.2 -6.8 -2 -9.5 0.6 -1.8 1.7 -2.3 3.2 -2.3 7.1 0 4.8 0.2 5.2 6 10.8 l6 5.7 0 8.1 c0 7 -0.3 8.2 -2.1 9.5 -4 2.8 -7.9 -0.5 -7.9 -6.6 0 -2.1 -0.4 -3.8 -1 -3.8 -1.3 0 -1.3 7.6 0.1 10.1 2.1 3.9 7.4 4.5 11.2 1.1z m36 -0.4 c1.5 -1.8 1.7 -4.5 1.7 -22.9 0 -13.3 -0.4 -20.9 -1 -20.9 -0.6 0 -1 7.4 -1 20.3 0 20.9 -0.3 22.7 -4.1 24 -0.9 0.3 -2.6 -0.1 -3.8 -0.9 -2 -1.5 -2.1 -2.3 -2.1 -22.5 0 -13.3 -0.4 -20.9 -1 -20.9 -1.4 0 -1.3 40.5 0.1 43.1 2.2 4.2 7.9 4.5 11.2 0.7z m39.2 0.1 c1.9 -1.8 2 -3.5 2.3 -22.9 l0.3 -21 -5.5 0 c-4.7 0 -5.7 0.4 -7.5 2.6 -1.9 2.5 -2.1 4 -2.1 20.1 0 13.4 0.3 18.1 1.5 20.3 2.3 4.4 7 4.8 11 0.9z m82.8 0.3 c1.4 -1.2 1.7 -3.2 1.7 -10.6 l0 -9 -4.8 -4.5 c-5.5 -5.2 -7.2 -7.9 -7.2 -11.3 0 -3.4 2.7 -6.8 5.5 -6.8 3 0 4.5 2.6 4.5 7.9 0 2.3 0.5 4.1 1 4.1 0.6 0 1 -2.4 1 -5.4 0 -4.5 -0.4 -5.8 -2.2 -7 -3.1 -2.2 -6.8 -2 -9.5 0.6 -1.8 1.7 -2.3 3.2 -2.3 7.1 0 4.8 0.2 5.2 6 10.8 l6 5.7 0 8.1 c0 7 -0.3 8.2 -2.1 9.5 -4 2.8 -7.9 -0.5 -7.9 -6.6 0 -2.1 -0.4 -3.8 -1 -3.8 -1.3 0 -1.3 7.6 0.1 10.1 2.1 3.9 7.4 4.5 11.2 1.1z m18 0 c1.4 -1.2 1.7 -3.2 1.7 -10.6 l0 -9 -4.8 -4.5 c-5.5 -5.2 -7.2 -7.9 -7.2 -11.3 0 -3.4 2.7 -6.8 5.5 -6.8 3 0 4.5 2.6 4.5 7.9 0 2.3 0.5 4.1 1 4.1 0.6 0 1 -2.4 1 -5.4 0 -4.5 -0.4 -5.8 -2.2 -7 -3.1 -2.2 -6.8 -2 -9.5 0.6 -1.8 1.7 -2.3 3.2 -2.3 7.1 0 4.8 0.2 5.2 6 10.8 l6 5.7 0 8.1 c0 7 -0.3 8.2 -2.1 9.5 -4 2.8 -7.9 -0.5 -7.9 -6.6 0 -2.1 -0.4 -3.8 -1 -3.8 -1.3 0 -1.3 7.6 0.1 10.1 2.1 3.9 7.4 4.5 11.2 1.1z m-203.3 -6.5 l0 -8.4 3.7 -2.4 c5.3 -3.5 7.4 -8.4 8.1 -18.6 l0.5 -8.6 -5.4 0.7 c-9.1 1.2 -8.9 0.8 -8.9 24.8 0 13.2 0.4 20.8 1 20.8 0.6 0 1 -3.4 1 -8.3z m46 7.3 c0 -0.5 -2.2 -1 -5 -1 l-5 0 0 -11 0 -11 5.1 0 c3.1 0 4.8 -0.4 4.4 -1 -0.3 -0.5 -2.6 -1 -5.1 -1 l-4.4 0 0 -6.8 c0 -8 1.2 -10 6 -10.4 1.9 -0.2 3.3 -0.7 3 -1.3 -0.7 -1.5 -7.2 -0.6 -9.2 1.2 -1.6 1.4 -1.8 3.9 -1.8 22.5 l0 20.8 6 0 c3.3 0 6 -0.4 6 -1z m37 -1 c1.9 -1.9 2 -3.3 2 -20.8 0 -21.7 0 -21.6 -8.8 -22.8 l-5.2 -0.7 0 23.2 0 23.1 5 0 c3.7 0 5.5 -0.5 7 -2z m38 -7.5 l0 -9.5 4.5 0 4.5 0 0 9.5 c0 7.8 0.3 9.5 1.5 9.5 1.3 0 1.5 -3 1.3 -22.7 l-0.3 -22.8 -4.9 0.3 c-8.6 0.4 -8.6 0.4 -8.6 24.4 0 13.2 0.4 20.8 1 20.8 0.6 0 1 -3.8 1 -9.5z m28.3 8.4 c1.2 -0.7 2.5 -1.7 2.9 -2.3 1.4 -2 0.9 -17 -0.6 -19.2 -1.2 -1.7 -1.2 -2.2 0 -3.9 1 -1.3 1.4 -4.7 1.4 -10.8 l0 -9 -5.2 0.7 c-8.9 1.2 -8.8 0.8 -8.8 24.8 l0 20.8 4.1 0 c2.2 0 5 -0.5 6.2 -1.1z m15.7 -10.1 c0 -8.8 0.3 -11.5 1.6 -12.9 0.9 -1 2.2 -3.5 3 -5.6 1.5 -4.4 1.9 -16.3 0.4 -16.3 -0.5 0 -1 1.8 -1 4 0 5.9 -1.9 13.7 -4 16.2 l-1.9 2.3 -2 -4.5 c-1.4 -3 -2.1 -6.6 -2.1 -10.7 0 -3.4 -0.5 -6.5 -1 -6.8 -3.7 -2.3 -1.6 15.7 2.4 20.9 2.4 3.2 2.6 4.2 2.6 14 0 6.4 0.4 10.6 1 10.6 0.6 0 1 -4.4 1 -11.2z"/>
  <path d="M117 58.2 c-0.8 -0.3 -1.8 -1 -2.2 -1.6 -0.4 -0.6 -0.8 -9.5 -0.8 -19.8 0 -17.5 0.1 -18.8 1.9 -19.8 1.1 -0.5 3.1 -1 4.6 -1 l2.5 0 -0.2 20.1 c-0.3 18.9 -0.4 20.2 -2.3 21.4 -1.1 0.7 -2.7 1 -3.5 0.7z"/>
  <path d="M21 30.4 c0 -11.8 0.7 -13.4 6.2 -13.4 l4.1 0 -0.7 6.6 c-0.9 9.1 -5 16.4 -9 16.4 -0.3 0 -0.6 -4.3 -0.6 -9.6z"/>
  <path d="M94 37.5 l0 -20.5 3.8 0 c2.1 0 4.3 0.5 5 1.2 0.8 0.8 1.2 6.5 1.2 18.8 0 19.7 -0.4 21 -6.8 21 l-3.2 0 0 -20.5z"/>
  <path d="M142 29.9 c0 -10.9 0.8 -12.9 5.5 -12.9 l3.5 0 0 11 0 11 -4.5 0 -4.5 0 0 -9.1z"/>
  <path d="M162 27.4 c0 -8.7 1 -10.4 6 -10.4 l4 0 0 5.9 c0 9.1 -1.1 11.1 -6 11.1 l-4 0 0 -6.6z"/>
 </g>
 <g fill="#c545e5">
  <path d="M4 38 l0 -34 118.5 0 118.5 0 0 34 0 34 -118.5 0 -118.5 0 0 -34z m44.3 20.2 c1.4 -1.2 1.7 -3.2 1.7 -10.6 l0 -9 -4.8 -4.5 c-5.5 -5.2 -7.2 -7.9 -7.2 -11.3 0 -3.4 2.7 -6.8 5.5 -6.8 3 0 4.5 2.6 4.5 7.9 0 2.3 0.5 4.1 1 4.1 0.6 0 1 -2.4 1 -5.4 0 -4.5 -0.4 -5.8 -2.2 -7 -3.1 -2.2 -6.8 -2 -9.5 0.6 -1.8 1.7 -2.3 3.2 -2.3 7.1 0 4.8 0.2 5.2 6 10.8 l6 5.7 0 8.1 c0 7 -0.3 8.2 -2.1 9.5 -4 2.8 -7.9 -0.5 -7.9 -6.6 0 -2.1 -0.4 -3.8 -1 -3.8 -1.3 0 -1.3 7.6 0.1 10.1 2.1 3.9 7.4 4.5 11.2 1.1z m36 -0.4 c1.5 -1.8 1.7 -4.5 1.7 -22.9 0 -13.3 -0.4 -20.9 -1 -20.9 -0.6 0 -1 7.4 -1 20.3 0 20.9 -0.3 22.7 -4.1 24 -0.9 0.3 -2.6 -0.1 -3.8 -0.9 -2 -1.5 -2.1 -2.3 -2.1 -22.5 0 -13.3 -0.4 -20.9 -1 -20.9 -1.4 0 -1.3 40.5 0.1 43.1 2.2 4.2 7.9 4.5 11.2 0.7z m39.2 0.1 c1.9 -1.8 2 -3.5 2.3 -22.9 l0.3 -21 -5.5 0 c-4.7 0 -5.7 0.4 -7.5 2.6 -1.9 2.5 -2.1 4 -2.1 20.1 0 13.4 0.3 18.1 1.5 20.3 2.3 4.4 7 4.8 11 0.9z m82.8 0.3 c1.4 -1.2 1.7 -3.2 1.7 -10.6 l0 -9 -4.8 -4.5 c-5.5 -5.2 -7.2 -7.9 -7.2 -11.3 0 -3.4 2.7 -6.8 5.5 -6.8 3 0 4.5 2.6 4.5 7.9 0 2.3 0.5 4.1 1 4.1 0.6 0 1 -2.4 1 -5.4 0 -4.5 -0.4 -5.8 -2.2 -7 -3.1 -2.2 -6.8 -2 -9.5 0.6 -1.8 1.7 -2.3 3.2 -2.3 7.1 0 4.8 0.2 5.2 6 10.8 l6 5.7 0 8.1 c0 7 -0.3 8.2 -2.1 9.5 -4 2.8 -7.9 -0.5 -7.9 -6.6 0 -2.1 -0.4 -3.8 -1 -3.8 -1.3 0 -1.3 7.6 0.1 10.1 2.1 3.9 7.4 4.5 11.2 1.1z m18 0 c1.4 -1.2 1.7 -3.2 1.7 -10.6 l0 -9 -4.8 -4.5 c-5.5 -5.2 -7.2 -7.9 -7.2 -11.3 0 -3.4 2.7 -6.8 5.5 -6.8 3 0 4.5 2.6 4.5 7.9 0 2.3 0.5 4.1 1 4.1 0.6 0 1 -2.4 1 -5.4 0 -4.5 -0.4 -5.8 -2.2 -7 -3.1 -2.2 -6.8 -2 -9.5 0.6 -1.8 1.7 -2.3 3.2 -2.3 7.1 0 4.8 0.2 5.2 6 10.8 l6 5.7 0 8.1 c0 7 -0.3 8.2 -2.1 9.5 -4 2.8 -7.9 -0.5 -7.9 -6.6 0 -2.1 -0.4 -3.8 -1 -3.8 -1.3 0 -1.3 7.6 0.1 10.1 2.1 3.9 7.4 4.5 11.2 1.1z m-203.3 -6.5 l0 -8.4 3.7 -2.4 c5.3 -3.5 7.4 -8.4 8.1 -18.6 l0.5 -8.6 -5.4 0.7 c-9.1 1.2 -8.9 0.8 -8.9 24.8 0 13.2 0.4 20.8 1 20.8 0.6 0 1 -3.4 1 -8.3z m46 7.3 c0 -0.5 -2.2 -1 -5 -1 l-5 0 0 -11 0 -11 5.1 0 c3.1 0 4.8 -0.4 4.4 -1 -0.3 -0.5 -2.6 -1 -5.1 -1 l-4.4 0 0 -6.8 c0 -8 1.2 -10 6 -10.4 1.9 -0.2 3.3 -0.7 3 -1.3 -0.7 -1.5 -7.2 -0.6 -9.2 1.2 -1.6 1.4 -1.8 3.9 -1.8 22.5 l0 20.8 6 0 c3.3 0 6 -0.4 6 -1z m37 -1 c1.9 -1.9 2 -3.3 2 -20.8 0 -21.7 0 -21.6 -8.8 -22.8 l-5.2 -0.7 0 23.2 0 23.1 5 0 c3.7 0 5.5 -0.5 7 -2z m38 -7.5 l0 -9.5 4.5 0 4.5 0 0 9.5 c0 7.8 0.3 9.5 1.5 9.5 1.3 0 1.5 -3 1.3 -22.7 l-0.3 -22.8 -4.9 0.3 c-8.6 0.4 -8.6 0.4 -8.6 24.4 0 13.2 0.4 20.8 1 20.8 0.6 0 1 -3.8 1 -9.5z m28.3 8.4 c1.2 -0.7 2.5 -1.7 2.9 -2.3 1.4 -2 0.9 -17 -0.6 -19.2 -1.2 -1.7 -1.2 -2.2 0 -3.9 1 -1.3 1.4 -4.7 1.4 -10.8 l0 -9 -5.2 0.7 c-8.9 1.2 -8.8 0.8 -8.8 24.8 l0 20.8 4.1 0 c2.2 0 5 -0.5 6.2 -1.1z m15.7 -10.1 c0 -8.8 0.3 -11.5 1.6 -12.9 0.9 -1 2.2 -3.5 3 -5.6 1.5 -4.4 1.9 -16.3 0.4 -16.3 -0.5 0 -1 1.8 -1 4 0 5.9 -1.9 13.7 -4 16.2 l-1.9 2.3 -2 -4.5 c-1.4 -3 -2.1 -6.6 -2.1 -10.7 0 -3.4 -0.5 -6.5 -1 -6.8 -3.7 -2.3 -1.6 15.7 2.4 20.9 2.4 3.2 2.6 4.2 2.6 14 0 6.4 0.4 10.6 1 10.6 0.6 0 1 -4.4 1 -11.2z m-168.8 -29.3 l0.4 -3.5 -4.8 0 -4.8 0 0 3.5 c0 3.5 0 3.5 4.4 3.5 4.3 0 4.4 -0.1 4.8 -3.5z m28.6 1.3 c-0.2 -1.5 -1 -2.3 -2.3 -2.3 -1.3 0 -2.1 0.8 -2.3 2.3 -0.3 1.8 0.1 2.2 2.3 2.2 2.2 0 2.6 -0.4 2.3 -2.2z m24.2 -1.5 c0 -3.4 -0.1 -3.5 -1.7 -2 -1 0.8 -3.4 1.7 -5.3 1.9 -2.4 0.2 -3.6 0.9 -3.8 2.1 -0.3 1.4 0.5 1.7 5.2 1.7 l5.6 0 0 -3.7z m12 0.2 c0 -3.2 -0.2 -3.5 -3 -3.5 -2.8 0 -3 0.3 -3 3.5 0 3.2 0.2 3.5 3 3.5 2.8 0 3 -0.3 3 -3.5z m8 0 c0 -1.9 -0.4 -3.5 -1 -3.5 -0.5 0 -1 1.6 -1 3.5 0 1.9 0.5 3.5 1 3.5 0.6 0 1 -1.6 1 -3.5z m48.2 0 l0.4 -3.5 -5.3 0 -5.3 0 0 3.5 0 3.5 4.9 0 c4.8 0 4.9 0 5.3 -3.5z m20 0 c0.3 -2.4 0 -3.5 -0.9 -3.5 -0.8 0 -1.3 1.3 -1.3 3.5 0 1.9 0.4 3.5 0.9 3.5 0.5 0 1.1 -1.6 1.3 -3.5z m29.2 1.9 c1.4 -3.7 0.7 -5.4 -2.4 -5.4 -2.8 0 -3 0.3 -3 3.5 0 3 0.3 3.5 2.4 3.5 1.3 0 2.7 -0.7 3 -1.6z m16.4 -0.6 c-0.2 -1.5 -1 -2.3 -2.3 -2.3 -1.3 0 -2.1 0.8 -2.3 2.3 -0.3 1.8 0.1 2.2 2.3 2.2 2.2 0 2.6 -0.4 2.3 -2.2z m18 0 c-0.2 -1.5 -1 -2.3 -2.3 -2.3 -1.3 0 -2.1 0.8 -2.3 2.3 -0.3 1.8 0.1 2.2 2.3 2.2 2.2 0 2.6 -0.4 2.3 -2.2z m15.2 -1.3 l0 -3.5 -4.9 0 -4.9 0 1.1 3.5 c0.9 3.2 1.4 3.5 4.9 3.5 3.7 0 3.8 -0.1 3.8 -3.5z m-127.6 -0.7 c0.4 -2 0.3 -2.8 -0.7 -2.8 -0.9 0 -1.2 0.9 -0.9 3 0.5 3.6 0.7 3.5 1.6 -0.2z m-56.1 -0.8 c0.3 -1.2 0 -2 -0.8 -2 -0.8 0 -1.1 0.8 -0.8 2 0.3 1.1 0.7 2 0.8 2 0.1 0 0.5 -0.9 0.8 -2z"/>
 </g>
 <g fill="#c3e244">
  <path d="M4 38 l0 -34 118.5 0 118.5 0 0 34 0 34 -118.5 0 -118.5 0 0 -34z m233 26.4 l0 -3.6 -7.7 0.6 c-4.3 0.4 -9 0.6 -10.5 0.6 -5.7 -0.2 -13.4 -0.2 -16.8 -0.1 -2.7 0.1 -65.2 0.1 -83.5 0 -2.7 0 -33.2 0.1 -39.7 0.2 -8.9 0 -33.2 0 -35.5 -0.1 -1.6 -0.1 -10.1 -0.3 -19 -0.4 l-16.3 -0.4 0 3.4 0 3.4 114.5 0 114.5 0 0 -3.6z m-188.7 -6.2 c1.4 -1.2 1.7 -3.2 1.7 -10.6 l0 -9 -4.8 -4.5 c-5.5 -5.2 -7.2 -7.9 -7.2 -11.3 0 -3.4 2.7 -6.8 5.5 -6.8 3 0 4.5 2.6 4.5 7.9 0 2.3 0.5 4.1 1 4.1 0.6 0 1 -2.4 1 -5.4 0 -4.5 -0.4 -5.8 -2.2 -7 -3.1 -2.2 -6.8 -2 -9.5 0.6 -1.8 1.7 -2.3 3.2 -2.3 7.1 0 4.8 0.2 5.2 6 10.8 l6 5.7 0 8.1 c0 7 -0.3 8.2 -2.1 9.5 -4 2.8 -7.9 -0.5 -7.9 -6.6 0 -2.1 -0.4 -3.8 -1 -3.8 -1.3 0 -1.3 7.6 0.1 10.1 2.1 3.9 7.4 4.5 11.2 1.1z m36 -0.4 c1.5 -1.8 1.7 -4.5 1.7 -22.9 0 -13.3 -0.4 -20.9 -1 -20.9 -0.6 0 -1 7.4 -1 20.3 0 20.9 -0.3 22.7 -4.1 24 -0.9 0.3 -2.6 -0.1 -3.8 -0.9 -2 -1.5 -2.1 -2.3 -2.1 -22.5 0 -13.3 -0.4 -20.9 -1 -20.9 -1.4 0 -1.3 40.5 0.1 43.1 2.2 4.2 7.9 4.5 11.2 0.7z m39.2 0.1 c1.9 -1.8 2 -3.5 2.3 -22.9 l0.3 -21 -5.5 0 c-4.7 0 -5.7 0.4 -7.5 2.6 -1.9 2.5 -2.1 4 -2.1 20.1 0 13.4 0.3 18.1 1.5 20.3 2.3 4.4 7 4.8 11 0.9z m82.8 0.3 c1.4 -1.2 1.7 -3.2 1.7 -10.6 l0 -9 -4.8 -4.5 c-5.5 -5.2 -7.2 -7.9 -7.2 -11.3 0 -3.4 2.7 -6.8 5.5 -6.8 3 0 4.5 2.6 4.5 7.9 0 2.3 0.5 4.1 1 4.1 0.6 0 1 -2.4 1 -5.4 0 -4.5 -0.4 -5.8 -2.2 -7 -3.1 -2.2 -6.8 -2 -9.5 0.6 -1.8 1.7 -2.3 3.2 -2.3 7.1 0 4.8 0.2 5.2 6 10.8 l6 5.7 0 8.1 c0 7 -0.3 8.2 -2.1 9.5 -4 2.8 -7.9 -0.5 -7.9 -6.6 0 -2.1 -0.4 -3.8 -1 -3.8 -1.3 0 -1.3 7.6 0.1 10.1 2.1 3.9 7.4 4.5 11.2 1.1z m18 0 c1.4 -1.2 1.7 -3.2 1.7 -10.6 l0 -9 -4.8 -4.5 c-5.5 -5.2 -7.2 -7.9 -7.2 -11.3 0 -3.4 2.7 -6.8 5.5 -6.8 3 0 4.5 2.6 4.5 7.9 0 2.3 0.5 4.1 1 4.1 0.6 0 1 -2.4 1 -5.4 0 -4.5 -0.4 -5.8 -2.2 -7 -3.1 -2.2 -6.8 -2 -9.5 0.6 -1.8 1.7 -2.3 3.2 -2.3 7.1 0 4.8 0.2 5.2 6 10.8 l6 5.7 0 8.1 c0 7 -0.3 8.2 -2.1 9.5 -4 2.8 -7.9 -0.5 -7.9 -6.6 0 -2.1 -0.4 -3.8 -1 -3.8 -1.3 0 -1.3 7.6 0.1 10.1 2.1 3.9 7.4 4.5 11.2 1.1z m-203.3 -6.5 l0 -8.4 3.7 -2.4 c5.3 -3.5 7.4 -8.4 8.1 -18.6 l0.5 -8.6 -5.4 0.7 c-9.1 1.2 -8.9 0.8 -8.9 24.8 0 13.2 0.4 20.8 1 20.8 0.6 0 1 -3.4 1 -8.3z m46 7.3 c0 -0.5 -2.2 -1 -5 -1 l-5 0 0 -11 0 -11 5.1 0 c3.1 0 4.8 -0.4 4.4 -1 -0.3 -0.5 -2.6 -1 -5.1 -1 l-4.4 0 0 -6.8 c0 -8 1.2 -10 6 -10.4 1.9 -0.2 3.3 -0.7 3 -1.3 -0.7 -1.5 -7.2 -0.6 -9.2 1.2 -1.6 1.4 -1.8 3.9 -1.8 22.5 l0 20.8 6 0 c3.3 0 6 -0.4 6 -1z m37 -1 c1.9 -1.9 2 -3.3 2 -20.8 0 -21.7 0 -21.6 -8.8 -22.8 l-5.2 -0.7 0 23.2 0 23.1 5 0 c3.7 0 5.5 -0.5 7 -2z m38 -7.5 l0 -9.5 4.5 0 4.5 0 0 9.5 c0 7.8 0.3 9.5 1.5 9.5 1.3 0 1.5 -3 1.3 -22.7 l-0.3 -22.8 -4.9 0.3 c-8.6 0.4 -8.6 0.4 -8.6 24.4 0 13.2 0.4 20.8 1 20.8 0.6 0 1 -3.8 1 -9.5z m28.3 8.4 c1.2 -0.7 2.5 -1.7 2.9 -2.3 1.4 -2 0.9 -17 -0.6 -19.2 -1.2 -1.7 -1.2 -2.2 0 -3.9 1 -1.3 1.4 -4.7 1.4 -10.8 l0 -9 -5.2 0.7 c-8.9 1.2 -8.8 0.8 -8.8 24.8 l0 20.8 4.1 0 c2.2 0 5 -0.5 6.2 -1.1z m15.7 -10.1 c0 -8.8 0.3 -11.5 1.6 -12.9 0.9 -1 2.2 -3.5 3 -5.6 1.5 -4.4 1.9 -16.3 0.4 -16.3 -0.5 0 -1 1.8 -1 4 0 5.9 -1.9 13.7 -4 16.2 l-1.9 2.3 -2 -4.5 c-1.4 -3 -2.1 -6.6 -2.1 -10.7 0 -3.4 -0.5 -6.5 -1 -6.8 -3.7 -2.3 -1.6 15.7 2.4 20.9 2.4 3.2 2.6 4.2 2.6 14 0 6.4 0.4 10.6 1 10.6 0.6 0 1 -4.4 1 -11.2z m-168.8 -29.3 l0.4 -3.5 -4.8 0 -4.8 0 0 3.5 c0 3.5 0 3.5 4.4 3.5 4.3 0 4.4 -0.1 4.8 -3.5z m28.6 1.3 c-0.2 -1.5 -1 -2.3 -2.3 -2.3 -1.3 0 -2.1 0.8 -2.3 2.3 -0.3 1.8 0.1 2.2 2.3 2.2 2.2 0 2.6 -0.4 2.3 -2.2z m24.2 -1.5 c0 -3.4 -0.1 -3.5 -1.7 -2 -1 0.8 -3.4 1.7 -5.3 1.9 -2.4 0.2 -3.6 0.9 -3.8 2.1 -0.3 1.4 0.5 1.7 5.2 1.7 l5.6 0 0 -3.7z m12 0.2 c0 -3.2 -0.2 -3.5 -3 -3.5 -2.8 0 -3 0.3 -3 3.5 0 3.2 0.2 3.5 3 3.5 2.8 0 3 -0.3 3 -3.5z m8 0 c0 -1.9 -0.4 -3.5 -1 -3.5 -0.5 0 -1 1.6 -1 3.5 0 1.9 0.5 3.5 1 3.5 0.6 0 1 -1.6 1 -3.5z m48.2 0 l0.4 -3.5 -5.3 0 -5.3 0 0 3.5 0 3.5 4.9 0 c4.8 0 4.9 0 5.3 -3.5z m20 0 c0.3 -2.4 0 -3.5 -0.9 -3.5 -0.8 0 -1.3 1.3 -1.3 3.5 0 1.9 0.4 3.5 0.9 3.5 0.5 0 1.1 -1.6 1.3 -3.5z m29.2 1.9 c1.4 -3.7 0.7 -5.4 -2.4 -5.4 -2.8 0 -3 0.3 -3 3.5 0 3 0.3 3.5 2.4 3.5 1.3 0 2.7 -0.7 3 -1.6z m16.4 -0.6 c-0.2 -1.5 -1 -2.3 -2.3 -2.3 -1.3 0 -2.1 0.8 -2.3 2.3 -0.3 1.8 0.1 2.2 2.3 2.2 2.2 0 2.6 -0.4 2.3 -2.2z m18 0 c-0.2 -1.5 -1 -2.3 -2.3 -2.3 -1.3 0 -2.1 0.8 -2.3 2.3 -0.3 1.8 0.1 2.2 2.3 2.2 2.2 0 2.6 -0.4 2.3 -2.2z m15.2 -1.3 l0 -3.5 -4.9 0 -4.9 0 1.1 3.5 c0.9 3.2 1.4 3.5 4.9 3.5 3.7 0 3.8 -0.1 3.8 -3.5z m-127.6 -0.7 c0.4 -2 0.3 -2.8 -0.7 -2.8 -0.9 0 -1.2 0.9 -0.9 3 0.5 3.6 0.7 3.5 1.6 -0.2z m-56.1 -0.8 c0.3 -1.2 0 -2 -0.8 -2 -0.8 0 -1.1 0.8 -0.8 2 0.3 1.1 0.7 2 0.8 2 0.1 0 0.5 -0.9 0.8 -2z"/>
  <path d="M117 58.2 c-0.8 -0.3 -1.8 -1 -2.2 -1.6 -0.4 -0.6 -0.8 -9.5 -0.8 -19.8 0 -17.5 0.1 -18.8 1.9 -19.8 1.1 -0.5 3.1 -1 4.6 -1 l2.5 0 -0.2 20.1 c-0.3 18.9 -0.4 20.2 -2.3 21.4 -1.1 0.7 -2.7 1 -3.5 0.7z m4 -37.8 c0 -2.1 -0.4 -2.5 -2.2 -2.2 -1.5 0.2 -2.4 1.1 -2.6 2.6 -0.3 1.8 0.1 2.2 2.2 2.2 2.1 0 2.6 -0.5 2.6 -2.6z"/>
  <path d="M94 37.5 l0 -20.5 3.8 0 c2.1 0 4.3 0.5 5 1.2 0.8 0.8 1.2 6.5 1.2 18.8 0 19.7 -0.4 21 -6.8 21 l-3.2 0 0 -20.5z m7.8 -16.2 c-0.2 -1.1 -1.4 -1.9 -3.1 -2.1 -2.2 -0.3 -2.7 0.1 -2.7 1.7 0 1.7 0.6 2.1 3.1 2.1 2.4 0 3 -0.4 2.7 -1.7z"/>
  <path d="M162 47 l0 -11 3 0 c5.1 0 7 2.9 7 11 0 8.1 -1.9 11 -7 11 l-3 0 0 -11z"/>
 </g>
 <g fill="#e1a244">
  <path d="M4 38 l0 -34 118.5 0 118.5 0 0 34 0 34 -118.5 0 -118.5 0 0 -34z m233 26.4 l0 -3.6 -7.7 0.6 c-4.3 0.4 -9 0.6 -10.5 0.6 -5.7 -0.2 -13.4 -0.2 -16.8 -0.1 -2.7 0.1 -65.2 0.1 -83.5 0 -2.7 0 -33.2 0.1 -39.7 0.2 -8.9 0 -33.2 0 -35.5 -0.1 -1.6 -0.1 -10.1 -0.3 -19 -0.4 l-16.3 -0.4 0 3.4 0 3.4 114.5 0 114.5 0 0 -3.6z m-188.7 -6.2 c1.4 -1.2 1.7 -3.2 1.7 -10.6 l0 -9 -4.8 -4.5 c-5.5 -5.2 -7.2 -7.9 -7.2 -11.3 0 -3.4 2.7 -6.8 5.5 -6.8 3 0 4.5 2.6 4.5 7.9 0 2.3 0.5 4.1 1 4.1 0.6 0 1 -2.4 1 -5.4 0 -4.5 -0.4 -5.8 -2.2 -7 -3.1 -2.2 -6.8 -2 -9.5 0.6 -1.8 1.7 -2.3 3.2 -2.3 7.1 0 4.8 0.2 5.2 6 10.8 l6 5.7 0 8.1 c0 7 -0.3 8.2 -2.1 9.5 -4 2.8 -7.9 -0.5 -7.9 -6.6 0 -2.1 -0.4 -3.8 -1 -3.8 -1.3 0 -1.3 7.6 0.1 10.1 2.1 3.9 7.4 4.5 11.2 1.1z m36 -0.4 c1.5 -1.8 1.7 -4.5 1.7 -22.9 0 -13.3 -0.4 -20.9 -1 -20.9 -0.6 0 -1 7.4 -1 20.3 0 20.9 -0.3 22.7 -4.1 24 -0.9 0.3 -2.6 -0.1 -3.8 -0.9 -2 -1.5 -2.1 -2.3 -2.1 -22.5 0 -13.3 -0.4 -20.9 -1 -20.9 -1.4 0 -1.3 40.5 0.1 43.1 2.2 4.2 7.9 4.5 11.2 0.7z m39.2 0.1 c1.9 -1.8 2 -3.5 2.3 -22.9 l0.3 -21 -5.5 0 c-4.7 0 -5.7 0.4 -7.5 2.6 -1.9 2.5 -2.1 4 -2.1 20.1 0 13.4 0.3 18.1 1.5 20.3 2.3 4.4 7 4.8 11 0.9z m82.8 0.3 c1.4 -1.2 1.7 -3.2 1.7 -10.6 l0 -9 -4.8 -4.5 c-5.5 -5.2 -7.2 -7.9 -7.2 -11.3 0 -3.4 2.7 -6.8 5.5 -6.8 3 0 4.5 2.6 4.5 7.9 0 2.3 0.5 4.1 1 4.1 0.6 0 1 -2.4 1 -5.4 0 -4.5 -0.4 -5.8 -2.2 -7 -3.1 -2.2 -6.8 -2 -9.5 0.6 -1.8 1.7 -2.3 3.2 -2.3 7.1 0 4.8 0.2 5.2 6 10.8 l6 5.7 0 8.1 c0 7 -0.3 8.2 -2.1 9.5 -4 2.8 -7.9 -0.5 -7.9 -6.6 0 -2.1 -0.4 -3.8 -1 -3.8 -1.3 0 -1.3 7.6 0.1 10.1 2.1 3.9 7.4 4.5 11.2 1.1z m18 0 c1.4 -1.2 1.7 -3.2 1.7 -10.6 l0 -9 -4.8 -4.5 c-5.5 -5.2 -7.2 -7.9 -7.2 -11.3 0 -3.4 2.7 -6.8 5.5 -6.8 3 0 4.5 2.6 4.5 7.9 0 2.3 0.5 4.1 1 4.1 0.6 0 1 -2.4 1 -5.4 0 -4.5 -0.4 -5.8 -2.2 -7 -3.1 -2.2 -6.8 -2 -9.5 0.6 -1.8 1.7 -2.3 3.2 -2.3 7.1 0 4.8 0.2 5.2 6 10.8 l6 5.7 0 8.1 c0 7 -0.3 8.2 -2.1 9.5 -4 2.8 -7.9 -0.5 -7.9 -6.6 0 -2.1 -0.4 -3.8 -1 -3.8 -1.3 0 -1.3 7.6 0.1 10.1 2.1 3.9 7.4 4.5 11.2 1.1z m-203.3 -6.5 l0 -8.4 3.7 -2.4 c5.3 -3.5 7.4 -8.4 8.1 -18.6 l0.5 -8.6 -5.4 0.7 c-9.1 1.2 -8.9 0.8 -8.9 24.8 0 13.2 0.4 20.8 1 20.8 0.6 0 1 -3.4 1 -8.3z m46 7.3 c0 -0.5 -2.2 -1 -5 -1 l-5 0 0 -11 0 -11 5.1 0 c3.1 0 4.8 -0.4 4.4 -1 -0.3 -0.5 -2.6 -1 -5.1 -1 l-4.4 0 0 -6.8 c0 -8 1.2 -10 6 -10.4 1.9 -0.2 3.3 -0.7 3 -1.3 -0.7 -1.5 -7.2 -0.6 -9.2 1.2 -1.6 1.4 -1.8 3.9 -1.8 22.5 l0 20.8 6 0 c3.3 0 6 -0.4 6 -1z m37 -1 c1.9 -1.9 2 -3.3 2 -20.8 0 -21.7 0 -21.6 -8.8 -22.8 l-5.2 -0.7 0 23.2 0 23.1 5 0 c3.7 0 5.5 -0.5 7 -2z m38 -7.5 l0 -9.5 4.5 0 4.5 0 0 9.5 c0 7.8 0.3 9.5 1.5 9.5 1.3 0 1.5 -3 1.3 -22.7 l-0.3 -22.8 -4.9 0.3 c-8.6 0.4 -8.6 0.4 -8.6 24.4 0 13.2 0.4 20.8 1 20.8 0.6 0 1 -3.8 1 -9.5z m28.3 8.4 c1.2 -0.7 2.5 -1.7 2.9 -2.3 1.4 -2 0.9 -17 -0.6 -19.2 -1.2 -1.7 -1.2 -2.2 0 -3.9 1 -1.3 1.4 -4.7 1.4 -10.8 l0 -9 -5.2 0.7 c-8.9 1.2 -8.8 0.8 -8.8 24.8 l0 20.8 4.1 0 c2.2 0 5 -0.5 6.2 -1.1z m15.7 -10.1 c0 -8.8 0.3 -11.5 1.6 -12.9 0.9 -1 2.2 -3.5 3 -5.6 1.5 -4.4 1.9 -16.3 0.4 -16.3 -0.5 0 -1 1.8 -1 4 0 5.9 -1.9 13.7 -4 16.2 l-1.9 2.3 -2 -4.5 c-1.4 -3 -2.1 -6.6 -2.1 -10.7 0 -3.4 -0.5 -6.5 -1 -6.8 -3.7 -2.3 -1.6 15.7 2.4 20.9 2.4 3.2 2.6 4.2 2.6 14 0 6.4 0.4 10.6 1 10.6 0.6 0 1 -4.4 1 -11.2z m-170 -8.8 c0 -2.8 -0.2 -3 -4 -3 -3.8 0 -4 0.2 -4 3 0 2.8 0.2 3 4 3 3.8 0 4 -0.2 4 -3z m30 2.2 c0 -0.4 -0.7 -1.8 -1.6 -3 -1.3 -1.8 -2.4 -2.2 -7.2 -2.1 -5.1 0 -6 0.3 -8 3 l-2.4 2.9 9.6 0 c5.3 0 9.6 -0.3 9.6 -0.8z m23 -2.4 c0 -2.5 -0.3 -2.9 -1.2 -2 -0.7 0.7 -2.9 1.2 -5 1.2 -3.1 0 -3.8 0.4 -3.8 2 0 1.7 0.7 2 5 2 5 0 5 0 5 -3.2z m12 0.2 c0 -2.5 -0.4 -3 -2.5 -3 -2.1 0 -2.5 0.5 -2.5 3 0 2.5 0.4 3 2.5 3 2.1 0 2.5 -0.5 2.5 -3z m9 0 c0 -1.6 -0.4 -3 -1 -3 -0.5 0 -1 1.4 -1 3 0 1.7 0.5 3 1 3 0.6 0 1 -1.3 1 -3z m47 0 c0 -2.9 -0.2 -3 -4.5 -3 -4.3 0 -4.5 0.1 -4.5 3 0 2.9 0.2 3 4.5 3 4.3 0 4.5 -0.1 4.5 -3z m19.7 -1.7 c-0.3 -1 -0.5 -0.2 -0.5 1.7 0 1.9 0.2 2.7 0.5 1.8 0.2 -1 0.2 -2.6 0 -3.5z m24.1 2 c-0.2 -2.2 -0.9 -2.9 -2.9 -3.1 -2.3 -0.3 -2.5 0 -2.1 2.7 0.3 2.5 0.9 3.1 2.9 3.1 2.1 0 2.4 -0.4 2.1 -2.7z m23.2 1.9 c0 -0.4 -0.7 -1.8 -1.6 -3 -1.4 -2 -2.3 -2.3 -7.7 -2 -5.9 0.3 -6.2 0.4 -6.5 3.1 l-0.3 2.7 8 0 c4.5 0 8.1 -0.3 8.1 -0.8z m18 0 c0 -0.4 -0.7 -1.8 -1.6 -3 -1.2 -1.8 -2.5 -2.2 -6.4 -2.2 l-4.9 0 1 3 c1 2.8 1.4 3 6.5 3 3 0 5.4 -0.3 5.4 -0.8z m15 -2.2 c0 -2.9 -0.1 -3 -4.9 -3 l-5 0 1 3 c1 2.6 1.6 3 5 3 3.7 0 3.9 -0.2 3.9 -3z m-219.8 -20.5 l0.4 -3.5 -4.8 0 -4.8 0 0 3.5 c0 3.5 0 3.5 4.4 3.5 4.3 0 4.4 -0.1 4.8 -3.5z m28.6 1.3 c-0.2 -1.5 -1 -2.3 -2.3 -2.3 -1.3 0 -2.1 0.8 -2.3 2.3 -0.3 1.8 0.1 2.2 2.3 2.2 2.2 0 2.6 -0.4 2.3 -2.2z m24.2 -1.5 c0 -3.4 -0.1 -3.5 -1.7 -2 -1 0.8 -3.4 1.7 -5.3 1.9 -2.4 0.2 -3.6 0.9 -3.8 2.1 -0.3 1.4 0.5 1.7 5.2 1.7 l5.6 0 0 -3.7z m12 0.2 c0 -3.2 -0.2 -3.5 -3 -3.5 -2.8 0 -3 0.3 -3 3.5 0 3.2 0.2 3.5 3 3.5 2.8 0 3 -0.3 3 -3.5z m8 0 c0 -1.9 -0.4 -3.5 -1 -3.5 -0.5 0 -1 1.6 -1 3.5 0 1.9 0.5 3.5 1 3.5 0.6 0 1 -1.6 1 -3.5z m48.2 0 l0.4 -3.5 -5.3 0 -5.3 0 0 3.5 0 3.5 4.9 0 c4.8 0 4.9 0 5.3 -3.5z m20 0 c0.3 -2.4 0 -3.5 -0.9 -3.5 -0.8 0 -1.3 1.3 -1.3 3.5 0 1.9 0.4 3.5 0.9 3.5 0.5 0 1.1 -1.6 1.3 -3.5z m29.2 1.9 c1.4 -3.7 0.7 -5.4 -2.4 -5.4 -2.8 0 -3 0.3 -3 3.5 0 3 0.3 3.5 2.4 3.5 1.3 0 2.7 -0.7 3 -1.6z m16.4 -0.6 c-0.2 -1.5 -1 -2.3 -2.3 -2.3 -1.3 0 -2.1 0.8 -2.3 2.3 -0.3 1.8 0.1 2.2 2.3 2.2 2.2 0 2.6 -0.4 2.3 -2.2z m18 0 c-0.2 -1.5 -1 -2.3 -2.3 -2.3 -1.3 0 -2.1 0.8 -2.3 2.3 -0.3 1.8 0.1 2.2 2.3 2.2 2.2 0 2.6 -0.4 2.3 -2.2z m15.2 -1.3 l0 -3.5 -4.9 0 -4.9 0 1.1 3.5 c0.9 3.2 1.4 3.5 4.9 3.5 3.7 0 3.8 -0.1 3.8 -3.5z m-127.6 -0.7 c0.4 -2 0.3 -2.8 -0.7 -2.8 -0.9 0 -1.2 0.9 -0.9 3 0.5 3.6 0.7 3.5 1.6 -0.2z m-56.1 -0.8 c0.3 -1.2 0 -2 -0.8 -2 -0.8 0 -1.1 0.8 -0.8 2 0.3 1.1 0.7 2 0.8 2 0.1 0 0.5 -0.9 0.8 -2z"/>
  <path d="M117 58.2 c-0.8 -0.3 -1.8 -1 -2.2 -1.6 -0.4 -0.6 -0.8 -9.5 -0.8 -19.8 0 -17.5 0.1 -18.8 1.9 -19.8 1.1 -0.5 3.1 -1 4.6 -1 l2.5 0 -0.2 20.1 c-0.3 18.9 -0.4 20.2 -2.3 21.4 -1.1 0.7 -2.7 1 -3.5 0.7z m4 -18.2 c0 -2.5 -0.4 -3 -2.5 -3 -2.1 0 -2.5 0.5 -2.5 3 0 2.5 0.4 3 2.5 3 2.1 0 2.5 -0.5 2.5 -3z m0 -19.6 c0 -2.1 -0.4 -2.5 -2.2 -2.2 -1.5 0.2 -2.4 1.1 -2.6 2.6 -0.3 1.8 0.1 2.2 2.2 2.2 2.1 0 2.6 -0.5 2.6 -2.6z"/>
  <path d="M94 37.5 l0 -20.5 3.8 0 c2.1 0 4.3 0.5 5 1.2 0.8 0.8 1.2 6.5 1.2 18.8 0 19.7 -0.4 21 -6.8 21 l-3.2 0 0 -20.5z m8 2.5 c0 -2.5 -0.4 -3 -2.5 -3 -2.1 0 -2.5 0.5 -2.5 3 0 2.5 0.4 3 2.5 3 2.1 0 2.5 -0.5 2.5 -3z m-0.2 -18.7 c-0.2 -1.1 -1.4 -1.9 -3.1 -2.1 -2.2 -0.3 -2.7 0.1 -2.7 1.7 0 1.7 0.6 2.1 3.1 2.1 2.4 0 3 -0.4 2.7 -1.7z"/>
  <path d="M162 47 l0 -11 3 0 c5.1 0 7 2.9 7 11 0 8.1 -1.9 11 -7 11 l-3 0 0 -11z m7 -6 c0 -1.5 -0.7 -2 -2.5 -2 -1.8 0 -2.5 0.5 -2.5 2 0 1.5 0.7 2 2.5 2 1.8 0 2.5 -0.5 2.5 -2z"/>
 </g>
 <g fill="#de43a0">
  <path d="M4 38 l0 -34 118.5 0 118.5 0 0 34 0 34 -118.5 0 -118.5 0 0 -34z m233 26.4 l0 -3.6 -7.7 0.6 c-4.3 0.4 -9 0.6 -10.5 0.6 -5.7 -0.2 -13.4 -0.2 -16.8 -0.1 -2.7 0.1 -65.2 0.1 -83.5 0 -2.7 0 -33.2 0.1 -39.7 0.2 -8.9 0 -33.2 0 -35.5 -0.1 -1.6 -0.1 -10.1 -0.3 -19 -0.4 l-16.3 -0.4 0 3.4 0 3.4 114.5 0 114.5 0 0 -3.6z m-188.7 -6.2 c1.4 -1.2 1.7 -3.2 1.7 -10.6 l0 -9 -4.8 -4.5 c-5.5 -5.2 -7.2 -7.9 -7.2 -11.3 0 -3.4 2.7 -6.8 5.5 -6.8 3 0 4.5 2.6 4.5 7.9 0 2.3 0.5 4.1 1 4.1 0.6 0 1 -2.4 1 -5.4 0 -4.5 -0.4 -5.8 -2.2 -7 -3.1 -2.2 -6.8 -2 -9.5 0.6 -1.8 1.7 -2.3 3.2 -2.3 7.1 0 4.8 0.2 5.2 6 10.8 l6 5.7 0 8.1 c0 7 -0.3 8.2 -2.1 9.5 -4 2.8 -7.9 -0.5 -7.9 -6.6 0 -2.1 -0.4 -3.8 -1 -3.8 -1.3 0 -1.3 7.6 0.1 10.1 2.1 3.9 7.4 4.5 11.2 1.1z m36 -0.4 c1.5 -1.8 1.7 -4.5 1.7 -22.9 0 -13.3 -0.4 -20.9 -1 -20.9 -0.6 0 -1 7.4 -1 20.3 0 20.9 -0.3 22.7 -4.1 24 -0.9 0.3 -2.6 -0.1 -3.8 -0.9 -2 -1.5 -2.1 -2.3 -2.1 -22.5 0 -13.3 -0.4 -20.9 -1 -20.9 -1.4 0 -1.3 40.5 0.1 43.1 2.2 4.2 7.9 4.5 11.2 0.7z m39.2 0.1 c1.9 -1.8 2 -3.5 2.3 -22.9 l0.3 -21 -5.5 0 c-4.7 0 -5.7 0.4 -7.5 2.6 -1.9 2.5 -2.1 4 -2.1 20.1 0 13.4 0.3 18.1 1.5 20.3 2.3 4.4 7 4.8 11 0.9z m82.8 0.3 c1.4 -1.2 1.7 -3.2 1.7 -10.6 l0 -9 -4.8 -4.5 c-5.5 -5.2 -7.2 -7.9 -7.2 -11.3 0 -3.4 2.7 -6.8 5.5 -6.8 3 0 4.5 2.6 4.5 7.9 0 2.3 0.5 4.1 1 4.1 0.6 0 1 -2.4 1 -5.4 0 -4.5 -0.4 -5.8 -2.2 -7 -3.1 -2.2 -6.8 -2 -9.5 0.6 -1.8 1.7 -2.3 3.2 -2.3 7.1 0 4.8 0.2 5.2 6 10.8 l6 5.7 0 8.1 c0 7 -0.3 8.2 -2.1 9.5 -4 2.8 -7.9 -0.5 -7.9 -6.6 0 -2.1 -0.4 -3.8 -1 -3.8 -1.3 0 -1.3 7.6 0.1 10.1 2.1 3.9 7.4 4.5 11.2 1.1z m18 0 c1.4 -1.2 1.7 -3.2 1.7 -10.6 l0 -9 -4.8 -4.5 c-5.5 -5.2 -7.2 -7.9 -7.2 -11.3 0 -3.4 2.7 -6.8 5.5 -6.8 3 0 4.5 2.6 4.5 7.9 0 2.3 0.5 4.1 1 4.1 0.6 0 1 -2.4 1 -5.4 0 -4.5 -0.4 -5.8 -2.2 -7 -3.1 -2.2 -6.8 -2 -9.5 0.6 -1.8 1.7 -2.3 3.2 -2.3 7.1 0 4.8 0.2 5.2 6 10.8 l6 5.7 0 8.1 c0 7 -0.3 8.2 -2.1 9.5 -4 2.8 -7.9 -0.5 -7.9 -6.6 0 -2.1 -0.4 -3.8 -1 -3.8 -1.3 0 -1.3 7.6 0.1 10.1 2.1 3.9 7.4 4.5 11.2 1.1z m-203.3 -6.5 l0 -8.4 3.7 -2.4 c5.3 -3.5 7.4 -8.4 8.1 -18.6 l0.5 -8.6 -5.4 0.7 c-9.1 1.2 -8.9 0.8 -8.9 24.8 0 13.2 0.4 20.8 1 20.8 0.6 0 1 -3.4 1 -8.3z m46 7.3 c0 -0.5 -2.2 -1 -5 -1 l-5 0 0 -11 0 -11 5.1 0 c3.1 0 4.8 -0.4 4.4 -1 -0.3 -0.5 -2.6 -1 -5.1 -1 l-4.4 0 0 -6.8 c0 -8 1.2 -10 6 -10.4 1.9 -0.2 3.3 -0.7 3 -1.3 -0.7 -1.5 -7.2 -0.6 -9.2 1.2 -1.6 1.4 -1.8 3.9 -1.8 22.5 l0 20.8 6 0 c3.3 0 6 -0.4 6 -1z m37 -1 c1.9 -1.9 2 -3.3 2 -20.8 0 -21.7 0 -21.6 -8.8 -22.8 l-5.2 -0.7 0 23.2 0 23.1 5 0 c3.7 0 5.5 -0.5 7 -2z m38 -7.5 l0 -9.5 4.5 0 4.5 0 0 9.5 c0 7.8 0.3 9.5 1.5 9.5 1.3 0 1.5 -3 1.3 -22.7 l-0.3 -22.8 -4.9 0.3 c-8.6 0.4 -8.6 0.4 -8.6 24.4 0 13.2 0.4 20.8 1 20.8 0.6 0 1 -3.8 1 -9.5z m28.3 8.4 c1.2 -0.7 2.5 -1.7 2.9 -2.3 1.4 -2 0.9 -17 -0.6 -19.2 -1.2 -1.7 -1.2 -2.2 0 -3.9 1 -1.3 1.4 -4.7 1.4 -10.8 l0 -9 -5.2 0.7 c-8.9 1.2 -8.8 0.8 -8.8 24.8 l0 20.8 4.1 0 c2.2 0 5 -0.5 6.2 -1.1z m15.7 -10.1 c0 -8.8 0.3 -11.5 1.6 -12.9 0.9 -1 2.2 -3.5 3 -5.6 1.5 -4.4 1.9 -16.3 0.4 -16.3 -0.5 0 -1 1.8 -1 4 0 5.9 -1.9 13.7 -4 16.2 l-1.9 2.3 -2 -4.5 c-1.4 -3 -2.1 -6.6 -2.1 -10.7 0 -3.4 -0.5 -6.5 -1 -6.8 -3.7 -2.3 -1.6 15.7 2.4 20.9 2.4 3.2 2.6 4.2 2.6 14 0 6.4 0.4 10.6 1 10.6 0.6 0 1 -4.4 1 -11.2z m-170 -5.8 l0 -6 -4 0 -4 0 0 6 0 6 4 0 4 0 0 -6z m18.2 3.8 c0.4 -3.2 4.9 -3.2 6.3 0 0.6 1.3 1.8 2.2 3.2 2.2 2 0 2.3 -0.5 2.3 -3.8 0 -6.2 -2.1 -8.2 -8.6 -8.2 -4.9 0 -5.8 0.3 -8 2.9 -1.4 1.7 -3.4 3.3 -4.4 3.6 -1.3 0.4 -2 1.5 -2 3.1 0 2.2 0.3 2.4 5.4 2.4 4.9 0 5.5 -0.2 5.8 -2.2z m34.8 -4 c0 -4.8 -0.3 -5.9 -1.2 -5 -0.7 0.7 -2.9 1.2 -5 1.2 l-3.8 0 0 5 0 5 5 0 5 0 0 -6.2z m12 0.2 c0 -5.7 -0.1 -6 -2.5 -6 -2.4 0 -2.5 0.3 -2.5 6 0 5.7 0.1 6 2.5 6 2.4 0 2.5 -0.3 2.5 -6z m9 0 c0 -3.3 -0.4 -6 -1 -6 -0.6 0 -1 2.7 -1 6 0 3.3 0.4 6 1 6 0.6 0 1 -2.7 1 -6z m47 0 l0 -6 -4.5 0 -4.5 0 0 6 0 6 4.5 0 4.5 0 0 -6z m12 3 c0 -2.5 -0.4 -3 -2.5 -3 -2.1 0 -2.5 0.5 -2.5 3 0 2.5 0.4 3 2.5 3 2.1 0 2.5 -0.5 2.5 -3z m7.7 -6.2 c-0.2 -1.8 -0.4 -0.4 -0.4 3.2 0 3.6 0.2 5 0.4 3.3 0.2 -1.8 0.2 -4.8 0 -6.5z m24.1 3.5 c-0.3 -5.3 -0.5 -5.8 -2.8 -6.1 -2.5 -0.3 -2.5 -0.2 -2.2 5.8 0.4 5.6 0.5 6 2.8 6 2.4 0 2.5 -0.2 2.2 -5.7z m11.4 3.5 c0.2 -1.7 1 -2.3 2.8 -2.3 1.6 0 2.8 0.8 3.5 2.3 0.6 1.3 1.8 2.2 3.2 2.2 2 0 2.3 -0.5 2.3 -3.8 0 -2.1 -0.7 -4.8 -1.6 -6 -1.4 -2 -2.3 -2.3 -7.7 -2 l-6.2 0.3 -0.3 5.8 c-0.3 5.1 -0.1 5.7 1.7 5.7 1.3 0 2.1 -0.8 2.3 -2.2z m29.8 -1.6 c0 -5.9 -2.2 -8.2 -8 -8.2 l-4.8 0 1 3.5 c0.8 2.3 1.8 3.5 3.2 3.7 1.2 0.2 2.5 1.3 3.1 2.6 0.6 1.3 1.8 2.2 3.2 2.2 2 0 2.3 -0.5 2.3 -3.8z m15 -2.2 l0 -6 -5 0 c-4.9 0 -4.9 0 -4 2.6 0.6 1.4 1 4.1 1 6 0 3.3 0.1 3.4 4 3.4 l4 0 0 -6z m-219.8 -23.5 l0.4 -3.5 -4.8 0 -4.8 0 0 3.5 c0 3.5 0 3.5 4.4 3.5 4.3 0 4.4 -0.1 4.8 -3.5z m28.6 1.3 c-0.2 -1.5 -1 -2.3 -2.3 -2.3 -1.3 0 -2.1 0.8 -2.3 2.3 -0.3 1.8 0.1 2.2 2.3 2.2 2.2 0 2.6 -0.4 2.3 -2.2z m24.2 -1.5 c0 -3.4 -0.1 -3.5 -1.7 -2 -1 0.8 -3.4 1.7 -5.3 1.9 -2.4 0.2 -3.6 0.9 -3.8 2.1 -0.3 1.4 0.5 1.7 5.2 1.7 l5.6 0 0 -3.7z m12 0.2 c0 -3.2 -0.2 -3.5 -3 -3.5 -2.8 0 -3 0.3 -3 3.5 0 3.2 0.2 3.5 3 3.5 2.8 0 3 -0.3 3 -3.5z m8 0 c0 -1.9 -0.4 -3.5 -1 -3.5 -0.5 0 -1 1.6 -1 3.5 0 1.9 0.5 3.5 1 3.5 0.6 0 1 -1.6 1 -3.5z m48.2 0 l0.4 -3.5 -5.3 0 -5.3 0 0 3.5 0 3.5 4.9 0 c4.8 0 4.9 0 5.3 -3.5z m20 0 c0.3 -2.4 0 -3.5 -0.9 -3.5 -0.8 0 -1.3 1.3 -1.3 3.5 0 1.9 0.4 3.5 0.9 3.5 0.5 0 1.1 -1.6 1.3 -3.5z m29.2 1.9 c1.4 -3.7 0.7 -5.4 -2.4 -5.4 -2.8 0 -3 0.3 -3 3.5 0 3 0.3 3.5 2.4 3.5 1.3 0 2.7 -0.7 3 -1.6z m16.4 -0.6 c-0.2 -1.5 -1 -2.3 -2.3 -2.3 -1.3 0 -2.1 0.8 -2.3 2.3 -0.3 1.8 0.1 2.2 2.3 2.2 2.2 0 2.6 -0.4 2.3 -2.2z m18 0 c-0.2 -1.5 -1 -2.3 -2.3 -2.3 -1.3 0 -2.1 0.8 -2.3 2.3 -0.3 1.8 0.1 2.2 2.3 2.2 2.2 0 2.6 -0.4 2.3 -2.2z m15.2 -1.3 l0 -3.5 -4.9 0 -4.9 0 1.1 3.5 c0.9 3.2 1.4 3.5 4.9 3.5 3.7 0 3.8 -0.1 3.8 -3.5z m-127.6 -0.7 c0.4 -2 0.3 -2.8 -0.7 -2.8 -0.9 0 -1.2 0.9 -0.9 3 0.5 3.6 0.7 3.5 1.6 -0.2z m-56.1 -0.8 c0.3 -1.2 0 -2 -0.8 -2 -0.8 0 -1.1 0.8 -0.8 2 0.3 1.1 0.7 2 0.8 2 0.1 0 0.5 -0.9 0.8 -2z"/>
 </g>
 <g fill="#4483e2">
  <path d="M4 38 l0 -34 118.5 0 118.5 0 0 34 0 34 -118.5 0 -118.5 0 0 -34z m233 23.5 l0 -6.5 -4.5 0 c-3.1 0 -4.5 0.4 -4.5 1.3 0 1.9 -4.1 5.4 -7.1 6.2 -3 0.7 -8.7 -1.7 -9.6 -4.1 -0.5 -1.2 -1 -1.1 -3.2 1 -1.4 1.3 -3.8 2.8 -5.2 3.1 -3.4 0.8 -8.6 -1.8 -10.1 -5 -1.7 -3.7 -4.6 -3.2 -5 0.8 -0.3 2.8 -0.6 3.2 -3.3 3.2 -2.7 0 -3 -0.4 -3.3 -3.2 -0.3 -2.7 -0.8 -3.3 -2.7 -3.3 -1.5 0 -2.6 0.7 -3 2 -1 3 -5.7 5 -11.8 5 -5.7 0 -6.5 -0.6 -6.8 -5.3 -0.1 -1.3 -0.4 -0.7 -0.8 1.3 -0.5 3.1 -1 3.5 -3.6 3.5 -2.7 0 -3 -0.4 -3.3 -3.2 -0.3 -2.7 -0.8 -3.3 -2.7 -3.3 -1.9 0 -2.4 0.6 -2.7 3.3 -0.2 2.5 -0.8 3.3 -2.7 3.5 -2.6 0.4 -4.1 -1.2 -4.1 -4.5 0 -2.1 -0.5 -2.3 -4.8 -2.3 -4.2 0 -4.8 0.3 -6 2.9 -2.7 6.2 -12.6 6.1 -15.8 -0.1 l-1.6 -3 -1.8 3 c-2.1 3.4 -5.8 4.6 -12.5 4 -3.7 -0.3 -4 -0.5 -4.3 -3.5 -0.4 -4.1 -1.2 -4.1 -3.4 -0.3 -3.5 6.1 -11.6 6.2 -15.3 0.3 -1.9 -3 -2.3 -3.2 -7.5 -3.1 l-5.5 0.2 5 0.3 c5.8 0.5 7 1.3 6 4.2 -0.6 1.9 -1.4 2.1 -8.5 2.1 -7.1 0 -7.9 -0.2 -8.5 -2.1 l-0.7 -2.1 -2.1 2 c-4.7 4.4 -12.4 3.2 -14.9 -2.3 -1 -2.2 -1.8 -2.5 -6.4 -2.5 -5.2 0 -5.3 0 -5.6 3.3 -0.2 2.5 -0.8 3.3 -2.7 3.5 -2.6 0.4 -4.1 -1.2 -4.1 -4.5 0 -2 -0.5 -2.3 -4 -2.3 l-4 0 0 6.5 0 6.5 114.5 0 114.5 0 0 -6.5z m-188.7 -3.3 c1.4 -1.2 1.7 -3.2 1.7 -10.6 l0 -9 -4.8 -4.5 c-5.5 -5.2 -7.2 -7.9 -7.2 -11.3 0 -3.4 2.7 -6.8 5.5 -6.8 3 0 4.5 2.6 4.5 7.9 0 2.3 0.5 4.1 1 4.1 0.6 0 1 -2.4 1 -5.4 0 -4.5 -0.4 -5.8 -2.2 -7 -3.1 -2.2 -6.8 -2 -9.5 0.6 -1.8 1.7 -2.3 3.2 -2.3 7.1 0 4.8 0.2 5.2 6 10.8 l6 5.7 0 8.1 c0 7 -0.3 8.2 -2.1 9.5 -4 2.8 -7.9 -0.5 -7.9 -6.6 0 -2.1 -0.4 -3.8 -1 -3.8 -1.3 0 -1.3 7.6 0.1 10.1 2.1 3.9 7.4 4.5 11.2 1.1z m36 -0.4 c1.5 -1.8 1.7 -4.5 1.7 -22.9 0 -13.3 -0.4 -20.9 -1 -20.9 -0.6 0 -1 7.4 -1 20.3 0 20.9 -0.3 22.7 -4.1 24 -0.9 0.3 -2.6 -0.1 -3.8 -0.9 -2 -1.5 -2.1 -2.3 -2.1 -22.5 0 -13.3 -0.4 -20.9 -1 -20.9 -1.4 0 -1.3 40.5 0.1 43.1 2.2 4.2 7.9 4.5 11.2 0.7z m39.2 0.1 c1.9 -1.8 2 -3.5 2.3 -22.9 l0.3 -21 -5.5 0 c-4.7 0 -5.7 0.4 -7.5 2.6 -1.9 2.5 -2.1 4 -2.1 20.1 0 13.4 0.3 18.1 1.5 20.3 2.3 4.4 7 4.8 11 0.9z m82.8 0.3 c1.4 -1.2 1.7 -3.2 1.7 -10.6 l0 -9 -4.8 -4.5 c-5.5 -5.2 -7.2 -7.9 -7.2 -11.3 0 -3.4 2.7 -6.8 5.5 -6.8 3 0 4.5 2.6 4.5 7.9 0 2.3 0.5 4.1 1 4.1 0.6 0 1 -2.4 1 -5.4 0 -4.5 -0.4 -5.8 -2.2 -7 -3.1 -2.2 -6.8 -2 -9.5 0.6 -1.8 1.7 -2.3 3.2 -2.3 7.1 0 4.8 0.2 5.2 6 10.8 l6 5.7 0 8.1 c0 7 -0.3 8.2 -2.1 9.5 -4 2.8 -7.9 -0.5 -7.9 -6.6 0 -2.1 -0.4 -3.8 -1 -3.8 -1.3 0 -1.3 7.6 0.1 10.1 2.1 3.9 7.4 4.5 11.2 1.1z m18 0 c1.4 -1.2 1.7 -3.2 1.7 -10.6 l0 -9 -4.8 -4.5 c-5.5 -5.2 -7.2 -7.9 -7.2 -11.3 0 -3.4 2.7 -6.8 5.5 -6.8 3 0 4.5 2.6 4.5 7.9 0 2.3 0.5 4.1 1 4.1 0.6 0 1 -2.4 1 -5.4 0 -4.5 -0.4 -5.8 -2.2 -7 -3.1 -2.2 -6.8 -2 -9.5 0.6 -1.8 1.7 -2.3 3.2 -2.3 7.1 0 4.8 0.2 5.2 6 10.8 l6 5.7 0 8.1 c0 7 -0.3 8.2 -2.1 9.5 -4 2.8 -7.9 -0.5 -7.9 -6.6 0 -2.1 -0.4 -3.8 -1 -3.8 -1.3 0 -1.3 7.6 0.1 10.1 2.1 3.9 7.4 4.5 11.2 1.1z m-203.3 -6.5 l0 -8.4 3.7 -2.4 c5.3 -3.5 7.4 -8.4 8.1 -18.6 l0.5 -8.6 -5.4 0.7 c-9.1 1.2 -8.9 0.8 -8.9 24.8 0 13.2 0.4 20.8 1 20.8 0.6 0 1 -3.4 1 -8.3z m46 7.3 c0 -0.5 -2.2 -1 -5 -1 l-5 0 0 -11 0 -11 5.1 0 c3.1 0 4.8 -0.4 4.4 -1 -0.3 -0.5 -2.6 -1 -5.1 -1 l-4.4 0 0 -6.8 c0 -8 1.2 -10 6 -10.4 1.9 -0.2 3.3 -0.7 3 -1.3 -0.7 -1.5 -7.2 -0.6 -9.2 1.2 -1.6 1.4 -1.8 3.9 -1.8 22.5 l0 20.8 6 0 c3.3 0 6 -0.4 6 -1z m37 -1 c1.9 -1.9 2 -3.3 2 -20.8 0 -21.7 0 -21.6 -8.8 -22.8 l-5.2 -0.7 0 23.2 0 23.1 5 0 c3.7 0 5.5 -0.5 7 -2z m38 -7.5 l0 -9.5 4.5 0 4.5 0 0 9.5 c0 7.8 0.3 9.5 1.5 9.5 1.3 0 1.5 -3 1.3 -22.7 l-0.3 -22.8 -4.9 0.3 c-8.6 0.4 -8.6 0.4 -8.6 24.4 0 13.2 0.4 20.8 1 20.8 0.6 0 1 -3.8 1 -9.5z m28.3 8.4 c1.2 -0.7 2.5 -1.7 2.9 -2.3 1.4 -2 0.9 -17 -0.6 -19.2 -1.2 -1.7 -1.2 -2.2 0 -3.9 1 -1.3 1.4 -4.7 1.4 -10.8 l0 -9 -5.2 0.7 c-8.9 1.2 -8.8 0.8 -8.8 24.8 l0 20.8 4.1 0 c2.2 0 5 -0.5 6.2 -1.1z m15.7 -10.1 c0 -8.8 0.3 -11.5 1.6 -12.9 0.9 -1 2.2 -3.5 3 -5.6 1.5 -4.4 1.9 -16.3 0.4 -16.3 -0.5 0 -1 1.8 -1 4 0 5.9 -1.9 13.7 -4 16.2 l-1.9 2.3 -2 -4.5 c-1.4 -3 -2.1 -6.6 -2.1 -10.7 0 -3.4 -0.5 -6.5 -1 -6.8 -3.7 -2.3 -1.6 15.7 2.4 20.9 2.4 3.2 2.6 4.2 2.6 14 0 6.4 0.4 10.6 1 10.6 0.6 0 1 -4.4 1 -11.2z m-170 -5.8 l0 -6 -4 0 -4 0 0 6 0 6 4 0 4 0 0 -6z m18.2 3.8 c0.4 -3.2 4.9 -3.2 6.3 0 0.6 1.3 1.8 2.2 3.2 2.2 2 0 2.3 -0.5 2.3 -3.8 0 -6.2 -2.1 -8.2 -8.6 -8.2 -4.9 0 -5.8 0.3 -8 2.9 -1.4 1.7 -3.4 3.3 -4.4 3.6 -1.3 0.4 -2 1.5 -2 3.1 0 2.2 0.3 2.4 5.4 2.4 4.9 0 5.5 -0.2 5.8 -2.2z m34.8 -4 c0 -4.8 -0.3 -5.9 -1.2 -5 -0.7 0.7 -2.9 1.2 -5 1.2 l-3.8 0 0 5 0 5 5 0 5 0 0 -6.2z m12 0.2 c0 -5.7 -0.1 -6 -2.5 -6 -2.4 0 -2.5 0.3 -2.5 6 0 5.7 0.1 6 2.5 6 2.4 0 2.5 -0.3 2.5 -6z m9 0 c0 -3.3 -0.4 -6 -1 -6 -0.6 0 -1 2.7 -1 6 0 3.3 0.4 6 1 6 0.6 0 1 -2.7 1 -6z m47 0 l0 -6 -4.5 0 -4.5 0 0 6 0 6 4.5 0 4.5 0 0 -6z m12 3 c0 -2.5 -0.4 -3 -2.5 -3 -2.1 0 -2.5 0.5 -2.5 3 0 2.5 0.4 3 2.5 3 2.1 0 2.5 -0.5 2.5 -3z m7.7 -6.2 c-0.2 -1.8 -0.4 -0.4 -0.4 3.2 0 3.6 0.2 5 0.4 3.3 0.2 -1.8 0.2 -4.8 0 -6.5z m24.1 3.5 c-0.3 -5.3 -0.5 -5.8 -2.8 -6.1 -2.5 -0.3 -2.5 -0.2 -2.2 5.8 0.4 5.6 0.5 6 2.8 6 2.4 0 2.5 -0.2 2.2 -5.7z m11.4 3.5 c0.2 -1.7 1 -2.3 2.8 -2.3 1.6 0 2.8 0.8 3.5 2.3 0.6 1.3 1.8 2.2 3.2 2.2 2 0 2.3 -0.5 2.3 -3.8 0 -2.1 -0.7 -4.8 -1.6 -6 -1.4 -2 -2.3 -2.3 -7.7 -2 l-6.2 0.3 -0.3 5.8 c-0.3 5.1 -0.1 5.7 1.7 5.7 1.3 0 2.1 -0.8 2.3 -2.2z m29.8 -1.6 c0 -5.9 -2.2 -8.2 -8 -8.2 l-4.8 0 1 3.5 c0.8 2.3 1.8 3.5 3.2 3.7 1.2 0.2 2.5 1.3 3.1 2.6 0.6 1.3 1.8 2.2 3.2 2.2 2 0 2.3 -0.5 2.3 -3.8z m15 -2.2 l0 -6 -5 0 c-4.9 0 -4.9 0 -4 2.6 0.6 1.4 1 4.1 1 6 0 3.3 0.1 3.4 4 3.4 l4 0 0 -6z m-219.8 -23.5 l0.4 -3.5 -4.8 0 -4.8 0 0 3.5 c0 3.5 0 3.5 4.4 3.5 4.3 0 4.4 -0.1 4.8 -3.5z m28.6 1.3 c-0.2 -1.5 -1 -2.3 -2.3 -2.3 -1.3 0 -2.1 0.8 -2.3 2.3 -0.3 1.8 0.1 2.2 2.3 2.2 2.2 0 2.6 -0.4 2.3 -2.2z m24.2 -1.5 c0 -3.4 -0.1 -3.5 -1.7 -2 -1 0.8 -3.4 1.7 -5.3 1.9 -2.4 0.2 -3.6 0.9 -3.8 2.1 -0.3 1.4 0.5 1.7 5.2 1.7 l5.6 0 0 -3.7z m12 0.2 c0 -3.2 -0.2 -3.5 -3 -3.5 -2.8 0 -3 0.3 -3 3.5 0 3.2 0.2 3.5 3 3.5 2.8 0 3 -0.3 3 -3.5z m8 0 c0 -1.9 -0.4 -3.5 -1 -3.5 -0.5 0 -1 1.6 -1 3.5 0 1.9 0.5 3.5 1 3.5 0.6 0 1 -1.6 1 -3.5z m48.2 0 l0.4 -3.5 -5.3 0 -5.3 0 0 3.5 0 3.5 4.9 0 c4.8 0 4.9 0 5.3 -3.5z m20 0 c0.3 -2.4 0 -3.5 -0.9 -3.5 -0.8 0 -1.3 1.3 -1.3 3.5 0 1.9 0.4 3.5 0.9 3.5 0.5 0 1.1 -1.6 1.3 -3.5z m29.2 1.9 c1.4 -3.7 0.7 -5.4 -2.4 -5.4 -2.8 0 -3 0.3 -3 3.5 0 3 0.3 3.5 2.4 3.5 1.3 0 2.7 -0.7 3 -1.6z m16.4 -0.6 c-0.2 -1.5 -1 -2.3 -2.3 -2.3 -1.3 0 -2.1 0.8 -2.3 2.3 -0.3 1.8 0.1 2.2 2.3 2.2 2.2 0 2.6 -0.4 2.3 -2.2z m18 0 c-0.2 -1.5 -1 -2.3 -2.3 -2.3 -1.3 0 -2.1 0.8 -2.3 2.3 -0.3 1.8 0.1 2.2 2.3 2.2 2.2 0 2.6 -0.4 2.3 -2.2z m15.2 -1.3 l0 -3.5 -4.9 0 -4.9 0 1.1 3.5 c0.9 3.2 1.4 3.5 4.9 3.5 3.7 0 3.8 -0.1 3.8 -3.5z m-127.6 -0.7 c0.4 -2 0.3 -2.8 -0.7 -2.8 -0.9 0 -1.2 0.9 -0.9 3 0.5 3.6 0.7 3.5 1.6 -0.2z m-56.1 -0.8 c0.3 -1.2 0 -2 -0.8 -2 -0.8 0 -1.1 0.8 -0.8 2 0.3 1.1 0.7 2 0.8 2 0.1 0 0.5 -0.9 0.8 -2z"/>
 </g>
 <g fill="#44e283">
  <path d="M4 38 l0 -34 118.5 0 118.5 0 0 34 0 34 -118.5 0 -118.5 0 0 -34z m233 23.5 l0 -6.5 -4.5 0 c-3.1 0 -4.5 0.4 -4.5 1.3 0 1.9 -4.1 5.4 -7.1 6.2 -3 0.7 -8.7 -1.7 -9.6 -4.1 -0.5 -1.2 -1 -1.1 -3.2 1 -1.4 1.3 -3.8 2.8 -5.2 3.1 -3.4 0.8 -8.6 -1.8 -10.1 -5 -1.7 -3.7 -4.6 -3.2 -5 0.8 -0.3 2.8 -0.6 3.2 -3.3 3.2 -2.7 0 -3 -0.4 -3.3 -3.2 -0.3 -2.7 -0.8 -3.3 -2.7 -3.3 -1.5 0 -2.6 0.7 -3 2 -1 3 -5.7 5 -11.8 5 -5.7 0 -6.5 -0.6 -6.8 -5.3 -0.1 -1.3 -0.4 -0.7 -0.8 1.3 -0.5 3.1 -1 3.5 -3.6 3.5 -2.7 0 -3 -0.4 -3.3 -3.2 -0.3 -2.7 -0.8 -3.3 -2.7 -3.3 -1.9 0 -2.4 0.6 -2.7 3.3 -0.2 2.5 -0.8 3.3 -2.7 3.5 -2.6 0.4 -4.1 -1.2 -4.1 -4.5 0 -2.1 -0.5 -2.3 -4.8 -2.3 -4.2 0 -4.8 0.3 -6 2.9 -2.7 6.2 -12.6 6.1 -15.8 -0.1 l-1.6 -3 -1.8 3 c-2.1 3.4 -5.8 4.6 -12.5 4 -3.7 -0.3 -4 -0.5 -4.3 -3.5 -0.4 -4.1 -1.2 -4.1 -3.4 -0.3 -3.5 6.1 -11.6 6.2 -15.3 0.3 -1.9 -3 -2.3 -3.2 -7.5 -3.1 l-5.5 0.2 5 0.3 c5.8 0.5 7 1.3 6 4.2 -0.6 1.9 -1.4 2.1 -8.5 2.1 -7.1 0 -7.9 -0.2 -8.5 -2.1 l-0.7 -2.1 -2.1 2 c-4.7 4.4 -12.4 3.2 -14.9 -2.3 -1 -2.2 -1.8 -2.5 -6.4 -2.5 -5.2 0 -5.3 0 -5.6 3.3 -0.2 2.5 -0.8 3.3 -2.7 3.5 -2.6 0.4 -4.1 -1.2 -4.1 -4.5 0 -2 -0.5 -2.3 -4 -2.3 l-4 0 0 6.5 0 6.5 114.5 0 114.5 0 0 -6.5z m-188.7 -3.3 c1.4 -1.2 1.7 -3.2 1.7 -10.6 l0 -9 -4.8 -4.5 c-5.5 -5.2 -7.2 -7.9 -7.2 -11.3 0 -3.4 2.7 -6.8 5.5 -6.8 3 0 4.5 2.6 4.5 7.9 0 2.3 0.5 4.1 1 4.1 0.6 0 1 -2.4 1 -5.4 0 -4.5 -0.4 -5.8 -2.2 -7 -3.1 -2.2 -6.8 -2 -9.5 0.6 -1.8 1.7 -2.3 3.2 -2.3 7.1 0 4.8 0.2 5.2 6 10.8 l6 5.7 0 8.1 c0 7 -0.3 8.2 -2.1 9.5 -4 2.8 -7.9 -0.5 -7.9 -6.6 0 -2.1 -0.4 -3.8 -1 -3.8 -1.3 0 -1.3 7.6 0.1 10.1 2.1 3.9 7.4 4.5 11.2 1.1z m36 -0.4 c1.5 -1.8 1.7 -4.5 1.7 -22.9 0 -13.3 -0.4 -20.9 -1 -20.9 -0.6 0 -1 7.4 -1 20.3 0 20.9 -0.3 22.7 -4.1 24 -0.9 0.3 -2.6 -0.1 -3.8 -0.9 -2 -1.5 -2.1 -2.3 -2.1 -22.5 0 -13.3 -0.4 -20.9 -1 -20.9 -1.4 0 -1.3 40.5 0.1 43.1 2.2 4.2 7.9 4.5 11.2 0.7z m39.2 0.1 c1.9 -1.8 2 -3.5 2.3 -22.9 l0.3 -21 -5.5 0 c-4.7 0 -5.7 0.4 -7.5 2.6 -1.9 2.5 -2.1 4 -2.1 20.1 0 13.4 0.3 18.1 1.5 20.3 2.3 4.4 7 4.8 11 0.9z m82.8 0.3 c1.4 -1.2 1.7 -3.2 1.7 -10.6 l0 -9 -4.8 -4.5 c-5.5 -5.2 -7.2 -7.9 -7.2 -11.3 0 -3.4 2.7 -6.8 5.5 -6.8 3 0 4.5 2.6 4.5 7.9 0 2.3 0.5 4.1 1 4.1 0.6 0 1 -2.4 1 -5.4 0 -4.5 -0.4 -5.8 -2.2 -7 -3.1 -2.2 -6.8 -2 -9.5 0.6 -1.8 1.7 -2.3 3.2 -2.3 7.1 0 4.8 0.2 5.2 6 10.8 l6 5.7 0 8.1 c0 7 -0.3 8.2 -2.1 9.5 -4 2.8 -7.9 -0.5 -7.9 -6.6 0 -2.1 -0.4 -3.8 -1 -3.8 -1.3 0 -1.3 7.6 0.1 10.1 2.1 3.9 7.4 4.5 11.2 1.1z m18 0 c1.4 -1.2 1.7 -3.2 1.7 -10.6 l0 -9 -4.8 -4.5 c-5.5 -5.2 -7.2 -7.9 -7.2 -11.3 0 -3.4 2.7 -6.8 5.5 -6.8 3 0 4.5 2.6 4.5 7.9 0 2.3 0.5 4.1 1 4.1 0.6 0 1 -2.4 1 -5.4 0 -4.5 -0.4 -5.8 -2.2 -7 -3.1 -2.2 -6.8 -2 -9.5 0.6 -1.8 1.7 -2.3 3.2 -2.3 7.1 0 4.8 0.2 5.2 6 10.8 l6 5.7 0 8.1 c0 7 -0.3 8.2 -2.1 9.5 -4 2.8 -7.9 -0.5 -7.9 -6.6 0 -2.1 -0.4 -3.8 -1 -3.8 -1.3 0 -1.3 7.6 0.1 10.1 2.1 3.9 7.4 4.5 11.2 1.1z m-203.3 -6.5 l0 -8.4 3.7 -2.4 c5.3 -3.5 7.4 -8.4 8.1 -18.6 l0.5 -8.6 -5.4 0.7 c-9.1 1.2 -8.9 0.8 -8.9 24.8 0 13.2 0.4 20.8 1 20.8 0.6 0 1 -3.4 1 -8.3z m46 7.3 c0 -0.5 -2.2 -1 -5 -1 l-5 0 0 -11 0 -11 5.1 0 c3.1 0 4.8 -0.4 4.4 -1 -0.3 -0.5 -2.6 -1 -5.1 -1 l-4.4 0 0 -6.8 c0 -8 1.2 -10 6 -10.4 1.9 -0.2 3.3 -0.7 3 -1.3 -0.7 -1.5 -7.2 -0.6 -9.2 1.2 -1.6 1.4 -1.8 3.9 -1.8 22.5 l0 20.8 6 0 c3.3 0 6 -0.4 6 -1z m37 -1 c1.9 -1.9 2 -3.3 2 -20.8 0 -21.7 0 -21.6 -8.8 -22.8 l-5.2 -0.7 0 23.2 0 23.1 5 0 c3.7 0 5.5 -0.5 7 -2z m38 -7.5 l0 -9.5 4.5 0 4.5 0 0 9.5 c0 7.8 0.3 9.5 1.5 9.5 1.3 0 1.5 -3 1.3 -22.7 l-0.3 -22.8 -4.9 0.3 c-8.6 0.4 -8.6 0.4 -8.6 24.4 0 13.2 0.4 20.8 1 20.8 0.6 0 1 -3.8 1 -9.5z m28.3 8.4 c1.2 -0.7 2.5 -1.7 2.9 -2.3 1.4 -2 0.9 -17 -0.6 -19.2 -1.2 -1.7 -1.2 -2.2 0 -3.9 1 -1.3 1.4 -4.7 1.4 -10.8 l0 -9 -5.2 0.7 c-8.9 1.2 -8.8 0.8 -8.8 24.8 l0 20.8 4.1 0 c2.2 0 5 -0.5 6.2 -1.1z m15.7 -10.1 c0 -8.8 0.3 -11.5 1.6 -12.9 0.9 -1 2.2 -3.5 3 -5.6 1.5 -4.4 1.9 -16.3 0.4 -16.3 -0.5 0 -1 1.8 -1 4 0 5.9 -1.9 13.7 -4 16.2 l-1.9 2.3 -2 -4.5 c-1.4 -3 -2.1 -6.6 -2.1 -10.7 0 -3.4 -0.5 -6.5 -1 -6.8 -3.7 -2.3 -1.6 15.7 2.4 20.9 2.4 3.2 2.6 4.2 2.6 14 0 6.4 0.4 10.6 1 10.6 0.6 0 1 -4.4 1 -11.2z m-170 -5.8 l0 -6 -4 0 -4 0 0 6 0 6 4 0 4 0 0 -6z m18.2 3.8 c0.4 -3.2 4.9 -3.2 6.3 0 0.6 1.3 1.8 2.2 3.2 2.2 2 0 2.3 -0.5 2.3 -3.8 0 -6.2 -2.1 -8.2 -8.6 -8.2 -4.9 0 -5.8 0.3 -8 2.9 -1.4 1.7 -3.4 3.3 -4.4 3.6 -1.3 0.4 -2 1.5 -2 3.1 0 2.2 0.3 2.4 5.4 2.4 4.9 0 5.5 -0.2 5.8 -2.2z m34.8 -4 c0 -4.8 -0.3 -5.9 -1.2 -5 -0.7 0.7 -2.9 1.2 -5 1.2 l-3.8 0 0 5 0 5 5 0 5 0 0 -6.2z m12 0.2 c0 -5.7 -0.1 -6 -2.5 -6 -2.4 0 -2.5 0.3 -2.5 6 0 5.7 0.1 6 2.5 6 2.4 0 2.5 -0.3 2.5 -6z m9 0 c0 -3.3 -0.4 -6 -1 -6 -0.6 0 -1 2.7 -1 6 0 3.3 0.4 6 1 6 0.6 0 1 -2.7 1 -6z m47 0 l0 -6 -4.5 0 -4.5 0 0 6 0 6 4.5 0 4.5 0 0 -6z m12 3 c0 -2.5 -0.4 -3 -2.5 -3 -2.1 0 -2.5 0.5 -2.5 3 0 2.5 0.4 3 2.5 3 2.1 0 2.5 -0.5 2.5 -3z m7.7 -6.2 c-0.2 -1.8 -0.4 -0.4 -0.4 3.2 0 3.6 0.2 5 0.4 3.3 0.2 -1.8 0.2 -4.8 0 -6.5z m24.1 3.5 c-0.3 -5.3 -0.5 -5.8 -2.8 -6.1 -2.5 -0.3 -2.5 -0.2 -2.2 5.8 0.4 5.6 0.5 6 2.8 6 2.4 0 2.5 -0.2 2.2 -5.7z m11.4 3.5 c0.2 -1.7 1 -2.3 2.8 -2.3 1.6 0 2.8 0.8 3.5 2.3 0.6 1.3 1.8 2.2 3.2 2.2 2 0 2.3 -0.5 2.3 -3.8 0 -2.1 -0.7 -4.8 -1.6 -6 -1.4 -2 -2.3 -2.3 -7.7 -2 l-6.2 0.3 -0.3 5.8 c-0.3 5.1 -0.1 5.7 1.7 5.7 1.3 0 2.1 -0.8 2.3 -2.2z m29.8 -1.6 c0 -5.9 -2.2 -8.2 -8 -8.2 l-4.8 0 1 3.5 c0.8 2.3 1.8 3.5 3.2 3.7 1.2 0.2 2.5 1.3 3.1 2.6 0.6 1.3 1.8 2.2 3.2 2.2 2 0 2.3 -0.5 2.3 -3.8z m15 -2.2 l0 -6 -5 0 c-4.9 0 -4.9 0 -4 2.6 0.6 1.4 1 4.1 1 6 0 3.3 0.1 3.4 4 3.4 l4 0 0 -6z m-220 -22.8 c0 -4.6 4 -7.5 11 -8 4.8 -0.4 6.1 -0.1 6.6 1.2 0.5 1.4 0.8 1.4 2.7 0.1 3.4 -2.4 9.4 -1.9 12.2 1 1.4 1.3 2.5 3.2 2.5 4.2 0.1 1.1 0.6 0.6 1.4 -1.3 0.9 -2 2.5 -3.5 4.6 -4.3 4 -1.4 9.7 -1.4 10.5 -0.1 0.4 0.6 1.3 0.5 2.4 -0.2 3.4 -2.1 5.1 -0.3 5.1 5.2 0 4.9 0 5 3.1 5 3 0 3.1 0 2.7 -4.6 -0.3 -5 1.4 -7.3 4.6 -6.1 1.2 0.5 1.6 1.9 1.6 5.7 0 6.6 1.8 6.5 2.2 -0.2 0.3 -5.2 0.3 -5.3 3.7 -5.6 8.2 -0.8 14.1 2.3 14.1 7.6 0.1 2.4 0.2 2.3 1.5 -1.3 2 -5.6 3.8 -6.6 11.5 -6.3 l6.5 0.3 0.3 5.3 0.3 5.2 5 0 c4.8 0 4.9 -0.1 4.9 -3 0 -5.3 5.9 -8.6 14.1 -7.8 3.4 0.3 3.4 0.4 3.7 5.6 0.3 5.5 2.2 7.4 2.2 2.2 0 -6 5 -8.3 17 -7.8 l6.5 0.3 0.3 5.3 c0.3 4.8 0.5 5.2 2.7 5.2 2.6 0 3.8 -2.5 3.3 -6.9 -0.4 -3.1 2.5 -5 5 -3.4 1.2 0.7 2.4 0.8 3.3 0.2 0.8 -0.5 3.1 -0.9 5.2 -0.9 3.1 0 4.5 0.7 6.8 3.1 1.9 2.1 2.9 2.6 2.9 1.6 0 -4.1 9.4 -6.2 13.7 -3.2 1.3 0.9 2.8 3.4 3.4 5.5 1.1 3.8 1.4 4 5.1 4 l3.8 0 0 -7.5 0 -7.5 -114.5 0 -114.5 0 0 7.5 0 7.5 4.5 0 c4.3 0 4.5 -0.1 4.5 -2.8z m28.8 0.6 c-0.2 -1.5 -1 -2.3 -2.3 -2.3 -1.3 0 -2.1 0.8 -2.3 2.3 -0.3 1.8 0.1 2.2 2.3 2.2 2.2 0 2.6 -0.4 2.3 -2.2z m24.2 -1.5 c0 -3.4 -0.1 -3.5 -1.7 -2 -1 0.8 -3.4 1.7 -5.3 1.9 -2.4 0.2 -3.6 0.9 -3.8 2.1 -0.3 1.4 0.5 1.7 5.2 1.7 l5.6 0 0 -3.7z m133.8 1.5 c-0.2 -1.5 -1 -2.3 -2.3 -2.3 -1.3 0 -2.1 0.8 -2.3 2.3 -0.3 1.8 0.1 2.2 2.3 2.2 2.2 0 2.6 -0.4 2.3 -2.2z m18 0 c-0.2 -1.5 -1 -2.3 -2.3 -2.3 -1.3 0 -2.1 0.8 -2.3 2.3 -0.3 1.8 0.1 2.2 2.3 2.2 2.2 0 2.6 -0.4 2.3 -2.2z"/>
  <path d="M117 58.2 c-0.8 -0.3 -1.8 -1 -2.2 -1.6 -0.4 -0.6 -0.8 -9.5 -0.8 -19.8 0 -17.5 0.1 -18.8 1.9 -19.8 1.1 -0.5 3.1 -1 4.6 -1 l2.5 0 -0.2 20.1 c-0.3 18.9 -0.4 20.2 -2.3 21.4 -1.1 0.7 -2.7 1 -3.5 0.7z m4 -15.2 c0 -5.7 -0.1 -6 -2.5 -6 -2.4 0 -2.5 0.3 -2.5 6 0 5.7 0.1 6 2.5 6 2.4 0 2.5 -0.3 2.5 -6z m0 -22.6 c0 -2.1 -0.4 -2.5 -2.2 -2.2 -1.5 0.2 -2.4 1.1 -2.6 2.6 -0.3 1.8 0.1 2.2 2.2 2.2 2.1 0 2.6 -0.5 2.6 -2.6z"/>
  <path d="M21 30.4 c0 -11.8 0.7 -13.4 6.2 -13.4 l4.1 0 -0.7 6.6 c-0.9 9.1 -5 16.4 -9 16.4 -0.3 0 -0.6 -4.3 -0.6 -9.6z m8 -9.5 c0 -1.6 -0.5 -2 -2.7 -1.7 -1.7 0.2 -2.9 1 -3.1 2.1 -0.3 1.3 0.3 1.7 2.7 1.7 2.5 0 3.1 -0.4 3.1 -2.1z"/>
  <path d="M94 37.5 l0 -20.5 3.8 0 c2.1 0 4.3 0.5 5 1.2 0.8 0.8 1.2 6.5 1.2 18.8 0 19.7 -0.4 21 -6.8 21 l-3.2 0 0 -20.5z m8 5.5 c0 -5.7 -0.1 -6 -2.5 -6 -2.4 0 -2.5 0.3 -2.5 6 0 5.7 0.1 6 2.5 6 2.4 0 2.5 -0.3 2.5 -6z m-0.2 -21.7 c-0.2 -1.1 -1.4 -1.9 -3.1 -2.1 -2.2 -0.3 -2.7 0.1 -2.7 1.7 0 1.7 0.6 2.1 3.1 2.1 2.4 0 3 -0.4 2.7 -1.7z"/>
  <path d="M142 29.9 c0 -10.9 0.8 -12.9 5.5 -12.9 l3.5 0 0 11 0 11 -4.5 0 -4.5 0 0 -9.1z m7 -9 c0 -1.5 -0.5 -2 -2.2 -1.7 -3.4 0.5 -3.7 3.8 -0.4 3.8 2 0 2.6 -0.5 2.6 -2.1z"/>
  <path d="M162 27.4 c0 -8.7 1 -10.4 6 -10.4 l4 0 0 5.9 c0 9.1 -1.1 11.1 -6 11.1 l-4 0 0 -6.6z m8 -6.5 c0 -1.6 -0.5 -2 -2.7 -1.7 -1.7 0.2 -2.9 1 -3.1 2.1 -0.3 1.3 0.3 1.7 2.7 1.7 2.5 0 3.1 -0.4 3.1 -2.1z"/>
 </g>
 <g fill="#63e144">
  <path d="M4 38 l0 -34 118.5 0 118.5 0 0 34 0 34 -118.5 0 -118.5 0 0 -34z m233 23.5 l0 -6.5 -4.5 0 c-3.1 0 -4.5 0.4 -4.5 1.3 0 1.9 -4.1 5.4 -7.1 6.2 -3 0.7 -8.7 -1.7 -9.6 -4.1 -0.5 -1.2 -1 -1.1 -3.2 1 -1.4 1.3 -3.8 2.8 -5.2 3.1 -3.4 0.8 -8.6 -1.8 -10.1 -5 -1.7 -3.7 -4.6 -3.2 -5 0.8 -0.3 2.8 -0.6 3.2 -3.3 3.2 -2.7 0 -3 -0.4 -3.3 -3.2 -0.3 -2.7 -0.8 -3.3 -2.7 -3.3 -1.5 0 -2.6 0.7 -3 2 -1 3 -5.7 5 -11.8 5 -5.7 0 -6.5 -0.6 -6.8 -5.3 -0.1 -1.3 -0.4 -0.7 -0.8 1.3 -0.5 3.1 -1 3.5 -3.6 3.5 -2.7 0 -3 -0.4 -3.3 -3.2 -0.3 -2.7 -0.8 -3.3 -2.7 -3.3 -1.9 0 -2.4 0.6 -2.7 3.3 -0.2 2.5 -0.8 3.3 -2.7 3.5 -2.6 0.4 -4.1 -1.2 -4.1 -4.5 0 -2.1 -0.5 -2.3 -4.8 -2.3 -4.2 0 -4.8 0.3 -6 2.9 -2.7 6.2 -12.6 6.1 -15.8 -0.1 l-1.6 -3 -1.8 3 c-2.1 3.4 -5.8 4.6 -12.5 4 -3.7 -0.3 -4 -0.5 -4.3 -3.5 -0.4 -4.1 -1.2 -4.1 -3.4 -0.3 -3.5 6.1 -11.6 6.2 -15.3 0.3 -1.9 -3 -2.3 -3.2 -7.5 -3.1 l-5.5 0.2 5 0.3 c5.8 0.5 7 1.3 6 4.2 -0.6 1.9 -1.4 2.1 -8.5 2.1 -7.1 0 -7.9 -0.2 -8.5 -2.1 l-0.7 -2.1 -2.1 2 c-4.7 4.4 -12.4 3.2 -14.9 -2.3 -1 -2.2 -1.8 -2.5 -6.4 -2.5 -5.2 0 -5.3 0 -5.6 3.3 -0.2 2.5 -0.8 3.3 -2.7 3.5 -2.6 0.4 -4.1 -1.2 -4.1 -4.5 0 -2 -0.5 -2.3 -4 -2.3 l-4 0 0 6.5 0 6.5 114.5 0 114.5 0 0 -6.5z m-188.7 -3.3 c1.4 -1.2 1.7 -3.2 1.7 -10.6 l0 -9 -4.8 -4.5 c-5.5 -5.2 -7.2 -7.9 -7.2 -11.3 0 -3.4 2.7 -6.8 5.5 -6.8 3 0 4.5 2.6 4.5 7.9 0 2.3 0.5 4.1 1 4.1 0.6 0 1 -2.4 1 -5.4 0 -4.5 -0.4 -5.8 -2.2 -7 -3.1 -2.2 -6.8 -2 -9.5 0.6 -1.8 1.7 -2.3 3.2 -2.3 7.1 0 4.8 0.2 5.2 6 10.8 l6 5.7 0 8.1 c0 7 -0.3 8.2 -2.1 9.5 -4 2.8 -7.9 -0.5 -7.9 -6.6 0 -2.1 -0.4 -3.8 -1 -3.8 -1.3 0 -1.3 7.6 0.1 10.1 2.1 3.9 7.4 4.5 11.2 1.1z m36 -0.4 c1.5 -1.8 1.7 -4.5 1.7 -22.9 0 -13.3 -0.4 -20.9 -1 -20.9 -0.6 0 -1 7.4 -1 20.3 0 20.9 -0.3 22.7 -4.1 24 -0.9 0.3 -2.6 -0.1 -3.8 -0.9 -2 -1.5 -2.1 -2.3 -2.1 -22.5 0 -13.3 -0.4 -20.9 -1 -20.9 -1.4 0 -1.3 40.5 0.1 43.1 2.2 4.2 7.9 4.5 11.2 0.7z m39.2 0.1 c1.9 -1.8 2 -3.5 2.3 -22.9 l0.3 -21 -5.5 0 c-4.7 0 -5.7 0.4 -7.5 2.6 -1.9 2.5 -2.1 4 -2.1 20.1 0 13.4 0.3 18.1 1.5 20.3 2.3 4.4 7 4.8 11 0.9z m82.8 0.3 c1.4 -1.2 1.7 -3.2 1.7 -10.6 l0 -9 -4.8 -4.5 c-5.5 -5.2 -7.2 -7.9 -7.2 -11.3 0 -3.4 2.7 -6.8 5.5 -6.8 3 0 4.5 2.6 4.5 7.9 0 2.3 0.5 4.1 1 4.1 0.6 0 1 -2.4 1 -5.4 0 -4.5 -0.4 -5.8 -2.2 -7 -3.1 -2.2 -6.8 -2 -9.5 0.6 -1.8 1.7 -2.3 3.2 -2.3 7.1 0 4.8 0.2 5.2 6 10.8 l6 5.7 0 8.1 c0 7 -0.3 8.2 -2.1 9.5 -4 2.8 -7.9 -0.5 -7.9 -6.6 0 -2.1 -0.4 -3.8 -1 -3.8 -1.3 0 -1.3 7.6 0.1 10.1 2.1 3.9 7.4 4.5 11.2 1.1z m18 0 c1.4 -1.2 1.7 -3.2 1.7 -10.6 l0 -9 -4.8 -4.5 c-5.5 -5.2 -7.2 -7.9 -7.2 -11.3 0 -3.4 2.7 -6.8 5.5 -6.8 3 0 4.5 2.6 4.5 7.9 0 2.3 0.5 4.1 1 4.1 0.6 0 1 -2.4 1 -5.4 0 -4.5 -0.4 -5.8 -2.2 -7 -3.1 -2.2 -6.8 -2 -9.5 0.6 -1.8 1.7 -2.3 3.2 -2.3 7.1 0 4.8 0.2 5.2 6 10.8 l6 5.7 0 8.1 c0 7 -0.3 8.2 -2.1 9.5 -4 2.8 -7.9 -0.5 -7.9 -6.6 0 -2.1 -0.4 -3.8 -1 -3.8 -1.3 0 -1.3 7.6 0.1 10.1 2.1 3.9 7.4 4.5 11.2 1.1z m-203.3 -6.5 l0 -8.4 3.7 -2.4 c5.3 -3.5 7.4 -8.4 8.1 -18.6 l0.5 -8.6 -5.4 0.7 c-9.1 1.2 -8.9 0.8 -8.9 24.8 0 13.2 0.4 20.8 1 20.8 0.6 0 1 -3.4 1 -8.3z m46 7.3 c0 -0.5 -2.2 -1 -5 -1 l-5 0 0 -11 0 -11 5.1 0 c3.1 0 4.8 -0.4 4.4 -1 -0.3 -0.5 -2.6 -1 -5.1 -1 l-4.4 0 0 -6.8 c0 -8 1.2 -10 6 -10.4 1.9 -0.2 3.3 -0.7 3 -1.3 -0.7 -1.5 -7.2 -0.6 -9.2 1.2 -1.6 1.4 -1.8 3.9 -1.8 22.5 l0 20.8 6 0 c3.3 0 6 -0.4 6 -1z m37 -1 c1.9 -1.9 2 -3.3 2 -20.8 0 -21.7 0 -21.6 -8.8 -22.8 l-5.2 -0.7 0 23.2 0 23.1 5 0 c3.7 0 5.5 -0.5 7 -2z m38 -7.5 l0 -9.5 4.5 0 4.5 0 0 9.5 c0 7.8 0.3 9.5 1.5 9.5 1.3 0 1.5 -3 1.3 -22.7 l-0.3 -22.8 -4.9 0.3 c-8.6 0.4 -8.6 0.4 -8.6 24.4 0 13.2 0.4 20.8 1 20.8 0.6 0 1 -3.8 1 -9.5z m28.3 8.4 c1.2 -0.7 2.5 -1.7 2.9 -2.3 1.4 -2 0.9 -17 -0.6 -19.2 -1.2 -1.7 -1.2 -2.2 0 -3.9 1 -1.3 1.4 -4.7 1.4 -10.8 l0 -9 -5.2 0.7 c-8.9 1.2 -8.8 0.8 -8.8 24.8 l0 20.8 4.1 0 c2.2 0 5 -0.5 6.2 -1.1z m15.7 -10.1 c0 -8.8 0.3 -11.5 1.6 -12.9 0.9 -1 2.2 -3.5 3 -5.6 1.5 -4.4 1.9 -16.3 0.4 -16.3 -0.5 0 -1 1.8 -1 4 0 5.9 -1.9 13.7 -4 16.2 l-1.9 2.3 -2 -4.5 c-1.4 -3 -2.1 -6.6 -2.1 -10.7 0 -3.4 -0.5 -6.5 -1 -6.8 -3.7 -2.3 -1.6 15.7 2.4 20.9 2.4 3.2 2.6 4.2 2.6 14 0 6.4 0.4 10.6 1 10.6 0.6 0 1 -4.4 1 -11.2z m-170 -5.8 l0 -6 -4 0 -4 0 0 6 0 6 4 0 4 0 0 -6z m18.2 3.8 c0.4 -3.2 4.9 -3.2 6.3 0 0.6 1.3 1.8 2.2 3.2 2.2 2 0 2.3 -0.5 2.3 -3.8 0 -6.2 -2.1 -8.2 -8.6 -8.2 -4.9 0 -5.8 0.3 -8 2.9 -1.4 1.7 -3.4 3.3 -4.4 3.6 -1.3 0.4 -2 1.5 -2 3.1 0 2.2 0.3 2.4 5.4 2.4 4.9 0 5.5 -0.2 5.8 -2.2z m34.8 -4 c0 -4.8 -0.3 -5.9 -1.2 -5 -0.7 0.7 -2.9 1.2 -5 1.2 l-3.8 0 0 5 0 5 5 0 5 0 0 -6.2z m12 0.2 c0 -5.7 -0.1 -6 -2.5 -6 -2.4 0 -2.5 0.3 -2.5 6 0 5.7 0.1 6 2.5 6 2.4 0 2.5 -0.3 2.5 -6z m9 0 c0 -3.3 -0.4 -6 -1 -6 -0.6 0 -1 2.7 -1 6 0 3.3 0.4 6 1 6 0.6 0 1 -2.7 1 -6z m47 0 l0 -6 -4.5 0 -4.5 0 0 6 0 6 4.5 0 4.5 0 0 -6z m12 3 c0 -2.5 -0.4 -3 -2.5 -3 -2.1 0 -2.5 0.5 -2.5 3 0 2.5 0.4 3 2.5 3 2.1 0 2.5 -0.5 2.5 -3z m7.7 -6.2 c-0.2 -1.8 -0.4 -0.4 -0.4 3.2 0 3.6 0.2 5 0.4 3.3 0.2 -1.8 0.2 -4.8 0 -6.5z m24.1 3.5 c-0.3 -5.3 -0.5 -5.8 -2.8 -6.1 -2.5 -0.3 -2.5 -0.2 -2.2 5.8 0.4 5.6 0.5 6 2.8 6 2.4 0 2.5 -0.2 2.2 -5.7z m11.4 3.5 c0.2 -1.7 1 -2.3 2.8 -2.3 1.6 0 2.8 0.8 3.5 2.3 0.6 1.3 1.8 2.2 3.2 2.2 2 0 2.3 -0.5 2.3 -3.8 0 -2.1 -0.7 -4.8 -1.6 -6 -1.4 -2 -2.3 -2.3 -7.7 -2 l-6.2 0.3 -0.3 5.8 c-0.3 5.1 -0.1 5.7 1.7 5.7 1.3 0 2.1 -0.8 2.3 -2.2z m29.8 -1.6 c0 -5.9 -2.2 -8.2 -8 -8.2 l-4.8 0 1 3.5 c0.8 2.3 1.8 3.5 3.2 3.7 1.2 0.2 2.5 1.3 3.1 2.6 0.6 1.3 1.8 2.2 3.2 2.2 2 0 2.3 -0.5 2.3 -3.8z m15 -2.2 l0 -6 -5 0 c-4.9 0 -4.9 0 -4 2.6 0.6 1.4 1 4.1 1 6 0 3.3 0.1 3.4 4 3.4 l4 0 0 -6z m-220.5 -19.4 c0.9 -8.5 3.2 -10.8 11.5 -11.4 4.8 -0.4 6.1 -0.1 6.6 1.2 0.5 1.4 0.8 1.4 2.7 0.1 3.4 -2.4 9.4 -1.9 12.2 1 1.4 1.3 2.5 3.2 2.5 4.2 0.1 1.1 0.6 0.6 1.4 -1.3 0.9 -2 2.5 -3.5 4.6 -4.3 4 -1.4 9.7 -1.4 10.5 -0.1 0.4 0.6 1.3 0.5 2.4 -0.2 1 -0.6 2.6 -0.8 3.5 -0.5 1.3 0.5 1.6 2.2 1.6 9.2 0 8.3 0.1 8.5 2.4 8.5 2.2 0 2.4 -0.5 3 -6.2 0.3 -3.5 0.5 -7.1 0.3 -8.2 -0.3 -2.2 2.4 -4.2 4.7 -3.3 1.3 0.5 1.6 2.2 1.6 9.2 0 11.2 1.8 11 2.2 -0.2 l0.3 -8.8 3.4 -0.3 c8.2 -0.8 14.1 2.3 14.1 7.6 0.1 2.4 0.2 2.3 1.5 -1.3 2 -5.6 3.8 -6.6 11.5 -6.3 l6.5 0.3 0.3 8.8 0.3 8.7 4.3 0 4.4 0 0.7 -6.5 c1 -9.3 4.8 -12.3 14.6 -11.3 l3.4 0.3 0.5 9 0.5 9 0.8 -6.5 c0.5 -3.5 1.3 -7.2 1.8 -8.1 1.4 -2.7 6.8 -4 15 -3.7 l7.4 0.3 0.2 4.5 c0.5 8.9 1.4 13 2.8 13 1.8 0 2.5 -2.6 2.9 -10.2 0.4 -6.9 2.1 -9.2 5.4 -7.1 1.2 0.7 2.4 0.8 3.3 0.2 0.8 -0.5 3.1 -0.9 5.2 -0.9 3.1 0 4.5 0.7 6.8 3.1 1.9 2.1 2.9 2.6 2.9 1.6 0 -3.8 8.5 -6.1 13.2 -3.6 3.9 2.1 6.4 12.9 3.6 15.7 -0.9 0.9 0 1.2 4 1.2 l5.2 0 0 -11 0 -11 -114.5 0 -114.5 0 0 11 0 11 3.9 0 3.9 0 0.7 -6.4z m29.5 0.7 c-0.4 -5 -0.8 -5.8 -2.5 -5.8 -2.8 0 -3.4 6.8 -0.9 9.6 3 3.4 4 2.3 3.4 -3.8z m23.4 0.5 c0.3 -2.9 0.6 -6.2 0.6 -7.2 0 -1.8 -0.1 -1.8 -1.7 -0.3 -1 0.8 -3.4 1.7 -5.3 1.9 -3.5 0.3 -3.5 0.3 -3.8 5.6 l-0.3 5.2 4.9 0 4.9 0 0.7 -5.2z m134.6 -0.5 c-0.4 -5 -0.8 -5.8 -2.5 -5.8 -2.8 0 -3.4 6.8 -0.9 9.6 3 3.4 4 2.3 3.4 -3.8z m18 0 c-0.4 -5 -0.8 -5.8 -2.5 -5.8 -2.8 0 -3.4 6.8 -0.9 9.6 3 3.4 4 2.3 3.4 -3.8z"/>
  <path d="M117 58.2 c-0.8 -0.3 -1.8 -1 -2.2 -1.6 -0.4 -0.6 -0.8 -9.5 -0.8 -19.8 0 -17.5 0.1 -18.8 1.9 -19.8 1.1 -0.5 3.1 -1 4.6 -1 l2.5 0 -0.2 20.1 c-0.3 18.9 -0.4 20.2 -2.3 21.4 -1.1 0.7 -2.7 1 -3.5 0.7z m4 -15.2 c0 -5.7 -0.1 -6 -2.5 -6 -2.4 0 -2.5 0.3 -2.5 6 0 5.7 0.1 6 2.5 6 2.4 0 2.5 -0.3 2.5 -6z m0 -19.1 c0 -5.7 -0.1 -6 -2.2 -5.7 -2 0.3 -2.3 1 -2.6 6.1 -0.3 5.5 -0.2 5.7 2.3 5.7 2.4 0 2.5 -0.2 2.5 -6.1z"/>
  <path d="M21 30.4 c0 -11.8 0.7 -13.4 6.2 -13.4 l4.1 0 -0.7 6.6 c-0.9 9.1 -5 16.4 -9 16.4 -0.3 0 -0.6 -4.3 -0.6 -9.6z m6.3 -1.1 c0.3 -0.5 0.8 -3 1.1 -5.6 l0.7 -4.8 -2.8 0.3 c-2.6 0.3 -2.8 0.6 -3.1 5.6 -0.3 4.6 -0.1 5.2 1.7 5.2 1.1 0 2.2 -0.3 2.4 -0.7z"/>
  <path d="M94 37.5 l0 -20.5 3.8 0 c2.1 0 4.3 0.5 5 1.2 0.8 0.8 1.2 6.5 1.2 18.8 0 19.7 -0.4 21 -6.8 21 l-3.2 0 0 -20.5z m8 5.5 c0 -5.7 -0.1 -6 -2.5 -6 -2.4 0 -2.5 0.3 -2.5 6 0 5.7 0.1 6 2.5 6 2.4 0 2.5 -0.3 2.5 -6z m-0.2 -18.2 c-0.3 -5 -0.5 -5.3 -3.2 -5.6 -2.8 -0.3 -2.9 -0.2 -2.2 2.8 0.3 1.8 0.6 4.3 0.6 5.6 0 1.9 0.5 2.4 2.6 2.4 2.4 0 2.5 -0.2 2.2 -5.2z"/>
  <path d="M142 29.9 c0 -10.9 0.8 -12.9 5.5 -12.9 l3.5 0 0 11 0 11 -4.5 0 -4.5 0 0 -9.1z m7 -5.5 c0 -5.2 -0.1 -5.5 -2.2 -5.2 -2 0.3 -2.3 1 -2.6 5.6 -0.3 5 -0.2 5.2 2.2 5.2 2.5 0 2.6 -0.3 2.6 -5.6z"/>
  <path d="M162 27.4 c0 -8.7 1 -10.4 6 -10.4 l4 0 0 5.9 c0 9.1 -1.1 11.1 -6 11.1 l-4 0 0 -6.6z m7 0.2 c0 -1.3 0.3 -3.8 0.6 -5.6 0.7 -3 0.6 -3.1 -2.2 -2.8 -2.7 0.3 -2.9 0.6 -3.2 5.6 -0.3 5 -0.2 5.2 2.2 5.2 2.1 0 2.6 -0.5 2.6 -2.4z"/>
 </g>
 <g fill="#e34545">
  <path d="M4 38 l0 -34 118.5 0 118.5 0 0 34 0 34 -118.5 0 -118.5 0 0 -34z m233 23.5 l0 -6.5 -4.5 0 c-3.1 0 -4.5 0.4 -4.5 1.3 0 1.9 -4.1 5.4 -7.1 6.2 -3 0.7 -8.7 -1.7 -9.6 -4.1 -0.5 -1.2 -1 -1.1 -3.2 1 -1.4 1.3 -3.8 2.8 -5.2 3.1 -3.4 0.8 -8.6 -1.8 -10.1 -5 -1.7 -3.7 -4.6 -3.2 -5 0.8 -0.3 2.8 -0.6 3.2 -3.3 3.2 -2.7 0 -3 -0.4 -3.3 -3.2 -0.3 -2.7 -0.8 -3.3 -2.7 -3.3 -1.5 0 -2.6 0.7 -3 2 -1 3 -5.7 5 -11.8 5 -5.7 0 -6.5 -0.6 -6.8 -5.3 -0.1 -1.3 -0.4 -0.7 -0.8 1.3 -0.5 3.1 -1 3.5 -3.6 3.5 -2.7 0 -3 -0.4 -3.3 -3.2 -0.3 -2.7 -0.8 -3.3 -2.7 -3.3 -1.9 0 -2.4 0.6 -2.7 3.3 -0.2 2.5 -0.8 3.3 -2.7 3.5 -2.6 0.4 -4.1 -1.2 -4.1 -4.5 0 -2.1 -0.5 -2.3 -4.8 -2.3 -4.2 0 -4.8 0.3 -6 2.9 -2.7 6.2 -12.6 6.1 -15.8 -0.1 l-1.6 -3 -1.8 3 c-2.1 3.4 -5.8 4.6 -12.5 4 -3.7 -0.3 -4 -0.5 -4.3 -3.5 -0.4 -4.1 -1.2 -4.1 -3.4 -0.3 -3.5 6.1 -11.6 6.2 -15.3 0.3 -1.9 -3 -2.3 -3.2 -7.5 -3.1 l-5.5 0.2 5 0.3 c5.8 0.5 7 1.3 6 4.2 -0.6 1.9 -1.4 2.1 -8.5 2.1 -7.1 0 -7.9 -0.2 -8.5 -2.1 l-0.7 -2.1 -2.1 2 c-4.7 4.4 -12.4 3.2 -14.9 -2.3 -1 -2.2 -1.8 -2.5 -6.4 -2.5 -5.2 0 -5.3 0 -5.6 3.3 -0.2 2.5 -0.8 3.3 -2.7 3.5 -2.6 0.4 -4.1 -1.2 -4.1 -4.5 0 -2 -0.5 -2.3 -4 -2.3 l-4 0 0 6.5 0 6.5 114.5 0 114.5 0 0 -6.5z m-188.7 -3.3 c1.4 -1.2 1.7 -3.2 1.7 -10.6 l0 -9 -4.8 -4.5 c-5.5 -5.2 -7.2 -7.9 -7.2 -11.3 0 -3.4 2.7 -6.8 5.5 -6.8 3 0 4.5 2.6 4.5 7.9 0 2.3 0.5 4.1 1 4.1 0.6 0 1 -2.4 1 -5.4 0 -4.5 -0.4 -5.8 -2.2 -7 -3.1 -2.2 -6.8 -2 -9.5 0.6 -1.8 1.7 -2.3 3.2 -2.3 7.1 0 4.8 0.2 5.2 6 10.8 l6 5.7 0 8.1 c0 7 -0.3 8.2 -2.1 9.5 -4 2.8 -7.9 -0.5 -7.9 -6.6 0 -2.1 -0.4 -3.8 -1 -3.8 -1.3 0 -1.3 7.6 0.1 10.1 2.1 3.9 7.4 4.5 11.2 1.1z m36 -0.4 c1.5 -1.8 1.7 -4.5 1.7 -22.9 0 -13.3 -0.4 -20.9 -1 -20.9 -0.6 0 -1 7.4 -1 20.3 0 20.9 -0.3 22.7 -4.1 24 -0.9 0.3 -2.6 -0.1 -3.8 -0.9 -2 -1.5 -2.1 -2.3 -2.1 -22.5 0 -13.3 -0.4 -20.9 -1 -20.9 -1.4 0 -1.3 40.5 0.1 43.1 2.2 4.2 7.9 4.5 11.2 0.7z m39.2 0.1 c1.9 -1.8 2 -3.5 2.3 -22.9 l0.3 -21 -5.5 0 c-4.7 0 -5.7 0.4 -7.5 2.6 -1.9 2.5 -2.1 4 -2.1 20.1 0 13.4 0.3 18.1 1.5 20.3 2.3 4.4 7 4.8 11 0.9z m82.8 0.3 c1.4 -1.2 1.7 -3.2 1.7 -10.6 l0 -9 -4.8 -4.5 c-5.5 -5.2 -7.2 -7.9 -7.2 -11.3 0 -3.4 2.7 -6.8 5.5 -6.8 3 0 4.5 2.6 4.5 7.9 0 2.3 0.5 4.1 1 4.1 0.6 0 1 -2.4 1 -5.4 0 -4.5 -0.4 -5.8 -2.2 -7 -3.1 -2.2 -6.8 -2 -9.5 0.6 -1.8 1.7 -2.3 3.2 -2.3 7.1 0 4.8 0.2 5.2 6 10.8 l6 5.7 0 8.1 c0 7 -0.3 8.2 -2.1 9.5 -4 2.8 -7.9 -0.5 -7.9 -6.6 0 -2.1 -0.4 -3.8 -1 -3.8 -1.3 0 -1.3 7.6 0.1 10.1 2.1 3.9 7.4 4.5 11.2 1.1z m18 0 c1.4 -1.2 1.7 -3.2 1.7 -10.6 l0 -9 -4.8 -4.5 c-5.5 -5.2 -7.2 -7.9 -7.2 -11.3 0 -3.4 2.7 -6.8 5.5 -6.8 3 0 4.5 2.6 4.5 7.9 0 2.3 0.5 4.1 1 4.1 0.6 0 1 -2.4 1 -5.4 0 -4.5 -0.4 -5.8 -2.2 -7 -3.1 -2.2 -6.8 -2 -9.5 0.6 -1.8 1.7 -2.3 3.2 -2.3 7.1 0 4.8 0.2 5.2 6 10.8 l6 5.7 0 8.1 c0 7 -0.3 8.2 -2.1 9.5 -4 2.8 -7.9 -0.5 -7.9 -6.6 0 -2.1 -0.4 -3.8 -1 -3.8 -1.3 0 -1.3 7.6 0.1 10.1 2.1 3.9 7.4 4.5 11.2 1.1z m-203.3 -6.5 l0 -8.4 3.7 -2.4 c5.3 -3.5 7.4 -8.4 8.1 -18.6 l0.5 -8.6 -5.4 0.7 c-9.1 1.2 -8.9 0.8 -8.9 24.8 0 13.2 0.4 20.8 1 20.8 0.6 0 1 -3.4 1 -8.3z m46 7.3 c0 -0.5 -2.2 -1 -5 -1 l-5 0 0 -11 0 -11 5.1 0 c3.1 0 4.8 -0.4 4.4 -1 -0.3 -0.5 -2.6 -1 -5.1 -1 l-4.4 0 0 -6.8 c0 -8 1.2 -10 6 -10.4 1.9 -0.2 3.3 -0.7 3 -1.3 -0.7 -1.5 -7.2 -0.6 -9.2 1.2 -1.6 1.4 -1.8 3.9 -1.8 22.5 l0 20.8 6 0 c3.3 0 6 -0.4 6 -1z m37 -1 c1.9 -1.9 2 -3.3 2 -20.8 0 -21.7 0 -21.6 -8.8 -22.8 l-5.2 -0.7 0 23.2 0 23.1 5 0 c3.7 0 5.5 -0.5 7 -2z m38 -7.5 l0 -9.5 4.5 0 4.5 0 0 9.5 c0 7.8 0.3 9.5 1.5 9.5 1.3 0 1.5 -3 1.3 -22.7 l-0.3 -22.8 -4.9 0.3 c-8.6 0.4 -8.6 0.4 -8.6 24.4 0 13.2 0.4 20.8 1 20.8 0.6 0 1 -3.8 1 -9.5z m28.3 8.4 c1.2 -0.7 2.5 -1.7 2.9 -2.3 1.4 -2 0.9 -17 -0.6 -19.2 -1.2 -1.7 -1.2 -2.2 0 -3.9 1 -1.3 1.4 -4.7 1.4 -10.8 l0 -9 -5.2 0.7 c-8.9 1.2 -8.8 0.8 -8.8 24.8 l0 20.8 4.1 0 c2.2 0 5 -0.5 6.2 -1.1z m15.7 -10.1 c0 -8.8 0.3 -11.5 1.6 -12.9 0.9 -1 2.2 -3.5 3 -5.6 1.5 -4.4 1.9 -16.3 0.4 -16.3 -0.5 0 -1 1.8 -1 4 0 5.9 -1.9 13.7 -4 16.2 l-1.9 2.3 -2 -4.5 c-1.4 -3 -2.1 -6.6 -2.1 -10.7 0 -3.4 -0.5 -6.5 -1 -6.8 -3.7 -2.3 -1.6 15.7 2.4 20.9 2.4 3.2 2.6 4.2 2.6 14 0 6.4 0.4 10.6 1 10.6 0.6 0 1 -4.4 1 -11.2z m-169.8 -15.3 c0.4 -15.2 0.4 -15.6 3.1 -18.2 2.1 -2.1 3.8 -2.8 8.6 -3.1 4.9 -0.4 6.2 -0.1 6.7 1.2 0.5 1.4 0.8 1.4 2.7 0.1 3.4 -2.4 9.4 -1.9 12.2 1 1.4 1.3 2.5 3.2 2.5 4.2 0.1 1.1 0.6 0.6 1.4 -1.3 0.9 -2 2.5 -3.5 4.6 -4.3 4 -1.4 9.7 -1.4 10.5 -0.1 0.4 0.6 1.3 0.5 2.4 -0.2 1 -0.6 2.6 -0.8 3.5 -0.5 1.4 0.6 1.6 2.9 1.6 18.7 l0 18 2.5 0 2.5 0 0.2 -13.2 c0.1 -7.3 0.2 -15.3 0.3 -17.7 0 -4.7 1.9 -6.9 4.9 -5.8 1.4 0.6 1.6 2.9 1.6 18.7 0 11 0.4 18 1 18 0.6 0 1.1 -7.2 1.2 -18.2 l0.3 -18.3 3.4 -0.3 c8.2 -0.8 14.1 2.3 14.1 7.6 0.1 2.4 0.2 2.3 1.5 -1.3 2 -5.6 3.8 -6.6 11.5 -6.3 l6.5 0.3 0.3 18.3 0.2 18.2 4.4 0 4.4 0 0.4 -15.2 c0.3 -8.4 0.8 -16.1 1.2 -17 1.2 -2.7 7.2 -4.9 12.4 -4.6 l4.7 0.3 0.5 18.5 0.5 18.5 0.6 -15.5 c0.3 -9 1 -16.4 1.7 -17.7 1.7 -3 6.7 -4.4 15.3 -4.1 l7.4 0.3 0.6 8.1 c0.3 4.4 1.1 8.9 1.7 10 1 1.8 1.1 1.7 2.2 -1 0.6 -1.6 1.2 -5.9 1.4 -9.5 0.4 -7.2 2 -9.6 5.4 -7.4 1.2 0.7 2.4 0.8 3.3 0.2 0.8 -0.5 3.1 -0.9 5.2 -0.9 3.1 0 4.5 0.7 6.8 3.1 1.9 2.1 2.9 2.6 2.9 1.6 0 -3.8 8.5 -6.1 13.2 -3.6 4.1 2.2 6.4 13.3 3.3 15.9 -3 2.5 -5 0.8 -5.5 -5 -0.4 -4.7 -0.8 -5.5 -2.5 -5.5 -1.6 0 -2.1 0.8 -2.3 3.9 -0.3 3.5 0.2 4.4 4.7 9 5.4 5.5 7.1 8.9 7.1 14.2 0 3.3 0.1 3.4 4 3.4 l4 0 0 -20.5 0 -20.5 -114.5 0 -114.5 0 0 20.5 0 20.5 3.9 0 3.9 0 0.4 -15.5z m18 13.3 c0.4 -3.2 4.9 -3.2 6.3 0 0.6 1.3 1.8 2.2 3.2 2.2 2 0 2.3 -0.5 2.3 -4 0 -3.6 -0.6 -4.6 -5.9 -9.8 l-5.9 -5.7 -0.6 2.9 c-0.8 3.7 -5.1 9.4 -8.2 10.8 -1.5 0.7 -2.4 2 -2.4 3.5 0 2.1 0.4 2.3 5.4 2.3 4.9 0 5.5 -0.2 5.8 -2.2z m34.8 -4 c0 -4.8 -0.3 -5.9 -1.2 -5 -0.7 0.7 -2.9 1.2 -5 1.2 l-3.8 0 0 5 0 5 5 0 5 0 0 -6.2z m80 3.2 c0 -2.5 -0.4 -3 -2.5 -3 -2.1 0 -2.5 0.5 -2.5 3 0 2.5 0.4 3 2.5 3 2.1 0 2.5 -0.5 2.5 -3z m32 -2.2 c0 -3.7 -0.6 -6.1 -2 -7.8 -1.1 -1.4 -2 -3.2 -2 -4 0 -0.9 -0.6 -0.5 -1.4 1 -1 1.6 -1.1 3 -0.5 4.2 0.5 0.9 0.9 3.9 0.9 6.7 0 4.8 0.2 5.1 2.5 5.1 2.4 0 2.5 -0.3 2.5 -5.2z m11.2 3 c0.2 -1.7 1 -2.3 2.8 -2.3 1.6 0 2.8 0.8 3.5 2.3 0.6 1.3 1.8 2.2 3.2 2.2 2 0 2.3 -0.5 2.3 -3.8 0 -4.2 -0.7 -5.3 -6.6 -10.5 l-4.1 -3.6 -2.6 4 c-3.5 5.2 -3.9 13.9 -0.8 13.9 1.3 0 2.1 -0.8 2.3 -2.2z m29.8 -1.8 c0 -3.6 -0.6 -4.6 -6 -9.8 -4.4 -4.3 -6.6 -5.8 -8.7 -5.7 -2.7 0 -2.8 -0.3 -3.3 -5.5 -0.4 -4.7 -0.8 -5.5 -2.5 -5.5 -1.6 0 -2.1 0.8 -2.3 3.8 -0.3 3.5 0.2 4.4 5.1 9.6 3.1 3.3 5.7 7 6.1 8.8 0.5 2.2 1.4 3.3 2.9 3.5 1.2 0.2 2.6 1.3 3.2 2.6 0.6 1.3 1.8 2.2 3.2 2.2 2 0 2.3 -0.5 2.3 -4z m-170 -11.3 c0 -4 -0.2 -4.3 -2.7 -4.2 -2.7 0 -2.8 -0.3 -3.3 -5.5 -0.4 -4.7 -0.8 -5.5 -2.5 -5.5 -1.6 0 -2.1 0.8 -2.3 3.8 -0.3 3.5 0.2 4.5 5 9.7 2.9 3.2 5.4 5.8 5.6 5.9 0.1 0 0.2 -1.8 0.2 -4.2z m17.5 -9.7 c0.7 -8.2 0.6 -8.4 -1.2 -6.8 -1 0.9 -3.4 1.8 -5.3 2 l-3.5 0.3 -0.3 6.2 -0.3 6.2 4.8 0.3 c2.6 0.2 4.9 0.3 4.9 0.3 0.1 0 0.5 -3.8 0.9 -8.5z"/>
  <path d="M117 58.2 c-0.8 -0.3 -1.8 -1 -2.2 -1.6 -0.4 -0.6 -0.8 -9.5 -0.8 -19.8 0 -17.5 0.1 -18.8 1.9 -19.8 1.1 -0.5 3.1 -1 4.6 -1 l2.5 0 -0.2 20.1 c-0.3 18.9 -0.4 20.2 -2.3 21.4 -1.1 0.7 -2.7 1 -3.5 0.7z m4 -24.8 l0 -15.5 -2.2 0.3 c-2.3 0.3 -2.3 0.6 -2.6 15.6 l-0.3 15.2 2.6 0 2.5 0 0 -15.6z"/>
  <path d="M94 37.5 l0 -20.5 3.8 0 c2.1 0 4.3 0.5 5 1.2 0.8 0.8 1.2 6.5 1.2 18.8 0 19.7 -0.4 21 -6.8 21 l-3.2 0 0 -20.5z m7.8 -3.2 l-0.3 -14.8 -2.9 -0.3 c-2.8 -0.3 -2.9 -0.2 -2.2 2.8 0.3 1.8 0.6 8.6 0.6 15.1 l0 11.9 2.5 0 2.6 0 -0.3 -14.7z"/>
  <path d="M162 47 l0 -11 3 0 c5.1 0 7 2.9 7 11 0 8.1 -1.9 11 -7 11 l-3 0 0 -11z m7 -3 c0 -4.7 -0.2 -5 -2.5 -5 -2.3 0 -2.5 0.3 -2.5 5 0 4.7 0.2 5 2.5 5 2.3 0 2.5 -0.3 2.5 -5z"/>
 </g>
 <g fill="#80782a">
  <path d="M38.3 61.1 c-3.7 -2.3 -4.6 -4.7 -4.1 -11.7 0.2 -3.8 0.7 -5 2.1 -5.2 3.1 -0.6 4.7 1.7 4.7 7 0 4.6 0.2 4.9 2.3 4.6 2 -0.3 2.2 -0.9 2.5 -7.5 l0.3 -7.2 -6 -5.8 -5.9 -5.8 -0.6 2.9 c-0.8 3.7 -5.1 9.4 -8.2 10.8 -2.1 1 -2.3 1.8 -2.6 9.7 -0.3 8.5 -0.3 8.6 -3 8.9 -3.8 0.5 -4.1 -1.3 -3.7 -24.3 l0.4 -19.5 2.7 -2.7 c2.2 -2.2 3.9 -2.7 8.7 -3.1 4.9 -0.4 6.2 -0.1 6.7 1.2 0.5 1.4 0.8 1.4 2.7 0.1 3.4 -2.4 9.4 -1.9 12.2 1 1.4 1.3 2.5 3.2 2.5 4.2 0.1 1.1 0.6 0.6 1.4 -1.3 0.9 -2 2.5 -3.5 4.6 -4.3 4 -1.4 9.7 -1.4 10.5 -0.1 0.4 0.6 1.3 0.5 2.4 -0.2 1 -0.6 2.6 -0.8 3.5 -0.5 1.4 0.6 1.6 3.1 1.6 20.6 0 11 0.3 20.6 0.6 21.5 0.3 0.9 1.5 1.6 2.5 1.6 2 0 2.1 -1.9 2.4 -37.9 0 -4.7 1.9 -6.9 4.9 -5.8 1.4 0.6 1.6 3.2 1.6 22.5 0 20.5 -0.1 22.1 -2 24.5 -2.5 3.2 -7 4.3 -10.7 2.5 -4.4 -2.1 -6.3 -7 -6.3 -16.7 0 -6.6 -0.3 -8.2 -1.2 -7.3 -0.7 0.7 -2.9 1.2 -5 1.2 l-3.8 0 0 8.5 0 8.5 4.9 0 c5.4 0 6.6 0.9 5.6 4 -0.6 1.8 -1.5 2 -8.5 2 -7.1 0 -7.9 -0.2 -8.5 -2.1 l-0.7 -2.1 -2.2 2.1 c-3.3 3.1 -7.5 3.5 -11.3 1.2z m10 -2.9 c1.4 -1.2 1.7 -3.2 1.7 -10.6 l0 -9 -4.8 -4.5 c-5.5 -5.2 -7.2 -7.9 -7.2 -11.3 0 -3.4 2.7 -6.8 5.5 -6.8 3 0 4.5 2.6 4.5 7.9 0 2.3 0.5 4.1 1 4.1 0.6 0 1 -2.4 1 -5.4 0 -4.5 -0.4 -5.8 -2.2 -7 -3.1 -2.2 -6.8 -2 -9.5 0.6 -1.8 1.7 -2.3 3.2 -2.3 7.1 0 4.8 0.2 5.2 6 10.8 l6 5.7 0 8.1 c0 7 -0.3 8.2 -2.1 9.5 -4 2.8 -7.9 -0.5 -7.9 -6.6 0 -2.1 -0.4 -3.8 -1 -3.8 -1.3 0 -1.3 7.6 0.1 10.1 2.1 3.9 7.4 4.5 11.2 1.1z m36 -0.4 c1.5 -1.8 1.7 -4.5 1.7 -22.9 0 -13.3 -0.4 -20.9 -1 -20.9 -0.6 0 -1 7.4 -1 20.3 0 20.9 -0.3 22.7 -4.1 24 -0.9 0.3 -2.6 -0.1 -3.8 -0.9 -2 -1.5 -2.1 -2.3 -2.1 -22.5 0 -13.3 -0.4 -20.9 -1 -20.9 -1.4 0 -1.3 40.5 0.1 43.1 2.2 4.2 7.9 4.5 11.2 0.7z m-63.3 -6.1 l0 -8.4 3.7 -2.4 c5.3 -3.5 7.4 -8.4 8.1 -18.6 l0.5 -8.6 -5.4 0.7 c-9.1 1.2 -8.9 0.8 -8.9 24.8 0 13.2 0.4 20.8 1 20.8 0.6 0 1 -3.4 1 -8.3z m46 7.3 c0 -0.5 -2.2 -1 -5 -1 l-5 0 0 -11 0 -11 5.1 0 c3.1 0 4.8 -0.4 4.4 -1 -0.3 -0.5 -2.6 -1 -5.1 -1 l-4.4 0 0 -6.8 c0 -8 1.2 -10 6 -10.4 1.9 -0.2 3.3 -0.7 3 -1.3 -0.7 -1.5 -7.2 -0.6 -9.2 1.2 -1.6 1.4 -1.8 3.9 -1.8 22.5 l0 20.8 6 0 c3.3 0 6 -0.4 6 -1z m-15 -25.3 c0 -4 -0.2 -4.3 -2.7 -4.2 -2.7 0 -2.8 -0.3 -3.3 -5.5 -0.4 -4.7 -0.8 -5.5 -2.5 -5.5 -1.6 0 -2.1 0.8 -2.3 3.8 -0.3 3.5 0.2 4.5 5 9.7 2.9 3.2 5.4 5.8 5.6 5.9 0.1 0 0.2 -1.8 0.2 -4.2z m17.5 -9.7 c0.7 -8.2 0.6 -8.4 -1.2 -6.8 -1 0.9 -3.4 1.8 -5.3 2 l-3.5 0.3 -0.3 6.2 -0.3 6.2 4.8 0.3 c2.6 0.2 4.9 0.3 4.9 0.3 0.1 0 0.5 -3.8 0.9 -8.5z"/>
  <path d="M21 30.4 c0 -11.8 0.7 -13.4 6.2 -13.4 l4.1 0 -0.7 6.6 c-0.9 9.1 -5 16.4 -9 16.4 -0.3 0 -0.6 -4.3 -0.6 -9.6z m4.9 2.4 c1.1 -2.4 2.2 -6.5 2.6 -9.1 l0.6 -4.8 -2.8 0.3 -2.8 0.3 -0.3 8.8 c-0.1 4.8 0 8.7 0.3 8.7 0.3 0 1.4 -1.9 2.4 -4.2z"/>
  <path d="M114.4 61.6 c-1.8 -0.8 -3.6 -2.7 -4.4 -4.6 l-1.3 -3.2 -1.3 3.1 c-1.6 3.8 -5.2 5.3 -11.8 4.9 l-5.1 -0.3 0 -24.5 0 -24.5 3.4 -0.3 c8.2 -0.8 14.1 2.3 14.1 7.6 0.1 2.4 0.2 2.3 1.5 -1.3 2 -5.6 3.8 -6.6 11.5 -6.3 l6.5 0.3 0.3 20.8 c0.3 23.5 -0.4 26.7 -6 28.6 -3.8 1.3 -3.6 1.3 -7.4 -0.3z m9.1 -3.7 c1.9 -1.8 2 -3.5 2.3 -22.9 l0.3 -21 -5.5 0 c-4.7 0 -5.7 0.4 -7.5 2.6 -1.9 2.5 -2.1 4 -2.1 20.1 0 13.4 0.3 18.1 1.5 20.3 2.3 4.4 7 4.8 11 0.9z m-19.5 0.1 c1.9 -1.9 2 -3.3 2 -20.8 0 -21.7 0 -21.6 -8.8 -22.8 l-5.2 -0.7 0 23.2 0 23.1 5 0 c3.7 0 5.5 -0.5 7 -2z"/>
  <path d="M117 58.2 c-0.8 -0.3 -1.8 -1 -2.2 -1.6 -0.4 -0.6 -0.8 -9.5 -0.8 -19.8 0 -17.5 0.1 -18.8 1.9 -19.8 1.1 -0.5 3.1 -1 4.6 -1 l2.5 0 -0.2 20.1 c-0.3 18.9 -0.4 20.2 -2.3 21.4 -1.1 0.7 -2.7 1 -3.5 0.7z m3.8 -21.5 l0.2 -18.8 -2.2 0.3 c-2.3 0.3 -2.3 0.5 -2.6 17.8 -0.1 9.6 0 18 0.3 18.8 0.3 0.7 1.3 1.2 2.2 1 1.6 -0.3 1.8 -2.1 2.1 -19.1z"/>
  <path d="M94 37.5 l0 -20.5 3.8 0 c2.1 0 4.3 0.5 5 1.2 0.8 0.8 1.2 6.5 1.2 18.8 0 19.7 -0.4 21 -6.8 21 l-3.2 0 0 -20.5z m6.3 17.2 c1.6 -1.1 1.7 -3.1 1.5 -18.2 l-0.3 -17 -2.9 -0.3 c-2.8 -0.3 -2.9 -0.2 -2.2 2.8 0.3 1.8 0.6 10.2 0.6 18.6 0 8.5 0.4 15.4 0.8 15.4 0.5 0 1.6 -0.6 2.5 -1.3z"/>
  <path d="M196.3 61.1 c-3.7 -2.3 -4.6 -4.7 -4.1 -11.7 0.2 -3.8 0.7 -5 2.1 -5.2 3.1 -0.6 4.7 1.7 4.7 7 0 4.6 0.2 4.9 2.3 4.6 2 -0.3 2.2 -1 2.5 -6.3 0.4 -8.2 -0.1 -9.4 -5.7 -14.2 l-4.9 -4.3 -2.4 3.8 c-2 3.1 -2.4 5.4 -2.8 15.2 l-0.5 11.5 -3 0 -3 0 -0.3 -11.4 c-0.2 -9.4 -0.6 -11.9 -2.2 -14.1 -1.1 -1.6 -2 -3.4 -2 -4.2 -0.1 -0.7 -0.7 -0.2 -1.4 1.2 -1 1.6 -1.1 3 -0.5 4.2 1 1.9 1.2 17.8 0.3 20.3 -1 2.6 -5.9 4.5 -11.8 4.5 -5.1 0 -5.6 -0.2 -6.2 -2.5 -1.1 -4.4 0.1 -40.8 1.4 -43.2 1.7 -3 6.7 -4.4 15.3 -4.1 l7.4 0.3 0.6 8.1 c0.3 4.4 1.1 8.9 1.7 10 1 1.8 1.1 1.7 2.2 -1 0.6 -1.6 1.2 -5.9 1.4 -9.5 0.4 -7.2 2 -9.6 5.4 -7.4 1.2 0.7 2.4 0.8 3.3 0.2 0.8 -0.5 3.1 -0.9 5.2 -0.9 3.1 0 4.5 0.7 6.8 3.1 1.9 2.1 2.9 2.6 2.9 1.6 0 -3.8 8.5 -6.1 13.2 -3.6 4.1 2.2 6.4 13.3 3.3 15.9 -3 2.5 -5 0.8 -5.5 -5 -0.4 -4.7 -0.8 -5.5 -2.5 -5.5 -1.6 0 -2.1 0.8 -2.3 3.8 -0.3 3.5 0.2 4.4 5.2 9.6 6.1 6.5 7.1 9.5 6.4 19.1 -0.5 6.7 -3 10.5 -7.9 11.5 -3.1 0.7 -8.6 -1.7 -9.6 -4.1 -0.5 -1.2 -1.1 -1.1 -3.2 1 -3.7 3.6 -7.8 4.1 -11.8 1.7z m10 -2.9 c1.4 -1.2 1.7 -3.2 1.7 -10.6 l0 -9 -4.8 -4.5 c-5.5 -5.2 -7.2 -7.9 -7.2 -11.3 0 -3.4 2.7 -6.8 5.5 -6.8 3 0 4.5 2.6 4.5 7.9 0 2.3 0.5 4.1 1 4.1 0.6 0 1 -2.4 1 -5.4 0 -4.5 -0.4 -5.8 -2.2 -7 -3.1 -2.2 -6.8 -2 -9.5 0.6 -1.8 1.7 -2.3 3.2 -2.3 7.1 0 4.8 0.2 5.2 6 10.8 l6 5.7 0 8.1 c0 7 -0.3 8.2 -2.1 9.5 -4 2.8 -7.9 -0.5 -7.9 -6.6 0 -2.1 -0.4 -3.8 -1 -3.8 -1.3 0 -1.3 7.6 0.1 10.1 2.1 3.9 7.4 4.5 11.2 1.1z m18 0 c1.4 -1.2 1.7 -3.2 1.7 -10.6 l0 -9 -4.8 -4.5 c-5.5 -5.2 -7.2 -7.9 -7.2 -11.3 0 -3.4 2.7 -6.8 5.5 -6.8 3 0 4.5 2.6 4.5 7.9 0 2.3 0.5 4.1 1 4.1 0.6 0 1 -2.4 1 -5.4 0 -4.5 -0.4 -5.8 -2.2 -7 -3.1 -2.2 -6.8 -2 -9.5 0.6 -1.8 1.7 -2.3 3.2 -2.3 7.1 0 4.8 0.2 5.2 6 10.8 l6 5.7 0 8.1 c0 7 -0.3 8.2 -2.1 9.5 -4 2.8 -7.9 -0.5 -7.9 -6.6 0 -2.1 -0.4 -3.8 -1 -3.8 -1.3 0 -1.3 7.6 0.1 10.1 2.1 3.9 7.4 4.5 11.2 1.1z m-54 0.7 c1.2 -0.7 2.5 -1.7 2.9 -2.3 1.4 -2 0.9 -17 -0.6 -19.2 -1.2 -1.7 -1.2 -2.2 0 -3.9 1 -1.3 1.4 -4.7 1.4 -10.8 l0 -9 -5.2 0.7 c-8.9 1.2 -8.8 0.8 -8.8 24.8 l0 20.8 4.1 0 c2.2 0 5 -0.5 6.2 -1.1z m15.7 -10.1 c0 -8.8 0.3 -11.5 1.6 -12.9 0.9 -1 2.2 -3.5 3 -5.6 1.5 -4.4 1.9 -16.3 0.4 -16.3 -0.5 0 -1 1.8 -1 4 0 5.9 -1.9 13.7 -4 16.2 l-1.9 2.3 -2 -4.5 c-1.4 -3 -2.1 -6.6 -2.1 -10.7 0 -3.4 -0.5 -6.5 -1 -6.8 -3.7 -2.3 -1.6 15.7 2.4 20.9 2.4 3.2 2.6 4.2 2.6 14 0 6.4 0.4 10.6 1 10.6 0.6 0 1 -4.4 1 -11.2z m35.8 -0.5 l0.3 -7.2 -6 -5.9 c-4.5 -4.3 -6.7 -5.8 -8.8 -5.7 -2.7 0 -2.8 -0.3 -3.3 -5.5 -0.4 -4.7 -0.8 -5.5 -2.5 -5.5 -1.6 0 -2.1 0.8 -2.3 3.8 -0.3 3.5 0.2 4.4 5.1 9.6 3.2 3.3 5.7 7 6.2 8.9 0.4 2.1 1.3 3.2 2.4 3.2 2.9 0 4.1 2.2 4.1 7.3 0 4.4 0.2 4.8 2.3 4.5 2 -0.3 2.2 -0.9 2.5 -7.5z"/>
  <path d="M162 47 l0 -11 3 0 c5.1 0 7 2.9 7 11 0 8.1 -1.9 11 -7 11 l-3 0 0 -11z m5.4 8.4 c1.3 -0.5 1.6 -2.2 1.6 -8.5 0 -7.8 0 -7.9 -2.5 -7.9 -2.5 0 -2.5 0.1 -2.5 8.5 0 8.4 0.3 9.1 3.4 7.9z"/>
  <path d="M162 27.4 c0 -8.7 1 -10.4 6 -10.4 l4 0 0 5.9 c0 9.1 -1.1 11.1 -6 11.1 l-4 0 0 -6.6z m7 1.2 c0 -1.8 0.3 -4.8 0.6 -6.6 0.7 -3 0.6 -3.1 -2.2 -2.8 -2.8 0.3 -2.9 0.5 -3.2 6.6 -0.3 6.1 -0.2 6.2 2.3 6.2 2.2 0 2.5 -0.4 2.5 -3.4z"/>
  <path d="M137.4 59.6 c-0.8 -3.4 0 -40.6 1 -42.8 1.2 -2.7 7.2 -4.9 12.4 -4.6 l4.7 0.3 0 24.5 0 24.5 -3 0 -3 0 -0.3 -9.2 c-0.3 -9.1 -0.3 -9.3 -2.7 -9.3 -2.4 0 -2.4 0.2 -2.7 9.3 -0.3 9.2 -0.3 9.2 -3 9.5 -2.2 0.3 -2.9 -0.2 -3.4 -2.2z m4.6 -9.1 l0 -9.5 4.5 0 4.5 0 0 9.5 c0 7.8 0.3 9.5 1.5 9.5 1.3 0 1.5 -3 1.3 -22.7 l-0.3 -22.8 -4.9 0.3 c-8.6 0.4 -8.6 0.4 -8.6 24.4 0 13.2 0.4 20.8 1 20.8 0.6 0 1 -3.8 1 -9.5z"/>
 </g>
 <g fill="#8e2b3c">
  <path d="M38.8 61.5 c-3.8 -2.1 -4.8 -4.4 -4.8 -10.9 0 -4.7 0.3 -5.6 2.1 -6.1 2.9 -1 3.9 0.3 4.6 6.4 0.5 4.6 0.8 5.2 2.7 4.9 1.9 -0.3 2.1 -1.1 2.4 -7.7 l0.3 -7.3 -6 -5.7 -6 -5.6 -0.6 3.2 c-0.5 2.9 -7.6 11.3 -9.6 11.3 -0.4 0 -1 3.9 -1.1 8.8 -0.3 8.3 -0.4 8.7 -2.7 9 -1.3 0.2 -2.7 -0.2 -3.1 -0.8 -0.4 -0.7 -0.7 -10.6 -0.6 -22.1 l0.2 -20.9 2.6 -2.7 c2.2 -2.1 3.9 -2.8 8.7 -3.1 4.9 -0.4 6.2 -0.1 6.7 1.2 0.5 1.4 0.8 1.4 2.7 0.1 3.4 -2.4 9.4 -1.9 12.2 1 1.4 1.3 2.5 3.2 2.5 4.2 0.1 1.1 0.6 0.6 1.4 -1.3 0.9 -2 2.5 -3.5 4.6 -4.3 4 -1.4 9.7 -1.4 10.5 -0.1 0.4 0.6 1.3 0.5 2.4 -0.2 1 -0.6 2.6 -0.8 3.5 -0.5 1.4 0.6 1.6 3.1 1.6 20.6 0 11 0.3 20.6 0.6 21.5 0.3 0.9 1.5 1.6 2.5 1.6 2.2 0 2.2 0.2 2.3 -24.9 0.1 -14.9 0.3 -17.5 1.7 -18.4 0.9 -0.6 2.4 -0.7 3.3 -0.4 1.4 0.6 1.6 3.2 1.6 22.5 0 20.5 -0.1 22.1 -2 24.5 -4.2 5.3 -12 4.2 -15.2 -2.2 -1.4 -2.7 -1.6 -5 -1.1 -11.9 0.6 -7.8 0.5 -8.5 -1.1 -7.9 -1 0.4 -3.5 0.7 -5.7 0.7 l-3.9 0 0 9 0 9 4.9 0 c5.4 0 6.6 0.9 5.6 4 -0.6 1.8 -1.5 2 -8.5 2 -7.1 0 -7.9 -0.2 -8.5 -2.1 l-0.7 -2.1 -2.2 2.1 c-3 2.8 -7.5 3.4 -10.8 1.6z m8.7 -2.7 c1.9 -1.7 2.7 -3.6 3.2 -7.5 1 -8.6 -0.2 -11.9 -6.5 -18.5 -4.8 -5.1 -5.7 -6.5 -5.7 -9.8 0 -4.2 1.8 -7 4.6 -7 3.1 0 4.9 2.8 4.9 7.7 0 3.1 0.4 4.3 1.3 4 0.8 -0.3 1.1 -2.1 1 -5.3 -0.2 -5.6 -2.7 -8.4 -7.4 -8.4 -4.6 0 -6.9 3.1 -6.9 9.1 0 5 0.2 5.4 6 11.1 l6 6 0 7.7 c0 8.5 -0.8 10.1 -5.2 10.1 -3.2 0 -4.8 -2.8 -4.8 -8.6 0 -1.9 -0.4 -3.4 -1 -3.4 -0.5 0 -1 2.3 -1 5 0 4.1 0.5 5.6 2.5 7.5 3 3.1 5.6 3.2 9 0.3z m36 -0.3 c2.5 -2.4 2.5 -2.4 2.5 -23.5 0 -13.3 -0.4 -21 -1 -21 -0.6 0 -1 7.1 -1 19.4 0 10.7 -0.4 20.6 -1 22 -1.2 3.3 -6.4 3.7 -8 0.7 -0.6 -1.2 -1 -10.1 -1 -22 0 -12.7 -0.4 -20.1 -1 -20.1 -0.6 0 -1 7.8 -1 21.4 l0 21.5 2.6 2 c3.5 2.7 5.9 2.6 8.9 -0.4z m-62.5 -6.8 l0 -8.4 3.8 -2.4 c5.2 -3.4 7.5 -8.6 8 -18.8 l0.5 -8.4 -5.2 0.5 c-9.1 0.9 -9.1 0.9 -9.1 25 0 13.2 0.4 20.8 1 20.8 0.6 0 1 -3.4 1 -8.3z m46 7.3 c0 -0.5 -2.3 -1 -5 -1 l-5.1 0 0.3 -10.7 0.3 -10.8 4.8 -0.3 c6.3 -0.4 6.1 -2.2 -0.3 -2.2 l-5 0 0 -6.6 c0 -8.4 1.1 -10.4 5.5 -10.4 3.5 0 5.4 -1.4 3.5 -2.5 -1.7 -1 -7.7 0.4 -9.5 2.1 -1.2 1.3 -1.5 5 -1.5 22.5 l0 20.9 6 0 c3.3 0 6 -0.4 6 -1z m-14.6 -23.2 c-0.6 -6.1 -0.8 -6.4 -3.3 -6.3 -2.4 0 -2.6 -0.3 -3.1 -5.5 -0.4 -4.7 -0.8 -5.5 -2.5 -5.5 -1.6 0 -2.1 0.8 -2.3 3.9 -0.3 3.5 0.1 4.4 4.7 9 3.1 3.2 5.3 6.4 5.7 8.4 1.1 5.3 1.5 3 0.8 -4z m17.1 -11.8 c0.7 -8.2 0.6 -8.4 -1.2 -6.8 -1 0.9 -3.4 1.8 -5.3 2 l-3.5 0.3 -0.3 6.2 -0.3 6.2 4.8 0.3 c2.6 0.2 4.9 0.3 4.9 0.3 0.1 0 0.5 -3.8 0.9 -8.5z"/>
  <path d="M114.4 61.6 c-1.8 -0.8 -3.6 -2.7 -4.4 -4.6 l-1.3 -3.2 -1.3 3.1 c-1.6 3.8 -5.2 5.3 -11.8 4.9 l-5.1 -0.3 0 -24.5 0 -24.5 3.4 -0.3 c8.2 -0.8 14.1 2.3 14.1 7.6 0.1 2.4 0.2 2.3 1.5 -1.3 2 -5.6 3.8 -6.6 11.5 -6.3 l6.5 0.3 0.1 21 c0.2 23.6 -0.4 26.5 -5.8 28.4 -3.8 1.3 -3.6 1.3 -7.4 -0.3z m6.9 -1.5 c4 -1.5 4.7 -5.7 4.7 -26.7 l0 -19.4 -5.3 0 c-9.3 0 -9.2 -0.3 -9.2 23 0 20 0 20.2 2.4 22.1 2.6 2.1 3.9 2.3 7.4 1z m-17.5 -1.7 c2.1 -1.5 2.2 -2 2.2 -20.7 0 -10.6 -0.4 -19.7 -0.8 -20.4 -1.1 -1.7 -5.8 -3.3 -9.8 -3.3 l-3.4 0 0 23 0 23 4.8 0 c2.7 0 5.7 -0.7 7 -1.6z m4.9 -18.6 c-0.2 -1.8 -0.4 -0.4 -0.4 3.2 0 3.6 0.2 5 0.4 3.3 0.2 -1.8 0.2 -4.8 0 -6.5z"/>
  <path d="M115.2 56.8 c-0.8 -0.8 -1.2 -6.7 -1.2 -20 0 -17.5 0.1 -18.8 1.9 -19.8 1.1 -0.5 3.1 -1 4.5 -1 l2.6 0 0 19.8 c0 20.8 -0.3 22.2 -4.5 22.2 -1.2 0 -2.6 -0.5 -3.3 -1.2z m5.6 -20.1 c0.2 -18 0.2 -18.7 -1.7 -18.7 -1.1 0 -2.3 0.4 -2.6 1 -0.9 1.4 -0.9 34.5 0 35.9 0.4 0.7 1.4 1.1 2.3 0.9 1.5 -0.3 1.7 -2.5 2 -19.1z"/>
  <path d="M94.7 57.3 c-0.4 -0.3 -0.7 -9.6 -0.7 -20.5 l0 -19.8 4 0 c2.9 0 4.2 0.5 5 1.9 0.6 1.2 1 9.2 1 19 0 16.4 -0.1 17 -2.2 18.5 -2.3 1.6 -6 2.1 -7.1 0.9z m5.6 -2.6 c1.6 -1.1 1.7 -3.1 1.5 -18.2 l-0.3 -17 -2.5 -0.3 -2.5 -0.3 0.1 14.8 c0 23.9 0 23.8 3.7 21z"/>
  <path d="M196.8 61.5 c-3.8 -2.1 -4.8 -4.4 -4.8 -10.9 0 -4.7 0.3 -5.6 2.1 -6.1 2.9 -1 3.9 0.3 4.6 6.4 0.5 4.6 0.8 5.2 2.7 4.9 1.9 -0.3 2.1 -1 2.4 -7.8 l0.3 -7.6 -5.5 -4.7 -5.4 -4.7 -2.4 3.8 c-2 3.1 -2.4 5.4 -2.8 15.2 l-0.5 11.5 -3 0 -3 0 0 -11 c0 -9.8 -0.3 -11.4 -2.3 -14.2 -1.2 -1.7 -2.2 -3.7 -2.2 -4.5 -0.1 -0.7 -0.7 -0.2 -1.4 1.2 -1 1.6 -1.1 3.2 -0.5 4.8 1 2.6 1.2 17.2 0.3 19.7 -1 2.6 -5.9 4.5 -11.8 4.5 -4.4 0 -5.6 -0.4 -5.9 -1.7 -1.1 -3.8 -0.1 -41.8 1.1 -44 1.7 -3 6.7 -4.4 15.3 -4.1 l7.4 0.3 0.6 8.1 c0.3 4.4 1.1 8.9 1.7 10 1 1.8 1.1 1.7 2.2 -1 0.6 -1.6 1.2 -5.9 1.4 -9.5 0.4 -7.2 2 -9.6 5.4 -7.4 1.2 0.7 2.4 0.8 3.3 0.2 0.8 -0.5 3.1 -0.9 5.2 -0.9 3.1 0 4.5 0.7 6.8 3.1 1.9 2.1 2.9 2.6 2.9 1.6 0 -3.8 8.5 -6.1 13.2 -3.6 4.1 2.2 6.4 13.3 3.3 15.9 -3 2.5 -5 0.8 -5.5 -5 -0.4 -4.7 -0.8 -5.5 -2.5 -5.5 -1.6 0 -2.1 0.8 -2.3 3.9 -0.3 3.5 0.2 4.4 4.7 9 5.7 5.9 7.6 11.3 6.9 20.1 -0.5 6.2 -3.2 10 -7.9 11 -3.1 0.7 -8.6 -1.7 -9.6 -4.1 -0.5 -1.2 -1.1 -1.1 -3.2 1 -3.4 3.3 -7.8 4.1 -11.3 2.1z m8.7 -2.7 c1.9 -1.7 2.7 -3.6 3.2 -7.5 1 -8.6 -0.2 -11.9 -6.5 -18.5 -4.8 -5.1 -5.7 -6.5 -5.7 -9.8 0 -4.2 1.8 -7 4.6 -7 3.1 0 4.9 2.8 4.9 7.7 0 3.1 0.4 4.3 1.3 4 0.8 -0.3 1.1 -2.1 1 -5.3 -0.2 -5.6 -2.7 -8.4 -7.4 -8.4 -4.6 0 -6.9 3.1 -6.9 9.1 0 5 0.2 5.4 6 11.1 l6 6 0 7.7 c0 8.5 -0.8 10.1 -5.2 10.1 -3.2 0 -4.8 -2.8 -4.8 -8.6 0 -1.9 -0.4 -3.4 -1 -3.4 -0.5 0 -1 2.3 -1 5 0 4.1 0.5 5.6 2.5 7.5 3 3.1 5.6 3.2 9 0.3z m18 0 c1.9 -1.7 2.7 -3.6 3.2 -7.5 1 -8.6 -0.2 -11.9 -6.5 -18.5 -4.8 -5.1 -5.7 -6.5 -5.7 -9.8 0 -4.2 1.8 -7 4.6 -7 3.1 0 4.9 2.8 4.9 7.7 0 3.1 0.4 4.3 1.3 4 0.8 -0.3 1.1 -2.1 1 -5.3 -0.2 -5.6 -2.7 -8.4 -7.4 -8.4 -4.6 0 -6.9 3.1 -6.9 9.1 0 5 0.2 5.4 6 11.1 l6 6 0 7.7 c0 8.5 -0.8 10.1 -5.2 10.1 -3.2 0 -4.8 -2.8 -4.8 -8.6 0 -1.9 -0.4 -3.4 -1 -3.4 -0.5 0 -1 2.3 -1 5 0 4.1 0.5 5.6 2.5 7.5 3 3.1 5.6 3.2 9 0.3z m-51.5 -0.8 c1.7 -1.7 2 -3.3 2 -10.9 0 -6.6 -0.4 -9.2 -1.5 -10.1 -1.3 -1.1 -1.3 -1.5 0 -3.3 1.1 -1.5 1.5 -4.8 1.5 -10.9 l0 -8.8 -3.4 0 c-4 0 -8.7 1.6 -9.8 3.3 -0.4 0.7 -0.8 10.5 -0.8 22 l0 20.7 5 0 c3.7 0 5.5 -0.5 7 -2z m14 -8.9 c0 -9 0.3 -11.2 1.8 -13.2 1.1 -1.3 2.4 -3.9 3 -5.8 1.4 -3.8 1.6 -16.1 0.4 -16.1 -0.4 0 -1.3 3.8 -1.9 8.4 -0.5 4.8 -1.8 9.7 -2.8 11.2 l-1.7 2.7 -2.1 -3.3 c-1.5 -2.3 -2.2 -5.5 -2.5 -11.2 -0.3 -5.2 -0.8 -7.8 -1.6 -7.5 -2.9 0.9 -1.1 16.5 2.5 21 1.6 2.2 1.9 4.1 1.9 13.6 0 9.2 0.3 11.1 1.5 11.1 1.2 0 1.5 -1.9 1.5 -10.9z m35.8 -1 l0.3 -7.3 -6.1 -5.7 c-4.4 -4.1 -6.8 -5.7 -8.8 -5.6 -2.6 0 -2.7 -0.3 -3.2 -5.5 -0.4 -4.7 -0.8 -5.5 -2.5 -5.5 -1.6 0 -2.1 0.8 -2.3 3.9 -0.3 3.5 0.2 4.4 4.7 9 3.2 3.3 5.3 6.5 6 9.2 0.9 3.2 1.5 4 3.3 4 2.4 -0.1 3.5 2.4 3.7 8.2 0.1 2.9 0.4 3.3 2.4 3 2 -0.3 2.2 -0.9 2.5 -7.7z"/>
  <path d="M162.2 47.3 l0.3 -10.8 3.4 0.2 c4.9 0.2 5.6 1.5 5.6 10.4 0 9 -1.2 10.9 -6.7 10.9 l-2.9 0 0.3 -10.7z m5.5 7.9 c0.7 -0.4 1.5 -3.8 1.9 -7.5 0.7 -7.2 -0.2 -9.7 -3.7 -9.7 -1.7 0 -1.9 0.9 -1.9 9 0 9 0.5 10.2 3.7 8.2z"/>
  <path d="M137.7 60.3 c-0.8 -2.7 -0.1 -41.5 0.7 -43.5 1.2 -2.7 7.2 -4.9 12.4 -4.6 l4.7 0.3 0 24.5 0 24.5 -3 0 -3 0 -0.3 -9.2 c-0.3 -9.1 -0.3 -9.3 -2.7 -9.3 -2.4 0 -2.4 0.2 -2.7 9.3 -0.3 9.1 -0.3 9.2 -3 9.5 -1.8 0.2 -2.8 -0.2 -3.1 -1.5z m4.3 -9.8 l0 -9.5 4.5 0 4.5 0 0 9.5 c0 7.8 0.3 9.5 1.5 9.5 1.3 0 1.5 -3 1.3 -22.7 -0.3 -25.4 0 -24.2 -7.4 -22.9 -6.3 1.2 -6.4 1.5 -6.4 24.7 0 13.3 0.4 20.9 1 20.9 0.6 0 1 -3.8 1 -9.5z"/>
 </g>
 <g fill="#2f7e38">
  <path d="M17.6 61.2 c-0.3 -0.5 -0.7 -10.4 -0.8 -22 l-0.3 -21.1 2.7 -2.8 c2.2 -2.2 3.9 -2.7 8.7 -3.1 4.9 -0.4 6.2 -0.1 6.7 1.2 0.5 1.4 0.8 1.4 2.7 0.1 3.4 -2.4 9.4 -1.9 12.2 1 1.4 1.3 2.5 3.2 2.5 4.2 0.1 1.1 0.6 0.6 1.4 -1.3 0.9 -2 2.5 -3.5 4.6 -4.3 4 -1.4 9.7 -1.4 10.5 -0.1 0.4 0.6 1.3 0.5 2.4 -0.2 1 -0.6 2.6 -0.8 3.5 -0.5 1.4 0.6 1.6 3.1 1.6 21.5 0 17.4 0.3 21.2 1.5 22.2 1.2 1 1.8 1 3 0 1.2 -1 1.4 -4.7 1.2 -21.7 -0.2 -18 0 -20.7 1.4 -21.6 0.9 -0.6 2.4 -0.7 3.3 -0.4 1.4 0.6 1.6 3.1 1.6 21.1 0 20.6 -0.4 23.9 -3.5 26.9 -2.3 2.3 -8.7 2.2 -11.6 -0.2 -2.2 -1.8 -2.4 -2.8 -2.7 -12.6 -0.3 -8.9 -0.6 -10.6 -1.9 -10.1 -0.8 0.3 -3.2 0.6 -5.4 0.6 l-3.9 0 0 9 0 9 5.1 0 c4.9 0 5 0.1 4.7 2.8 -0.3 2.7 -0.4 2.7 -7.8 2.7 l-7.5 0 -0.6 -6.5 c-0.4 -5.1 -0.6 -5.6 -0.7 -2.2 -0.3 5.7 -3.6 9.2 -8.9 9.2 -6.4 -0.1 -9.3 -3.7 -9.3 -11.9 0 -4.1 0.4 -5.1 2 -5.6 3.1 -1 4 0.2 4 5.4 0 5.2 1.6 7.6 4.4 6.5 1.3 -0.5 1.6 -2.1 1.6 -8.2 l0 -7.5 -5.9 -5.6 -6 -5.6 -0.6 3.2 c-0.5 2.9 -7.6 11.3 -9.6 11.3 -0.4 0 -1 3.9 -1.1 8.8 -0.3 8 -0.5 8.7 -2.5 9 -1.1 0.2 -2.4 -0.1 -2.7 -0.6z m29.9 -2.4 c1.9 -1.7 2.7 -3.6 3.2 -7.5 1 -8.6 -0.2 -11.9 -6.5 -18.5 -4.8 -5.1 -5.7 -6.5 -5.7 -9.8 0 -4.2 1.8 -7 4.6 -7 3.1 0 4.9 2.8 4.9 7.7 0 3.1 0.4 4.3 1.3 4 0.8 -0.3 1.1 -2.1 1 -5.3 -0.2 -5.6 -2.7 -8.4 -7.4 -8.4 -4.6 0 -6.9 3.1 -6.9 9.1 0 5 0.2 5.4 6 11.1 l6 6 0 7.7 c0 8.5 -0.8 10.1 -5.2 10.1 -3.2 0 -4.8 -2.8 -4.8 -8.6 0 -1.9 -0.4 -3.4 -1 -3.4 -0.5 0 -1 2.3 -1 5 0 4.1 0.5 5.6 2.5 7.5 3 3.1 5.6 3.2 9 0.3z m36 -0.3 c2.5 -2.4 2.5 -2.4 2.5 -23.5 0 -13.3 -0.4 -21 -1 -21 -0.6 0 -1 7.1 -1 19.4 0 10.7 -0.4 20.6 -1 22 -1.2 3.3 -6.4 3.7 -8 0.7 -0.6 -1.2 -1 -10.1 -1 -22 0 -12.7 -0.4 -20.1 -1 -20.1 -0.6 0 -1 7.8 -1 21.4 l0 21.5 2.6 2 c3.5 2.7 5.9 2.6 8.9 -0.4z m-62.5 -6.8 l0 -8.4 3.8 -2.4 c5.2 -3.4 7.5 -8.6 8 -18.8 l0.5 -8.4 -5.2 0.5 c-9.1 0.9 -9.1 0.9 -9.1 25 0 13.2 0.4 20.8 1 20.8 0.6 0 1 -3.4 1 -8.3z m46 7.3 c0 -0.5 -2.3 -1 -5 -1 l-5.1 0 0.3 -10.7 0.3 -10.8 4.8 -0.3 c6.3 -0.4 6.1 -2.2 -0.3 -2.2 l-5 0 0 -6.6 c0 -8.4 1.1 -10.4 5.5 -10.4 3.5 0 5.4 -1.4 3.5 -2.5 -1.7 -1 -7.7 0.4 -9.5 2.1 -1.2 1.3 -1.5 5 -1.5 22.5 l0 20.9 6 0 c3.3 0 6 -0.4 6 -1z m-14.6 -23.2 c-0.6 -6.1 -0.8 -6.4 -3.3 -6.3 -2.4 0 -2.6 -0.3 -3.1 -5.5 -0.4 -4.7 -0.8 -5.5 -2.5 -5.5 -1.6 0 -2.1 0.8 -2.3 3.9 -0.3 3.5 0.1 4.4 4.7 9 3.1 3.2 5.3 6.4 5.7 8.4 1.1 5.3 1.5 3 0.8 -4z m17.1 -11.8 c0.7 -8.2 0.6 -8.4 -1.2 -6.8 -1 0.9 -3.4 1.8 -5.3 2 l-3.5 0.3 -0.3 6.2 -0.3 6.2 4.8 0.3 c2.6 0.2 4.9 0.3 4.9 0.3 0.1 0 0.5 -3.8 0.9 -8.5z"/>
  <path d="M21 30.4 c0 -11.8 0.7 -13.4 6.2 -13.4 l4.1 0 -0.7 6.3 c-1.1 9.4 -5 16.7 -9 16.7 -0.3 0 -0.6 -4.3 -0.6 -9.6z m4.9 2.4 c1.1 -2.4 2.2 -6.5 2.6 -9.1 l0.6 -4.8 -2.8 0.3 -2.8 0.3 -0.3 8.8 c-0.1 4.8 0 8.7 0.3 8.7 0.3 0 1.4 -1.9 2.4 -4.2z"/>
  <path d="M90.5 60.8 c-0.3 -0.7 -0.4 -11.9 -0.3 -24.8 l0.3 -23.5 3.4 -0.3 c8.2 -0.8 14.1 2.3 14.1 7.5 0.1 2.5 0.2 2.4 1.5 -1.2 2 -5.6 3.8 -6.6 11.5 -6.3 l6.5 0.3 -0.1 21.9 c-0.2 20 -0.3 22 -2.1 24.5 -2.9 3.8 -9.9 4.2 -13.2 0.7 -2 -2.1 -2.5 -3.9 -3.1 -12.8 l-0.7 -10.3 -0.2 9.7 c-0.1 8.6 -0.4 10 -2.4 12.4 -2 2.3 -3.4 2.8 -8.5 3.2 -4.7 0.3 -6.3 0.1 -6.7 -1z m30.8 -0.7 c4 -1.5 4.7 -5.7 4.7 -26.7 l0 -19.4 -5.3 0 c-9.3 0 -9.2 -0.3 -9.2 23 0 20 0 20.2 2.4 22.1 2.6 2.1 3.9 2.3 7.4 1z m-17.5 -1.7 c2.1 -1.5 2.2 -2 2.2 -20.7 0 -10.6 -0.4 -19.7 -0.8 -20.4 -1.1 -1.7 -5.8 -3.3 -9.8 -3.3 l-3.4 0 0 23 0 23 4.8 0 c2.7 0 5.7 -0.7 7 -1.6z"/>
  <path d="M115.2 56.8 c-0.8 -0.8 -1.2 -6.7 -1.2 -20 0 -17.5 0.1 -18.8 1.9 -19.8 1.1 -0.5 3.1 -1 4.5 -1 l2.6 0 0 19.8 c0 20.8 -0.3 22.2 -4.5 22.2 -1.2 0 -2.6 -0.5 -3.3 -1.2z m5.6 -19.6 c0.2 -18.8 0.2 -19.2 -1.8 -19.2 -1.1 0 -2.3 0.6 -2.5 1.2 -1 2.8 -1.2 34.4 -0.3 36.1 0.5 1 1.7 1.7 2.6 1.5 1.5 -0.3 1.7 -2.5 2 -19.6z"/>
  <path d="M94.7 57.3 c-0.4 -0.3 -0.7 -9.6 -0.7 -20.5 l0 -19.8 4 0 c2.9 0 4.2 0.5 5 1.9 0.6 1.2 1 9.2 1 19 0 16.4 -0.1 17 -2.2 18.5 -2.3 1.6 -6 2.1 -7.1 0.9z m6.8 -19.8 l0 -18 -2.5 -0.3 -2.5 -0.3 -0.3 18.6 -0.3 18.6 2.8 -0.3 2.8 -0.3 0 -18z"/>
  <path d="M138.6 61.2 c-0.8 -1.4 -1.2 -41.5 -0.3 -43.9 1.1 -3.1 6.9 -5.5 12.5 -5.1 l4.7 0.3 0.1 16 c0 8.8 -0.2 19.9 -0.4 24.8 -0.5 8.2 -0.6 8.7 -2.7 8.7 -3 0 -3.5 -1.6 -3.5 -11.1 0 -7.7 -0.1 -7.9 -2.5 -7.9 -2.4 0 -2.4 0.2 -2.7 9.3 -0.3 8.6 -0.5 9.2 -2.5 9.5 -1.1 0.2 -2.4 -0.1 -2.7 -0.6z m3.4 -10.7 l0 -9.5 4.5 0 4.5 0 0 9.5 c0 7.8 0.3 9.5 1.5 9.5 1.3 0 1.5 -3 1.3 -22.7 -0.3 -25.4 0 -24.2 -7.4 -22.9 -6.3 1.2 -6.4 1.5 -6.4 24.7 0 13.3 0.4 20.9 1 20.9 0.6 0 1 -3.8 1 -9.5z"/>
  <path d="M158.7 61.3 c-0.4 -0.6 -0.8 -10.4 -0.9 -21.9 -0.2 -15.3 0 -21.5 0.9 -23.1 1.8 -3 6.8 -4.4 15.4 -4.1 l7.4 0.3 0.6 8.1 c0.3 4.4 1.1 8.9 1.7 10 1 1.8 1.1 1.7 2.2 -1 0.6 -1.6 1.2 -5.9 1.4 -9.5 0.4 -7.2 2 -9.6 5.4 -7.4 1.2 0.7 2.4 0.8 3.3 0.2 0.8 -0.5 3.1 -0.9 5.2 -0.9 3.1 0 4.5 0.7 6.8 3.1 1.9 2.1 2.9 2.6 2.9 1.6 0 -3.8 8.5 -6.1 13.2 -3.6 4.1 2.2 6.4 13.3 3.3 15.9 -3 2.5 -5 0.8 -5.5 -5 -0.4 -4.7 -0.8 -5.5 -2.5 -5.5 -1.6 0 -2.1 0.8 -2.3 3.9 -0.3 3.5 0.2 4.4 4.6 9 6 6.1 7.5 10.5 6.5 19.6 -0.8 8 -3.3 11 -9.1 11 -3.8 0 -8.2 -2.8 -8.2 -5.1 0 -0.6 -1.3 0.3 -2.9 2 -2.3 2.4 -3.7 3.1 -6.8 3.1 -6.4 -0.1 -9.3 -3.7 -9.3 -11.9 0 -4.1 0.4 -5.1 2 -5.6 3.1 -1 4 0.2 4 5.4 0 5.2 1.6 7.6 4.4 6.5 1.3 -0.5 1.6 -2.1 1.6 -8.3 l0 -7.7 -5.4 -4.7 -5.4 -4.7 -2.4 3.8 c-2 3.1 -2.4 5.4 -2.8 15.2 -0.5 11.5 -0.5 11.5 -3 11.5 -2.4 0 -2.5 -0.3 -3.2 -8 -0.4 -4.4 -0.5 -9.2 -0.2 -10.7 0.4 -2 -0.2 -3.7 -2 -6.1 -1.4 -1.9 -2.6 -4 -2.6 -4.8 -0.1 -0.8 -0.7 -0.3 -1.4 1 -1 1.8 -1.1 3.2 -0.4 5.3 0.6 1.6 0.8 6.4 0.6 10.8 -0.4 10.2 -2 12.2 -10.6 12.8 -3.3 0.2 -6.2 0 -6.5 -0.5z m46.8 -2.5 c1.9 -1.7 2.7 -3.6 3.2 -7.5 1 -8.6 -0.2 -11.9 -6.5 -18.5 -4.8 -5.1 -5.7 -6.5 -5.7 -9.8 0 -4.2 1.8 -7 4.6 -7 3.1 0 4.9 2.8 4.9 7.7 0 3.1 0.4 4.3 1.3 4 0.8 -0.3 1.1 -2.1 1 -5.3 -0.2 -5.6 -2.7 -8.4 -7.4 -8.4 -4.6 0 -6.9 3.1 -6.9 9.1 0 5 0.2 5.4 6 11.1 l6 6 0 7.7 c0 8.5 -0.8 10.1 -5.2 10.1 -3.2 0 -4.8 -2.8 -4.8 -8.6 0 -1.9 -0.4 -3.4 -1 -3.4 -0.5 0 -1 2.3 -1 5 0 4.1 0.5 5.6 2.5 7.5 3 3.1 5.6 3.2 9 0.3z m18 0 c1.9 -1.7 2.7 -3.6 3.2 -7.5 1 -8.6 -0.2 -11.9 -6.5 -18.5 -4.8 -5.1 -5.7 -6.5 -5.7 -9.8 0 -4.2 1.8 -7 4.6 -7 3.1 0 4.9 2.8 4.9 7.7 0 3.1 0.4 4.3 1.3 4 0.8 -0.3 1.1 -2.1 1 -5.3 -0.2 -5.6 -2.7 -8.4 -7.4 -8.4 -4.6 0 -6.9 3.1 -6.9 9.1 0 5 0.2 5.4 6 11.1 l6 6 0 7.7 c0 8.5 -0.8 10.1 -5.2 10.1 -3.2 0 -4.8 -2.8 -4.8 -8.6 0 -1.9 -0.4 -3.4 -1 -3.4 -0.5 0 -1 2.3 -1 5 0 4.1 0.5 5.6 2.5 7.5 3 3.1 5.6 3.2 9 0.3z m-51.5 -0.8 c1.7 -1.7 2 -3.3 2 -10.9 0 -6.6 -0.4 -9.2 -1.5 -10.1 -1.3 -1.1 -1.3 -1.5 0 -3.3 1.1 -1.5 1.5 -4.8 1.5 -10.9 l0 -8.8 -3.4 0 c-4 0 -8.7 1.6 -9.8 3.3 -0.4 0.7 -0.8 10.5 -0.8 22 l0 20.7 5 0 c3.7 0 5.5 -0.5 7 -2z m14 -8.9 c0 -9 0.3 -11.2 1.8 -13.2 1.1 -1.3 2.4 -3.9 3 -5.8 1.4 -3.8 1.6 -16.1 0.4 -16.1 -0.4 0 -1.3 3.8 -1.9 8.4 -0.5 4.8 -1.8 9.7 -2.8 11.2 l-1.7 2.7 -2.1 -3.3 c-1.5 -2.3 -2.2 -5.5 -2.5 -11.2 -0.3 -5.2 -0.8 -7.8 -1.6 -7.5 -2.9 0.9 -1.1 16.5 2.5 21 1.6 2.2 1.9 4.1 1.9 13.6 0 9.2 0.3 11.1 1.5 11.1 1.2 0 1.5 -1.9 1.5 -10.9z m34.4 7.3 c1.3 -0.5 1.6 -2.2 1.6 -8.2 l0 -7.5 -6 -5.6 c-4.4 -4.1 -6.8 -5.7 -8.8 -5.6 -2.6 0 -2.7 -0.3 -3.2 -5.5 -0.4 -4.7 -0.8 -5.5 -2.5 -5.5 -1.6 0 -2.1 0.8 -2.3 3.9 -0.3 3.5 0.2 4.4 4.7 9 3.2 3.3 5.3 6.5 6 9.2 0.9 3.3 1.5 4 3.3 4 2.1 -0.1 2.3 0.4 2.6 4.9 0.2 2.7 0.8 5.5 1.4 6.2 1.2 1.5 1.1 1.5 3.2 0.7z"/>
  <path d="M162 27.4 c0 -8.7 1 -10.4 6 -10.4 l4 0 0 6.3 c0 7.9 -1.7 10.7 -6.6 10.7 l-3.4 0 0 -6.6z m7 1.2 c0 -1.8 0.3 -4.8 0.6 -6.6 0.7 -3 0.6 -3.1 -2.2 -2.8 -2.8 0.3 -2.9 0.5 -3.2 6.6 -0.3 6.1 -0.2 6.2 2.3 6.2 2.2 0 2.5 -0.4 2.5 -3.4z"/>
 </g>
 <g fill="#1e4764">
  <path d="M17.7 61.4 c-0.4 -0.4 -0.7 -10.3 -0.7 -22 0 -20.9 0 -21.3 2.3 -24 2 -2.3 3.4 -2.8 8.5 -3.2 5 -0.4 6.3 -0.1 6.8 1.2 0.5 1.4 0.8 1.4 2.7 0.1 3.4 -2.4 9.4 -1.9 12.2 1 1.4 1.3 2.5 3.4 2.6 4.7 0 1.8 0.3 1.6 1.3 -1.2 0.8 -2.2 2.3 -3.9 4.2 -4.7 3.5 -1.5 10 -1.7 10.9 -0.3 0.4 0.6 1.3 0.5 2.4 -0.2 1 -0.6 2.6 -0.8 3.5 -0.5 1.4 0.6 1.6 3.1 1.6 21.5 0 17.4 0.3 21.2 1.5 22.2 1.2 1 1.8 1 3.1 0 1.3 -1.1 1.5 -4.4 1.3 -21.9 -0.1 -17.2 0.1 -20.7 1.3 -21.5 0.9 -0.5 2.3 -0.6 3.2 -0.3 1.4 0.6 1.6 3.1 1.6 21.1 0 20.6 -0.4 23.9 -3.5 26.9 -2.3 2.3 -8.7 2.2 -11.6 -0.2 -2.4 -1.9 -2.4 -2.2 -2.7 -23.1 -0.3 -19.8 -0.4 -21.1 -2 -19.7 -0.9 0.9 -3.3 1.7 -5.2 1.9 l-3.5 0.3 0 6.5 0 6.5 4.3 0.3 c3.7 0.3 4.2 0.6 4.2 2.8 0 2.2 -0.4 2.4 -4.5 2.4 l-4.5 0 0 9 0 9 5.1 0 c4.9 0 5 0.1 4.7 2.8 -0.3 2.7 -0.4 2.7 -7.8 2.7 l-7.5 0 -0.6 -6.5 c-0.4 -5.1 -0.6 -5.6 -0.7 -2.2 -0.3 5.7 -3.6 9.2 -8.9 9.2 -6.4 -0.1 -9.3 -3.7 -9.3 -11.9 0 -4.1 0.4 -5.1 2 -5.6 3.1 -1 4 0.2 4 5.4 0 5.2 1.6 7.6 4.4 6.5 1.3 -0.5 1.6 -2.1 1.6 -8.2 l0 -7.5 -5.9 -6.2 -5.9 -6.2 -1.3 4.5 c-1.1 4 -6.9 11.2 -9 11.2 -0.5 0 -1 3.9 -1.1 8.8 -0.3 7.9 -0.5 8.7 -2.3 9 -1.2 0.2 -2.4 0 -2.8 -0.4z m29.8 -2.6 c1.9 -1.7 2.7 -3.6 3.2 -7.5 1 -8.6 -0.2 -11.9 -6.5 -18.5 -4.8 -5.1 -5.7 -6.5 -5.7 -9.8 0 -4.2 1.8 -7 4.6 -7 3.1 0 4.9 2.8 4.9 7.7 0 3.1 0.4 4.3 1.3 4 0.8 -0.3 1.1 -2.1 1 -5.3 -0.2 -5.6 -2.7 -8.4 -7.4 -8.4 -4.6 0 -6.9 3.1 -6.9 9.1 0 5 0.2 5.4 6 11.1 l6 6 0 7.7 c0 8.5 -0.8 10.1 -5.2 10.1 -3.2 0 -4.8 -2.8 -4.8 -8.6 0 -1.9 -0.4 -3.4 -1 -3.4 -0.5 0 -1 2.3 -1 5 0 4.1 0.5 5.6 2.5 7.5 3 3.1 5.6 3.2 9 0.3z m36 -0.3 c2.5 -2.4 2.5 -2.4 2.5 -23.5 0 -13.3 -0.4 -21 -1 -21 -0.6 0 -1 7.1 -1 19.4 0 10.7 -0.4 20.6 -1 22 -1.2 3.3 -6.4 3.7 -8 0.7 -0.6 -1.2 -1 -10.1 -1 -22 0 -12.7 -0.4 -20.1 -1 -20.1 -0.6 0 -1 7.8 -1 21.4 l0 21.5 2.6 2 c3.5 2.7 5.9 2.6 8.9 -0.4z m-62.5 -6.8 l0 -8.4 3.8 -2.4 c5.2 -3.4 7.5 -8.6 8 -18.8 l0.5 -8.4 -5.2 0.5 c-9.1 0.9 -9.1 0.9 -9.1 25 0 13.2 0.4 20.8 1 20.8 0.6 0 1 -3.4 1 -8.3z m46 7.3 c0 -0.5 -2.3 -1 -5 -1 l-5.1 0 0.3 -10.7 0.3 -10.8 4.8 -0.3 c6.3 -0.4 6.1 -2.2 -0.3 -2.2 l-5 0 0 -6.6 c0 -8.4 1.1 -10.4 5.5 -10.4 3.5 0 5.4 -1.4 3.5 -2.5 -1.7 -1 -7.7 0.4 -9.5 2.1 -1.2 1.3 -1.5 5 -1.5 22.5 l0 20.9 6 0 c3.3 0 6 -0.4 6 -1z m-14.2 -26.2 c0 -5.7 -0.3 -8.8 -0.5 -7 -0.4 2.9 -0.8 3.3 -3.1 3 -2.5 -0.3 -2.7 -0.7 -3 -5.1 -0.3 -5.1 -2.1 -6.9 -4.7 -4.7 -3.2 2.6 -1.8 6.9 4.1 12.8 3.1 3.1 5.8 6.8 6.1 8.4 1 5 1.3 3 1.1 -7.4z"/>
  <path d="M21 30.4 c0 -11.8 0.7 -13.4 6.2 -13.4 l4.1 0 -0.7 6.3 c-1.1 9.4 -5 16.7 -9 16.7 -0.3 0 -0.6 -4.3 -0.6 -9.6z m6.9 -0.9 c0.6 -2.4 1.1 -5.8 1.1 -7.5 0 -2.8 -0.3 -3.1 -2.7 -2.8 -2.8 0.3 -2.8 0.3 -3.1 9.2 -0.3 8.8 -0.3 9 1.7 7.2 1 -0.9 2.4 -3.7 3 -6.1z"/>
  <path d="M90.5 60.8 c-0.3 -0.7 -0.4 -11.9 -0.3 -24.8 l0.3 -23.5 3.4 -0.3 c5.1 -0.5 9.9 0.6 12.2 2.9 1.7 1.7 1.9 3.4 1.9 21.3 0 19 -0.1 19.6 -2.3 22.2 -2 2.3 -3.4 2.8 -8.5 3.2 -4.7 0.3 -6.3 0.1 -6.7 -1z m13.3 -2.4 c2.1 -1.5 2.2 -2 2.2 -20.7 0 -10.6 -0.4 -19.7 -0.8 -20.4 -1.1 -1.7 -5.8 -3.3 -9.8 -3.3 l-3.4 0 0 23 0 23 4.8 0 c2.7 0 5.7 -0.7 7 -1.6z"/>
  <path d="M94.7 57.3 c-0.4 -0.3 -0.7 -9.6 -0.7 -20.5 l0 -19.8 4 0 c2.9 0 4.2 0.5 5 1.9 0.6 1.2 1 9.2 1 19 0 16.4 -0.1 17 -2.2 18.5 -2.3 1.6 -6 2.1 -7.1 0.9z m6.8 -19.8 l0 -18 -2.7 -0.3 -2.8 -0.3 0 18.6 0 18.6 2.8 -0.3 2.7 -0.3 0 -18z"/>
  <path d="M112 59.5 c-2.4 -2.6 -2.5 -3.1 -2.8 -20.9 -0.5 -25.4 0.3 -27.1 12.9 -26.4 l5.4 0.3 -0.2 21.9 c-0.2 19.9 -0.4 22.2 -2.1 24.5 -2.9 3.9 -9.9 4.2 -13.2 0.6z m9.3 0.6 c4 -1.5 4.7 -5.7 4.7 -26.7 l0 -19.4 -5.3 0 c-9.3 0 -9.2 -0.3 -9.2 23 0 20 0 20.2 2.4 22.1 2.6 2.1 3.9 2.3 7.4 1z"/>
  <path d="M115.2 56.8 c-0.8 -0.8 -1.2 -6.7 -1.2 -20 0 -17.5 0.1 -18.8 1.9 -19.8 1.1 -0.5 3.1 -1 4.5 -1 l2.6 0 0 19.8 c0 20.8 -0.3 22.2 -4.5 22.2 -1.2 0 -2.6 -0.5 -3.3 -1.2z m5.6 -19.6 l0.2 -19.3 -2.2 0.3 c-3.2 0.4 -3.9 4.3 -3.6 20.8 0.2 15.2 0.8 18.3 3.6 17.8 1.5 -0.3 1.7 -2.5 2 -19.6z"/>
  <path d="M138.7 61.4 c-0.8 -0.9 -0.9 -41 -0.1 -44.1 0.8 -3.1 6.5 -5.5 12.2 -5.1 l4.7 0.3 -0.2 18.5 c-0.1 10.2 -0.2 21.3 -0.2 24.8 -0.1 5.9 -0.2 6.2 -2.5 6.2 -3.1 0 -3.6 -1.5 -3.6 -11.1 0 -7.7 -0.1 -7.9 -2.5 -7.9 -2.4 0 -2.4 0.2 -2.7 9.3 -0.3 8.4 -0.5 9.2 -2.3 9.5 -1.2 0.2 -2.4 0 -2.8 -0.4z m3.3 -10.9 l0 -9.5 4.5 0 4.5 0 0 9.5 c0 7.8 0.3 9.5 1.5 9.5 1.3 0 1.5 -3 1.3 -22.7 -0.3 -25.4 0 -24.2 -7.4 -22.9 -6.3 1.2 -6.4 1.5 -6.4 24.7 0 13.3 0.4 20.9 1 20.9 0.6 0 1 -3.8 1 -9.5z"/>
  <path d="M142 29.9 c0 -10.9 0.8 -12.9 5.5 -12.9 l3.5 0 0 11 0 11 -4.5 0 -4.5 0 0 -9.1z m7 -2 c0 -8.8 -0.1 -9 -2.2 -8.7 -2.2 0.3 -2.3 0.8 -2.6 9.1 l-0.3 8.7 2.6 0 c2.5 0 2.5 0 2.5 -9.1z"/>
  <path d="M158.8 61.4 c-1.1 -1.1 -1 -41.8 0.1 -44.7 1.3 -3.4 6.1 -4.8 15.2 -4.5 l7.4 0.3 0.5 8.5 c0.3 4.7 1.1 9.4 1.7 10.4 1 1.8 1.1 1.8 2.4 -0.5 0.7 -1.3 1.4 -5.8 1.5 -9.9 0.2 -8.2 1.7 -10.6 5.2 -8.3 1.2 0.7 2.4 0.8 3.3 0.2 0.8 -0.5 3.1 -0.9 5.2 -0.9 3.1 0 4.5 0.7 6.8 3.1 1.9 2.1 2.9 2.6 2.9 1.6 0 -4.8 10.4 -6.4 14.5 -2.2 2.1 2 2.5 3.4 2.5 8.5 0 6.1 0 6.1 -2.7 5.8 -2.6 -0.3 -2.8 -0.7 -3.1 -5.1 -0.3 -5.1 -2.1 -6.9 -4.7 -4.7 -3.2 2.6 -1.8 6.9 4 12.7 6.4 6.4 7.8 10.2 6.8 19.3 -0.8 8 -3.3 11 -9.1 11 -3.8 0 -8.2 -2.8 -8.2 -5.1 0 -0.6 -1.3 0.3 -2.9 2 -2.3 2.4 -3.7 3.1 -6.8 3.1 -6.4 -0.1 -9.3 -3.7 -9.3 -11.9 0 -4.1 0.4 -5.1 2 -5.6 3.1 -1 4 0.2 4 5.4 0 5.2 1.6 7.6 4.4 6.5 1.3 -0.5 1.6 -2.1 1.6 -8.3 l0 -7.7 -5.4 -5.3 -5.4 -5.4 -2.4 4.4 c-1.9 3.6 -2.4 6.4 -2.8 15.9 -0.5 11.5 -0.5 11.5 -3 11.5 -2.4 0 -2.5 -0.3 -3.2 -8 -0.4 -4.4 -0.5 -9.2 -0.2 -10.7 0.4 -1.9 -0.2 -3.8 -2 -6.5 -1.4 -2.1 -2.6 -4.4 -2.6 -5.3 -0.1 -0.8 -0.8 -0.2 -1.6 1.3 -1.3 2.4 -1.3 3.4 -0.4 5.8 0.7 1.7 1.1 6.1 0.9 10.8 -0.5 10.3 -2.1 12.3 -10.6 12.9 -3.2 0.2 -6.1 0 -6.5 -0.4z m46.7 -2.6 c1.9 -1.7 2.7 -3.6 3.2 -7.5 1 -8.6 -0.2 -11.9 -6.5 -18.5 -4.8 -5.1 -5.7 -6.5 -5.7 -9.8 0 -4.2 1.8 -7 4.6 -7 3.1 0 4.9 2.8 4.9 7.7 0 3.1 0.4 4.3 1.3 4 0.8 -0.3 1.1 -2.1 1 -5.3 -0.2 -5.6 -2.7 -8.4 -7.4 -8.4 -4.6 0 -6.9 3.1 -6.9 9.1 0 5 0.2 5.4 6 11.1 l6 6 0 7.7 c0 8.5 -0.8 10.1 -5.2 10.1 -3.2 0 -4.8 -2.8 -4.8 -8.6 0 -1.9 -0.4 -3.4 -1 -3.4 -0.5 0 -1 2.3 -1 5 0 4.1 0.5 5.6 2.5 7.5 3 3.1 5.6 3.2 9 0.3z m18 0 c1.9 -1.7 2.7 -3.6 3.2 -7.5 1 -8.6 -0.2 -11.9 -6.5 -18.5 -4.8 -5.1 -5.7 -6.5 -5.7 -9.8 0 -4.2 1.8 -7 4.6 -7 3.1 0 4.9 2.8 4.9 7.7 0 3.1 0.4 4.3 1.3 4 0.8 -0.3 1.1 -2.1 1 -5.3 -0.2 -5.6 -2.7 -8.4 -7.4 -8.4 -4.6 0 -6.9 3.1 -6.9 9.1 0 5 0.2 5.4 6 11.1 l6 6 0 7.7 c0 8.5 -0.8 10.1 -5.2 10.1 -3.2 0 -4.8 -2.8 -4.8 -8.6 0 -1.9 -0.4 -3.4 -1 -3.4 -0.5 0 -1 2.3 -1 5 0 4.1 0.5 5.6 2.5 7.5 3 3.1 5.6 3.2 9 0.3z m-51.5 -0.8 c1.7 -1.7 2 -3.3 2 -10.9 0 -6.6 -0.4 -9.2 -1.5 -10.1 -1.3 -1.1 -1.3 -1.5 0 -3.3 1.1 -1.5 1.5 -4.8 1.5 -10.9 l0 -8.8 -3.4 0 c-4 0 -8.7 1.6 -9.8 3.3 -0.4 0.7 -0.8 10.5 -0.8 22 l0 20.7 5 0 c3.7 0 5.5 -0.5 7 -2z m14 -8.9 c0 -9 0.3 -11.2 1.8 -13.2 1.1 -1.3 2.4 -3.9 3 -5.8 1.4 -3.8 1.6 -16.1 0.4 -16.1 -0.4 0 -1.3 3.8 -1.9 8.4 -0.5 4.8 -1.8 9.7 -2.8 11.2 l-1.7 2.7 -2.1 -3.3 c-1.5 -2.3 -2.2 -5.5 -2.5 -11.2 -0.3 -5.2 -0.8 -7.8 -1.6 -7.5 -2.9 0.9 -1.1 16.5 2.5 21 1.6 2.2 1.9 4.1 1.9 13.6 0 9.2 0.3 11.1 1.5 11.1 1.2 0 1.5 -1.9 1.5 -10.9z m34.4 7.3 c1.3 -0.5 1.6 -2.2 1.6 -8.2 l0 -7.5 -5.8 -6.1 c-4.6 -4.7 -6.5 -6.1 -8.8 -6.1 -2.8 0 -2.9 -0.2 -3.2 -4.8 -0.3 -5.1 -2.1 -6.9 -4.7 -4.7 -3.2 2.6 -1.8 6.9 4 12.7 3.5 3.5 5.8 6.9 6.5 9.2 0.8 3 1.5 3.7 3.2 3.7 2.1 -0.1 2.3 0.4 2.6 4.9 0.2 2.7 0.8 5.5 1.4 6.2 1.2 1.5 1.1 1.5 3.2 0.7z"/>
  <path d="M162.2 47.3 l0.3 -10.8 3.4 0.2 c4.9 0.2 5.6 1.5 5.6 10.4 0 9 -1.2 10.9 -6.7 10.9 l-2.9 0 0.3 -10.7z m6.6 7.5 c0.7 -0.7 1.2 -4 1.2 -7.8 0 -6.8 -1 -9 -4.2 -9 -1.6 0 -1.8 1 -1.8 9 0 8 0.2 9 1.8 9 1 0 2.3 -0.5 3 -1.2z"/>
  <path d="M162 27.4 c0 -8.7 1 -10.4 6 -10.4 l4 0 0 6.3 c0 7.9 -1.7 10.7 -6.6 10.7 l-3.4 0 0 -6.6z m6.1 4.6 c1.5 -0.9 1.9 -2.2 1.9 -7.1 0 -6 0 -6 -2.7 -5.7 -2.6 0.3 -2.8 0.6 -3.1 5.7 -0.3 5.3 0.2 8.1 1.3 8.1 0.4 0 1.5 -0.5 2.6 -1z"/>
 </g>
 <g fill="#573e1b">
  <path d="M17.7 61.4 c-0.4 -0.4 -0.7 -10.4 -0.7 -22.1 0 -21.4 0 -21.4 2.5 -23.8 2.1 -2.2 3.3 -2.5 9 -2.5 5.4 0 6.5 0.3 6.5 1.7 0 1.5 0.1 1.5 1.9 -0.1 1 -0.9 3.5 -1.9 5.4 -2.3 3.1 -0.5 4 -0.1 6.7 2.5 2.6 2.7 3 3.7 3 8.7 0 5.6 0 5.6 -2.7 5.3 -2.6 -0.3 -2.8 -0.7 -3.3 -5.3 -0.5 -4.5 -0.7 -5 -3 -5 -2.2 0 -2.5 0.5 -2.8 3.8 -0.3 3.4 0.2 4.3 5.2 9.4 3.1 3 6 6.9 6.5 8.7 0.7 2.3 0.9 -0.3 1 -9.7 0.1 -12.2 0.2 -12.9 2.6 -15.2 1.9 -2 3.4 -2.5 7.5 -2.5 4.7 0 5 0.2 5 2.5 0 2.1 -0.5 2.5 -2.8 2.5 -5.1 0 -6.4 1.8 -6 8.5 l0.3 6 4.3 0.3 c3.7 0.3 4.2 0.6 4.2 2.8 0 2.2 -0.4 2.4 -4.5 2.4 l-4.5 0 0 9 0 9 5.1 0 c4.9 0 5 0.1 4.7 2.8 -0.3 2.7 -0.4 2.7 -7.8 2.7 l-7.5 0 -0.6 -6.5 c-0.4 -5.1 -0.6 -5.6 -0.7 -2.2 -0.3 5.7 -3.6 9.2 -8.9 9.2 -6.4 -0.1 -9.3 -3.7 -9.3 -11.9 0 -4.1 0.4 -5.1 2 -5.6 3.1 -1 4 0.2 4 5.4 0 5.2 1.6 7.6 4.4 6.5 1.3 -0.5 1.6 -2.1 1.6 -8.2 l0 -7.5 -5.9 -6.2 -5.9 -6.2 -1.3 4.5 c-1.1 4 -6.9 11.2 -9 11.2 -0.5 0 -1 3.9 -1.1 8.8 -0.3 7.9 -0.5 8.7 -2.3 9 -1.2 0.2 -2.4 0 -2.8 -0.4z m30.4 -2.3 c2.2 -1.8 2.4 -2.7 2.4 -11 l0 -9 -5.7 -5.8 c-5.4 -5.5 -5.8 -6.2 -5.8 -10.6 0 -4.1 0.3 -4.9 2.5 -5.9 3.8 -1.7 6.5 1.2 6.5 6.9 0 3.2 0.4 4.3 1.5 4.3 1.1 0 1.5 -1.2 1.5 -4.4 0 -5.9 -2.9 -9.6 -7.6 -9.6 -5.1 0 -7.4 2.9 -7.4 9 0 4.8 0.3 5.4 6 11.5 l6 6.4 0 6.6 c0 7.7 -1.2 10.5 -4.4 10.5 -3.2 0 -4.4 -1.7 -4.8 -6.9 -0.5 -6.8 -2.8 -6.5 -2.8 0.2 0 4.8 0.4 5.8 2.6 7.6 3.3 2.6 6.5 2.7 9.5 0.2z m-27.1 -7.5 c0 -7.5 0.2 -8.5 1.9 -9.1 3 -0.9 7.9 -7 9 -11.2 0.6 -2.1 1.1 -6.8 1.1 -10.5 l0 -6.8 -4 0 c-5.4 0 -8.7 1.7 -10 5.3 -0.5 1.7 -1 11.3 -1 21.8 0 16.1 0.2 18.9 1.5 18.9 1.2 0 1.5 -1.6 1.5 -8.4z m47 7.5 c0 -0.6 -2.4 -1.1 -5.2 -1.3 l-5.3 -0.3 -0.3 -10.2 -0.3 -10.3 5.1 0 c3.8 0 5 -0.4 5 -1.5 0 -1.1 -1.2 -1.5 -5.1 -1.5 l-5.1 0 0.4 -7.6 c0.4 -8.3 1.1 -9.4 6.6 -9.4 2.3 0 3.2 -0.5 3.2 -1.6 0 -1.4 -0.8 -1.6 -4.6 -1.1 -7.8 0.8 -7.9 0.9 -8.2 24.7 l-0.3 21 7 0 c3.9 0 7.1 -0.4 7.1 -0.9z"/>
  <path d="M112 59.5 c-2.4 -2.6 -2.5 -3.2 -2.8 -19.8 -0.5 -24.5 0.9 -27.7 12.6 -27.7 l5.2 0 0.2 15.8 c0.5 31 -0.1 33.4 -8.3 34 -3.7 0.2 -4.9 -0.1 -6.9 -2.3z m11.1 -0.4 c2.4 -1.9 2.4 -2.2 2.7 -23.5 l0.3 -21.6 -5.5 0 c-9.4 0 -9.6 0.4 -9.6 23 0 18.9 0 19.1 2.5 21.5 2.9 3 6.4 3.2 9.6 0.6z"/>
  <path d="M115.2 56.8 c-1.4 -1.4 -1.7 -36.4 -0.4 -38.6 0.5 -0.7 2.5 -1.5 4.5 -1.9 l3.7 -0.6 0 19.2 c0 11.4 -0.4 20 -1 21.2 -1.2 2.1 -5 2.5 -6.8 0.7z m5.6 -19.6 l0.2 -19.2 -2.4 0 c-1.6 0 -2.7 0.7 -3.1 2 -0.9 2.9 -0.3 33.2 0.8 35.3 0.4 1 1.6 1.7 2.5 1.5 1.5 -0.3 1.7 -2.5 2 -19.6z"/>
  <path d="M138.7 61.4 c-0.4 -0.4 -0.7 -10.4 -0.7 -22.1 0 -21.4 0 -21.4 2.5 -23.8 2 -2.1 3.4 -2.5 8.3 -2.5 l6 0 0.3 17.3 c0.2 9.4 0.3 20.5 0.1 24.5 -0.3 6.8 -0.5 7.2 -2.7 7.2 -3 0 -3.5 -1.6 -3.5 -11.1 0 -7.7 -0.1 -7.9 -2.5 -7.9 -2.4 0 -2.4 0.2 -2.7 9.3 -0.3 8.4 -0.5 9.2 -2.3 9.5 -1.2 0.2 -2.4 0 -2.8 -0.4z m3.3 -10.9 l0 -9.5 4.5 0 4.5 0 0 9.5 c0 7.8 0.3 9.5 1.5 9.5 1.3 0 1.5 -3.2 1.5 -23.1 l0 -23.1 -5.6 0.4 c-8.9 0.8 -8.8 0.5 -9.2 24.8 -0.3 18.6 -0.2 21 1.2 21 1.3 0 1.6 -1.5 1.6 -9.5z"/>
  <path d="M158.8 61.4 c-0.5 -0.4 -0.8 -10.4 -0.8 -22.1 0 -21.4 0 -21.4 2.5 -23.8 2.2 -2.3 3.2 -2.5 11.3 -2.5 l8.9 0 0.7 7 c0.3 3.9 1.2 8.5 1.9 10.3 l1.4 3.2 1.3 -2.5 c0.7 -1.4 1.6 -6 1.8 -10.2 0.4 -7.4 0.6 -7.8 2.8 -7.8 1.2 0 2.5 0.4 2.9 0.9 0.3 0.6 1.7 0.4 3.3 -0.5 4.4 -2.3 7.2 -1.7 10.8 2.2 1.9 2 3.4 2.9 3.4 2.1 0 -2.2 3.4 -4.7 7.3 -5.4 3.1 -0.5 4 -0.1 6.7 2.5 2.6 2.7 3 3.7 3 8.7 0 5.6 0 5.6 -2.7 5.3 -2.6 -0.3 -2.8 -0.7 -3.3 -5.3 -0.5 -4.5 -0.7 -5 -3 -5 -2.2 0 -2.5 0.5 -2.8 3.8 -0.3 3.4 0.2 4.3 5.2 9.3 6.5 6.5 7.9 10.3 6.9 19.4 -0.8 8 -3.3 11 -9.1 11 -3.8 0 -8.2 -2.8 -8.2 -5.1 0 -0.6 -1.3 0.3 -2.9 2 -2.3 2.4 -3.7 3.1 -6.8 3.1 -6.4 -0.1 -9.3 -3.7 -9.3 -11.9 0 -4.1 0.4 -5.1 2 -5.6 3.1 -1 4 0.2 4 5.4 0 5.2 1.6 7.6 4.4 6.5 1.3 -0.5 1.6 -2.1 1.6 -8.3 l0 -7.7 -5.4 -5.3 -5.4 -5.4 -2.4 4.4 c-1.9 3.6 -2.4 6.4 -2.8 15.9 -0.5 11.5 -0.5 11.5 -3 11.5 -2.4 0 -2.5 -0.3 -3.2 -8 -0.4 -4.4 -0.5 -9.2 -0.2 -10.7 0.4 -1.9 -0.2 -3.8 -2 -6.5 -1.4 -2.1 -2.6 -4.4 -2.6 -5.3 -0.1 -0.8 -0.8 -0.2 -1.6 1.3 -1.3 2.4 -1.3 3.4 -0.4 5.8 0.7 1.7 1.1 6.1 0.9 10.8 -0.5 10.3 -2.1 12.3 -10.6 12.9 -3.2 0.2 -6.1 0 -6.5 -0.4z m47.3 -2.3 c2.2 -1.8 2.4 -2.7 2.4 -11 l0 -9 -5.7 -5.8 c-5.4 -5.5 -5.8 -6.2 -5.8 -10.6 0 -4.1 0.3 -4.9 2.5 -5.9 3.8 -1.7 6.5 1.2 6.5 6.9 0 3.2 0.4 4.3 1.5 4.3 1.1 0 1.5 -1.2 1.5 -4.4 0 -5.9 -2.9 -9.6 -7.6 -9.6 -5.1 0 -7.4 2.9 -7.4 9 0 4.8 0.3 5.4 6 11.5 l6 6.4 0 6.6 c0 7.7 -1.2 10.5 -4.4 10.5 -3.2 0 -4.4 -1.7 -4.8 -6.9 -0.5 -6.8 -2.8 -6.5 -2.8 0.2 0 4.8 0.4 5.8 2.6 7.6 3.3 2.6 6.5 2.7 9.5 0.2z m18 0 c2.2 -1.8 2.4 -2.7 2.4 -11 l0 -9 -5.7 -5.8 c-5.4 -5.5 -5.8 -6.2 -5.8 -10.6 0 -4.1 0.3 -4.9 2.5 -5.9 3.8 -1.7 6.5 1.2 6.5 6.9 0 3.2 0.4 4.3 1.5 4.3 1.1 0 1.5 -1.2 1.5 -4.4 0 -5.9 -2.9 -9.6 -7.6 -9.6 -5.1 0 -7.4 2.9 -7.4 9 0 4.8 0.3 5.4 6 11.5 l6 6.4 0 6.6 c0 7.7 -1.2 10.5 -4.4 10.5 -3.2 0 -4.4 -1.7 -4.8 -6.9 -0.5 -6.8 -2.8 -6.5 -2.8 0.2 0 4.8 0.4 5.8 2.6 7.6 3.3 2.6 6.5 2.7 9.5 0.2z m-52.3 -0.7 c2 -1.4 2.2 -2.3 2.2 -10.6 0 -6.8 -0.4 -9.6 -1.5 -10.8 -1.4 -1.5 -1.4 -1.8 0 -3 1.1 -1 1.5 -3.5 1.5 -10.7 l0 -9.5 -5.6 0.4 c-8.9 0.8 -8.8 0.5 -9.2 24.8 l-0.3 21 5.3 0 c3.2 0 6.2 -0.6 7.6 -1.6z m14.2 -8.9 c0 -9.8 0.2 -10.8 2.8 -14.7 2.3 -3.5 2.8 -5.4 3.1 -12.6 0.2 -6.8 0 -8.3 -1 -8 -0.9 0.3 -1.6 2.9 -2 7.9 -1.3 16.9 -7.6 16.3 -8.7 -0.8 -0.3 -5.3 -0.8 -7.3 -1.8 -7.3 -1 0 -1.4 1.6 -1.4 6.3 0.1 6.6 1.8 12.7 4.4 15.6 1.3 1.4 1.6 4.1 1.6 12.9 0 9.3 0.3 11.2 1.5 11.2 1.2 0 1.5 -1.8 1.5 -10.5z m34.4 6.9 c1.3 -0.5 1.6 -2.2 1.6 -8.2 l0 -7.5 -5.8 -6.1 c-4.6 -4.7 -6.5 -6.1 -8.8 -6.1 -2.7 0 -2.9 -0.3 -3.4 -5 -0.5 -4.5 -0.7 -5 -3 -5 -2.2 0 -2.5 0.5 -2.8 3.8 -0.3 3.4 0.2 4.3 5.2 9.3 3.6 3.6 5.9 7 6.6 9.3 0.8 3 1.5 3.7 3.2 3.7 2.1 -0.1 2.3 0.4 2.6 4.9 0.2 2.7 0.8 5.5 1.4 6.2 1.2 1.5 1.1 1.5 3.2 0.7z"/>
  <path d="M162.7 57.4 c-0.4 -0.4 -0.7 -5.2 -0.7 -10.6 l0 -9.9 4.3 0.3 4.2 0.3 0.3 8.9 c0.2 4.9 -0.1 9.2 -0.5 9.7 -1.2 1.1 -6.8 2.1 -7.6 1.3z m6.1 -2.6 c0.7 -0.7 1.2 -4 1.2 -7.8 0 -6.8 -1 -9 -4.2 -9 -1.6 0 -1.8 1 -1.8 9 0 8 0.2 9 1.8 9 1 0 2.3 -0.5 3 -1.2z"/>
  <path d="M162.2 26.4 c0.4 -8.1 1.2 -9.4 6.1 -9.4 l2.7 0 0 7.3 c0 8.3 -0.9 9.7 -5.8 9.7 l-3.4 0 0.4 -7.6z m5.9 5.6 c1.6 -0.9 1.9 -2.2 1.9 -7.5 0 -6.7 -0.5 -7.4 -4.1 -5.5 -1.5 0.9 -1.9 2.2 -1.9 6.9 0 7.2 0.5 8 4.1 6.1z"/>
 </g>
 <g fill="#010102">
  <path d="M4 38 l0 -34 118.5 0 118.5 0 0 34 0 34 -118.5 0 -118.5 0 0 -34z m233 0 l0 -30 -114.5 0 -114.5 0 0 30 0 30 114.5 0 114.5 0 0 -30z"/>
  <path d="M17.7 61.4 c-0.4 -0.4 -0.7 -10.4 -0.7 -22.1 0 -21.4 0 -21.4 2.5 -23.8 2.1 -2.2 3.3 -2.5 9 -2.5 5.4 0 6.5 0.3 6.5 1.7 0 1.5 0.1 1.5 1.9 -0.1 1 -0.9 3.5 -1.9 5.4 -2.3 3.1 -0.5 4 -0.1 6.7 2.5 2.6 2.7 3 3.7 3 8.7 0 5.6 0 5.6 -2.7 5.3 -2.6 -0.3 -2.8 -0.7 -3.3 -5.3 -0.5 -4.5 -0.7 -5 -3 -5 -2.2 0 -2.5 0.5 -2.8 3.8 -0.3 3.4 0.2 4.3 4.4 8.5 7.2 7.3 7.4 7.7 7.4 17.5 0 8 -0.2 9 -2.5 11.2 -4.7 4.8 -13.5 2.5 -15.1 -3.9 -0.3 -1.2 -0.4 -4 -0.2 -6.2 0.3 -3.4 0.6 -3.9 3.1 -4.2 2.6 -0.3 2.7 -0.2 2.7 4.6 0 5.3 1.6 7.7 4.4 6.6 1.3 -0.5 1.6 -2.1 1.6 -8.2 l0 -7.5 -5.9 -6.2 -5.9 -6.2 -1.2 4.4 c-0.9 2.9 -2.6 5.5 -5.4 8 -4.1 3.7 -4.1 3.8 -4.6 12.3 -0.4 7.6 -0.7 8.5 -2.5 8.8 -1.2 0.2 -2.4 0 -2.8 -0.4z m30.4 -2.3 c2.2 -1.8 2.4 -2.7 2.4 -11 l0 -9 -5.7 -5.8 c-5.4 -5.5 -5.8 -6.2 -5.8 -10.6 0 -4.1 0.3 -4.9 2.5 -5.9 3.8 -1.7 6.5 1.2 6.5 6.9 0 3.2 0.4 4.3 1.5 4.3 1.1 0 1.5 -1.2 1.5 -4.4 0 -5.9 -2.9 -9.6 -7.6 -9.6 -5.1 0 -7.4 2.9 -7.4 9 0 4.8 0.3 5.4 6 11.5 l6 6.4 0 6.6 c0 7.7 -1.2 10.5 -4.4 10.5 -3.2 0 -4.4 -1.7 -4.8 -6.9 -0.5 -6.8 -2.8 -6.5 -2.8 0.2 0 4.8 0.4 5.8 2.6 7.6 3.3 2.6 6.5 2.7 9.5 0.2z m-27.1 -7.5 c0 -7.5 0.2 -8.5 1.9 -9.1 3 -0.9 7.9 -7 9 -11.2 0.6 -2.1 1.1 -6.8 1.1 -10.5 l0 -6.8 -4 0 c-5.4 0 -8.7 1.7 -10 5.3 -0.5 1.7 -1 11.3 -1 21.8 0 16.1 0.2 18.9 1.5 18.9 1.2 0 1.5 -1.6 1.5 -8.4z"/>
  <path d="M21.2 29.5 c0.3 -11.4 0.8 -12.5 6.1 -12.5 2.6 0 2.7 0.2 2.7 5.3 0 2.8 -0.4 6.8 -1 8.6 -0.9 3.4 -5.5 9.1 -7.3 9.1 -0.5 0 -0.7 -4.7 -0.5 -10.5z m6.7 0 c1.4 -5.6 1.4 -11.5 0 -11.5 -0.6 0 -1.9 0.5 -3 1 -1.6 0.9 -1.9 2.2 -1.9 9.7 0 8.4 0 8.6 1.9 6.9 1 -1 2.4 -3.7 3 -6.1z"/>
  <path d="M53.7 61.4 c-0.4 -0.4 -0.7 -10.4 -0.7 -22.1 0 -21.4 0 -21.4 2.5 -23.8 1.9 -2 3.4 -2.5 7.5 -2.5 4.7 0 5 0.2 5 2.5 0 2 -0.5 2.5 -2.6 2.5 -5.3 0 -6.4 1.5 -6.4 8.5 l0 6.5 4.5 0 c4.1 0 4.5 0.2 4.5 2.5 0 2.3 -0.4 2.5 -4.5 2.5 l-4.5 0 0 9 0 9 5.1 0 c4.9 0 5 0.1 4.7 2.8 -0.3 2.6 -0.5 2.7 -7.3 3 -3.9 0.1 -7.4 0 -7.8 -0.4z m14.3 -2.3 c0 -0.6 -2.4 -1.1 -5.2 -1.3 l-5.3 -0.3 -0.3 -10.2 -0.3 -10.3 5.1 0 c3.8 0 5 -0.4 5 -1.5 0 -1.1 -1.2 -1.5 -5.1 -1.5 l-5.1 0 0.4 -7.6 c0.4 -8.3 1.1 -9.4 6.6 -9.4 2.3 0 3.2 -0.5 3.2 -1.6 0 -1.4 -0.8 -1.6 -4.6 -1.1 -7.8 0.8 -7.9 0.9 -8.2 24.7 l-0.3 21 7 0 c3.9 0 7.1 -0.4 7.1 -0.9z"/>
  <path d="M72.9 60.1 c-2.4 -1.9 -2.4 -2.1 -2.7 -24.6 l-0.3 -22.6 2.8 0.3 2.8 0.3 0.3 20.6 c0.2 16.8 0.5 20.9 1.7 21.9 1.2 1 1.8 1 3 0 1.2 -1 1.5 -4.8 1.5 -22.1 l0 -20.9 3 0 3 0 0 20.4 c0 20.6 -0.4 23.9 -3.5 26.9 -2.3 2.3 -8.7 2.2 -11.6 -0.2z m10.5 -1.2 l2.6 -2 0 -21.6 c0 -16.7 -0.3 -21.4 -1.2 -21.1 -1 0.4 -1.4 5.6 -1.6 20.8 -0.1 13 -0.6 20.8 -1.3 21.7 -2 2.3 -5.8 1.6 -6.9 -1.3 -0.6 -1.4 -1 -11.3 -1 -22 0 -15.2 -0.3 -19.5 -1.2 -19.2 -1 0.4 -1.4 5.2 -1.6 18.4 -0.2 9.8 0 19.4 0.3 21.2 1.2 6.7 6.8 9.1 11.9 5.1z"/>
  <path d="M90.5 60.8 c-0.3 -0.7 -0.4 -11.7 -0.3 -24.3 l0.3 -23 6.2 -0.3 c5.6 -0.3 6.6 0 8.8 2.2 2.5 2.5 2.5 2.6 2.5 21.5 0 18.5 -0.1 19.1 -2.3 21.7 -2 2.3 -3.4 2.8 -8.5 3.2 -4.7 0.3 -6.3 0.1 -6.7 -1z m14.1 -2.9 c1.7 -1.9 1.9 -3.8 1.9 -21 0 -21.9 0 -21.9 -8.9 -22.7 l-5.6 -0.4 0 23.1 0 23.1 5.3 0 c4.2 0 5.8 -0.5 7.3 -2.1z"/>
  <path d="M95 37.6 l0 -20.6 2.8 0 c5.5 0 5.7 0.5 6 19.2 0.3 19.1 0 20.3 -5.5 21.4 l-3.3 0.7 0 -20.7z m6.8 0 c0.3 -18.7 0.1 -19.5 -4 -19.6 -1.7 0 -1.8 1.6 -1.8 19.1 l0 19 2.8 -0.3 2.7 -0.3 0.3 -17.9z"/>
  <path d="M111.9 59.4 c-2.3 -2.5 -2.4 -3.2 -2.7 -19.7 -0.5 -24.5 0.9 -27.7 12.6 -27.7 l5.2 0 0 22.4 c0 21.1 -0.1 22.5 -2.1 25 -2.9 3.7 -9.5 3.7 -13 0z m11.2 -0.3 c2.4 -1.9 2.4 -2.2 2.7 -23.5 l0.3 -21.6 -5.5 0 c-9.4 0 -9.6 0.4 -9.6 23 0 18.9 0 19.1 2.5 21.5 2.9 3 6.4 3.2 9.6 0.6z"/>
  <path d="M115.2 56.8 c-1.4 -1.4 -1.7 -36.4 -0.4 -38.6 0.5 -0.7 2.5 -1.5 4.5 -1.9 l3.7 -0.6 0 19.2 c0 11.4 -0.4 20 -1 21.2 -1.2 2.1 -5 2.5 -6.8 0.7z m6 -4.8 c0.4 -2.5 0.4 -11.1 0.1 -19.2 -0.6 -14.5 -0.7 -14.8 -2.8 -14.8 -1.3 0 -2.6 0.7 -2.9 1.6 -1.1 2.8 -0.7 33.4 0.5 35.5 1.8 3.4 4.3 1.9 5.1 -3.1z"/>
  <path d="M138.7 61.4 c-0.4 -0.4 -0.7 -10.4 -0.7 -22.1 0 -21.4 0 -21.4 2.5 -23.8 2 -2.1 3.4 -2.5 8.5 -2.5 l6 0 0 24.5 0 24.5 -2.5 0 c-3.2 0 -4 -2.9 -3.1 -12.1 l0.7 -6.9 -3 0 -3 0 -0.3 9.3 c-0.3 8.4 -0.5 9.2 -2.3 9.5 -1.2 0.2 -2.4 0 -2.8 -0.4z m3.3 -10.9 l0 -9.5 4.5 0 4.5 0 0 9.5 c0 7.8 0.3 9.5 1.5 9.5 1.3 0 1.5 -3.2 1.5 -23.1 l0 -23.1 -5.6 0.4 c-8.9 0.8 -8.8 0.5 -9.2 24.8 -0.3 18.6 -0.2 21 1.2 21 1.3 0 1.6 -1.5 1.6 -9.5z"/>
  <path d="M142.2 29 c0.3 -10.9 0.9 -12 6.1 -12 l2.7 0 0 11 0 11 -4.6 0 -4.6 0 0.4 -10z m6.8 -1.5 c0 -5.2 -0.3 -9.5 -0.6 -9.5 -0.3 0 -1.4 0.5 -2.5 1 -1.6 0.9 -1.9 2.2 -1.9 9.5 0 8.4 0 8.5 2.5 8.5 2.5 0 2.5 0 2.5 -9.5z"/>
  <path d="M158.8 61.4 c-0.5 -0.4 -0.8 -10.4 -0.8 -22.1 0 -21.4 0 -21.4 2.5 -23.8 2.2 -2.3 3.2 -2.5 11.3 -2.5 l8.9 0 0.7 7 c0.3 3.9 1.2 8.5 1.9 10.3 l1.4 3.2 1.3 -2.5 c0.7 -1.4 1.6 -6 1.8 -10.2 0.4 -7.4 0.6 -7.8 2.8 -7.8 1.2 0 2.5 0.4 2.9 0.9 0.3 0.6 1.7 0.4 3.3 -0.5 4.4 -2.3 7.2 -1.7 10.8 2.2 1.9 2 3.4 2.9 3.4 2.1 0 -2.2 3.4 -4.7 7.3 -5.4 3.1 -0.5 4 -0.1 6.7 2.5 2.6 2.7 3 3.7 3 8.7 0 5.6 0 5.6 -2.7 5.3 -2.6 -0.3 -2.8 -0.7 -3.3 -5.3 -0.5 -4.5 -0.7 -5 -3 -5 -2.2 0 -2.5 0.5 -2.8 3.8 -0.3 3.4 0.2 4.3 4.4 8.5 7.2 7.3 7.4 7.7 7.4 17.5 0 8 -0.2 9 -2.5 11.2 -3.1 3.2 -9.1 3.4 -12.3 0.5 -1.2 -1.2 -2.2 -2.6 -2.2 -3.1 0 -0.6 -1.3 0.3 -2.9 2 -2.3 2.4 -3.7 3.1 -6.8 3.1 -6.6 0 -9.8 -4.4 -9.1 -12.6 0.3 -3.4 0.6 -3.9 3.1 -4.2 2.6 -0.3 2.7 -0.2 2.7 4.6 0 5.3 1.6 7.7 4.4 6.6 1.3 -0.5 1.6 -2.1 1.6 -8.3 l0 -7.7 -5.4 -5.3 -5.4 -5.4 -2.4 4.4 c-1.9 3.6 -2.4 6.4 -2.8 15.9 -0.5 11.5 -0.5 11.5 -3 11.5 -2.5 0 -2.5 0 -3 -11.7 -0.4 -9 -0.9 -12 -2.2 -13.5 -0.9 -1 -2.1 -3 -2.6 -4.3 l-1 -2.5 -1.1 2.9 c-0.9 2.2 -0.9 3.7 0 5.8 0.6 1.6 1 6.1 0.8 10.7 -0.5 10.3 -2.1 12.3 -10.6 12.9 -3.2 0.2 -6.1 0 -6.5 -0.4z m47.3 -2.3 c2.2 -1.8 2.4 -2.7 2.4 -11 l0 -9 -5.7 -5.8 c-5.4 -5.5 -5.8 -6.2 -5.8 -10.6 0 -4.1 0.3 -4.9 2.5 -5.9 3.8 -1.7 6.5 1.2 6.5 6.9 0 3.2 0.4 4.3 1.5 4.3 1.1 0 1.5 -1.2 1.5 -4.4 0 -5.9 -2.9 -9.6 -7.6 -9.6 -5.1 0 -7.4 2.9 -7.4 9 0 4.8 0.3 5.4 6 11.5 l6 6.4 0 6.6 c0 7.7 -1.2 10.5 -4.4 10.5 -3.2 0 -4.4 -1.7 -4.8 -6.9 -0.5 -6.8 -2.8 -6.5 -2.8 0.2 0 4.8 0.4 5.8 2.6 7.6 3.3 2.6 6.5 2.7 9.5 0.2z m18 0 c2.2 -1.8 2.4 -2.7 2.4 -11 l0 -9 -5.7 -5.8 c-5.4 -5.5 -5.8 -6.2 -5.8 -10.6 0 -4.1 0.3 -4.9 2.5 -5.9 3.8 -1.7 6.5 1.2 6.5 6.9 0 3.2 0.4 4.3 1.5 4.3 1.1 0 1.5 -1.2 1.5 -4.4 0 -5.9 -2.9 -9.6 -7.6 -9.6 -5.1 0 -7.4 2.9 -7.4 9 0 4.8 0.3 5.4 6 11.5 l6 6.4 0 6.6 c0 7.7 -1.2 10.5 -4.4 10.5 -3.2 0 -4.4 -1.7 -4.8 -6.9 -0.5 -6.8 -2.8 -6.5 -2.8 0.2 0 4.8 0.4 5.8 2.6 7.6 3.3 2.6 6.5 2.7 9.5 0.2z m-52.3 -0.7 c2 -1.4 2.2 -2.3 2.2 -10.6 0 -6.8 -0.4 -9.6 -1.5 -10.8 -1.4 -1.5 -1.4 -1.8 0 -3 1.1 -1 1.5 -3.5 1.5 -10.7 l0 -9.5 -5.6 0.4 c-8.9 0.8 -8.8 0.5 -9.2 24.8 l-0.3 21 5.3 0 c3.2 0 6.2 -0.6 7.6 -1.6z m14.2 -8.9 c0 -9.8 0.2 -10.8 2.8 -14.7 2.3 -3.5 2.8 -5.4 3.1 -12.6 0.2 -6.8 0 -8.3 -1 -8 -0.9 0.3 -1.6 2.9 -2 7.9 -1.3 16.9 -7.6 16.3 -8.7 -0.8 -0.3 -5.3 -0.8 -7.3 -1.8 -7.3 -1 0 -1.4 1.6 -1.4 6.3 0.1 6.6 1.8 12.7 4.4 15.6 1.3 1.4 1.6 4.1 1.6 12.9 0 9.3 0.3 11.2 1.5 11.2 1.2 0 1.5 -1.8 1.5 -10.5z m34.4 6.9 c1.3 -0.5 1.6 -2.2 1.6 -8.2 l0 -7.5 -5.8 -6.1 c-4.6 -4.7 -6.5 -6.1 -8.8 -6.1 -2.7 0 -2.9 -0.3 -3.4 -5 -0.5 -4.5 -0.7 -5 -3 -5 -2.2 0 -2.5 0.5 -2.8 3.8 -0.3 3.4 0.2 4.3 4.4 8.5 6.2 6.2 7.4 8.1 7.4 11.4 0 2.4 0.4 2.8 3 2.8 2.9 0 3 0.1 3 4.8 0 2.6 0.5 5.3 1.2 6 1.4 1.4 1.2 1.4 3.2 0.6z"/>
  <path d="M162.7 57.4 c-0.4 -0.4 -0.7 -5.2 -0.7 -10.6 l0 -9.9 4.3 0.3 4.2 0.3 0.3 8.9 c0.2 4.9 -0.1 9.2 -0.5 9.7 -1.2 1.1 -6.8 2.1 -7.6 1.3z m6.1 -2.6 c1.2 -1.2 1.7 -12.4 0.6 -15.2 -0.3 -0.9 -1.7 -1.6 -3 -1.6 -2.4 0 -2.4 0.2 -2.4 9 0 8 0.2 9 1.8 9 1 0 2.3 -0.5 3 -1.2z"/>
  <path d="M162.2 26.4 c0.4 -8.1 1.2 -9.4 6.1 -9.4 l2.7 0 0 7.3 c0 8.3 -0.9 9.7 -5.8 9.7 l-3.4 0 0.4 -7.6z m5.9 5.6 c1.6 -0.9 1.9 -2.2 1.9 -7.5 0 -6.7 -0.5 -7.4 -4.1 -5.5 -1.6 0.9 -1.9 2.2 -1.9 7.5 0 6.7 0.5 7.4 4.1 5.5z"/>
 </g>
</svg>