<?xml version="1.0" encoding="utf-8"?>
<!DOCTYPE svg PUBLIC "-//W3C//DTD SVG 20010904//EN" "http://www.w3.org/TR/2001/REC-SVG-20010904/DTD/svg10.dtd">
<svg version="1.0" xmlns="http://www.w3.org/2000/svg" width="245px" height="76px" viewBox="0 0 245 76" preserveAspectRatio="xMidYMid meet">
 <g fill="#ffffff">
  <path d="M1.2 74.8 c-1.7 -1.7 -1.7 -71.9 0 -73.6 1.7 -1.7 240.9 -1.7 242.6 0 1.7 1.7 1.7 71.9 0 73.6 -1.7 1.7 -240.9 1.7 -242.6 0z m239.8 -36.8 l0 -34 -118.5 0 -118.5 0 0 34 0 34 118.5 0 118.5 0 0 -34z"/>
  <path d="M40.3 60 c-1.2 -0.5 -2.6 -1.8 -3.2 -2.9 -1.4 -2.5 -1.4 -10.1 -0.1 -10.1 0.6 0 1 1.7 1 3.8 0 6.1 3.9 9.4 7.9 6.6 1.8 -1.3 2.1 -2.5 2.1 -9.5 l0 -8.1 -6 -5.7 c-5.8 -5.6 -6 -6 -6 -10.8 0 -3.9 0.5 -5.4 2.3 -7.1 2.7 -2.6 6.4 -2.8 9.5 -0.6 1.8 1.2 2.2 2.5 2.2 7 0 3 -0.4 5.4 -1 5.4 -0.5 0 -1 -1.8 -1 -4.1 0 -5.3 -1.5 -7.9 -4.5 -7.9 -2.8 0 -5.5 3.4 -5.5 6.8 0 3.4 1.7 6.1 7.2 11.3 l4.8 4.5 0 9 c0 7.4 -0.3 9.4 -1.7 10.6 -2.5 2.2 -5.4 2.8 -8 1.8z"/>
  <path d="M76.3 60 c-1.2 -0.5 -2.6 -1.8 -3.2 -2.9 -1.4 -2.6 -1.5 -43.1 -0.1 -43.1 0.6 0 1 7.6 1 20.9 0 20.2 0.1 21 2.1 22.5 1.2 0.8 2.9 1.2 3.8 0.9 3.8 -1.3 4.1 -3.1 4.1 -24 0 -12.9 0.4 -20.3 1 -20.3 0.6 0 1 7.6 1 20.9 0 18.4 -0.2 21.1 -1.7 22.9 -2.2 2.5 -5.1 3.3 -8 2.2z"/>
  <path d="M115.7 60.3 c-3.8 -1 -4.7 -5.3 -4.7 -23.6 0 -16.1 0.2 -17.6 2.1 -20.1 1.8 -2.2 2.8 -2.6 7.5 -2.6 l5.5 0 -0.3 21 c-0.3 19.4 -0.4 21.1 -2.3 22.9 -2.3 2.1 -5.2 3.1 -7.8 2.4z m7.1 -24.2 l0.2 -20.1 -2.5 0 c-1.5 0 -3.5 0.5 -4.6 1 -1.8 1 -1.9 2.3 -1.9 19.8 0 10.3 0.4 19.2 0.8 19.8 1.2 1.9 3.6 2.2 5.7 0.9 1.9 -1.2 2 -2.5 2.3 -21.4z"/>
  <path d="M198.3 60 c-1.2 -0.5 -2.6 -1.8 -3.2 -2.9 -1.4 -2.5 -1.4 -10.1 -0.1 -10.1 0.6 0 1 1.7 1 3.8 0 6.1 3.9 9.4 7.9 6.6 1.8 -1.3 2.1 -2.5 2.1 -9.5 l0 -8.1 -6 -5.7 c-5.8 -5.6 -6 -6 -6 -10.8 0 -3.9 0.5 -5.4 2.3 -7.1 2.7 -2.6 6.4 -2.8 9.5 -0.6 1.8 1.2 2.2 2.5 2.2 7 0 3 -0.4 5.4 -1 5.4 -0.5 0 -1 -1.8 -1 -4.1 0 -5.3 -1.5 -7.9 -4.5 -7.9 -2.8 0 -5.5 3.4 -5.5 6.8 0 3.4 1.7 6.1 7.2 11.3 l4.8 4.5 0 9 c0 7.4 -0.3 9.4 -1.7 10.6 -2.5 2.2 -5.4 2.8 -8 1.8z"/>
  <path d="M216.3 60 c-1.2 -0.5 -2.6 -1.8 -3.2 -2.9 -1.4 -2.5 -1.4 -10.1 -0.1 -10.1 0.6 0 1 1.7 1 3.8 0 6.1 3.9 9.4 7.9 6.6 1.8 -1.3 2.1 -2.5 2.1 -9.5 l0 -8.1 -6 -5.7 c-5.8 -5.6 -6 -6 -6 -10.8 0 -3.9 0.5 -5.4 2.3 -7.1 2.7 -2.6 6.4 -2.8 9.5 -0.6 1.8 1.2 2.2 2.5 2.2 7 0 3 -0.4 5.4 -1 5.4 -0.5 0 -1 -1.8 -1 -4.1 0 -5.3 -1.5 -7.9 -4.5 -7.9 -2.8 0 -5.5 3.4 -5.5 6.8 0 3.4 1.7 6.1 7.2 11.3 l4.8 4.5 0 9 c0 7.4 -0.3 9.4 -1.7 10.6 -2.5 2.2 -5.4 2.8 -8 1.8z"/>
  <path d="M19 39.2 c0 -24 -0.2 -23.6 8.9 -24.8 l5.4 -0.7 -0.5 8.6 c-0.7 10.2 -2.8 15.1 -8.1 18.6 l-3.7 2.4 0 8.4 c0 4.9 -0.4 8.3 -1 8.3 -0.6 0 -1 -7.6 -1 -20.8z m5.1 -0.2 c3 -1.7 5.8 -8.2 6.5 -15.4 l0.7 -6.6 -4.1 0 c-3.1 0 -4.4 0.5 -5.2 1.9 -1 2 -1.5 21.1 -0.4 21.1 0.3 0 1.4 -0.5 2.5 -1z"/>
  <path d="M55 39.2 c0 -18.6 0.2 -21.1 1.8 -22.5 2 -1.8 8.5 -2.7 9.2 -1.2 0.3 0.6 -1.1 1.1 -3 1.3 -4.8 0.4 -6 2.4 -6 10.4 l0 6.8 4.4 0 c2.5 0 4.8 0.5 5.1 1 0.4 0.6 -1.3 1 -4.4 1 l-5.1 0 0 11 0 11 5 0 c2.8 0 5 0.5 5 1 0 0.6 -2.7 1 -6 1 l-6 0 0 -20.8z"/>
  <path d="M92 36.9 l0 -23.2 5.2 0.7 c8.8 1.2 8.8 1.1 8.8 22.8 0 17.5 -0.1 18.9 -2 20.8 -1.5 1.5 -3.3 2 -7 2 l-5 0 0 -23.1z m10.2 19.4 c1.6 -1.4 1.8 -3.4 1.8 -19.3 0 -12.3 -0.4 -18 -1.2 -18.8 -0.7 -0.7 -2.9 -1.2 -5 -1.2 l-3.8 0 0 20.5 0 20.5 3.2 0 c1.7 0 4 -0.7 5 -1.7z"/>
  <path d="M140 39.2 c0 -24 0 -24 8.6 -24.4 l4.9 -0.3 0.3 22.8 c0.2 19.7 0 22.7 -1.3 22.7 -1.2 0 -1.5 -1.7 -1.5 -9.5 l0 -9.5 -4.5 0 -4.5 0 0 9.5 c0 5.7 -0.4 9.5 -1 9.5 -0.6 0 -1 -7.6 -1 -20.8z m11 -11.2 l0 -11 -3.5 0 c-4.7 0 -5.5 2 -5.5 12.9 l0 9.1 4.5 0 4.5 0 0 -11z"/>
  <path d="M160 39.2 c0 -24 -0.1 -23.6 8.8 -24.8 l5.2 -0.7 0 9 c0 6.1 -0.4 9.5 -1.4 10.8 -1.2 1.7 -1.2 2.2 0 3.9 1.5 2.2 2 17.2 0.6 19.2 -1.3 2 -5 3.4 -9.1 3.4 l-4.1 0 0 -20.8z m10 16.8 c1.6 -1.6 2 -3.3 2 -9 0 -8.1 -1.9 -11 -7 -11 l-3 0 0 11 0 11 3 0 c1.7 0 3.9 -0.9 5 -2z m1 -24.6 c0.6 -1.4 1 -5.2 1 -8.5 l0 -5.9 -4 0 c-5 0 -6 1.7 -6 10.4 l0 6.6 4 0 c3.4 0 4.2 -0.4 5 -2.6z"/>
  <path d="M184 49.4 c0 -9.8 -0.2 -10.8 -2.6 -14 -4 -5.2 -6.1 -23.2 -2.4 -20.9 0.5 0.3 1 3.4 1 6.8 0 4.1 0.7 7.7 2.1 10.7 l2 4.5 1.9 -2.3 c2.1 -2.5 4 -10.3 4 -16.2 0 -2.2 0.5 -4 1 -4 1.5 0 1.1 11.9 -0.4 16.3 -0.8 2.1 -2.1 4.6 -3 5.6 -1.3 1.4 -1.6 4.1 -1.6 12.9 0 6.8 -0.4 11.2 -1 11.2 -0.6 0 -1 -4.2 -1 -10.6z"/>
 </g>
 <g fill="#44e1e1">
  <path d="M8 19.5 l0 -3.5 4.8 0 4.8 0 -0.4 3.5 c-0.4 3.4 -0.5 3.5 -4.8 3.5 -4.4 0 -4.4 0 -4.4 -3.5z"/>
  <path d="M23.2 21.3 c0.2 -1.1 1.4 -1.9 3.1 -2.1 2.2 -0.3 2.7 0.1 2.7 1.7 0 1.7 -0.6 2.1 -3.1 2.1 -2.4 0 -3 -0.4 -2.7 -1.7z"/>
  <path d="M41.2 20.8 c0.2 -1.5 1 -2.3 2.3 -2.3 1.3 0 2.1 0.8 2.3 2.3 0.3 1.8 -0.1 2.2 -2.3 2.2 -2.2 0 -2.6 -0.4 -2.3 -2.2z"/>
  <path d="M59.2 21.3 c0.2 -1.2 1.4 -1.9 3.8 -2.1 1.9 -0.2 4.3 -1.1 5.3 -1.9 1.6 -1.5 1.7 -1.4 1.7 2 l0 3.7 -5.6 0 c-4.7 0 -5.5 -0.3 -5.2 -1.7z"/>
  <path d="M76 19.5 c0 -3.2 0.2 -3.5 3 -3.5 2.8 0 3 0.3 3 3.5 0 3.2 -0.2 3.5 -3 3.5 -2.8 0 -3 -0.3 -3 -3.5z"/>
  <path d="M88 19.5 c0 -1.9 0.5 -3.5 1 -3.5 0.6 0 1 1.6 1 3.5 0 1.9 -0.4 3.5 -1 3.5 -0.5 0 -1 -1.6 -1 -3.5z"/>
  <path d="M96 20.9 c0 -1.6 0.5 -2 2.7 -1.7 1.7 0.2 2.9 1 3.1 2.1 0.3 1.3 -0.3 1.7 -2.7 1.7 -2.5 0 -3.1 -0.4 -3.1 -2.1z"/>
  <path d="M116.2 20.8 c0.2 -1.5 1.1 -2.4 2.6 -2.6 1.8 -0.3 2.2 0.1 2.2 2.2 0 2.1 -0.5 2.6 -2.6 2.6 -2.1 0 -2.5 -0.4 -2.2 -2.2z"/>
  <path d="M128 19.5 l0 -3.5 5.3 0 5.3 0 -0.4 3.5 c-0.4 3.5 -0.5 3.5 -5.3 3.5 l-4.9 0 0 -3.5z"/>
  <path d="M144.2 21.3 c0.2 -1 1.3 -1.9 2.6 -2.1 1.7 -0.3 2.2 0.2 2.2 1.7 0 1.6 -0.6 2.1 -2.6 2.1 -1.9 0 -2.5 -0.5 -2.2 -1.7z"/>
  <path d="M156 19.5 c0 -2.2 0.5 -3.5 1.3 -3.5 0.9 0 1.2 1.1 0.9 3.5 -0.2 1.9 -0.8 3.5 -1.3 3.5 -0.5 0 -0.9 -1.6 -0.9 -3.5z"/>
  <path d="M164.2 21.3 c0.2 -1.1 1.4 -1.9 3.1 -2.1 2.2 -0.3 2.7 0.1 2.7 1.7 0 1.7 -0.6 2.1 -3.1 2.1 -2.4 0 -3 -0.4 -2.7 -1.7z"/>
  <path d="M182 19.5 c0 -3.2 0.2 -3.5 3 -3.5 2.3 0 3 0.5 3 1.9 0 3.5 -1.2 5.1 -3.6 5.1 -2.1 0 -2.4 -0.5 -2.4 -3.5z"/>
  <path d="M199.2 20.8 c0.2 -1.5 1 -2.3 2.3 -2.3 1.3 0 2.1 0.8 2.3 2.3 0.3 1.8 -0.1 2.2 -2.3 2.2 -2.2 0 -2.6 -0.4 -2.3 -2.2z"/>
  <path d="M217.2 20.8 c0.2 -1.5 1 -2.3 2.3 -2.3 1.3 0 2.1 0.8 2.3 2.3 0.3 1.8 -0.1 2.2 -2.3 2.2 -2.2 0 -2.6 -0.4 -2.3 -2.2z"/>
  <path d="M228.3 19.5 l-1.1 -3.5 4.9 0 4.9 0 0 3.5 c0 3.4 -0.1 3.5 -3.8 3.5 -3.5 0 -4 -0.3 -4.9 -3.5z"/>
  <path d="M107.8 19 c-0.3 -2.1 0 -3 0.9 -3 1 0 1.1 0.8 0.7 2.8 -0.9 3.7 -1.1 3.8 -1.6 0.2z"/>
  <path d="M51.7 18 c-0.3 -1.2 0 -2 0.8 -2 0.8 0 1.1 0.8 0.8 2 -0.3 1.1 -0.7 2 -0.8 2 -0.1 0 -0.5 -0.9 -0.8 -2z"/>
 </g>
 <g fill="#c545e5">
  <path d="M8 64.6 l0 -3.4 16.3 0.4 c8.9 0.1 17.4 0.3 19 0.4 2.3 0.1 26.6 0.1 35.5 0.1 6.5 -0.1 37 -0.2 39.7 -0.2 18.3 0.1 80.8 0.1 83.5 0 3.4 -0.1 11.1 -0.1 16.8 0.1 1.5 0 6.2 -0.2 10.5 -0.6 l7.7 -0.6 0 3.6 0 3.6 -114.5 0 -114.5 0 0 -3.4z"/>
 </g>
 <g fill="#c3e244">
  <path d="M8 40 c0 -2.8 0.2 -3 4 -3 3.8 0 4 0.2 4 3 0 2.8 -0.2 3 -4 3 -3.8 0 -4 -0.2 -4 -3z"/>
  <path d="M29.2 40.1 c2 -2.7 2.9 -3 8 -3 4.8 -0.1 5.9 0.3 7.2 2.1 0.9 1.2 1.6 2.6 1.6 3 0 0.5 -4.3 0.8 -9.6 0.8 l-9.6 0 2.4 -2.9z"/>
  <path d="M59 41 c0 -1.6 0.7 -2 3.8 -2 2.1 0 4.3 -0.5 5 -1.2 0.9 -0.9 1.2 -0.5 1.2 2 0 3.2 0 3.2 -5 3.2 -4.3 0 -5 -0.3 -5 -2z"/>
  <path d="M76 40 c0 -2.5 0.4 -3 2.5 -3 2.1 0 2.5 0.5 2.5 3 0 2.5 -0.4 3 -2.5 3 -2.1 0 -2.5 -0.5 -2.5 -3z"/>
  <path d="M88 40 c0 -1.6 0.5 -3 1 -3 0.6 0 1 1.4 1 3 0 1.7 -0.4 3 -1 3 -0.5 0 -1 -1.3 -1 -3z"/>
  <path d="M97 40 c0 -2.5 0.4 -3 2.5 -3 2.1 0 2.5 0.5 2.5 3 0 2.5 -0.4 3 -2.5 3 -2.1 0 -2.5 -0.5 -2.5 -3z"/>
  <path d="M116 40 c0 -2.5 0.4 -3 2.5 -3 2.1 0 2.5 0.5 2.5 3 0 2.5 -0.4 3 -2.5 3 -2.1 0 -2.5 -0.5 -2.5 -3z"/>
  <path d="M128 40 c0 -2.9 0.2 -3 4.5 -3 4.3 0 4.5 0.1 4.5 3 0 2.9 -0.2 3 -4.5 3 -4.3 0 -4.5 -0.1 -4.5 -3z"/>
  <path d="M156.2 40 c0 -1.9 0.2 -2.7 0.5 -1.7 0.2 0.9 0.2 2.5 0 3.5 -0.3 0.9 -0.5 0.1 -0.5 -1.8z"/>
  <path d="M164 41 c0 -1.5 0.7 -2 2.5 -2 1.8 0 2.5 0.5 2.5 2 0 1.5 -0.7 2 -2.5 2 -1.8 0 -2.5 -0.5 -2.5 -2z"/>
  <path d="M175.8 39.9 c-0.4 -2.7 -0.2 -3 2.1 -2.7 2 0.2 2.7 0.9 2.9 3.1 0.3 2.3 0 2.7 -2.1 2.7 -2 0 -2.6 -0.6 -2.9 -3.1z"/>
  <path d="M188.2 40.3 c0.3 -2.7 0.6 -2.8 6.5 -3.1 5.4 -0.3 6.3 0 7.7 2 0.9 1.2 1.6 2.6 1.6 3 0 0.5 -3.6 0.8 -8.1 0.8 l-8 0 0.3 -2.7z"/>
  <path d="M210.1 40 l-1 -3 4.9 0 c3.9 0 5.2 0.4 6.4 2.2 2.4 3.4 2 3.8 -3.8 3.8 -5.1 0 -5.5 -0.2 -6.5 -3z"/>
  <path d="M228.1 40 l-1 -3 5 0 c4.8 0 4.9 0.1 4.9 3 0 2.8 -0.2 3 -3.9 3 -3.4 0 -4 -0.4 -5 -3z"/>
 </g>
 <g fill="#e1a244">
  <path d="M8 46 c0 -2.8 0.2 -3 4 -3 3.8 0 4 0.2 4 3 0 2.8 -0.2 3 -4 3 -3.8 0 -4 -0.2 -4 -3z"/>
  <path d="M23 46.6 c0 -3.2 1.5 -3.6 13.1 -3.6 l9.9 0 0 3 c0 2.4 -0.4 3 -2.3 3 -1.4 0 -2.6 -0.9 -3.2 -2.2 -1.4 -3.2 -5.9 -3.2 -6.3 0 -0.3 2 -0.9 2.2 -5.8 2.2 -5 0 -5.4 -0.2 -5.4 -2.4z"/>
  <path d="M59 46 c0 -2.9 0.1 -3 5 -3 4.9 0 5 0.1 5 3 0 2.9 -0.1 3 -5 3 -4.9 0 -5 -0.1 -5 -3z"/>
  <path d="M76 46 c0 -2.5 0.4 -3 2.5 -3 2.1 0 2.5 0.5 2.5 3 0 2.5 -0.4 3 -2.5 3 -2.1 0 -2.5 -0.5 -2.5 -3z"/>
  <path d="M88 46 c0 -1.6 0.5 -3 1 -3 0.6 0 1 1.4 1 3 0 1.7 -0.4 3 -1 3 -0.5 0 -1 -1.3 -1 -3z"/>
  <path d="M97 46 c0 -2.5 0.4 -3 2.5 -3 2.1 0 2.5 0.5 2.5 3 0 2.5 -0.4 3 -2.5 3 -2.1 0 -2.5 -0.5 -2.5 -3z"/>
  <path d="M116 46 c0 -2.5 0.4 -3 2.5 -3 2.1 0 2.5 0.5 2.5 3 0 2.5 -0.4 3 -2.5 3 -2.1 0 -2.5 -0.5 -2.5 -3z"/>
  <path d="M128 46 c0 -2.9 0.2 -3 4.5 -3 4.3 0 4.5 0.1 4.5 3 0 2.9 -0.2 3 -4.5 3 -4.3 0 -4.5 -0.1 -4.5 -3z"/>
  <path d="M144 46 c0 -2.5 0.4 -3 2.5 -3 2.1 0 2.5 0.5 2.5 3 0 2.5 -0.4 3 -2.5 3 -2.1 0 -2.5 -0.5 -2.5 -3z"/>
  <path d="M156.2 46 c0 -1.9 0.2 -2.7 0.5 -1.7 0.2 0.9 0.2 2.5 0 3.5 -0.3 0.9 -0.5 0.1 -0.5 -1.8z"/>
  <path d="M164 46 c0 -2.5 0.4 -3 2.5 -3 2.1 0 2.5 0.5 2.5 3 0 2.5 -0.4 3 -2.5 3 -2.1 0 -2.5 -0.5 -2.5 -3z"/>
  <path d="M176 46 c0 -2.5 0.4 -3 2.5 -3 2.1 0 2.5 0.5 2.5 3 0 2.5 -0.4 3 -2.5 3 -2.1 0 -2.5 -0.5 -2.5 -3z"/>
  <path d="M188 46 l0 -3 8 0 8 0 0 3 c0 2.4 -0.4 3 -2.3 3 -1.4 0 -2.6 -0.9 -3.2 -2.2 -0.7 -1.5 -1.9 -2.3 -3.5 -2.3 -1.8 0 -2.6 0.6 -2.8 2.3 -0.2 1.4 -1 2.2 -2.3 2.2 -1.4 0 -1.9 -0.7 -1.9 -3z"/>
  <path d="M216.5 46.8 c-0.6 -1.2 -2.1 -2.5 -3.5 -2.9 -1.7 -0.5 -0.7 -0.7 3.3 -0.8 5.7 -0.1 5.7 -0.1 5.7 2.9 0 2.4 -0.4 3 -2.3 3 -1.3 0 -2.6 -0.9 -3.2 -2.2z"/>
  <path d="M229 46 c0 -2.8 0.2 -3 4 -3 3.8 0 4 0.2 4 3 0 2.8 -0.2 3 -4 3 -3.8 0 -4 -0.2 -4 -3z"/>
 </g>
 <g fill="#de43a0">
  <path d="M8 58 c0 -2.8 0.2 -3 3.9 -3 3.5 0 3.9 0.3 4.3 3 0.4 2.9 0.4 3 -3.9 3 -4.1 0 -4.3 -0.1 -4.3 -3z"/>
  <path d="M23 58 c0 -3 0.1 -3 5.3 -3 4.7 0 5.4 0.3 6.9 3 l1.7 3 -6.9 0 -7 0 0 -3z"/>
  <path d="M49 60.6 c0 -0.2 0.6 -0.9 1.4 -1.5 1 -0.9 1.5 -0.8 2 0.4 0.4 1 -0.1 1.5 -1.4 1.5 -1.1 0 -2 -0.2 -2 -0.4z"/>
  <path d="M69.4 58.8 c0.1 -2.1 -0.5 -2.4 -5.4 -2.9 l-5.5 -0.6 5.5 -0.1 c5.1 -0.2 5.6 0 7.2 2.8 1.6 2.8 1.6 3 -0.1 3 -1.2 0 -1.7 -0.7 -1.7 -2.2z"/>
  <path d="M86.8 58 c2.2 -3.8 3.2 -3.8 3.2 0 0 2.5 -0.4 3 -2.5 3 -2.4 0 -2.4 0 -0.7 -3z"/>
  <path d="M106.7 58.3 c0.9 -1.6 1.8 -3 1.9 -3.1 0.1 -0.2 1 1 1.9 2.7 l1.6 3.1 -3.6 0 -3.5 0 1.7 -2.7z"/>
  <path d="M125.4 59.8 c0.3 -0.7 0.9 -2.1 1.2 -3 0.5 -1.4 1.8 -1.8 5.4 -1.8 4.5 0 4.8 0.1 5.2 3 l0.5 3 -6.5 0 c-4.7 0 -6.2 -0.3 -5.8 -1.2z"/>
  <path d="M144 58 c0 -2.5 0.4 -3 2.5 -3 2.1 0 2.5 0.5 2.5 3 0 2.5 -0.4 3 -2.5 3 -2.1 0 -2.5 -0.5 -2.5 -3z"/>
  <path d="M156 58 c0 -1.6 0.2 -3 0.4 -3 0.2 0 0.6 1.4 0.8 3 0.3 1.7 0.1 3 -0.4 3 -0.4 0 -0.8 -1.3 -0.8 -3z"/>
  <path d="M174 59 c1.1 -1.1 2 -2.4 2 -3 0 -0.5 1.1 -1 2.5 -1 2.1 0 2.5 0.5 2.5 3 0 2.9 -0.2 3 -4.5 3 l-4.5 0 2 -2z"/>
  <path d="M188 58 c0 -4 2.9 -4 5.2 0 l1.7 3 -3.4 0 c-3.2 0 -3.5 -0.2 -3.5 -3z"/>
  <path d="M208.5 59 c1 -1.1 1.9 -1.9 1.9 -1.8 0.1 0.2 0.8 1.1 1.5 2.1 1.2 1.5 1 1.7 -1.9 1.7 -3.2 0 -3.3 0 -1.5 -2z"/>
  <path d="M226.3 59.2 c1 -1 1.7 -2.4 1.7 -3 0 -0.8 1.7 -1.2 4.5 -1.2 4.3 0 4.5 0.1 4.5 3 l0 3 -6.2 0 c-5.9 0 -6 -0.1 -4.5 -1.8z"/>
 </g>
 <g fill="#4483e2">
  <path d="M8 12 l0 -4 114.5 0 114.5 0 0 4 0 4 -4.6 0 c-3.1 0 -5.4 -0.7 -7.1 -2 -3.4 -2.6 -9.2 -2.6 -12.7 0.1 l-2.6 2 -2.6 -2 c-2.9 -2.2 -8.3 -2.8 -11.4 -1.1 -1.3 0.7 -2.1 0.7 -2.5 0 -1 -1.7 -4.4 -1.1 -5.7 1 -1.6 2.6 -5.4 2.6 -6.1 0.1 -0.7 -2.9 -14.7 -2.9 -20.2 -0.1 -4.9 2.5 -5.1 2.5 -5.8 0 -0.4 -1.7 -1.4 -2 -5.4 -2 -2.9 0 -6.3 0.8 -8.6 2 -2.2 1.2 -5.6 2 -8.6 2 -4 0 -5 -0.3 -5.4 -2 -0.4 -1.7 -1.4 -2 -7.1 -2 -5.3 0 -7 0.4 -8.6 2 -2.5 2.5 -2.7 2.5 -7.5 0 -2.3 -1.2 -5.9 -2 -8.8 -2 -4 0 -5 0.3 -5.4 2 -0.7 2.6 -1.9 2.6 -2.6 0 -0.7 -2.6 -4.3 -2.6 -5.9 0 -1.7 2.6 -5.4 2.6 -6.1 0 -0.6 -2.2 -3.6 -2.7 -5.4 -0.9 -0.8 0.8 -1.3 0.8 -1.7 0 -1.1 -1.8 -7.6 -1.3 -12.3 1 l-4.3 2.1 -2.6 -2.1 c-3.1 -2.5 -9 -2.8 -12.1 -0.6 -1.9 1.3 -2.2 1.3 -2.7 -0.1 -0.9 -2.2 -11.7 -1.5 -14.4 0.9 -1.2 1.1 -3.6 1.7 -7 1.7 l-5.2 0 0 -4z"/>
 </g>
 <g fill="#44e283">
  <path d="M8 26.5 c0 -3.4 0.1 -3.5 4 -3.5 3.9 0 4 0.1 4 3.5 0 3.4 -0.1 3.5 -4 3.5 -3.9 0 -4 -0.1 -4 -3.5z"/>
  <path d="M23 26.6 c0 -3.2 0.3 -3.6 2.6 -3.6 2.3 0 2.5 0.3 2.2 3.3 -0.2 2.4 -0.8 3.3 -2.5 3.5 -2 0.3 -2.3 -0.1 -2.3 -3.2z"/>
  <path d="M42.7 28.2 c-2.5 -2.7 -2.2 -5.2 0.7 -5.2 2 0 2.5 0.6 2.8 3.5 0.4 3.9 -0.9 4.6 -3.5 1.7z"/>
  <path d="M59 26.5 l0 -3.5 5 0 5 0 0 3.5 0 3.5 -5 0 -5 0 0 -3.5z"/>
  <path d="M76 26.5 c0 -3.1 0.3 -3.5 2.5 -3.5 2.2 0 2.5 0.4 2.5 3.5 0 3.1 -0.3 3.5 -2.5 3.5 -2.2 0 -2.5 -0.4 -2.5 -3.5z"/>
  <path d="M88 26.5 c0 -1.9 0.5 -3.5 1 -3.5 0.6 0 1 1.6 1 3.5 0 1.9 -0.4 3.5 -1 3.5 -0.5 0 -1 -1.6 -1 -3.5z"/>
  <path d="M97 26.5 c0 -3.1 0.3 -3.5 2.5 -3.5 2.2 0 2.5 0.4 2.5 3.5 0 3.1 -0.3 3.5 -2.5 3.5 -2.2 0 -2.5 -0.4 -2.5 -3.5z"/>
  <path d="M116 26.5 c0 -3.1 0.3 -3.5 2.5 -3.5 2.2 0 2.5 0.4 2.5 3.5 0 3.1 -0.3 3.5 -2.5 3.5 -2.2 0 -2.5 -0.4 -2.5 -3.5z"/>
  <path d="M128 26.5 c0 -3.5 0 -3.5 4.5 -3.5 4.5 0 4.5 0 4.5 3.5 0 3.5 0 3.5 -4.5 3.5 -4.5 0 -4.5 0 -4.5 -3.5z"/>
  <path d="M144 26.5 c0 -3.1 0.3 -3.5 2.5 -3.5 2.2 0 2.5 0.4 2.5 3.5 0 3.1 -0.3 3.5 -2.5 3.5 -2.2 0 -2.5 -0.4 -2.5 -3.5z"/>
  <path d="M156.3 26.5 c0 -2.2 0.2 -3 0.4 -1.7 0.2 1.2 0.2 3 0 4 -0.3 0.9 -0.5 -0.1 -0.4 -2.3z"/>
  <path d="M164 26.5 c0 -3.1 0.3 -3.5 2.5 -3.5 2.2 0 2.5 0.4 2.5 3.5 0 3.1 -0.3 3.5 -2.5 3.5 -2.2 0 -2.5 -0.4 -2.5 -3.5z"/>
  <path d="M183 28.8 c0 -0.7 -0.3 -2.3 -0.6 -3.5 -0.5 -2 -0.2 -2.3 2 -2.3 2.7 0 3.4 1.9 2 5.4 -0.7 1.9 -3.4 2.2 -3.4 0.4z"/>
  <path d="M200.7 28.2 c-2.5 -2.7 -2.2 -5.2 0.7 -5.2 2 0 2.5 0.6 2.8 3.5 0.4 3.9 -0.9 4.6 -3.5 1.7z"/>
  <path d="M218.7 28.2 c-2.5 -2.7 -2.2 -5.2 0.7 -5.2 2 0 2.5 0.6 2.8 3.5 0.4 3.9 -0.9 4.6 -3.5 1.7z"/>
  <path d="M227.8 28.8 c0.7 -0.7 1.2 -2.2 1.2 -3.5 0 -2 0.5 -2.3 4 -2.3 3.9 0 4 0.1 4 3.5 l0 3.5 -5.2 0 c-4 0 -4.9 -0.3 -4 -1.2z"/>
 </g>
 <g fill="#63e144">
  <path d="M8 33.5 c0 -3.4 0.1 -3.5 4 -3.5 3.9 0 4 0.1 4 3.5 0 3.4 -0.1 3.5 -4 3.5 -3.9 0 -4 -0.1 -4 -3.5z"/>
  <path d="M23 33.5 c0 -2.8 0.4 -3.5 2 -3.5 2.4 0 2.4 0.3 0.5 4 -2 3.9 -2.5 3.8 -2.5 -0.5z"/>
  <path d="M33.2 33.8 c0.6 -1.8 1.2 -3.4 1.3 -3.5 0.1 -0.2 1.7 1.3 3.5 3.2 l3.4 3.5 -4.7 0 -4.6 0 1.1 -3.2z"/>
  <path d="M48 33.5 l-3.4 -3.5 3.7 0 c3.6 0 3.7 0.1 3.7 3.5 0 1.9 -0.1 3.5 -0.3 3.5 -0.2 0 -1.8 -1.6 -3.7 -3.5z"/>
  <path d="M76 33.5 c0 -3.1 0.3 -3.5 2.5 -3.5 2.2 0 2.5 0.4 2.5 3.5 0 3.1 -0.3 3.5 -2.5 3.5 -2.2 0 -2.5 -0.4 -2.5 -3.5z"/>
  <path d="M88 33.5 c0 -1.9 0.5 -3.5 1 -3.5 0.6 0 1 1.6 1 3.5 0 1.9 -0.4 3.5 -1 3.5 -0.5 0 -1 -1.6 -1 -3.5z"/>
  <path d="M97 33.5 c0 -3.1 0.3 -3.5 2.5 -3.5 2.2 0 2.5 0.4 2.5 3.5 0 3.1 -0.3 3.5 -2.5 3.5 -2.2 0 -2.5 -0.4 -2.5 -3.5z"/>
  <path d="M116 33.5 c0 -3.1 0.3 -3.5 2.5 -3.5 2.2 0 2.5 0.4 2.5 3.5 0 3.1 -0.3 3.5 -2.5 3.5 -2.2 0 -2.5 -0.4 -2.5 -3.5z"/>
  <path d="M128 33.5 c0 -3.5 0 -3.5 4.5 -3.5 4.5 0 4.5 0 4.5 3.5 0 3.5 0 3.5 -4.5 3.5 -4.5 0 -4.5 0 -4.5 -3.5z"/>
  <path d="M144 33.5 c0 -3.1 0.3 -3.5 2.5 -3.5 2.2 0 2.5 0.4 2.5 3.5 0 3.1 -0.3 3.5 -2.5 3.5 -2.2 0 -2.5 -0.4 -2.5 -3.5z"/>
  <path d="M156.3 33.5 c0 -2.2 0.2 -3 0.4 -1.7 0.2 1.2 0.2 3 0 4 -0.3 0.9 -0.5 -0.1 -0.4 -2.3z"/>
  <path d="M174.7 36.4 c-0.3 -0.3 -0.1 -1.7 0.5 -3 l1.1 -2.4 1.4 2.6 c0.7 1.5 1.3 2.8 1.3 3 0 0.6 -3.6 0.5 -4.3 -0.2z"/>
  <path d="M191.6 33.9 l1.6 -3.1 2.9 2.8 c1.6 1.5 2.9 2.9 2.9 3.1 0 0.2 -2 0.3 -4.5 0.3 l-4.6 0 1.7 -3.1z"/>
  <path d="M206 33.5 l-3.4 -3.5 4 0 c3.3 0 4.6 0.6 7.4 3.5 l3.4 3.5 -4 0 c-3.3 0 -4.6 -0.6 -7.4 -3.5z"/>
  <path d="M224 33.5 l-3.4 -3.5 8.2 0 8.2 0 0 3.5 0 3.5 -4.8 0 c-4.2 0 -5.3 -0.5 -8.2 -3.5z"/>
  <path d="M63.8 32.3 c-6.4 -0.5 -6.2 -2.3 0.2 -2.3 3.8 0 5 0.4 5 1.5 0 0.8 -0.1 1.4 -0.2 1.3 -0.2 -0.1 -2.4 -0.3 -5 -0.5z"/>
  <path d="M164 31 c0 -0.5 1.1 -1 2.5 -1 1.4 0 2.5 0.5 2.5 1 0 0.6 -1.1 1 -2.5 1 -1.4 0 -2.5 -0.4 -2.5 -1z"/>
 </g>
 <g fill="#e34545">
  <path d="M8 52 c0 -2.8 0.2 -3 4 -3 3.8 0 4 0.2 4 3 0 2.8 -0.2 3 -4 3 -3.8 0 -4 -0.2 -4 -3z"/>
  <path d="M23 52 c0 -3 0.1 -3 5.5 -3 5.4 0 5.5 0 5.5 3 0 3 -0.1 3 -5.5 3 -5.4 0 -5.5 0 -5.5 -3z"/>
  <path d="M41 52 c0 -2.5 0.4 -3 2.5 -3 2.1 0 2.5 0.5 2.5 3 0 2.5 -0.4 3 -2.5 3 -2.1 0 -2.5 -0.5 -2.5 -3z"/>
  <path d="M59 52 c0 -2.9 0.1 -3 4.9 -3 4.7 0 4.9 0.1 5.3 3 l0.5 3 -5.4 0 c-5.2 0 -5.3 0 -5.3 -3z"/>
  <path d="M76.7 54.3 c-0.4 -0.3 -0.7 -1.7 -0.7 -3 0 -1.8 0.5 -2.3 2.5 -2.3 2.1 0 2.5 0.5 2.5 3 0 2.2 -0.5 3 -1.8 3 -1 0 -2.2 -0.3 -2.5 -0.7z"/>
  <path d="M88 52 c0 -1.6 0.5 -3 1 -3 0.6 0 1 1.4 1 3 0 1.7 -0.4 3 -1 3 -0.5 0 -1 -1.3 -1 -3z"/>
  <path d="M97 52.1 c0 -2.7 0.4 -3.1 2.6 -3.1 2.2 0 2.5 0.4 2.2 2.8 -0.2 1.9 -0.9 2.8 -2.5 3 -2 0.3 -2.3 -0.1 -2.3 -2.7z"/>
  <path d="M116 52 c0 -2.5 0.4 -3 2.5 -3 2.1 0 2.5 0.5 2.5 3 0 2.5 -0.4 3 -2.5 3 -2.1 0 -2.5 -0.5 -2.5 -3z"/>
  <path d="M128 52 c0 -2.9 0.2 -3 4.5 -3 4.3 0 4.5 0.1 4.5 3 0 2.9 -0.2 3 -4.5 3 -4.3 0 -4.5 -0.1 -4.5 -3z"/>
  <path d="M144 52 c0 -2.5 0.4 -3 2.5 -3 2.1 0 2.5 0.5 2.5 3 0 2.5 -0.4 3 -2.5 3 -2.1 0 -2.5 -0.5 -2.5 -3z"/>
  <path d="M156.2 52 c0 -1.9 0.2 -2.7 0.5 -1.7 0.2 0.9 0.2 2.5 0 3.5 -0.3 0.9 -0.5 0.1 -0.5 -1.8z"/>
  <path d="M164 52 c0 -2.5 0.4 -3 2.5 -3 2.1 0 2.5 0.5 2.5 3 0 2.5 -0.4 3 -2.5 3 -2.1 0 -2.5 -0.5 -2.5 -3z"/>
  <path d="M176 52 c0 -2.5 0.4 -3 2.5 -3 2.1 0 2.5 0.5 2.5 3 0 2.5 -0.4 3 -2.5 3 -2.1 0 -2.5 -0.5 -2.5 -3z"/>
  <path d="M188 52 c0 -2.3 0.4 -3 2 -3 1.6 0 2 0.7 2 3 0 2.3 -0.4 3 -2 3 -1.6 0 -2 -0.7 -2 -3z"/>
  <path d="M199 52 c0 -2.5 0.4 -3 2.5 -3 2.1 0 2.5 0.5 2.5 3 0 2.5 -0.4 3 -2.5 3 -2.1 0 -2.5 -0.5 -2.5 -3z"/>
  <path d="M217 52 c0 -2.5 0.4 -3 2.5 -3 2.1 0 2.5 0.5 2.5 3 0 2.5 -0.4 3 -2.5 3 -2.1 0 -2.5 -0.5 -2.5 -3z"/>
  <path d="M229 52 c0 -2.8 0.2 -3 4 -3 3.8 0 4 0.2 4 3 0 2.8 -0.2 3 -4 3 -3.8 0 -4 -0.2 -4 -3z"/>
 </g>
 <g fill="#80782a">
  <path d="M183.4 49 c0 -6.3 0.1 -8.9 0.3 -5.7 0.2 3.1 0.2 8.3 0 11.5 -0.2 3.1 -0.3 0.5 -0.3 -5.8z"/>
  <path d="M50.3 47.5 c0 -3.3 0.2 -4.5 0.4 -2.7 0.2 1.8 0.2 4.5 0 6 -0.2 1.5 -0.4 0 -0.4 -3.3z"/>
  <path d="M208.3 47.5 c0 -3.3 0.2 -4.5 0.4 -2.7 0.2 1.8 0.2 4.5 0 6 -0.2 1.5 -0.4 0 -0.4 -3.3z"/>
  <path d="M226.3 47.5 c0 -3.3 0.2 -4.5 0.4 -2.7 0.2 1.8 0.2 4.5 0 6 -0.2 1.5 -0.4 0 -0.4 -3.3z"/>
  <path d="M16.3 43 c0 -3.6 0.2 -5 0.4 -3.2 0.2 1.7 0.2 4.7 0 6.5 -0.2 1.7 -0.4 0.3 -0.4 -3.3z"/>
  <path d="M69.3 43 c0 -3.6 0.2 -5 0.4 -3.2 0.2 1.7 0.2 4.7 0 6.5 -0.2 1.7 -0.4 0.3 -0.4 -3.3z"/>
  <path d="M81.3 43 c0 -3.6 0.2 -5 0.4 -3.2 0.2 1.7 0.2 4.7 0 6.5 -0.2 1.7 -0.4 0.3 -0.4 -3.3z"/>
  <path d="M96.3 43 c0 -3.6 0.2 -5 0.4 -3.2 0.2 1.7 0.2 4.7 0 6.5 -0.2 1.7 -0.4 0.3 -0.4 -3.3z"/>
  <path d="M108.3 43 c0 -3.6 0.2 -5 0.4 -3.2 0.2 1.7 0.2 4.7 0 6.5 -0.2 1.7 -0.4 0.3 -0.4 -3.3z"/>
  <path d="M137.3 43 c0 -3.6 0.2 -5 0.4 -3.2 0.2 1.7 0.2 4.7 0 6.5 -0.2 1.7 -0.4 0.3 -0.4 -3.3z"/>
  <path d="M157.3 43 c0 -3.6 0.2 -5 0.4 -3.2 0.2 1.7 0.2 4.7 0 6.5 -0.2 1.7 -0.4 0.3 -0.4 -3.3z"/>
  <path d="M169.3 44.5 c0 -2.7 0.2 -3.8 0.4 -2.2 0.2 1.5 0.2 3.7 0 5 -0.2 1.2 -0.4 0 -0.4 -2.8z"/>
  <path d="M51.8 40.5 c-0.3 -1.4 -0.1 -2.8 0.3 -3.1 0.5 -0.3 0.9 0.9 0.9 2.5 0 3.8 -0.6 4 -1.2 0.6z"/>
  <path d="M115.2 40 c0 -1.9 0.2 -2.7 0.5 -1.7 0.2 0.9 0.2 2.5 0 3.5 -0.3 0.9 -0.5 0.1 -0.5 -1.8z"/>
  <path d="M127.2 40 c0 -1.9 0.2 -2.7 0.5 -1.7 0.2 0.9 0.2 2.5 0 3.5 -0.3 0.9 -0.5 0.1 -0.5 -1.8z"/>
  <path d="M155.2 40 c0 -1.9 0.2 -2.7 0.5 -1.7 0.2 0.9 0.2 2.5 0 3.5 -0.3 0.9 -0.5 0.1 -0.5 -1.8z"/>
  <path d="M60.8 38.3 c1.2 -0.2 3.2 -0.2 4.5 0 1.2 0.2 0.2 0.4 -2.3 0.4 -2.5 0 -3.5 -0.2 -2.2 -0.4z"/>
  <path d="M50.2 24 c0 -1.9 0.2 -2.7 0.5 -1.7 0.2 0.9 0.2 2.5 0 3.5 -0.3 0.9 -0.5 0.1 -0.5 -1.8z"/>
  <path d="M208.2 24 c0 -1.9 0.2 -2.7 0.5 -1.7 0.2 0.9 0.2 2.5 0 3.5 -0.3 0.9 -0.5 0.1 -0.5 -1.8z"/>
  <path d="M226.2 24 c0 -1.9 0.2 -2.7 0.5 -1.7 0.2 0.9 0.2 2.5 0 3.5 -0.3 0.9 -0.5 0.1 -0.5 -1.8z"/>
 </g>
 <g fill="#8e2b3c">
  <path d="M181.4 60.6 c-0.3 -0.7 -0.4 -3.8 -0.2 -6.7 l0.3 -5.4 0.5 6.8 c0.5 6.7 0.4 7.9 -0.6 5.3z"/>
  <path d="M155.3 55 c0 -3.6 0.2 -5 0.4 -3.2 0.2 1.7 0.2 4.7 0 6.5 -0.2 1.7 -0.4 0.3 -0.4 -3.3z"/>
  <path d="M16.3 54.5 c0 -3.3 0.2 -4.5 0.4 -2.7 0.2 1.8 0.2 4.5 0 6 -0.2 1.5 -0.4 0 -0.4 -3.3z"/>
  <path d="M51.8 58.8 c-0.2 -0.7 -0.1 -3.3 0.3 -5.8 l0.6 -4.5 0.1 5.8 c0.2 5.5 -0.2 7.1 -1 4.5z"/>
  <path d="M137.3 54.5 c0 -3.3 0.2 -4.5 0.4 -2.7 0.2 1.8 0.2 4.5 0 6 -0.2 1.5 -0.4 0 -0.4 -3.3z"/>
  <path d="M157.3 54.5 c0 -3.3 0.2 -4.5 0.4 -2.7 0.2 1.8 0.2 4.5 0 6 -0.2 1.5 -0.4 0 -0.4 -3.3z"/>
  <path d="M96.3 52.5 c0 -2.2 0.2 -3 0.4 -1.7 0.2 1.2 0.2 3 0 4 -0.3 0.9 -0.5 -0.1 -0.4 -2.3z"/>
  <path d="M108.6 54.5 c-0.3 -0.9 -0.6 -2.6 -0.5 -3.8 0.1 -1.6 0.4 -1.2 1 1.2 1 3.4 0.6 5.5 -0.5 2.6z"/>
  <path d="M40.2 52 c0 -1.9 0.2 -2.7 0.5 -1.7 0.2 0.9 0.2 2.5 0 3.5 -0.3 0.9 -0.5 0.1 -0.5 -1.8z"/>
  <path d="M81.2 52 c0 -1.9 0.2 -2.7 0.5 -1.7 0.2 0.9 0.2 2.5 0 3.5 -0.3 0.9 -0.5 0.1 -0.5 -1.8z"/>
  <path d="M127.2 52 c0 -1.9 0.2 -2.7 0.5 -1.7 0.2 0.9 0.2 2.5 0 3.5 -0.3 0.9 -0.5 0.1 -0.5 -1.8z"/>
  <path d="M198.2 52 c0 -1.9 0.2 -2.7 0.5 -1.7 0.2 0.9 0.2 2.5 0 3.5 -0.3 0.9 -0.5 0.1 -0.5 -1.8z"/>
  <path d="M216.2 52 c0 -1.9 0.2 -2.7 0.5 -1.7 0.2 0.9 0.2 2.5 0 3.5 -0.3 0.9 -0.5 0.1 -0.5 -1.8z"/>
  <path d="M228.2 52 c0 -1.9 0.2 -2.7 0.5 -1.7 0.2 0.9 0.2 2.5 0 3.5 -0.3 0.9 -0.5 0.1 -0.5 -1.8z"/>
 </g>
 <g fill="#2f7e38">
  <path d="M16.3 30 c0 -4.1 0.2 -5.8 0.4 -3.7 0.2 2 0.2 5.4 0 7.5 -0.2 2 -0.4 0.3 -0.4 -3.8z"/>
  <path d="M37.9 33.3 l-3.4 -3.8 3.8 3.4 c2 1.9 3.7 3.6 3.7 3.8 0 0.8 -0.8 0 -4.1 -3.4z"/>
  <path d="M52.3 30 c0 -4.1 0.2 -5.8 0.4 -3.7 0.2 2 0.2 5.4 0 7.5 -0.2 2 -0.4 0.3 -0.4 -3.8z"/>
  <path d="M68 35.1 c0 -1.5 -0.8 -2.1 -3.7 -2.4 -3.6 -0.4 -3.6 -0.4 0.4 -0.3 l4.2 0.1 0.4 -5 c0.3 -4 0.4 -3.6 0.5 2.3 0.1 4.2 -0.2 7.2 -0.8 7.2 -0.5 0 -1 -0.9 -1 -1.9z"/>
  <path d="M81.3 30 c0 -4.1 0.2 -5.8 0.4 -3.7 0.2 2 0.2 5.4 0 7.5 -0.2 2 -0.4 0.3 -0.4 -3.8z"/>
  <path d="M96.3 30 c0 -4.1 0.2 -5.8 0.4 -3.7 0.2 2 0.2 5.4 0 7.5 -0.2 2 -0.4 0.3 -0.4 -3.8z"/>
  <path d="M108.3 29.5 c0 -4.4 0.2 -6.1 0.4 -3.7 0.2 2.3 0.2 5.9 0 8 -0.2 2 -0.4 0.1 -0.4 -4.3z"/>
  <path d="M115.3 30 c0 -4.1 0.2 -5.8 0.4 -3.7 0.2 2 0.2 5.4 0 7.5 -0.2 2 -0.4 0.3 -0.4 -3.8z"/>
  <path d="M127.3 30 c0 -4.1 0.2 -5.8 0.4 -3.7 0.2 2 0.2 5.4 0 7.5 -0.2 2 -0.4 0.3 -0.4 -3.8z"/>
  <path d="M137.3 30 c0 -4.1 0.2 -5.8 0.4 -3.7 0.2 2 0.2 5.4 0 7.5 -0.2 2 -0.4 0.3 -0.4 -3.8z"/>
  <path d="M155.3 30 c0 -4.1 0.2 -5.8 0.4 -3.7 0.2 2 0.2 5.4 0 7.5 -0.2 2 -0.4 0.3 -0.4 -3.8z"/>
  <path d="M157.3 30 c0 -4.1 0.2 -5.8 0.4 -3.7 0.2 2 0.2 5.4 0 7.5 -0.2 2 -0.4 0.3 -0.4 -3.8z"/>
  <path d="M196.5 34 c-1.5 -1.6 -3.3 -2.7 -3.8 -2.3 -0.6 0.4 -0.7 0.1 -0.2 -0.6 0.5 -0.9 1.7 -0.4 4.1 2 1.9 1.8 3.4 3.4 3.4 3.6 0 0.7 -0.8 0.1 -3.5 -2.7z"/>
  <path d="M213.9 33.3 l-3.4 -3.8 3.8 3.4 c2 1.9 3.7 3.6 3.7 3.8 0 0.8 -0.8 0 -4.1 -3.4z"/>
  <path d="M43.4 29.8 l-2.9 -3.3 3.3 2.9 c3 2.8 3.7 3.6 2.9 3.6 -0.2 0 -1.6 -1.5 -3.3 -3.2z"/>
  <path d="M201.4 29.8 l-2.9 -3.3 3.3 2.9 c3 2.8 3.7 3.6 2.9 3.6 -0.2 0 -1.6 -1.5 -3.3 -3.2z"/>
  <path d="M219.4 29.8 l-2.9 -3.3 3.3 2.9 c3 2.8 3.7 3.6 2.9 3.6 -0.2 0 -1.6 -1.5 -3.3 -3.2z"/>
  <path d="M169.3 27 c0 -2.5 0.2 -3.5 0.4 -2.2 0.2 1.2 0.2 3.2 0 4.5 -0.2 1.2 -0.4 0.2 -0.4 -2.3z"/>
  <path d="M228.3 24 c0 -2.5 0.2 -3.5 0.4 -2.2 0.2 1.2 0.2 3.2 0 4.5 -0.2 1.2 -0.4 0.2 -0.4 -2.3z"/>
  <path d="M40.2 23 c0 -1.9 0.2 -2.7 0.5 -1.7 0.2 0.9 0.2 2.5 0 3.5 -0.3 0.9 -0.5 0.1 -0.5 -1.8z"/>
  <path d="M198.2 23 c0 -1.9 0.2 -2.7 0.5 -1.7 0.2 0.9 0.2 2.5 0 3.5 -0.3 0.9 -0.5 0.1 -0.5 -1.8z"/>
  <path d="M216.2 23 c0 -1.9 0.2 -2.7 0.5 -1.7 0.2 0.9 0.2 2.5 0 3.5 -0.3 0.9 -0.5 0.1 -0.5 -1.8z"/>
 </g>
 <g fill="#1e4764">
  <path d="M18.4 40.5 c0 -11 0.2 -15.6 0.3 -10.3 0.2 5.3 0.2 14.3 0 20 -0.1 5.7 -0.3 1.3 -0.3 -9.7z"/>
  <path d="M54.4 40.5 c0 -11 0.2 -15.6 0.3 -10.3 0.2 5.3 0.2 14.3 0 20 -0.1 5.7 -0.3 1.3 -0.3 -9.7z"/>
  <path d="M139.4 40.5 c0 -11 0.2 -15.6 0.3 -10.3 0.2 5.3 0.2 14.3 0 20 -0.1 5.7 -0.3 1.3 -0.3 -9.7z"/>
  <path d="M159.4 40.5 c0 -11 0.2 -15.6 0.3 -10.3 0.2 5.3 0.2 14.3 0 20 -0.1 5.7 -0.3 1.3 -0.3 -9.7z"/>
  <path d="M94.4 37 c0 -11.3 0.2 -15.9 0.3 -10.2 0.2 5.6 0.2 14.8 0 20.5 -0.1 5.6 -0.3 1 -0.3 -10.3z"/>
  <path d="M38.3 50.5 c0 -2.2 0.2 -3 0.4 -1.7 0.2 1.2 0.2 3 0 4 -0.3 0.9 -0.5 -0.1 -0.4 -2.3z"/>
  <path d="M71.4 34.5 c0 -11 0.2 -15.6 0.3 -10.3 0.2 5.3 0.2 14.3 0 20 -0.1 5.7 -0.3 1.3 -0.3 -9.7z"/>
  <path d="M83.4 34.5 c0 -11 0.2 -15.6 0.3 -10.3 0.2 5.3 0.2 14.3 0 20 -0.1 5.7 -0.3 1.3 -0.3 -9.7z"/>
  <path d="M106.4 37 c0 -9.6 0.2 -13.6 0.3 -8.7 0.2 4.8 0.2 12.6 0 17.5 -0.1 4.8 -0.3 0.8 -0.3 -8.8z"/>
  <path d="M196.3 50.5 c0 -2.2 0.2 -3 0.4 -1.7 0.2 1.2 0.2 3 0 4 -0.3 0.9 -0.5 -0.1 -0.4 -2.3z"/>
  <path d="M214.3 50.5 c0 -2.2 0.2 -3 0.4 -1.7 0.2 1.2 0.2 3 0 4 -0.3 0.9 -0.5 -0.1 -0.4 -2.3z"/>
  <path d="M171.3 47 c0 -3.6 0.2 -5 0.4 -3.2 0.2 1.7 0.2 4.7 0 6.5 -0.2 1.7 -0.4 0.3 -0.4 -3.3z"/>
  <path d="M60.3 36.3 c1.5 -0.2 3.7 -0.2 5 0 1.2 0.2 0 0.4 -2.8 0.4 -2.7 0 -3.8 -0.2 -2.2 -0.4z"/>
  <path d="M171.3 23.5 c0 -3.8 0.2 -5.3 0.4 -3.2 0.2 2 0.2 5.2 0 7 -0.2 1.7 -0.4 0.1 -0.4 -3.8z"/>
  <path d="M30.3 20.5 c0 -2.2 0.2 -3 0.4 -1.7 0.2 1.2 0.2 3 0 4 -0.3 0.9 -0.5 -0.1 -0.4 -2.3z"/>
  <path d="M127.3 18 c0 -3 0.2 -4.3 0.4 -2.7 0.2 1.5 0.2 3.9 0 5.5 -0.2 1.5 -0.4 0.2 -0.4 -2.8z"/>
  <path d="M155.2 18.3 l-0.2 -5.2 -5.2 -0.4 -5.3 -0.3 5.3 -0.2 c6 -0.2 6.5 0.4 5.9 6.9 -0.4 4.4 -0.4 4.4 -0.5 -0.8z"/>
  <path d="M181.2 17.8 c-0.2 -4.3 -0.4 -4.7 -2.9 -5.1 l-2.8 -0.4 2.8 -0.2 c3.2 -0.1 4 1.3 3.4 6.5 -0.3 3.8 -0.4 3.7 -0.5 -0.8z"/>
  <path d="M189.3 18.5 c0 -2.2 0.2 -3 0.4 -1.7 0.2 1.2 0.2 3 0 4 -0.3 0.9 -0.5 -0.1 -0.4 -2.3z"/>
  <path d="M68 15.3 c0 -1.8 -0.7 -2.2 -4.2 -2.6 l-4.3 -0.4 4.1 -0.1 c4.7 -0.2 7.6 2 5.6 4 -0.9 0.9 -1.2 0.7 -1.2 -0.9z"/>
  <path d="M193.5 14 c-0.3 -0.5 -1.6 -1 -2.8 -1.1 -1.2 0 -1.6 -0.3 -0.9 -0.6 0.7 -0.3 2 -0.1 3 0.3 0.9 0.4 2.1 0.6 2.5 0.5 0.5 -0.1 0.6 0.3 0.2 0.9 -0.8 1.3 -1.2 1.3 -2 0z"/>
  <path d="M90.9 12.7 c0.5 -0.5 3 -0.7 5.7 -0.5 l4.9 0.3 -5.7 0.5 c-3.1 0.3 -5.3 0.1 -4.9 -0.3z"/>
  <path d="M26.3 12.3 c1.5 -0.2 3.9 -0.2 5.5 0 1.5 0.2 0.2 0.4 -2.8 0.4 -3 0 -4.3 -0.2 -2.7 -0.4z"/>
  <path d="M167.3 12.3 c1.5 -0.2 3.9 -0.2 5.5 0 1.5 0.2 0.2 0.4 -2.8 0.4 -3 0 -4.3 -0.2 -2.7 -0.4z"/>
 </g>
 <g fill="#573e1b">
  <path d="M52.2 46 c0 -1.9 0.2 -2.7 0.5 -1.7 0.2 0.9 0.2 2.5 0 3.5 -0.3 0.9 -0.5 0.1 -0.5 -1.8z"/>
  <path d="M115.2 46 c0 -1.9 0.2 -2.7 0.5 -1.7 0.2 0.9 0.2 2.5 0 3.5 -0.3 0.9 -0.5 0.1 -0.5 -1.8z"/>
  <path d="M121.3 43 c0 -3.6 0.2 -5 0.4 -3.2 0.2 1.7 0.2 4.7 0 6.5 -0.2 1.7 -0.4 0.3 -0.4 -3.3z"/>
  <path d="M127.2 46 c0 -1.9 0.2 -2.7 0.5 -1.7 0.2 0.9 0.2 2.5 0 3.5 -0.3 0.9 -0.5 0.1 -0.5 -1.8z"/>
  <path d="M149.2 46 c0 -1.9 0.2 -2.7 0.5 -1.7 0.2 0.9 0.2 2.5 0 3.5 -0.3 0.9 -0.5 0.1 -0.5 -1.8z"/>
  <path d="M155.2 46 c0 -1.9 0.2 -2.7 0.5 -1.7 0.2 0.9 0.2 2.5 0 3.5 -0.3 0.9 -0.5 0.1 -0.5 -1.8z"/>
  <path d="M181.2 46 c0 -1.9 0.2 -2.7 0.5 -1.7 0.2 0.9 0.2 2.5 0 3.5 -0.3 0.9 -0.5 0.1 -0.5 -1.8z"/>
  <path d="M228.2 46 c0 -1.9 0.2 -2.7 0.5 -1.7 0.2 0.9 0.2 2.5 0 3.5 -0.3 0.9 -0.5 0.1 -0.5 -1.8z"/>
 </g>
 <g fill="#010102">
  <path d="M4 38 l0 -34 118.5 0 118.5 0 0 34 0 34 -118.5 0 -118.5 0 0 -34z m233 0 l0 -30 -114.5 0 -114.5 0 0 30 0 30 114.5 0 114.5 0 0 -30z"/>
  <path d="M17.7 61.4 c-0.4 -0.4 -0.7 -10.4 -0.7 -22.1 0 -21.4 0 -21.4 2.5 -23.8 2.1 -2.2 3.3 -2.5 9 -2.5 5.4 0 6.5 0.3 6.5 1.7 0 1.5 0.1 1.5 1.9 -0.1 1 -0.9 3.5 -1.9 5.4 -2.3 3.1 -0.5 4 -0.1 6.7 2.5 2.6 2.7 3 3.7 3 8.7 0 5.6 0 5.6 -2.7 5.3 -2.6 -0.3 -2.8 -0.7 -3.3 -5.3 -0.5 -4.5 -0.7 -5 -3 -5 -2.2 0 -2.5 0.5 -2.8 3.8 -0.3 3.4 0.2 4.3 4.4 8.5 7.2 7.3 7.4 7.7 7.4 17.5 0 8 -0.2 9 -2.5 11.2 -4.7 4.8 -13.5 2.5 -15.1 -3.9 -0.3 -1.2 -0.4 -4 -0.2 -6.2 0.3 -3.4 0.6 -3.9 3.1 -4.2 2.6 -0.3 2.7 -0.2 2.7 4.6 0 5.3 1.6 7.7 4.4 6.6 1.3 -0.5 1.6 -2.1 1.6 -8.2 l0 -7.5 -5.9 -6.2 -5.9 -6.2 -1.2 4.4 c-0.9 2.9 -2.6 5.5 -5.4 8 -4.1 3.7 -4.1 3.8 -4.6 12.3 -0.4 7.6 -0.7 8.5 -2.5 8.8 -1.2 0.2 -2.4 0 -2.8 -0.4z m30.4 -2.3 c2.2 -1.8 2.4 -2.7 2.4 -11 l0 -9 -5.7 -5.8 c-5.4 -5.5 -5.8 -6.2 -5.8 -10.6 0 -4.1 0.3 -4.9 2.5 -5.9 3.8 -1.7 6.5 1.2 6.5 6.9 0 3.2 0.4 4.3 1.5 4.3 1.1 0 1.5 -1.2 1.5 -4.4 0 -5.9 -2.9 -9.6 -7.6 -9.6 -5.1 0 -7.4 2.9 -7.4 9 0 4.8 0.3 5.4 6 11.5 l6 6.4 0 6.6 c0 7.7 -1.2 10.5 -4.4 10.5 -3.2 0 -4.4 -1.7 -4.8 -6.9 -0.5 -6.8 -2.8 -6.5 -2.8 0.2 0 4.8 0.4 5.8 2.6 7.6 3.3 2.6 6.5 2.7 9.5 0.2z m-27.1 -7.5 c0 -7.5 0.2 -8.5 1.9 -9.1 3 -0.9 7.9 -7 9 -11.2 0.6 -2.1 1.1 -6.8 1.1 -10.5 l0 -6.8 -4 0 c-5.4 0 -8.7 1.7 -10 5.3 -0.5 1.7 -1 11.3 -1 21.8 0 16.1 0.2 18.9 1.5 18.9 1.2 0 1.5 -1.6 1.5 -8.4z"/>
  <path d="M21.2 29.5 c0.3 -11.4 0.8 -12.5 6.1 -12.5 2.6 0 2.7 0.2 2.7 5.3 0 2.8 -0.4 6.8 -1 8.6 -0.9 3.4 -5.5 9.1 -7.3 9.1 -0.5 0 -0.7 -4.7 -0.5 -10.5z m6.7 0 c1.4 -5.6 1.4 -11.5 0 -11.5 -0.6 0 -1.9 0.5 -3 1 -1.6 0.9 -1.9 2.2 -1.9 9.7 0 8.4 0 8.6 1.9 6.9 1 -1 2.4 -3.7 3 -6.1z"/>
  <path d="M53.7 61.4 c-0.4 -0.4 -0.7 -10.4 -0.7 -22.1 0 -21.4 0 -21.4 2.5 -23.8 1.9 -2 3.4 -2.5 7.5 -2.5 4.7 0 5 0.2 5 2.5 0 2 -0.5 2.5 -2.6 2.5 -5.3 0 -6.4 1.5 -6.4 8.5 l0 6.5 4.5 0 c4.1 0 4.5 0.2 4.5 2.5 0 2.3 -0.4 2.5 -4.5 2.5 l-4.5 0 0 9 0 9 5.1 0 c4.9 0 5 0.1 4.7 2.8 -0.3 2.6 -0.5 2.7 -7.3 3 -3.9 0.1 -7.4 0 -7.8 -0.4z m14.3 -2.3 c0 -0.6 -2.4 -1.1 -5.2 -1.3 l-5.3 -0.3 -0.3 -10.2 -0.3 -10.3 5.1 0 c3.8 0 5 -0.4 5 -1.5 0 -1.1 -1.2 -1.5 -5.1 -1.5 l-5.1 0 0.4 -7.6 c0.4 -8.3 1.1 -9.4 6.6 -9.4 2.3 0 3.2 -0.5 3.2 -1.6 0 -1.4 -0.8 -1.6 -4.6 -1.1 -7.8 0.8 -7.9 0.9 -8.2 24.7 l-0.3 21 7 0 c3.9 0 7.1 -0.4 7.1 -0.9z"/>
  <path d="M72.9 60.1 c-2.4 -1.9 -2.4 -2.1 -2.7 -24.6 l-0.3 -22.6 2.8 0.3 2.8 0.3 0.3 20.6 c0.2 16.8 0.5 20.9 1.7 21.9 1.2 1 1.8 1 3 0 1.2 -1 1.5 -4.8 1.5 -22.1 l0 -20.9 3 0 3 0 0 20.4 c0 20.6 -0.4 23.9 -3.5 26.9 -2.3 2.3 -8.7 2.2 -11.6 -0.2z m10.5 -1.2 l2.6 -2 0 -21.6 c0 -16.7 -0.3 -21.4 -1.2 -21.1 -1 0.4 -1.4 5.6 -1.6 20.8 -0.1 13 -0.6 20.8 -1.3 21.7 -2 2.3 -5.8 1.6 -6.9 -1.3 -0.6 -1.4 -1 -11.3 -1 -22 0 -15.2 -0.3 -19.5 -1.2 -19.2 -1 0.4 -1.4 5.2 -1.6 18.4 -0.2 9.8 0 19.4 0.3 21.2 1.2 6.7 6.8 9.1 11.9 5.1z"/>
  <path d="M90.5 60.8 c-0.3 -0.7 -0.4 -11.7 -0.3 -24.3 l0.3 -23 6.2 -0.3 c5.6 -0.3 6.6 0 8.8 2.2 2.5 2.5 2.5 2.6 2.5 21.5 0 18.5 -0.1 19.1 -2.3 21.7 -2 2.3 -3.4 2.8 -8.5 3.2 -4.7 0.3 -6.3 0.1 -6.7 -1z m14.1 -2.9 c1.7 -1.9 1.9 -3.8 1.9 -21 0 -21.9 0 -21.9 -8.9 -22.7 l-5.6 -0.4 0 23.1 0 23.1 5.3 0 c4.2 0 5.8 -0.5 7.3 -2.1z"/>
  <path d="M95 37.6 l0 -20.6 2.8 0 c5.5 0 5.7 0.5 6 19.2 0.3 19.1 0 20.3 -5.5 21.4 l-3.3 0.7 0 -20.7z m6.8 0 c0.3 -18.7 0.1 -19.5 -4 -19.6 -1.7 0 -1.8 1.6 -1.8 19.1 l0 19 2.8 -0.3 2.7 -0.3 0.3 -17.9z"/>
  <path d="M111.9 59.4 c-2.3 -2.5 -2.4 -3.2 -2.7 -19.7 -0.5 -24.5 0.9 -27.7 12.6 -27.7 l5.2 0 0 22.4 c0 21.1 -0.1 22.5 -2.1 25 -2.9 3.7 -9.5 3.7 -13 0z m11.2 -0.3 c2.4 -1.9 2.4 -2.2 2.7 -23.5 l0.3 -21.6 -5.5 0 c-9.4 0 -9.6 0.4 -9.6 23 0 18.9 0 19.1 2.5 21.5 2.9 3 6.4 3.2 9.6 0.6z"/>
  <path d="M115.2 56.8 c-1.4 -1.4 -1.7 -36.4 -0.4 -38.6 0.5 -0.7 2.5 -1.5 4.5 -1.9 l3.7 -0.6 0 19.2 c0 11.4 -0.4 20 -1 21.2 -1.2 2.1 -5 2.5 -6.8 0.7z m6 -4.8 c0.4 -2.5 0.4 -11.1 0.1 -19.2 -0.6 -14.5 -0.7 -14.8 -2.8 -14.8 -1.3 0 -2.6 0.7 -2.9 1.6 -1.1 2.8 -0.7 33.4 0.5 35.5 1.8 3.4 4.3 1.9 5.1 -3.1z"/>
  <path d="M138.7 61.4 c-0.4 -0.4 -0.7 -10.4 -0.7 -22.1 0 -21.4 0 -21.4 2.5 -23.8 2 -2.1 3.4 -2.5 8.5 -2.5 l6 0 0 24.5 0 24.5 -2.5 0 c-3.2 0 -4 -2.9 -3.1 -12.1 l0.7 -6.9 -3 0 -3 0 -0.3 9.3 c-0.3 8.4 -0.5 9.2 -2.3 9.5 -1.2 0.2 -2.4 0 -2.8 -0.4z m3.3 -10.9 l0 -9.5 4.5 0 4.5 0 0 9.5 c0 7.8 0.3 9.5 1.5 9.5 1.3 0 1.5 -3.2 1.5 -23.1 l0 -23.1 -5.6 0.4 c-8.9 0.8 -8.8 0.5 -9.2 24.8 -0.3 18.6 -0.2 21 1.2 21 1.3 0 1.6 -1.5 1.6 -9.5z"/>
  <path d="M142.2 29 c0.3 -10.9 0.9 -12 6.1 -12 l2.7 0 0 11 0 11 -4.6 0 -4.6 0 0.4 -10z m6.8 -1.5 c0 -5.2 -0.3 -9.5 -0.6 -9.5 -0.3 0 -1.4 0.5 -2.5 1 -1.6 0.9 -1.9 2.2 -1.9 9.5 0 8.4 0 8.5 2.5 8.5 2.5 0 2.5 0 2.5 -9.5z"/>
  <path d="M158.8 61.4 c-0.5 -0.4 -0.8 -10.4 -0.8 -22.1 0 -21.4 0 -21.4 2.5 -23.8 2.2 -2.3 3.2 -2.5 11.3 -2.5 l8.9 0 0.7 7 c0.3 3.9 1.2 8.5 1.9 10.3 l1.4 3.2 1.3 -2.5 c0.7 -1.4 1.6 -6 1.8 -10.2 0.4 -7.4 0.6 -7.8 2.8 -7.8 1.2 0 2.5 0.4 2.9 0.9 0.3 0.6 1.7 0.4 3.3 -0.5 4.4 -2.3 7.2 -1.7 10.8 2.2 1.9 2 3.4 2.9 3.4 2.1 0 -2.2 3.4 -4.7 7.3 -5.4 3.1 -0.5 4 -0.1 6.7 2.5 2.6 2.7 3 3.7 3 8.7 0 5.6 0 5.6 -2.7 5.3 -2.6 -0.3 -2.8 -0.7 -3.3 -5.3 -0.5 -4.5 -0.7 -5 -3 -5 -2.2 0 -2.5 0.5 -2.8 3.8 -0.3 3.4 0.2 4.3 4.4 8.5 7.2 7.3 7.4 7.7 7.4 17.5 0 8 -0.2 9 -2.5 11.2 -3.1 3.2 -9.1 3.4 -12.3 0.5 -1.2 -1.2 -2.2 -2.6 -2.2 -3.1 0 -0.6 -1.3 0.3 -2.9 2 -2.3 2.4 -3.7 3.1 -6.8 3.1 -6.6 0 -9.8 -4.4 -9.1 -12.6 0.3 -3.4 0.6 -3.9 3.1 -4.2 2.6 -0.3 2.7 -0.2 2.7 4.6 0 5.3 1.6 7.7 4.4 6.6 1.3 -0.5 1.6 -2.1 1.6 -8.3 l0 -7.7 -5.4 -5.3 -5.4 -5.4 -2.4 4.4 c-1.9 3.6 -2.4 6.4 -2.8 15.9 -0.5 11.5 -0.5 11.5 -3 11.5 -2.5 0 -2.5 0 -3 -11.7 -0.4 -9 -0.9 -12 -2.2 -13.5 -0.9 -1 -2.1 -3 -2.6 -4.3 l-1 -2.5 -1.1 2.9 c-0.9 2.2 -0.9 3.7 0 5.8 0.6 1.6 1 6.1 0.8 10.7 -0.5 10.3 -2.1 12.3 -10.6 12.9 -3.2 0.2 -6.1 0 -6.5 -0.4z m47.3 -2.3 c2.2 -1.8 2.4 -2.7 2.4 -11 l0 -9 -5.7 -5.8 c-5.4 -5.5 -5.8 -6.2 -5.8 -10.6 0 -4.1 0.3 -4.9 2.5 -5.9 3.8 -1.7 6.5 1.2 6.5 6.9 0 3.2 0.4 4.3 1.5 4.3 1.1 0 1.5 -1.2 1.5 -4.4 0 -5.9 -2.9 -9.6 -7.6 -9.6 -5.1 0 -7.4 2.9 -7.4 9 0 4.8 0.3 5.4 6 11.5 l6 6.4 0 6.6 c0 7.7 -1.2 10.5 -4.4 10.5 -3.2 0 -4.4 -1.7 -4.8 -6.9 -0.5 -6.8 -2.8 -6.5 -2.8 0.2 0 4.8 0.4 5.8 2.6 7.6 3.3 2.6 6.5 2.7 9.5 0.2z m18 0 c2.2 -1.8 2.4 -2.7 2.4 -11 l0 -9 -5.7 -5.8 c-5.4 -5.5 -5.8 -6.2 -5.8 -10.6 0 -4.1 0.3 -4.9 2.5 -5.9 3.8 -1.7 6.5 1.2 6.5 6.9 0 3.2 0.4 4.3 1.5 4.3 1.1 0 1.5 -1.2 1.5 -4.4 0 -5.9 -2.9 -9.6 -7.6 -9.6 -5.1 0 -7.4 2.9 -7.4 9 0 4.8 0.3 5.4 6 11.5 l6 6.4 0 6.6 c0 7.7 -1.2 10.5 -4.4 10.5 -3.2 0 -4.4 -1.7 -4.8 -6.9 -0.5 -6.8 -2.8 -6.5 -2.8 0.2 0 4.8 0.4 5.8 2.6 7.6 3.3 2.6 6.5 2.7 9.5 0.2z m-52.3 -0.7 c2 -1.4 2.2 -2.3 2.2 -10.6 0 -6.8 -0.4 -9.6 -1.5 -10.8 -1.4 -1.5 -1.4 -1.8 0 -3 1.1 -1 1.5 -3.5 1.5 -10.7 l0 -9.5 -5.6 0.4 c-8.9 0.8 -8.8 0.5 -9.2 24.8 l-0.3 21 5.3 0 c3.2 0 6.2 -0.6 7.6 -1.6z m14.2 -8.9 c0 -9.8 0.2 -10.8 2.8 -14.7 2.3 -3.5 2.8 -5.4 3.1 -12.6 0.2 -6.8 0 -8.3 -1 -8 -0.9 0.3 -1.6 2.9 -2 7.9 -1.3 16.9 -7.6 16.3 -8.7 -0.8 -0.3 -5.3 -0.8 -7.3 -1.8 -7.3 -1 0 -1.4 1.6 -1.4 6.3 0.1 6.6 1.8 12.7 4.4 15.6 1.3 1.4 1.6 4.1 1.6 12.9 0 9.3 0.3 11.2 1.5 11.2 1.2 0 1.5 -1.8 1.5 -10.5z m34.4 6.9 c1.3 -0.5 1.6 -2.2 1.6 -8.2 l0 -7.5 -5.8 -6.1 c-4.6 -4.7 -6.5 -6.1 -8.8 -6.1 -2.7 0 -2.9 -0.3 -3.4 -5 -0.5 -4.5 -0.7 -5 -3 -5 -2.2 0 -2.5 0.5 -2.8 3.8 -0.3 3.4 0.2 4.3 4.4 8.5 6.2 6.2 7.4 8.1 7.4 11.4 0 2.4 0.4 2.8 3 2.8 2.9 0 3 0.1 3 4.8 0 2.6 0.5 5.3 1.2 6 1.4 1.4 1.2 1.4 3.2 0.6z"/>
  <path d="M162.7 57.4 c-0.4 -0.4 -0.7 -5.2 -0.7 -10.6 l0 -9.9 4.3 0.3 4.2 0.3 0.3 8.9 c0.2 4.9 -0.1 9.2 -0.5 9.7 -1.2 1.1 -6.8 2.1 -7.6 1.3z m6.1 -2.6 c1.2 -1.2 1.7 -12.4 0.6 -15.2 -0.3 -0.9 -1.7 -1.6 -3 -1.6 -2.4 0 -2.4 0.2 -2.4 9 0 8 0.2 9 1.8 9 1 0 2.3 -0.5 3 -1.2z"/>
  <path d="M162.2 26.4 c0.4 -8.1 1.2 -9.4 6.1 -9.4 l2.7 0 0 7.3 c0 8.3 -0.9 9.7 -5.8 9.7 l-3.4 0 0.4 -7.6z m5.9 5.6 c1.6 -0.9 1.9 -2.2 1.9 -7.5 0 -6.7 -0.5 -7.4 -4.1 -5.5 -1.6 0.9 -1.9 2.2 -1.9 7.5 0 6.7 0.5 7.4 4.1 5.5z"/>
 </g>
</svg>