<?xml version="1.0" encoding="utf-8"?>
<!DOCTYPE svg PUBLIC "-//W3C//DTD SVG 20010904//EN" "http://www.w3.org/TR/2001/REC-SVG-20010904/DTD/svg10.dtd">
<svg version="1.0" xmlns="http://www.w3.org/2000/svg" width="245px" height="76px" viewBox="0 0 245 76" preserveAspectRatio="xMidYMid meet">
 <g fill="none" stroke="#ffffff" stroke-width="1">
  <path d="M77.5 0.5C89.5 -1 103 0.5 115 0.5C142 0.5 168.5 1 195.5 1C207 1 219 1 230.5 1.5C234 1.5 239.5 0.5 243 2C246 3 245 13.5 245 16.5L245 60C245 63.5 246 74.5 242 75.5C237 77 231 76 225.5 76C212 76.5 198 76.5 184.5 76.5L66 76.5C50.5 76.5 35 76.5 19.5 76C14.5 76 7 77.5 2.5 75C-2 73.5 0.5 62.5 0.5 59L0.5 16.5C0.5 13.5 -1 4 2 2C3.5 1 6.5 1.5 8.5 1.5C13.5 1.5 18 1 23 1C41 1 60 3 77.5 0.5"/>
 </g>
 <g fill="none" stroke="#44e1e1" stroke-width="1">
  <path d="M5 5C7.5 3 16 4.5 19.5 4.5L59.5 4.5L189 4.5L225 4.5C229 4.5 236.5 3 240 5C242.5 6 241 17 241 19.5L241 58C241 61 242.5 69.5 240 71.5C238 74 229 72.5 226 72.5L186 72.5L56 72.5L20 72.5C16 72.5 8.5 74 5 72C2.5 71 4 60 4 57.5L4 18C4 15.5 2.5 6.5 5 5M118 16C119.5 15.5 123 15 124 16.5C125.5 18.5 124.5 23 124.5 25.5C124.5 33.5 124.5 41 124 49C124 52.5 124 58.5 119.5 59.5C114.5 60.5 113.5 56 113 52C112 43 112.5 33 113 24C113 20.5 114 16.5 118 16M20.5 40.5C20.5 34.5 18.5 25 21.5 19.5C22.5 17 29 14.5 31.5 16.5C33 17.5 33.5 21 35 22.5L27.5 37.5L20 43L20 59M35 22C37 20 38.5 18 41 16.5C48 13 49 22.5 49 27M66 59.5C64 59.5 58 60.5 56.5 58.5C55 56.5 56 49.5 56 47C56 37.5 52 19 63.5 16M73 16C73 27 73.5 38 73.5 49C73.5 52.5 73 58.5 77.5 59.5C83 60.5 84.5 55 85 50.5C85.5 39 85 27.5 85 16M94 16.5C96.5 14.5 103 17 104 20C107 28.5 105 40.5 105 49.5C105 52.5 104.5 57 101.5 59C100 60 94.5 60.5 93.5 58.5C92 56 93 52 93 49.5L93 28C93 26 92 18 94 16.5M175.5 21C169 28 172.5 38.5 173 46.5C173 50.5 173.5 55.5 170 58C168.5 59.5 162.5 60.5 161.5 58.5C160 56 161 51 161 48.5C161 40 158.5 27 162.5 19.5C166.5 11 176 19.5 178.5 24C180 26 180 29.5 181 32C181.5 34.5 184 35.5 185 38C186.5 44 185 52.5 185 59M191 16L193.5 21.5C195 20 197 17.5 199 16.5C206 13 207 22.5 207 27M213 49C213 52 213 56 215.5 58.5C219.5 62.5 224 57.5 225 53.5C225.5 50 226 43 224 39.5C221 34.5 214 31.5 213.5 25C213 20 218 12 223.5 17.5C225.5 20 225 24 225 27M141 59C142 49 140 38 141 28C141.5 25 141 20 143.5 18C146 16 151.5 15.5 152.5 19C153 23 152.5 28 152.5 32L152.5 58M193.5 21.5C192.5 31 206.5 34.5 207 43C207 47 208 54 205.5 57.5C204 60 199 60.5 197 58C195 55.5 195 52 195 49M34.5 23C36.5 25.5 38 28 39.5 30.5C42.5 34 47 36.5 48.5 40.5C49.5 43 49 46.5 49 49C49 51.5 49 55.5 47.5 58C41 65 37 54 37 49M193 24.5L185 36.5M56.5 35.5L64.5 36M161.5 35.5L170.5 35.5M141.5 40.5L152 40.5"/>
 </g>
 <g fill="none" stroke="#c545e5" stroke-width="1">
  <path d="M239 20C242 23.5 241 28 241 32L241 60C241 62.5 242.5 71 239.5 72C235.5 74 228.5 72.5 224.5 72.5L189 72.5L65.5 72.5L20 72.5C17 72.5 6.5 74 4.5 71.5C2.5 69 4 61 4 58C4 45.5 3 32 4 19.5C4.5 16.5 2 6 5 5C8.5 3 15.5 4.5 19 4.5L53.5 4.5L176 4.5L225 4.5L236.5 4.5C238 4.5 240 4 240.5 5.5C243 10.5 240 22.5 234 23.5C230 24 228 20 225 20C223.5 20 222 22.5 220.5 23C218.5 24 215 19.5 214 22.5C211 29 220.5 34.5 223.5 39C226 42.5 225.5 49 225 53C224.5 57.5 219.5 63 215.5 58.5C213 56 213 52 213 49M73 16L73 19.5L80 17L85 20M85 16L85 33.5L85 45C85 49 85.5 54 83 57.5C81 60.5 76 60.5 74.5 57C73 54 73.5 49.5 73.5 46C73.5 38.5 74 30 73 22.5C72.5 18.5 67 17 63.5 18C52 21 56 38 56 47.5C56 50 55 56.5 56.5 58.5C58 60.5 64 59.5 66 59.5M191 16L190.5 20L192.5 23.5L185 37.5L185 59M19.5 20C17 22 12 26 9 22.5C8 21 7.5 19 7 17.5C13 14.5 16.5 18.5 21.5 20L22 20.5C18.5 25 20.5 35 20.5 40.5L21 41L26.5 38.5L34 23C29.5 19 27.5 20.5 22 20.5M85.5 20.5L92.5 20L93 20.5L93 49C93 51 92 57.5 94 59C97 61.5 103 58.5 104 55C106.5 47.5 105 38.5 105 31C105 27.5 105.5 24 103.5 21L104 20.5C107 20.5 110 20.5 113 20C117.5 18.5 120.5 14.5 124.5 20C127.5 17 133 15 137.5 17C139.5 17.5 140.5 19.5 142.5 20C139.5 33 142.5 46 141 59M225 19.5C228.5 16 234.5 15 238.5 18.5M48 19.5C46.5 22.5 39.5 25 40 19.5C40.5 18 42 17 43.5 17C45.5 17.5 46.5 18.5 48.5 19C52 19.5 54.5 18.5 57.5 20.5M185 37C179.5 33 181.5 26 177 21.5C181 18 185.5 15 190 19.5M193 22C195 20.5 198.5 18 200.5 17.5C205.5 16 207 23.5 207 27M215.5 20C218 16 221.5 17 224.5 19.5M5 17.5L7 17.5M93.5 20L103.5 21M124 19.5C120 23 118 24.5 114 20.5C112.5 23.5 113 27.5 113 31C113 38 112 46 113 53C114 57 116.5 62.5 121.5 58.5C124 56.5 124 51 124 48C124.5 39.5 122.5 28.5 125 20M143 20.5L161.5 21L177 21M61.5 20C65.5 24 68 24.5 72 20.5M125 20C130 24.5 135.5 24.5 140.5 20M73.5 20.5C77.5 24 80 24 84 20.5M179.5 20.5C183 24 186 24 190 20.5M197.5 20.5C200.5 23.5 202.5 24 205.5 21M37 49C37 54 41 65 47.5 58C49 55.5 49 51.5 49 49C49 46.5 49.5 43 48.5 40.5C47 36.5 42.5 34 39.5 30.5C38 28 36.5 25.5 34.5 23L39 21M47.5 21L49 27M152.5 21L152.5 58M175.5 21C166.5 31 177.5 45.5 172 56C170.5 58.5 162.5 62 161 58C160 55 161 50.5 161 47C161 38.5 161.5 30 161.5 21.5M223.5 21L225 27M193 24.5C195.5 27 197 29.5 199 32C201.5 34.5 205.5 37 206.5 40.5C207.5 43 207 46.5 207 49C207 51.5 207 55.5 205.5 58C199 65 195 54 195 49M56.5 35.5L64.5 36M161.5 35.5L170.5 35.5M141.5 40.5L152 40.5M21 41C18.5 46 20.5 53.5 20 59"/>
 </g>
 <g fill="none" stroke="#c3e244" stroke-width="1">
  <path d="M37 49C37 52 40 57.5 39 60.5C37.5 63.5 32.5 62.5 30 62.5C23 62.5 11.5 59.5 6 64C3 60.5 4 55 4 50.5C4 39.5 3.5 29 4.5 18C4.5 15.5 2.5 6 5 5C8.5 3 15.5 4.5 19.5 4.5L54 4.5L178.5 4.5L225.5 4.5C228 4.5 239.5 3 240.5 5.5C243 10.5 240 22.5 234 23.5C230 24 228 20 225 20C223.5 20 222 22.5 220.5 23C218.5 24 215 19.5 214 22.5C211 29 220.5 34.5 223.5 39C226 42 225.5 48.5 225 52.5C224.5 56.5 221 64.5 216 59.5C213 57.5 213 52 213 49M73 16L73 19.5L80 17L85 20M85 16L85 33.5C85 40.5 86.5 49.5 84 56C82.5 60.5 77.5 63 74.5 58C73 55 73.5 50.5 73.5 47C73.5 39.5 74.5 29 73 22C71 15 61.5 18.5 58 21C54.5 23.5 56 31.5 56 35C56 40.5 56 46 56 51.5C56 53.5 55.5 57 56.5 59C57.5 61.5 61 61 63.5 61C68.5 62 72 65 76.5 60.5M191 16C191 17 190 18.5 190.5 20C191 21 192.5 22 192.5 23.5C192 28.5 187 33 185.5 37C184.5 39 185 42 185 44C185 49 184 55.5 185 60.5C186 63.5 195 63.5 196.5 61C198 58.5 195 52 195 49M19.5 20C17 22 12 26 9 22.5C8 21 7.5 19 7 17.5C13 14.5 16.5 18.5 21.5 20L22 20.5C18.5 25 20.5 35 20.5 40.5L21 41L26.5 38.5L34 23C29.5 19 27.5 20.5 22 20.5M85.5 20.5L92.5 20L93 20.5L93 50C93 52.5 92 58.5 94 60C99 63 103.5 59 104.5 54.5C106 47 105 38.5 105 31C105 27.5 105.5 24 103.5 21L104 20.5C107 20.5 110 20.5 113 20C117.5 18.5 120.5 14.5 124.5 20C127.5 17 133 15 137.5 17C139.5 17.5 140.5 19.5 142.5 20L143 20.5C141 23.5 141 27.5 141 31C141 38 141 44.5 141 51.5C141 54 140 59.5 141.5 61.5C143.5 64 150.5 62.5 152.5 61C155 62.5 159.5 63.5 161 60C161.5 57.5 161 53.5 161 51L161 30.5C161 28.5 162.5 23 160.5 21.5C157 18.5 147 20.5 143 20.5M225 19.5C228.5 16 234.5 15 238.5 18.5M48 19.5C46.5 22.5 39.5 25 40 19.5C40.5 18 42 17 43.5 17C45.5 17.5 46.5 18.5 48.5 19C52 19.5 54.5 18.5 57.5 20.5M185 37C179.5 33 181.5 26 177 21.5C181 18 185.5 15 190 19.5M193 22C195 20.5 198.5 18 200.5 17.5C205.5 16 207 23.5 207 27M215.5 20C218 16 221.5 17 224.5 19.5M5 17.5L7 17.5M93.5 20L103.5 21M124 19.5C120 23 118 24.5 114 20.5C112.5 23.5 113 27.5 113 31C113 38.5 112 46.5 113.5 53.5C114 57 116 63.5 121 60C124 58 124 51.5 124 48.5C124.5 40 122.5 28.5 125 20M162 21C167.5 20.5 171.5 19.5 177 21M61.5 20C65.5 24 68 24.5 72 20.5M125 20C130 24.5 135.5 24.5 140.5 20M239 20C242 23.5 241 27.5 241 31.5C241 40.5 241.5 50 241 59C241 61 239 69.5 237.5 70C233.5 72 226.5 70.5 222.5 70.5L186.5 70.5L61 70.5L22.5 70.5C18.5 70.5 11 72 7 70C5.5 69.5 6 65.5 6 64M73.5 20.5C77.5 24 80 24 84 20.5M179.5 20.5C183 24 186 24 190 20.5M197.5 20.5C200.5 23.5 202.5 24 205.5 21M56.5 60.5C53 64 49 64 45.5 60.5C49 56 51 45 48 39.5C46 36 42 33.5 39.5 30.5C38 28 36.5 25.5 34.5 23L39 21M47.5 21L49 27M152.5 21L152.5 61M175.5 21C169 28 173 39.5 173 48C173 52 173 58 169 60C167 61 164 60.5 162 60.5M223.5 21L225 27M193 24.5C195.5 27 197 29.5 199 32C201.5 34.5 205.5 37 206.5 40.5C208 44.5 208 56.5 204.5 59.5C202.5 61 199.5 60.5 197.5 60.5M56.5 35.5L64.5 36M161.5 35.5L170.5 35.5M141.5 40.5L152 40.5M21 41C18.5 46 20 55.5 20 61M93.5 60C89.5 63.5 85 64 81 60.5M169.5 60C173 63 180.5 64 185 61.5M39.5 60.5L45.5 60.5M102 60.5C105.5 63.5 111.5 63.5 115 60.5M121.5 60.5C125.5 63.5 136.5 64 141 61.5M204.5 60.5C208 63.5 212 63.5 215.5 60.5M222.5 60.5C227 64.5 234 59.5 238.5 63.5"/>
 </g>
 <g fill="none" stroke="#e1a244" stroke-width="1">
  <path d="M37 49C37 52 40 57.5 39 60.5C37.5 63.5 32.5 62.5 30 62.5C23 62.5 11.5 59.5 6 64C3 60.5 4 55 4 50.5C4 39.5 3.5 29 4.5 18C4.5 15.5 2.5 6 5 5C8.5 3 15.5 4.5 19.5 4.5L55.5 4.5L184 4.5L224 4.5C228 4.5 236 3 240 5C241.5 5.5 241 8.5 241 10C241 14.5 240 21.5 235 23C230.5 25 228.5 20 225 20C223.5 20 222 22.5 220.5 23C218.5 24 216.5 20.5 214.5 21.5C213 22.5 213.5 26 214 27.5C215.5 32 220.5 36.5 223.5 40C220.5 43 216.5 44.5 212 43C210 42 208.5 40 206.5 40C204.5 40.5 203.5 42.5 201.5 43C199 44 193 44 190 43.5C187.5 42.5 186 40 184 39C180.5 36.5 176.5 38 174 40.5C178.5 44.5 180.5 42.5 184 39M73 16L73 19.5L80 17L85 20M85 16C85 22.5 82.5 35 86.5 40.5C83 45.5 86.5 53 82.5 58.5C80 62 76 61.5 74.5 57.5C72.5 53.5 71.5 40 77 38C79.5 37 81 39.5 83.5 40C86 41 90.5 40.5 93.5 40.5C98.5 40 99 36 104 40.5C100.5 43.5 99 43.5 95.5 40.5M191 16C191 17 190 18.5 190.5 20C191 21 192.5 22 192.5 23.5C192 26.5 188 29.5 189 33.5C190.5 37 199.5 41 200.5 36C201.5 33 195 26.5 193 24.5M19.5 20C17 22 12 26 9 22.5C8 21 7.5 19 7 17.5C13 14.5 16.5 18.5 21.5 20C20 25.5 22.5 35 19.5 39.5C18 42 9 46.5 8 41C7 35.5 16 39 17.5 40.5M103.5 40C106 36 106 25 103.5 21L104 20.5C107 20.5 110 20.5 113 20C117.5 18.5 120.5 14.5 124.5 20C127.5 17 133 15 137.5 17C139.5 17.5 140.5 19.5 142.5 20L143 20.5C139 26 143 33 140.5 38.5C138 45 129.5 44.5 125.5 40.5C129.5 36.5 134.5 36.5 138.5 40.5M225 19.5C228.5 16 234.5 15 238.5 18.5M48 19.5C47 21 45.5 23.5 43.5 23.5C41.5 23 39 20.5 40.5 18.5C42.5 15.5 48 19 51 19C53.5 19 57 20.5 59.5 20.5C63 19.5 64 17.5 68.5 18C75 19 77 27 84 20.5M183.5 37.5L177 21.5C181 18 185.5 15 190 19.5M193 22C195 20.5 198.5 18 200.5 17.5C205.5 16 207 23.5 207 27M215.5 20C218 16 221.5 17 224.5 19.5M5 17.5L7 17.5M22 20.5C27.5 20.5 29.5 19 34 23C32 25 27 35 30.5 37.5C33 39 42.5 39 43 35.5C43 33 39.5 30.5 38.5 28.5C37.5 26.5 36 24.5 34.5 23L39 21M85.5 20.5L103.5 21M124 19.5C120 23 118 24.5 114 20.5C111.5 25.5 113 34 113 39.5L113.5 40L114 40C117.5 37 119.5 37.5 123 40.5C119.5 44 117 44 113.5 40.5M143 20.5L161.5 21L177 21M61.5 20C65.5 24 68 24.5 72 20.5M125 20C124 23 124.5 27.5 124.5 30.5C124.5 39 126 50 122.5 58C121 61 116 61.5 114.5 58.5C112.5 54 112 46 113.5 41M125 20C130 24.5 135.5 24.5 140.5 20M239 20C242.5 24 242.5 36.5 239.5 40.5C243.5 46 241 57.5 239 63.5C238.5 65.5 240 69.5 237 70.5C232 71.5 225 70.5 219.5 70.5L181.5 70.5L59 70.5L22 70.5C18 70.5 10.5 72 7 70C5.5 69.5 6 65.5 6 64M58 20.5C55 24.5 54.5 35 59 38C63 41 69 40.5 73.5 40.5M93 20.5C93 26.5 95 36 91 40.5C94 44 93 49.5 93 54C93 56 92.5 59 94 60C104.5 66.5 107.5 46.5 103.5 41M179.5 20.5C183 24 186 24 190 20.5M197.5 20.5C200.5 23.5 202.5 24 205.5 21M47.5 21L49 27M73 21C73 26.5 71.5 34.5 74 39.5M152.5 21C152.5 33.5 151.5 46.5 152.5 59C153 62.5 157.5 64 160 61.5C161.5 59.5 161 56 161 53.5C161 47.5 160 43 164.5 38.5C159.5 33.5 161.5 28 161.5 21.5M175.5 21C171 26 174.5 38 164.5 38.5M223.5 21L225 27M188 34L185 38L192 38M43.5 36C50 42 51.5 53.5 45.5 60.5C48 63 54 65 56 60.5C58.5 53.5 53 45.5 59 39M201.5 36L205.5 40M219.5 36L207.5 40M29.5 37C23.5 45.5 42.5 44.5 46.5 41M225.5 40C229.5 36.5 234.5 36.5 238 40.5C232.5 46.5 229.5 40.5 223.5 40M168 38.5L173.5 40.5M19.5 40C22 45 20 55.5 20 61M4.5 40.5L7.5 40.5M82.5 40.5C79.5 43.5 77.5 44 74 41M123 40.5L125.5 40.5M140 40.5C142 44.5 141 51.5 141 56C141.5 57.5 140.5 60.5 142 61.5C143 63 146.5 62.5 148 62.5C150 62.5 151 62 152.5 61M141 40.5L161.5 40.5M205 40.5C208.5 44.5 208 55 205 59C201 64 196.5 58.5 195.5 54.5C195 52.5 195 51 195 49M223 40.5C226.5 44.5 226 55 223 59C219 64 214.5 58.5 213.5 54.5C213 52.5 213 51 213 49M238 40.5L239.5 40.5M173 41C173 46.5 174.5 57 169 60C167 61 164 60.5 162 60.5M186 41C184 45 185 51.5 185 56C185 57.5 184.5 60 185.5 61.5C187.5 64.5 195.5 62.5 197.5 60.5M21 41.5L27 41.5M93.5 60C89.5 63.5 85 64 81 60.5M169.5 60C173 63 180.5 64 185 61.5M39.5 60.5L45.5 60.5M56.5 60.5C63 61.5 71.5 65.5 76.5 60.5M102 60.5C105.5 63.5 111.5 63.5 115 60.5M121.5 60.5C125.5 63.5 136.5 64 141 61.5M204.5 60.5C208 63.5 212 63.5 215.5 60.5M222.5 60.5C227 64.5 234 59.5 238.5 63.5"/>
 </g>
 <g fill="none" stroke="#de43a0" stroke-width="1">
  <path d="M18.5 40C23.5 33.5 16 22 26 20C27.5 19.5 29 19.5 30.5 20C32 21 33 22 34 23L28 38.5L19.5 43C16.5 38 11.5 35 6 39.5C1.5 34 4 20 4 13C4 11 3 6 5 5C8.5 3 15.5 4.5 19.5 4.5L55.5 4.5L183 4.5L226 4.5C229 4.5 238.5 3 240.5 5.5C244 9.5 239.5 22.5 234 23.5C230.5 24 227.5 19.5 224.5 20C223 20.5 222 22.5 220.5 23C218 24 214.5 19 213.5 23.5C213 28.5 218 34.5 221.5 37.5C222.5 38.5 223.5 40.5 225 40.5C228.5 41 236 32.5 238.5 40.5C243 51.5 225.5 52 225 41.5M73 16L73 19.5L80 17L85 20M85 16C85 25.5 82.5 36.5 89.5 43.5C88 45 86.5 46 85.5 48C84 51 85 54.5 83 57.5C81 62 76 62 74.5 57C73 53.5 74.5 49 72.5 45.5C67.5 49 62.5 52 57 47C55.5 49.5 54.5 57.5 57 59.5C58.5 61.5 61.5 61 63.5 61C68.5 62 72 65 76.5 60.5M191 16C191 17 190 18.5 190.5 20C191 21 192.5 21.5 192.5 23C192.5 24.5 191 26 190.5 27C188.5 30.5 189 35.5 185.5 37.5C182.5 39.5 178.5 36.5 175 39.5C170.5 43.5 169.5 53 162 47C161 49 161 50.5 161 52.5C161 54.5 160.5 57 161.5 59C162.5 61.5 167.5 61 169.5 59.5C173 57 174.5 48.5 172 45M19.5 20C17 22 12 26 9 22.5C8 21 7.5 19 7 17.5C13 14.5 16.5 18.5 21.5 20M103.5 40C99 35.5 96 40 92.5 43.5C94.5 45.5 97 49.5 100 49.5C104 49 104 44.5 104 41.5C104 35.5 107.5 26.5 103.5 21L104 20.5C107 20.5 110 20.5 113 20C117.5 18.5 120.5 14.5 124.5 20C127.5 17 133 15 137.5 17C139.5 17.5 140.5 19.5 142.5 20L143 20.5C140 25 141.5 31.5 141 36.5C140.5 39 139 40.5 140.5 43C143.5 41 155 40 150.5 46.5C146.5 53 144.5 45.5 140 46.5C138.5 46.5 137.5 48.5 136 49C131.5 51 127.5 48.5 124.5 45.5C123.5 49.5 125 56.5 121.5 59.5C119 62 115 60.5 114 57.5C112.5 53 112.5 46 113.5 41.5C116 33.5 124.5 40 124.5 45.5M225 19.5C228.5 16 234.5 15 238.5 18.5M48 19.5C47 21 45.5 23.5 43.5 23.5C41.5 23 39 20.5 40.5 18.5C42.5 15.5 48 19 51 19C53.5 19 57 20.5 59.5 20.5C63 19.5 64 17.5 68.5 18C75 19 77 27 84 20.5M183.5 37.5L177 21.5C181 18 185.5 15 190 19.5M193 22C195 20.5 198.5 18 200.5 17.5C205.5 16 207 23.5 207 27M215.5 20C218 16 221.5 17 224.5 19.5M5 17.5L7 17.5M85.5 20.5L103.5 21M124 19.5C120 23 118 24.5 114 20.5C111.5 25.5 113 34 113 39.5M143 20.5L161.5 21L177 21M61.5 20C65.5 24 68 24.5 72 20.5M125 20C123.5 24 123.5 36 125.5 40C129.5 36.5 135 36.5 139 40M125 20C130 24.5 135.5 24.5 140.5 20M239 20C242.5 24.5 242 35.5 238.5 39.5M58 20.5C56 23.5 54 34 58 36.5C63 39.5 72 37 72.5 45.5M93 20.5C93 28.5 95 36.5 89 42.5M179.5 20.5C183 24 186 24 190 20.5M197.5 20.5C200.5 23.5 202.5 24 205.5 21M47.5 47C50.5 51.5 47.5 64.5 40 60C36.5 57.5 37.5 51 36.5 47.5L37 47C39.5 47.5 42.5 49.5 44.5 49C48 48 48.5 44 47.5 41C46.5 38.5 45 37.5 43.5 35.5C40.5 31.5 38 26.5 34.5 23L39 21M47.5 21L49 27M73 21C73 25 71 35 73.5 38.5C75 40 77.5 37 79.5 38C82 38.5 83.5 41.5 86 43C88 44 90.5 43.5 92.5 43.5M152.5 21C152.5 27 154.5 37 151 42M175.5 21L171 34.5L163.5 37.5L160 43.5L162 47M223.5 21L225 27M161.5 21.5C161.5 26.5 159.5 33 163 37M193 24.5C196.5 28 201 39 206.5 39.5C208.5 40 210 37.5 212 37.5C215 37.5 217 38 219.5 36M43.5 36C40 39 33 39 29 37M187.5 36C191 39 198 39 201.5 36M169.5 37L172.5 42.5M57 37.5L57 47M184.5 39C184.5 43 185 48 190 48.5C192 48.5 194 47 196 47.5C198 47.5 199.5 49 201.5 49C206.5 49.5 206 43 206 40M6 39.5C6 42 5.5 46 7 48C11 52.5 18.5 48 19.5 43M74 39.5L72 42.5M125.5 40L124 41.5M207.5 40C213 45.5 218.5 53 225 45M140.5 43L140.5 45.5M85.5 43.5C82 47 79.5 50.5 74.5 47.5M152.5 43.5L160 43.5M19.5 44.5C24.5 49.5 29.5 51 36 47.5M89 44.5C90.5 46 92.5 47.5 93 50C93.5 52.5 91.5 58.5 94 60C102 65 107.5 52.5 103.5 47M184.5 44.5C181 48 178.5 51 174 47M123.5 46C119.5 50 117.5 50 113.5 46.5M18 46.5C21.5 51 18.5 56 20.5 60.5C21 62.5 23.5 62.5 25.5 62.5C30 62.5 36 63.5 39.5 60.5M151 46.5C153.5 50.5 150 66.5 159 62C160 61.5 160.5 60.5 161.5 60M6 47C3 51 3 60 6 64L20 61M141 47C141 51 140 57.5 141.5 61C142.5 64 150.5 62.5 152.5 61M186.5 47C184.5 49.5 183.5 59.5 186 61.5C187.5 63.5 196 63 197 60.5C198 57.5 195 51.5 195 48M205.5 47C207.5 50 207.5 58 204 60C202 61 199.5 60.5 197.5 60.5M223.5 47C226 50 225.5 56.5 222.5 59.5C219.5 62.5 215.5 60 214 56.5C213.5 55 213 54 213 52.5C213 50.5 213.5 48.5 214 47M238.5 47C243.5 52 240.5 58 239 64C238.5 66 240 69 237.5 70C235 71.5 230.5 70.5 228 70.5L207 70.5L58.5 70.5L22 70.5C18 70.5 10.5 72 7 70C5.5 69.5 6 65.5 6 64M93.5 60C89.5 63.5 85 64 81 60.5M169.5 60C173 63 180.5 64 185 61.5M45.5 60.5C49 64 53 64 56.5 60.5M102 60.5C105.5 63.5 111.5 63.5 115 60.5M121.5 60.5C125.5 63.5 136.5 64 141 61.5M204.5 60.5C208 63.5 212 63.5 215.5 60.5M222.5 60.5C227 64.5 234 59.5 238.5 63.5"/>
 </g>
 <g fill="none" stroke="#4483e2" stroke-width="1">
  <path d="M18.5 40C23.5 33.5 16 22 26 20C27.5 19.5 29 19.5 30.5 20C32 21 33 22 34 23L28 38.5L19.5 43C16.5 38 11.5 35 6 39.5C1.5 34 4 20 4 13C4 11 3 6 5 5C8.5 3 15.5 4.5 19.5 4.5L55.5 4.5L183 4.5L226 4.5C229 4.5 238.5 3 240.5 5.5C244 9.5 239.5 22.5 234 23.5C230.5 24 227.5 19.5 224.5 20C223 20.5 222 22.5 220.5 23C218 24 214.5 19 213.5 23.5C213 28.5 218 34.5 221.5 37.5C222.5 38.5 223.5 40.5 225 40.5C228.5 41 236 32.5 238.5 40.5C243 51.5 225.5 52 225 41.5M73 16L73 19.5L80 17L85 20M85 16C85 25.5 82.5 36.5 89.5 43.5C88 45 85.5 46.5 85 49C84.5 52.5 86.5 57.5 82.5 60C78.5 62 75.5 59 72 58.5C64.5 57.5 56 62.5 56 51.5C56 50 56 48.5 57 47C60.5 50.5 70.5 51 72 44.5C73.5 37 58.5 39 56.5 35C52 26.5 59.5 16.5 68.5 18C72 18.5 74.5 23 78 23.5C80.5 24 82.5 22 84 20.5M191 16C191 17 190 18.5 190.5 20C191 21 192.5 21.5 192.5 23C192.5 24.5 191 26 190.5 27C188.5 30.5 189 35.5 185.5 37.5C182.5 39.5 178.5 36.5 175 39.5C170.5 43.5 169.5 53 162 47C160.5 50 162.5 56 160 58C155.5 62 150.5 55.5 146.5 55.5C144 55.5 143 58.5 140.5 58.5C139 58.5 137.5 57 136 56.5C134 55.5 130 55.5 128 56C124.5 57 122.5 60.5 119 60.5C115 60.5 115 58 112 56.5C110.5 55.5 107 56.5 105 56.5C105 53 105.5 50 103.5 47C99 51.5 96 47 92.5 43.5C94.5 41.5 96.5 38.5 99 38C104 36.5 104 43.5 104 46.5M19.5 20C17 22 12 26 9 22.5C8 21 7.5 19 7 17.5C13 14.5 16.5 18.5 21.5 20M103.5 40C106 36 106 25 103.5 21L104 20.5C107 20.5 110 20.5 113 20C117.5 18.5 120.5 14.5 124.5 20C127.5 17 133 15 137.5 17C139.5 17.5 140.5 19.5 142.5 20L143 20.5C140 25 141.5 31.5 141 36.5C140.5 39 139 40.5 140.5 43C143.5 41 155 40 150.5 46.5C146.5 53 144.5 45.5 140 46.5C138.5 46.5 137.5 48.5 136 49C131.5 51 127.5 48.5 124.5 45.5L124 57M225 19.5C228.5 16 234.5 15 238.5 18.5M48 19.5C46.5 22.5 39.5 25 40 19.5C40.5 18 42 17 43.5 17C45.5 17.5 46.5 18.5 48.5 19C52 19.5 54.5 18.5 57.5 20.5M183.5 37.5L177 21.5C181 18 185.5 15 190 19.5M193 22C195 20.5 198.5 18 200.5 17.5C205.5 16 207 23.5 207 27M215.5 20C218 16 221.5 17 224.5 19.5M5 17.5L7 17.5M85.5 20.5L103.5 21M124 19.5C120 23 118 24.5 114 20.5C111.5 25 112 35.5 113.5 40C119 37.5 124.5 38 124.5 45.5M143 20.5L161.5 21L177 21M61.5 20C65.5 24 68 24.5 72 20.5M125 20C123.5 24 123.5 36 125.5 40C129.5 36.5 135 36.5 139 40M125 20C130 24.5 135.5 24.5 140.5 20M239 20C242.5 24.5 242 35.5 238.5 39.5M93 20.5C93 28.5 95 36.5 89 42.5M179.5 20.5C183 24 186 24 190 20.5M197.5 20.5C200.5 23.5 202.5 24 205.5 21M57.5 58.5C55 59.5 52 59 49.5 59C46 59.5 41.5 62.5 38 58.5C36 55.5 37.5 50.5 36.5 47.5L37 47C39.5 47.5 42.5 49.5 44.5 49C48 48 48.5 44 47.5 41C46.5 38.5 45 37.5 43.5 35.5C40.5 31.5 38 26.5 34.5 23L39 21M47.5 21L49 27M73 21C73 25 71 35 73.5 38.5C75 40 77.5 37 79.5 38C82 38.5 83.5 41.5 86 43C88 44 90.5 43.5 92.5 43.5M152.5 21C152.5 27 154.5 37 151 42M175.5 21L171 34.5L163.5 37.5L160 43.5L162 47M223.5 21L225 27M161.5 21.5C161.5 26.5 159.5 33 163 37M193 24.5C196.5 28 201 39 206.5 39.5C208.5 40 210 37.5 212 37.5C215 37.5 217 38 219.5 36M43.5 36C40 39 33 39 29 37M187.5 36C191 39 198 39 201.5 36M169.5 37L172.5 42.5M57 37.5L57 47M184.5 39C184.5 43 185 48 190 48.5C192 48.5 194 47 196 47.5C198 47.5 199.5 49 201.5 49C206.5 49.5 206 43 206 40M6 39.5C6 42 5.5 46 7 48C11 52.5 18.5 48 19.5 43M74 39.5L72 42.5M113.5 40C113.5 47 117 52.5 123.5 46M125.5 40L124 41.5M207.5 40C213 45.5 218.5 53 225 45M140.5 43L140.5 45.5M85.5 43.5C80.5 48.5 78.5 51 72.5 45.5M152.5 43.5L160 43.5M19.5 44.5C24.5 49.5 29.5 51 36 47.5M89 44.5C91 46.5 92.5 48 93 50.5C93 53 91.5 57.5 93 59C95.5 63 103 60 104.5 57M184.5 44.5C179.5 49.5 177.5 50.5 172 45M18 46.5L21 58C25 55 32 55 36.5 57.5M151 46.5C153 49.5 153.5 55 151.5 58.5M6 47C3.5 50 3.5 54.5 6 57.5C12 52.5 16 60 21 58M47.5 47C50 50 49 54.5 49 58.5M141 47L142 58M174 47L172.5 57.5L179 56L184.5 58.5L189 56.5L195 57.5L195 48M186.5 47C184.5 50 184.5 55 186 58M205.5 47C208 50.5 205.5 54 207.5 57.5C208 59 212 59 213 57.5C214.5 55 213 50 214 47M223.5 47C229 54.5 222 65 213.5 58M238.5 47C243 52 239 57.5 239 63.5C239 65.5 240 69.5 237 70.5C232 71.5 225 70.5 219.5 70.5L181.5 70.5L58 70.5L20.5 70.5C17.5 70.5 9.5 72 7 70C4.5 68.5 6 60 6 57.5M73.5 47.5L73.5 57.5M113 47.5L112.5 56M226 57.5C230 55.5 235 54.5 238.5 57.5M85 57L91.5 57.5M172.5 57.5C169 60.5 164 61.5 160 59M195 57.5C199 61 203 61.5 207 58"/>
 </g>
 <g fill="none" stroke="#44e283" stroke-width="1">
  <path d="M60.5 18.5C62.5 16 74.5 15 72 20C71 22 68.5 24 66 23.5C63.5 23 62.5 20.5 60.5 19.5C56.5 18.5 53 19 49 18.5C47 18 45.5 16 43 16C40 16 37.5 18.5 34.5 18.5L34 19C35 22.5 32.5 23.5 31.5 26.5C30 30.5 30.5 36 27.5 39.5C25.5 41.5 22 41.5 19.5 43L20.5 36L20.5 21C17 22 12.5 25 8.5 23C5 21 6 15 6 11.5C6 10 5.5 8 7 7C9 5 16 6.5 19 6.5L53.5 6.5L187 6.5L225.5 6.5C228 6.5 237 5 238.5 7.5C241 10.5 239.5 21.5 236 23C232 25 229 21 225.5 20.5C223.5 20.5 222.5 22.5 220.5 23C218.5 24 216.5 21.5 215 20C211 25.5 216 30 219 34.5C220 36.5 223 40.5 225 40.5C226.5 41 228 39 229 38.5C232 36.5 238 37 239 41C241.5 52 225.5 51.5 225 41.5M42.5 7L43 15.5M73.5 7C73.5 10.5 73.5 13.5 71.5 16.5M85 7C85 10 84 16 86.5 18C91.5 22 101 15 104.5 22.5C107 28 105 39.5 104 45C103.5 47 102 49 100 49.5C97 49.5 94.5 45.5 92.5 43.5C96 40 99 35.5 103.5 40M193 22.5C192 21.5 191 20.5 190.5 19.5C188 13.5 197.5 12 198 17.5C198 20.5 195 20 193.5 22C190.5 26 190 35 185.5 37.5C182.5 39.5 178.5 37 175.5 39C170.5 43 170 53 162 47C160.5 50 162.5 56 160 58C155.5 62 150.5 55.5 146.5 55.5C144 55.5 143 58.5 140.5 58.5C139 58.5 137.5 57 136 56.5C134 55.5 130 55.5 128 56C124.5 57 122.5 60.5 119 60.5C115 60.5 115 58 112 56.5C110.5 55.5 107 56.5 105 56.5C105 53 105.5 50 103.5 47M114 20C114 16 122 13.5 124 17.5C124.5 20 120.5 23.5 118.5 23.5C116.5 23.5 115 21.5 114 20.5C111.5 25 112 35.5 113.5 40C115 39 117 37.5 119 37.5C126.5 39 124.5 53.5 135.5 49C140.5 47.5 141.5 40.5 136.5 38C132 35.5 127 38.5 124 41.5M199 16.5C201.5 16 204 16.5 206 18.5C209 16.5 213 16.5 215 20M215 18C217.5 15 222.5 15.5 224 19.5M139 40C143.5 34.5 137.5 22.5 145 19.5C149.5 17.5 156.5 20.5 161.5 20C166 20 170.5 17.5 175 18.5C182 19.5 183 26.5 190 20M21 20.5L34 19M37.5 18.5C41 22 47 26.5 48 18.5M206 18.5C205 24 201 23.5 197.5 20.5M86.5 19C84 22.5 83.5 35 85.5 39C86.5 41 88 42 89.5 43.5C88 45 85.5 46.5 85 49C84.5 52.5 86.5 57.5 82.5 60C78.5 62 75.5 59 72 58.5C64.5 57.5 56 62.5 56 51.5C56 50 56 48.5 57 47C60 50 66 51 69.5 48C71 47 73 45 72 43C69.5 37 62.5 39 58 36.5C53.5 34 56 23 58.5 20M176 19L179 24.5L183.5 37.5M93 19.5C93 27.5 95 36.5 89 42.5M103 19.5L113.5 19.5M124.5 19.5C131 26 135 22.5 142.5 20M73 20C78 24.5 79.5 23 85 20.5M124.5 20.5C124.5 26 123 35 125.5 40M152.5 20.5C152.5 26.5 154.5 37 151 42C152.5 45 149.5 49.5 146 49.5C143.5 49 142 47 140.5 45.5M161.5 20.5C161.5 24.5 160.5 29 161 33C161.5 37.5 163.5 39.5 160 43.5L162 47M176 20.5C172 24.5 174.5 33.5 169 36.5C167.5 37.5 165 37 163 37M6 21C2.5 25 2.5 35.5 6 39.5C10 36 15 37 18.5 40.5M47.5 21L49 27M73 21C73 25 71 35 73.5 38.5C75 40 77.5 37 79.5 38C82 38.5 83.5 41.5 86 43C88 44 90.5 43.5 92.5 43.5M205.5 21L207 27M223.5 21L225 27M238.5 21C242.5 25 242.5 35.5 238.5 39.5M34.5 23C38 26.5 40.5 31.5 43.5 35.5C45 37.5 46.5 38.5 47.5 41C48.5 44 48 48 44.5 49C42.5 49.5 39.5 47.5 37 47C37 51 36 59.5 41.5 60.5C44.5 61 46.5 59 49.5 59C52 59 55 59.5 57.5 58.5M193 24.5C196.5 28 201 39 206.5 39.5C208.5 40 210 37.5 212 37.5C215 37.5 217 38 219.5 36M43.5 36C40 39 33 39 29 37M187.5 36C191 39 198 39 201.5 36M169.5 37L172.5 42.5M57 37.5L57 47M184.5 39C184.5 43 185 48 190 48.5C192 48.5 194 47 196 47.5C198 47.5 199.5 49 201.5 49C206.5 49.5 206 43 206 40M6 39.5C6 42 5.5 46 7 48C11 52.5 18.5 48 19.5 43M74 39.5L72 42.5M113.5 40C113.5 47 117 52.5 123.5 46L124 57M207.5 40C213 45.5 218.5 53 225 45M140.5 43C143.5 41 147 41.5 150.5 41.5M85.5 43.5C80.5 48.5 78.5 51 72.5 45.5M152.5 43.5L160 43.5M19.5 44.5C24.5 49.5 29.5 51 36 47.5M89 44.5C91 46.5 92.5 48 93 50.5C93 53 91.5 57.5 93 59C95.5 63 103 60 104.5 57M184.5 44.5C179.5 49.5 177.5 50.5 172 45M18 46.5L21 58C25 55 32 55 36.5 57.5M151 46.5C153 49.5 153.5 55 151.5 58.5M6 47C3.5 50 3.5 54.5 6 57.5C12 52.5 16 60 21 58M47.5 47C50 50 49 54.5 49 58.5M141 47L142 58M174 47L172.5 57.5L179 56L184.5 58.5L189 56.5L195 57.5L195 48M186.5 47C184.5 50 184.5 55 186 58M205.5 47C208 50.5 205.5 54 207.5 57.5C208 59 212 59 213 57.5C214.5 55 213 50 214 47M223.5 47C229 54.5 222 65 213.5 58M238.5 47C243 52 239 57.5 239 63.5C239 65.5 240 69.5 237 70.5C232 71.5 225 70.5 219.5 70.5L181.5 70.5L58 70.5L20.5 70.5C17.5 70.5 9.5 72 7 70C4.5 68.5 6 60 6 57.5M73.5 47.5L73.5 57.5M113 47.5L112.5 56M226 57.5C230 55.5 235 54.5 238.5 57.5M85 57L91.5 57.5M172.5 57.5C169 60.5 164 61.5 160 59M195 57.5C199 61 203 61.5 207 58"/>
 </g>
 <g fill="none" stroke="#63e144" stroke-width="1">
  <path d="M58 30.5C61 30.5 64 31 67 30.5C72 29.5 76 21.5 72 17.5C70 15 59 15.5 57.5 18.5C55.5 23 57.5 32 57.5 37C61.5 37 72 38 72 44C72 51.5 60.5 50 57 47C55.5 50 55.5 55.5 57.5 58.5L57 59C54.5 59.5 52 59 49.5 59C46 59.5 40.5 62.5 38 58C36.5 55 37.5 50.5 36.5 47.5L37 47C39.5 47.5 42.5 50 45 49C48 47.5 48.5 44 47.5 41C46.5 38.5 44.5 37.5 43.5 35.5C40.5 30 39.5 25 35 20.5C29.5 26 28 34.5 20 26.5C17 29 9.5 33.5 6.5 28C5 25 6 20 6 17C6 15 5 8.5 7 7C9 5 16 6.5 19 6.5L53.5 6.5C98 6.5 142.5 6.5 187 6.5C199.5 6.5 212 6.5 224.5 6.5C227.5 6.5 235.5 5 238 7C240 8.5 239 15 239 17.5C239 22.5 238.5 35.5 229.5 30C228 29 227 26.5 225.5 25C221 29.5 216 32.5 222 38C222.5 39 223.5 40.5 225 40.5C226.5 41 228 39 229 38.5C232.5 36.5 238 37 239 41.5C240.5 52.5 225.5 51 225 41.5M42.5 7C42.5 9.5 42 13 43 15.5C45.5 19.5 53 18.5 57 18.5M191 7C191 10.5 188 22.5 193.5 22.5C196.5 22.5 197 19 199 17.5C201 15.5 204 17 206 18.5C215.5 11.5 214.5 27 218.5 31.5M191.5 14C194.5 14 196 14.5 198.5 16.5M20 26C20.5 23.5 20.5 20.5 22 18.5C25.5 14 31.5 17.5 34.5 20.5M35.5 20.5C37.5 18.5 39.5 17 42.5 16.5M89.5 22C90 20.5 91 19 92.5 18C95 16 102.5 15.5 104 19C105 22 104.5 30 100 30.5C95.5 30.5 92.5 21 88 22.5C82 24.5 80.5 34 74 27.5L73.5 27.5C73 29.5 72 38 74 39C76.5 39.5 78 36.5 80.5 38.5C84.5 40.5 86 44.5 91.5 43.5C95 42.5 97.5 36 101.5 38.5C105 40.5 105 49 100 49.5C97 49.5 94.5 45.5 92.5 43.5M114 27.5C114 25 113 20 114.5 18C116 16 123 15.5 124 18.5C126.5 25.5 120.5 34 114 27.5C112.5 30.5 112.5 36.5 113.5 40C115 39 117 37.5 119 37.5C126.5 39 124.5 53.5 135.5 49C140.5 47.5 141.5 40.5 136.5 38C132 35.5 127 38.5 124 41.5M141 26C142 22.5 144.5 12.5 151.5 17.5C153 18.5 153.5 21.5 155 23C149.5 28.5 147.5 33 141 26.5C135.5 31.5 130 32 124.5 26.5M167.5 35C162 34.5 163.5 31 162 27.5C161 25.5 159.5 24.5 158 23C162.5 18.5 169.5 13.5 175.5 19L167.5 35C169.5 37 172 40.5 172 43.5C172 49.5 165.5 49.5 162 47C160.5 50 162.5 56 160 58C155.5 62 150.5 55.5 146.5 55.5C144 55.5 143 58.5 140.5 58.5C139 58.5 137.5 57 136 56.5C134 55.5 130 55.5 128 56C124.5 57 122.5 60.5 119 60.5C115 60.5 115 58 112 56.5C110.5 55.5 107 56.5 105 56.5C105 53 105.5 50 103.5 47M215 18C221 12.5 224 20 225.5 24.5M48 18.5C48 24.5 48 27.5 42.5 31M206 18.5C206 21 206.5 24.5 205 27C204 29 201 30 201 32.5C201 35.5 204 40 207 39.5C208.5 39.5 210 38 211.5 37.5C215 37 216.5 38.5 219.5 36M176 19C181.5 24.5 179 32 183.5 37.5C178.5 39 176.5 38 172.5 42M104.5 19.5L113.5 19.5M90.5 23C88.5 26 91.5 27 92.5 30C93.5 32 93 35 93 37C92.5 41 88 44.5 86 47.5C83.5 51 86.5 55.5 83.5 59C80.5 62.5 76 59 72.5 58.5C68 58 62.5 59 58 59M155 23L158 23M192 23C188.5 26.5 189 38.5 183.5 38M194.5 23L200.5 31.5M89 25.5C83.5 31 83.5 37.5 89 43M141 26.5C141 31 142 36.5 139 40M124.5 27.5L125.5 40M151 27.5C153.5 31 153.5 38.5 151 42C152.5 45 149.5 49.5 146 49.5C143.5 49 142 47 140.5 45.5M6 28C3 31.5 3 36 6 39.5C11.5 35 16.5 38 19.5 43C21.5 42 24.5 41.5 26.5 40C30 38 30 33 30 29M20.5 28C20.5 32 21.5 36.5 18.5 40M103.5 28C106 31 106 37 103.5 40M238.5 28C242 31.5 242 36 238.5 39.5M181.5 29L188.5 29M164.5 35L160 43.5L162 47M43.5 36C40 39 33 39 29 37M187.5 36C191 39 198 39 201.5 36M57 37.5L57 47M184.5 39C184.5 43 185 48 190 48.5C192 48.5 194 47 196 47.5C198 47.5 199.5 49 201.5 49C206.5 49.5 206 43 206 40M6 39.5C6 42 5.5 46 7 48C11 52.5 18.5 48 19.5 43M74 39.5L72 42.5M113.5 40C113.5 47 117 52.5 123.5 46L124 57M207.5 40C213 45.5 218.5 53 225 45M140.5 43C143.5 41 147 41.5 150.5 41.5M85.5 43.5C80.5 48.5 78.5 51 72.5 45.5M152.5 43.5L160 43.5M19.5 44.5C24.5 49.5 29.5 51 36 47.5M89 44.5C91 46.5 92.5 48 93 50.5C93 53 91.5 57.5 93 59C95.5 63 103 60 104.5 57M184.5 44.5C179.5 49.5 177.5 50.5 172 45M18 46.5L21 58C25 55 32 55 36.5 57.5M151 46.5C153 49.5 153.5 55 151.5 58.5M6 47C3.5 50 3.5 54.5 6 57.5C12 52.5 16 60 21 58M47.5 47C50 50 49 54.5 49 58.5M141 47L142 58M174 47L172.5 57.5L179 56L184.5 58.5L189 56.5L195 57.5L195 48M186.5 47C184.5 50 184.5 55 186 58M205.5 47C208 50.5 205.5 54 207.5 57.5C208 59 212 59 213 57.5C214.5 55 213 50 214 47M223.5 47C229 54.5 222 65 213.5 58M238.5 47C243 52 239 57.5 239 63.5C239 65.5 240 69.5 237 70.5C232 71.5 225 70.5 219.5 70.5L181.5 70.5L58 70.5L20.5 70.5C17.5 70.5 9.5 72 7 70C4.5 68.5 6 60 6 57.5M73.5 47.5L73.5 57.5M113 47.5L112.5 56M226 57.5C230 55.5 235 54.5 238.5 57.5M85 57L91.5 57.5M172.5 57.5C169 60.5 164 61.5 160 59M195 57.5C199 61 203 61.5 207 58"/>
 </g>
 <g fill="none" stroke="#e34545" stroke-width="1">
  <path d="M36 47.5C29.5 51.5 17 49 20.5 39C22 35 26 35.5 29 33C31.5 31.5 33 27.5 35 25.5C39 29.5 48 35 48 41.5C48 44.5 48 49 44 49C42 49.5 39.5 47.5 37 47L36.5 47.5L37 57.5C32 55.5 25.5 55 21 58L18 46.5C15 49.5 7.5 52 6 46C4 38 6 27 6 18.5C6 16 5 8.5 7 7C9 5 16 6.5 19 6.5L53.5 6.5C98 6.5 142.5 6.5 187 6.5C199.5 6.5 212 6.5 224.5 6.5C227.5 6.5 235.5 5 238 7C240 8.5 239 15 239 17L239 41C239 44.5 239 48.5 235 49.5C225.5 51.5 224.5 38.5 220.5 33.5C219 31.5 216 30.5 214.5 28.5C211.5 31 208 31 206.5 27C205 23 207.5 14.5 199.5 16.5C197.5 17 195 22.5 193.5 24C188.5 19 191 13.5 191 7M42.5 7C42.5 9.5 42 12.5 43 15C44 17.5 48.5 18.5 51 18.5C57.5 18.5 64 14.5 70.5 16C75 17.5 73.5 28 71 30C68.5 32.5 66 34 63.5 36C66 38.5 71.5 40 72 43.5C74 51 60 50 57 47C55.5 49.5 55 56.5 58 58.5C60.5 59.5 64.5 59 67 59C68.5 58.5 71.5 59 72.5 57.5C74 56 73.5 52.5 73.5 50.5C73.5 48.5 73.5 47 72.5 45.5M191.5 14C194.5 14 196 14.5 198.5 16.5M22 36C17.5 30.5 19.5 13 30 17C32 17.5 33.5 19.5 35 21C37.5 18.5 39 17 42.5 16.5M94 17C96 16 102.5 16.5 104 19C106 24 104 34 104 39.5C104 42.5 105 47 101.5 49C97.5 51 94 46 91.5 43.5C86.5 38.5 87 20.5 94 17M172 36C172 40 173 50 166 49.5C162 49 159.5 43 156.5 41.5C153.5 39.5 144.5 40 141 41L140.5 40.5C140.5 34.5 139.5 26 142 20.5C143 18 149 16.5 151.5 18C153 19 155 23 156.5 24.5C161.5 19.5 168.5 12.5 175.5 19C171 23.5 171.5 29.5 171.5 35.5L172 36L183 31L176 19M215 28C215 25.5 214 20 215.5 18C218 14.5 223.5 17 224.5 20C226 25 224 29 220.5 32.5M206 18.5C208.5 16.5 212 16.5 214.5 18.5M151 46.5C153 49.5 153.5 55 151.5 58.5C150 57 148 55 145.5 56C143.5 56.5 142 59 140 58.5C138.5 58.5 137.5 57 136 56.5C132.5 55 128 56 124.5 57.5L124 46.5L123.5 46C120.5 49 114.5 51.5 113.5 45C112.5 37 116 27.5 113.5 19.5C114.5 19 115.5 18.5 117 18C130 14.5 123 37 124.5 44.5C127 53 136.5 49 140.5 45.5C147.5 52.5 150.5 46.5 156 41M48 18.5C48 26.5 49.5 29 55 34.5L47.5 38M57.5 19C57.5 23.5 58.5 30.5 55.5 34.5L63.5 36M104.5 19.5L113.5 19.5M35 21L35 25.5M193.5 24C193.5 26 194.5 27.5 196 29C200 33 206 35.5 206 42.5C206 45 205 49.5 201.5 49C199.5 49 197.5 47.5 195 47C195 50 194.5 56 196 58.5C199.5 62.5 204 59 207.5 58.5C209 58.5 211.5 59 212.5 57.5C214 56.5 213 54 213 52.5C213 46 213 44.5 207 41M156.5 24.5C156.5 27.5 155.5 32 157.5 34.5C159.5 37.5 167.5 36 171 36M172.5 44L193 27M48 27.5L43.5 32M206 28L202 32M72.5 29C75 32.5 75 39 72 42.5M183.5 31.5L184 31.5M184.5 33C185 37 185 51 177.5 49C175.5 48.5 173.5 46.5 172 45M156.5 35L156.5 40M58 36L57 47M89 41.5C87.5 43 86 44 85.5 46C83.5 51 87 63.5 76.5 60C75 59.5 74 59 73 58M140.5 41.5L140.5 45.5M20 45L18.5 46.5M184.5 45C187.5 48 189.5 50 194 47.5M225 45C221 49.5 219 49.5 214 46.5M84.5 45.5C81 49 78 51 74 47M93 46C93 49 91.5 57 93 59C95 62 101.5 60.5 103.5 59C106 56.5 105.5 50.5 104 47.5M6 47C3.5 50 3.5 54.5 6 57.5C12 52.5 16 60 21 58M47.5 47L50 58.5L54.5 59L57.5 58.5M141 47L142 58M162 47C159 52.5 164 59 155 59C154 59 153 59 152 58.5M174 47L172.5 57.5C174.5 57 177 55.5 179 56C181 56 182.5 58.5 184.5 58.5C189 58.5 189.5 55 194.5 57.5M186 47C184.5 50 184.5 55 186 58M205.5 47C207.5 50 207 54.5 207 58M223.5 47C229 54.5 222 65 213.5 58M238.5 47C243 52 239 57.5 239 63.5C239 65.5 240 69.5 237 70.5C232 71.5 225 70.5 219.5 70.5L181.5 70.5L58 70.5L20.5 70.5C17.5 70.5 9.5 72 7 70C4.5 68.5 6 60 6 57.5M113 47.5C113 54.5 112.5 56.5 105 56.5M226 57.5C230 55.5 235 54.5 238.5 57.5M113 56.5C114.5 61.5 121.5 62 123.5 57.5M85 57L91.5 57.5M37 57.5C41 61 44 61 48.5 59M172.5 57.5C169 60.5 164 61.5 160 59"/>
 </g>
 <g fill="none" stroke="#80782a" stroke-width="1">
  <path d="M7 7C9.5 5 18 6.5 21 6.5L60.5 6.5C104 6.5 147 6 190.5 6.5C201.5 6.5 213 6.5 224 6.5C227.5 6.5 234.5 5 238 7C240.5 8 239 18 239 20.5L239 57C239 60 240.5 67.5 238 69.5C236 72 227.5 70.5 224.5 70.5L185 70.5L57.5 70.5L21.5 70.5C17.5 70.5 10.5 72 7 70C4.5 69 6 59 6 56.5L6 19.5C6 17 4.5 8.5 7 7M42.5 7C42.5 9.5 42 12.5 43 15C44 17.5 48.5 18.5 51 18.5C57.5 18.5 64 14.5 70.5 16C75 17.5 73.5 28 71 30C68.5 32.5 66 34 63.5 36C66 38.5 70.5 39.5 72.5 43C74.5 46.5 72 51.5 73.5 55.5C77 65.5 86 53 89 50C90.5 51.5 94 58 95.5 58.5C98 59.5 103 58 104 56C104.5 53.5 104 50 104 47.5L104 28.5C104 26 105 21.5 104 19C102 14.5 93 16.5 91 19.5C88 23.5 89 30.5 89 35L89 50M191 7C191 13.5 188.5 19 193.5 24C197.5 20 199.5 14 206 18.5C213 13.5 218 22.5 214 28.5C211 33.5 206 28.5 206 24.5C206 22.5 206 20.5 206 18.5M191.5 14C194.5 14 196 14.5 198.5 16.5M19.5 58.5C19.5 54 19 49.5 19.5 45C20 42.5 21.5 39 21.5 36.5C21 32 19 27.5 20.5 22.5C22 14 30.5 16.5 35 21C37.5 18.5 39 17 42.5 16.5M156.5 25C156.5 29.5 158.5 38 153 40C149.5 41.5 145 40 141 41L140.5 40.5C140.5 35 139.5 26 142 20.5C143 18 149 16.5 151 18C153 19.5 154.5 23 156.5 25C161.5 20 168.5 12.5 175.5 19C171 23.5 171.5 29.5 171.5 35.5L172 36L183 31L176 19M215 18C221 12.5 226.5 20.5 224.5 26.5C224 29 221 31 221 33.5C221.5 36 223.5 38 224.5 40.5C226 45 226 51.5 224 56C222.5 59.5 217 59 214.5 56.5C212 59 209 59 206 57C198 62 198.5 55 194 51C191 48.5 188 48 185 45L184.5 59M114.5 19C117 18.5 121.5 16.5 123.5 19C125.5 20.5 124.5 25 124.5 27C124.5 33.5 125 41 124 47.5C124 49 124.5 51.5 123.5 53C122 56 116.5 57 114.5 53.5C113 51 114 46.5 114 44L114 34.5L114 19.5L104.5 19.5M48 18.5C48 26.5 49.5 29 55 34.5C53.5 36 49 36.5 48.5 38C45.5 43.5 50 51 47.5 56.5C46.5 59 41 59 39.5 57C38 55.5 38 52.5 37.5 50.5M57.5 19C57.5 23.5 58.5 30.5 55.5 34.5L63.5 36M35 21C35 27.5 39.5 28.5 43 32.5C45 34.5 45 36.5 48 37.5M193.5 24C194 29 198 29.5 201.5 32.5C203 34 204.5 37 205.5 39C207.5 43.5 206 52 206 57M35 25.5C30.5 30 28.5 33 22.5 36M185 45C185 42 183.5 34.5 185.5 32C187 30 191 28.5 193 27M48 27.5L43.5 32M206 28L202 32M72.5 29C75 32.5 75 39.5 72.5 42.5M215 29L220 32M183.5 31.5L184 31.5M58 36C55.5 40.5 57 48 57 53C57 54.5 56.5 57.5 57.5 58.5C60.5 62 70.5 58.5 73 56M157 36L171 36M172 36C172 42 174.5 51.5 171 57C167.5 62 160 58.5 157.5 54.5C155 50.5 156.5 43 156.5 38.5M141 41L140.5 57M207 41C214.5 45.5 214.5 48.5 214.5 56.5M195.5 50.5L195.5 52M104.5 55.5L114.5 55M47.5 57.5L56.5 59.5"/>
 </g>
 <g fill="none" stroke="#8e2b3c" stroke-width="1">
  <path d="M7 7C9.5 5 18 6.5 21 6.5L60.5 6.5C104 6.5 147 6 190.5 6.5C201.5 6.5 213 6.5 224 6.5C227.5 6.5 234.5 5 238 7C240.5 8 239 18 239 20.5L239 57C239 60 240.5 67.5 238 69.5C236 72 227.5 70.5 224.5 70.5L185 70.5L57.5 70.5L21.5 70.5C17.5 70.5 10.5 72 7 70C4.5 69 6 59 6 56.5L6 19.5C6 17 4.5 8.5 7 7M42.5 7C42.5 9.5 42 12.5 43 15C44 17.5 48.5 18.5 51 18.5C57.5 18.5 64 14.5 70.5 16C75 17.5 73.5 28 71 30C69 32 66.5 33.5 64.5 35.5C67 38 71.5 38 73 41.5C75 45.5 72 51 73 55C76 66 86 53.5 89 50.5C91.5 53 92 55 94 58C95 59.5 97.5 59 99 58.5C107.5 57.5 102 48.5 105.5 43.5C102.5 39 104 30.5 104 25C104 23 104.5 20 103.5 18.5C100.5 14 92 17 90 21C89 23.5 89.5 27 89.5 30C89 37 89 43.5 89 50.5M191 7C191 10 190 17 194.5 17.5C199 18.5 201.5 15 206 18.5C209 16.5 217 16.5 214.5 22.5C213.5 25.5 202.5 22.5 207 28.5C207.5 29.5 208.5 30 209 30.5L203.5 36C206.5 39 208 45 207.5 49C207 51.5 204.5 55.5 207 57.5C211 61 217 55.5 213.5 51.5C212.5 50 210 50 208 49.5M112 43.5C115.5 38.5 114 30 114 24.5C114 22.5 113.5 19 115 17.5C117.5 14.5 123.5 15.5 124.5 19.5C126 29.5 125 41 124 51C123.5 55 118.5 58.5 115 55C112.5 52 115 47 112 43.5M52.5 45C57 49.5 57 52.5 57 59L56.5 59.5C54.5 58.5 51 59 49 58C43 54 53.5 46 52 42.5C51 40 48 39 46 37C45 35.5 45 33.5 43.5 32.5C41 30 37.5 28 35 25.5C33 27.5 31.5 30.5 29.5 32.5C17 44.5 16 10 30.5 17C32.5 18 33.5 19.5 35 21C37.5 18.5 39 17 42.5 16.5M141 40C141 34.5 139.5 26 142 20.5C143 18 149 16.5 151 18C153 19.5 154.5 23 156.5 25C158.5 23 161 19.5 163.5 18C169.5 14 175.5 18 179.5 23C181.5 25.5 181 28.5 183.5 31.5C180.5 34.5 174 39 173 43C171.5 47.5 174.5 52.5 171 57C167.5 61.5 159.5 58.5 157 54C155 50 156.5 43 156.5 38.5C155 39 153.5 40.5 151.5 40.5C149 40.5 144 39.5 142 41C139 43 140.5 53.5 140.5 57M215 18C221 12.5 226.5 20.5 224.5 26.5C224 29 221 31 221 33.5C221.5 36 223.5 38 224 40.5C225.5 45.5 226 51 224 56C222.5 60 217 59.5 214.5 57M194.5 18.5L194 26.5L203 35.5M206 18.5L206 23.5M57.5 19C57.5 26.5 58 36.5 52.5 42M104.5 19.5L113.5 19M48 19.5L48 27L55 35M175.5 20C171 24.5 171.5 29 171.5 35C175.5 34 179 34 182.5 31M35 21L35 25.5M215 24C215 28.5 214 31.5 209 30.5M156.5 25L156.5 37.5M206 57C205 57.5 204.5 58 203.5 58.5C196 61 197.5 53 193.5 49.5C190.5 47.5 187 48.5 185.5 44.5C184 40.5 185.5 36 184.5 32L193 27M48 28L44 32M206 28L202 32M72.5 29C74.5 32 75 38 73 41M215 29.5L220 32M51.5 31.5L46 37M184 31.5L184.5 32M22 35.5C19.5 43 19.5 50.5 19.5 58.5M56 35.5L64.5 35.5M157 35.5L171 35.5M172 35.5L172.5 41.5M105.5 43.5L112 43.5M108.5 44C108.5 50 107.5 56.5 115 55.5M184.5 45.5L184.5 58.5M37 49C37 56.5 40 59.5 47.5 58M195 49L195 50M104.5 55.5L108.5 55.5M73 56C69 60 62.5 60 57 59"/>
 </g>
 <g fill="none" stroke="#2f7e38" stroke-width="1">
  <path d="M7 7C9.5 5 18 6.5 21 6.5L60.5 6.5C104 6.5 147 6 190.5 6.5C201.5 6.5 213 6.5 224 6.5C227.5 6.5 234.5 5 238 7C240.5 8 239 18 239 20.5L239 57C239 60 240.5 67.5 238 69.5C236 72 227.5 70.5 224.5 70.5L185 70.5L57.5 70.5L21.5 70.5C17.5 70.5 10.5 72 7 70C4.5 69 6 59 6 56.5L6 19.5C6 17 4.5 8.5 7 7M42.5 7C42.5 9.5 42 12.5 43 15C44 17.5 48.5 18.5 51 18.5C57.5 18.5 64 14.5 70.5 16C75 17.5 73.5 28 71 30C69 32 66.5 33.5 64.5 35.5C67 38 71.5 38.5 73 41.5C74.5 44.5 74.5 54 72.5 56.5C70.5 58.5 65 59.5 62.5 59.5C61 59.5 58 59.5 57 58C55.5 57 54.5 54 52.5 54C50 53.5 48 58 46 59C39 62.5 37.5 53.5 37 49M191 7C191 10 190 17 194.5 17.5C199 18.5 201.5 15 206 18.5C209 16.5 217 16.5 214.5 22.5C213.5 25.5 202.5 22.5 207 28.5C207.5 29.5 208.5 30 209 30.5L203.5 36L203 35.5C202 32.5 201 32.5 198.5 31C197 30 195.5 27.5 193.5 27.5C192 27 190.5 29 189 30C184.5 32.5 181.5 33.5 177.5 37.5C176 39 173.5 41 173 43C171 48.5 175.5 58 166.5 59C165 59 163.5 59 162.5 58C160.5 56.5 159 54 157 52C155 54 152.5 55.5 152.5 58.5M89 50.5L89 31C89 28 88.5 24 90 21C92 17 100 14 103 18.5C104.5 20 103.5 25 103.5 27.5C103.5 35.5 102.5 40 108.5 46C114 40.5 114 35.5 114 28C114 25.5 113 19.5 115 17.5C116.5 15.5 122.5 15 123.5 17.5C125 20 124 24.5 124 27.5C124 35 125 43.5 124 51C123.5 54.5 122.5 59 118.5 59C114 59.5 111.5 52.5 108.5 49.5C105.5 52.5 100.5 63 94.5 58.5C92 57 92.5 51 88.5 51.5C83 52 83 64 75.5 58.5C74.5 57.5 74 57 73 56M52.5 53L52 43.5L46.5 37.5L43.5 32.5L35 25.5C33 27.5 31.5 30.5 29.5 32.5C17 44.5 16 10 30.5 17C32.5 18 33.5 19.5 35 21C37.5 18.5 39 17 42.5 16.5M157 51.5C155.5 46 156.5 38.5 156.5 32.5C156.5 30 156 26.5 157 24.5C159.5 19.5 167 14.5 172.5 17C179.5 19.5 179.5 27 183.5 31.5M215 18C218.5 14.5 224 17 225 21.5C226 27 221 28.5 221 33C220.5 35.5 223 37.5 224 40C225.5 45 226 52 223.5 57C220 65 213.5 53.5 210 53.5C206 53 205.5 60 200.5 59.5C195.5 59 197 53.5 194.5 50.5C192.5 48 189 49 187 47C183.5 43.5 185 36.5 185 32M141 58.5C141 46.5 140 34 141.5 22C142 18.5 148 16 151.5 18C153 19.5 155 22.5 156.5 24M194.5 18.5L193.5 26.5M206 18.5L206 23.5M57.5 19C57.5 27 58 36.5 52 42.5M104 19.5L113.5 19M48 19.5L48 27L55 35M175.5 20C171 24.5 171.5 29 171.5 35L182.5 30.5M35 21L35 25.5M215 24C215 28.5 214 31.5 209 30.5M48 28L44 32M206 28L202 32M72.5 29C74.5 32 75 38 73 41M215 29.5L220.5 32M51.5 31.5L46 37M22 35.5L20 58.5M56 35.5L64.5 35.5M157 35.5L171 35.5M172 35.5L172.5 41.5M203.5 36.5L209.5 52M141.5 40.5L156 40.5M108.5 46L108.5 49.5M185 46L185 59M195 49L195 50"/>
 </g>
 <g fill="none" stroke="#1e4764" stroke-width="1">
  <path d="M7 7C9.5 5 18 6.5 21 6.5L60.5 6.5C104 6.5 147 6 190.5 6.5C201.5 6.5 213 6.5 224 6.5C227.5 6.5 234.5 5 238 7C240.5 8 239 18 239 20.5L239 57C239 60 240.5 67.5 238 69.5C236 72 227.5 70.5 224.5 70.5L185 70.5L57.5 70.5L21.5 70.5C17.5 70.5 10.5 72 7 70C4.5 69 6 59 6 56.5L6 19.5C6 17 4.5 8.5 7 7M42.5 7C42.5 9.5 42 13.5 43.5 15.5C45 17.5 48 17 48.5 20C49 24.5 43 28.5 40.5 31C44 34 51 40 52.5 44.5C54 50.5 46.5 65 39.5 58.5C37.5 56 37 52 37 49M191 7C191 11.5 190.5 14.5 194 18C197.5 15.5 203 15 206 18.5C209 16.5 211 17.5 214 17C220 16.5 225.5 16 225.5 24C225 28 219.5 30 220 33.5C220.5 35.5 222.5 37 223.5 39C225.5 43.5 226.5 54.5 222.5 58.5C217.5 64 214 53.5 210 53.5C205.5 53 205 62.5 198.5 59C195.5 57 196.5 53 194.5 50.5C192 47.5 187.5 49 185.5 45C184 42 185.5 39 185 36C184.5 31.5 178.5 32 175 32.5C172.5 33 172 35.5 170 36C167 36.5 159 34 157 37C156 38 156.5 41.5 156.5 43C156.5 48.5 156.5 58 164 59C175.5 60.5 173.5 43 171.5 36M72.5 36C69 36 59 37.5 57 35C54.5 32.5 57 29 57.5 26.5C58 24 56.5 21 57.5 18.5C59 16.5 70.5 13.5 72.5 14C75.5 15.5 73 26 73 29C73 35 73.5 41.5 73.5 47.5C73.5 50 74 53 73 55.5C72 59 60.5 60.5 57 58.5C55.5 57.5 54 54.5 52.5 53M40.5 31C38.5 29.5 36 27.5 35 25.5C32 19.5 38 17 42.5 16M89 50.5C89 42 87 29.5 89.5 21.5C91.5 16.5 98.5 15 103 18C105 19.5 106.5 22.5 108.5 24.5C110.5 22.5 112.5 18.5 115 17C117 15.5 122.5 15 123.5 17.5C124.5 20 124 24 124 26.5C124 33.5 124 40.5 124 47.5C124 51 124 57.5 120 58.5C114.5 60.5 111.5 52.5 108.5 49.5C105.5 52.5 100.5 63 94.5 58.5C92 57 92.5 51 88.5 51.5C83 52 83.5 63.5 76 58.5C75 58 74.5 57.5 73.5 56.5M20 58.5C20 51.5 21.5 44.5 21.5 38C21.5 32.5 19.5 26.5 21 21C23 14 31 17 34.5 20.5M66.5 16.5L72.5 21.5M156 40.5C153 40.5 144.5 42 142 40C140 38.5 141 34 141 32C141.5 26 141 15 150.5 17.5C152 18 155 24 156.5 25.5C159 23 161 19 164 17.5C173.5 12.5 180.5 23 180.5 31.5M214 18C214 23.5 212.5 30.5 219.5 32.5M193.5 18.5C193 25.5 190.5 30 185 34.5M206 18.5C206 24.5 208 24 213.5 24M49 19.5L57 19M175.5 20C171.5 24 172 27.5 172 33M48.5 24L48.5 27.5C51.5 27.5 53.5 27.5 56 29.5M206.5 24C206.5 28.5 210.5 31 214 28M108.5 24.5L108.5 49.5M34.5 25.5L29 34.5L22.5 37.5M156.5 25.5L156.5 35.5M193 26.5C199 32 201 32.5 206.5 27M48.5 27.5L43.5 32.5M201.5 33L205.5 39.5L209.5 52M56 35.5C56 39 55 40.5 52.5 43M141.5 40.5L141 58.5M185 46L185 59M195 49L195 50"/>
 </g>
 <g fill="none" stroke="#573e1b" stroke-width="1">
  <path d="M7 7C9.5 5 18 6.5 21 6.5L60.5 6.5L188 6.5L223.5 6.5C227.5 6.5 234.5 5 238 7C240.5 8 239 18 239 20.5L239 57C239 60 240.5 67.5 238 69.5C236 72 227.5 70.5 224.5 70.5L185 70.5L57.5 70.5L21.5 70.5C17.5 70.5 10.5 72 7 70C4.5 69 6 59 6 56.5L6 19.5C6 17 4.5 8.5 7 7M125.5 7C125.5 11 124 14 124 17.5C123.5 28 124.5 38.5 124 49C123.5 53.5 122.5 61 116 58.5C114 57.5 114 55.5 112.5 54C111.5 52 109 51 108.5 48.5C107 41.5 110.5 33 108 26C107.5 24.5 106 23.5 105 22C104 20.5 103.5 18.5 102.5 17.5C97.5 13 92.5 18 89 21.5L85 16.5M52.5 53C52.5 50 53.5 45.5 51.5 43C50 40.5 43 36.5 44 32.5C45 30.5 47.5 28.5 49 27C54 22.5 59 16 66 16C68 16 71 15.5 72 17C74 19.5 73 24.5 73 27C73 35.5 75 46 73.5 54.5C72.5 59 61 61 57 58.5C55.5 57.5 55 54 52.5 54C50 53.5 48 58 46 59C39 62.5 37.5 53.5 37 49M108.5 25.5L114.5 17.5L123.5 16M20 58.5C20 52 21.5 44.5 21.5 38C21 34.5 20 31 20 27.5C20 24.5 20.5 19 23.5 17C25.5 16 29 16 31 17.5C32 18 33.5 20 35 19.5C36.5 19.5 38 17.5 39.5 17C46 15.5 48 20 52 24M141 58.5C141 52 141.5 46 141.5 39.5C141.5 34.5 140.5 29.5 141 24.5C142 20 145 14.5 151 17.5C152.5 18 151.5 21 152.5 22.5C153 24.5 155 26 156.5 27.5C159.5 24.5 160.5 21 163.5 18C166.5 14.5 173.5 16.5 175 20.5C176 22.5 174.5 25.5 176 27.5C177.5 30 180.5 31.5 182.5 33C181 36.5 182.5 41 185 43.5C188 40.5 189.5 36.5 187 33L193 26C194.5 27.5 198.5 32.5 201 32C207.5 30 210.5 19.5 216.5 17C223 15 226.5 21.5 222 26C220 28 218.5 29.5 217 31.5C223.5 36 226 44 224.5 51.5C224 55.5 223 61 217.5 59C215 58.5 214.5 56 212.5 54.5C211 53.5 208.5 54 207 52.5C204.5 49.5 206.5 44.5 206 41C205.5 38 203 36 201.5 33M193 26C193.5 24 193 21.5 194 20C198 12 206 20 210 23M34.5 20.5C34.5 25.5 38.5 31 43.5 32.5M89 21.5L89 41C89 43.5 89.5 47.5 88.5 50C85.5 56.5 80 62.5 73.5 56.5M50 22L41 31M208 22L199 31M210.5 23L217 31.5M54 24C57 27.5 54.5 31 56.5 34.5C58.5 37.5 69 36 72.5 36M225.5 24C224.5 27.5 222 30 219.5 32.5M34.5 25.5L29 34.5L22.5 37.5M156.5 27.5C156.5 32 156.5 37 156.5 41.5C156.5 44.5 156 48 157 51C157.5 53 158.5 54 160 55.5C162.5 58.5 168.5 61.5 171.5 56.5C173.5 53 173 47.5 172.5 43.5C172.5 42 172.5 37.5 171 36.5C168.5 34.5 160 36 157 36M175.5 28L171 36M182.5 33L187 33M56 35.5C56 39 55 40.5 52.5 43M142 40.5L156 40.5M207 42C212 45 216.5 48 211.5 53.5M185 43.5C186.5 49 191 47 194 50C196.5 52.5 198.5 65.5 205 58C206 56.5 207 55 208 54M185 46L185 59M195 49L195 50M108.5 50C105.5 53 100.5 63 94.5 58.5C92 57 91 52.5 89 50.5M157 52.5L152.5 58.5"/>
 </g>
 <g fill="none" stroke="#010102" stroke-width="1">
  <path d="M7 7C9.5 5 18 6.5 21 6.5L60.5 6.5L188 6.5L223.5 6.5C227.5 6.5 234.5 5 238 7C240.5 8 239 18 239 20.5L239 57C239 60 240.5 67.5 238 69.5C236 72 227.5 70.5 224.5 70.5L185 70.5L57.5 70.5L21.5 70.5C17.5 70.5 10.5 72 7 70C4.5 69 6 59 6 56.5L6 19.5C6 17 4.5 8.5 7 7M125.5 7C125.5 11 124 14 124 17.5C123.5 27.5 124.5 37.5 124.5 47.5C124.5 51 124.5 58 120 59C114.5 60.5 111.5 53 108.5 50C104 54.5 103.5 59 96.5 59C92 59 93.5 50.5 88.5 51.5C84 52 84.5 58.5 80.5 59.5C77 60 76 57.5 73 57C68 57 63 61 58 59C55.5 58 55.5 53.5 52.5 53.5C50 53 48 57.5 46.5 58.5C40.5 62.5 37 55 37.5 50.5M52.5 52.5C52.5 50 52 46.5 52.5 44C53 42 55 41 55.5 39C57.5 35 56.5 27 53.5 24C55.5 22 57 19 59 17.5C61.5 15.5 71 14.5 72.5 18C74 21 73 26.5 73 30C73 39 73.5 47.5 73.5 56.5M85 16.5L89 21.5C90.5 20 92 18.5 93.5 17C100.5 12 104.5 21.5 108.5 25.5L114.5 17.5L123.5 16M34.5 20.5C34.5 24.5 32 32 28.5 34.5C26.5 36.5 21.5 38.5 20.5 35C18.5 30.5 19.5 18 25 16.5C29.5 15.5 31 19 34.5 19.5C36.5 20 38 17.5 39.5 17C46 15.5 48 20 52 24C50 26 44.5 30 44 33C43.5 36.5 50 41 52.5 43.5M141 58.5C141 52 141.5 45.5 141.5 39C141.5 34 140.5 29.5 141 24.5C142 20 145 14.5 151 17.5C152.5 18 151.5 21 152.5 22.5C153 24.5 155 26 156.5 27.5C159.5 24.5 160.5 21 163.5 18C166.5 14.5 173.5 16.5 175 20.5C176 22.5 174.5 25.5 176 27.5C177.5 30 180.5 31.5 182.5 33C181 37 182.5 40.5 185 43.5C188 40.5 189.5 36.5 187 33L193 26C194.5 27.5 198.5 32.5 201 32C207.5 30 210.5 19.5 216.5 17C223 15 226.5 21.5 222 26C220 28 218.5 29.5 217 31.5C223.5 36 226 44 225 51.5C224.5 55.5 223 60.5 218 59.5C215.5 59 214.5 56.5 213 55C211 53 208.5 51.5 207.5 49C206.5 46 207 42.5 205.5 39.5C204.5 37 202.5 35.5 201.5 33M193 26C193.5 24 193 21.5 194 20C198 12 206 20 210 23M89 21.5L89 50.5M50 22L41 31.5L42 32.5L43.5 32.5M208 22L199 31M210.5 23L217 31.5M52 24L53.5 24M225.5 24C224.5 27.5 222 30 219.5 32.5M34.5 25L41 31.5M108.5 25.5L108.5 50M156.5 27.5C156.5 38 152 40.5 142 40.5M175.5 28C173.5 30 172.5 35 170.5 35.5C167.5 37 159.5 34 157.5 37C155.5 40 156.5 52.5 158.5 55C164 61 171 60 172.5 52C173 50 173 47.5 173 45.5C173 42.5 172.5 39 171.5 36M182.5 33L187 33M156 35.5L157 36.5M56.5 36L72.5 36M22 37.5C19 43 20 52.5 20 58.5M185 43.5C186 46.5 192.5 52 195.5 50.5M185 46L185 57M195.5 52C195.5 56.5 199 61.5 204 59C206 57.5 207.5 54.5 209.5 52.5"/>
 </g>
</svg>